<?xml version="1.0" encoding="UTF-8"?>
<svg width="24px" height="24px" viewBox="0 0 24 24" version="1.1" xmlns="http://www.w3.org/2000/svg" xmlns:xlink="http://www.w3.org/1999/xlink">
    <title>FF827A0F-922B-4F50-BDDA-08DD39B2E04D</title>
    <g id="Sheet" stroke="none" stroke-width="1" fill="none" fill-rule="evenodd">
        <g id="Iconography" transform="translate(-278.000000, -1963.000000)" fill="#ED8C00">
            <g id="Icon/Functional/close" transform="translate(278.000000, 1963.000000)">
                <path d="M20.6010055,3.39899451 C20.0690128,2.86700183 19.2064822,2.86700183 18.6744896,3.39899451 L12,10.0734841 L5.32551044,3.39899451 C4.79351775,2.86700183 3.93098719,2.86700183 3.39899451,3.39899451 C2.86700183,3.93098719 2.86700183,4.79351775 3.39899451,5.32551044 L10.0734841,12 L3.39899451,18.6744896 C2.86700183,19.2064822 2.86700183,20.0690128 3.39899451,20.6010055 C3.93098719,21.1329982 4.79351775,21.1329982 5.32551044,20.6010055 L12,13.9265159 L18.6744896,20.6010055 C19.2064822,21.1329982 20.0690128,21.1329982 20.6010055,20.6010055 C21.1329982,20.0690128 21.1329982,19.2064822 20.6010055,18.6744896 L13.9265159,12 L20.6010055,5.32551044 C21.1329982,4.79351775 21.1329982,3.93098719 20.6010055,3.39899451 Z" id="♣️-Icon"></path>
            </g>
        </g>
    </g>
</svg>