<svg xmlns="http://www.w3.org/2000/svg" width="24" height="24" viewBox="0 0 24 24">
    <g fill="none" fill-rule="evenodd">
        <g fill="#ED8C00">
            <g>
                <path d="M18.51 4.398c-3.718-3.197-9.302-3.197-13.02 0C1.238 8.053.87 14.378 4.389 18.493c.276.324.766.349 1.067.048l3.256-3.255 8.948-8.949c3.13 3.13 3.13 8.192 0 11.32-2.422 2.423-6.001 2.964-8.947 1.635-.296-.164-.72-.278-1.025-.199-.472.122-1.423.753-1.486.874-.03.052-.074.174-.025.2l.556.345.125.068c3.842 2.3 8.911 1.799 12.218-1.507 4.079-4.08 3.89-10.843-.566-14.675" transform="translate(-1214 -2083) translate(1214 2083) rotate(180 12 11.998)"/>
            </g>
        </g>
    </g>
</svg>
