<svg xmlns="http://www.w3.org/2000/svg" width="24" height="24" viewBox="0 0 24 24">
    <g fill="none" fill-rule="evenodd">
        <g fill="#adb5c5">
            <g>
                <g>
                    <path d="M.586.111c.152-.14.367-.108.591-.108h1.241c.254 0 .476.171.544.418l2.4 8.723h8.393l1.895-5.713H5.865c-.225 0-.439.035-.592-.106-.203-.187-.585-.851-.585-.928 0-.034.01-.109.04-.109h11.707c.386 0 .658.384.535.753l-2.273 6.856c-.078.233-.293.39-.536.39H5.676l.32 1.167c.903.134 1.632.809 1.857 1.688l4.623.006c.252-.982 1.132-1.71 2.179-1.71 1.243 0 2.253 1.024 2.253 2.281 0 1.258-1.01 2.281-2.253 2.281-1.048 0-1.928-.728-2.18-1.71l-4.622-.005C7.6 15.269 6.718 16 5.668 16c-1.246 0-2.26-1.026-2.26-2.286 0-.973.604-1.803 1.452-2.133L1.99 1.146H.04C.01 1.146 0 1.073 0 1.039 0 .962.382.299.586.11zM5.668 12.57c-.623 0-1.13.513-1.13 1.144 0 .63.507 1.143 1.13 1.143.623 0 1.13-.513 1.13-1.143 0-.631-.507-1.144-1.13-1.144zm8.987.011c-.62 0-1.125.51-1.125 1.138 0 .628.505 1.138 1.125 1.138s1.124-.51 1.124-1.138c0-.627-.504-1.138-1.124-1.138zm-4.522-5.718c.225 0 .439-.035.592.106.203.187.585.851.585.928 0 .034-.01.109-.04.109H7.9c-.225 0-.439.032-.592-.108-.203-.188-.585-.85-.585-.928 0-.034.01-.107.04-.107zm0-2.273c.225 0 .439-.033.592.107.203.187.585.85.585.928 0 .034-.01.107-.04.107H6.844c-.225 0-.439.035-.592-.106-.203-.187-.585-.85-.585-.929 0-.033.01-.107.04-.107z" transform="translate(-589 -984) translate(589 984) translate(2 4)"/>
                </g>
            </g>
        </g>
    </g>
</svg>
