<?xml version="1.0" encoding="UTF-8"?>
<svg width="24px" height="24px" viewBox="0 0 24 24" version="1.1" xmlns="http://www.w3.org/2000/svg" xmlns:xlink="http://www.w3.org/1999/xlink">
    <title>DE8B9A71-DE90-409C-BBF2-DBFDD25B499B</title>
    <g id="Sheet" stroke="none" stroke-width="1" fill="none" fill-rule="evenodd">
        <g id="Iconography" transform="translate(-381.000000, -1963.000000)" fill="#ED8C00">
            <g id="Icon/Functional/hamburger" transform="translate(381.000000, 1963.000000)">
                <path d="M3.47217483,17.1872947 C3.85014645,16.9422806 4.3798653,17.0080161 4.93565115,17.0080161 L4.93565115,17.0080161 L21.8750997,17.0080161 C22.0439873,17.0080161 21.997995,17.1464806 21.9823436,17.1872947 C21.9306921,17.3219865 21.0999892,18.378501 20.5954064,18.7051864 C20.5721323,18.7204583 20.5432724,18.7284262 20.5190673,18.7423701 C20.2714307,18.9010648 19.9474551,19 19.5890337,19 L19.5890337,19 L2.12506908,19 C2.04779902,19 1.95586311,18.9010648 2.02359394,18.758306 C2.08778726,18.6230032 2.96852299,17.513316 3.47217483,17.1872947 Z M3.47217483,11.1872947 C3.85014645,10.9422806 4.3798653,11.0080161 4.93565115,11.0080161 L4.93565115,11.0080161 L21.8750997,11.0080161 C22.0439873,11.0080161 21.997995,11.1464806 21.9823436,11.1872947 C21.9306921,11.3219865 21.0999892,12.378501 20.5954064,12.7051864 C20.5721323,12.7204583 20.5432724,12.7284262 20.5190673,12.7423701 C20.2714307,12.9010648 19.9474551,13 19.5890337,13 L19.5890337,13 L2.12506908,13 C2.04779902,13 1.95586311,12.9010648 2.02359394,12.758306 C2.08778726,12.6230032 2.96852299,11.513316 3.47217483,11.1872947 Z M3.47217483,5.18729467 C3.85014645,4.94228065 4.3798653,5.00801612 4.93565115,5.00801612 L4.93565115,5.00801612 L21.8750997,5.00801612 C22.0439873,5.00801612 21.997995,5.14648062 21.9823436,5.18729467 C21.9306921,5.32198649 21.0999892,6.37850103 20.5954064,6.70518639 C20.5721323,6.72045826 20.5432724,6.7284262 20.5190673,6.74237008 C20.2714307,6.9010648 19.9474551,7 19.5890337,7 L19.5890337,7 L2.12506908,7 C2.04779902,7 1.95586311,6.9010648 2.02359394,6.75830596 C2.08778726,6.62300324 2.96852299,5.51331603 3.47217483,5.18729467 Z" id="♣️-Icon"></path>
            </g>
        </g>
    </g>
</svg>