<svg xmlns="http://www.w3.org/2000/svg" xmlns:xlink="http://www.w3.org/1999/xlink" width="24" height="24" viewBox="0 0 24 24">
    <defs>
        <path id="ey6yw4e8sa" d="M12.642.094c0 .068-.344.65-.527.814-.137.124-.33.095-.532.095H1.015v11.994H17.05V6.923c0-.2-.029-.39.096-.525.167-.181.756-.52.824-.52.03 0 .096.008.096.036v7.584c0 .277-.228.502-.508.502H.507C.228 14 0 13.775 0 13.498V.502C0 .225.227 0 .508 0h12.097c.028 0 .037.064.037.094zM7.094 10.461c0 .299.243.54.544.54.3 0 .544-.241.544-.54V5.263c0-.3-.244-.541-.544-.541-.3 0-.544.242-.544.54v5.199zm-2.144 0c0 .299.243.54.544.54.3 0 .544-.241.544-.54V5.263c0-.3-.243-.541-.544-.541-.3 0-.544.242-.544.54v5.199zm-2.144 0c0 .299.244.54.544.54.3 0 .545-.241.545-.54V5.263c0-.3-.244-.541-.545-.541-.3 0-.544.242-.544.54v5.199zm11.685-4.925c-.019.02.024.07.046.09.051.046.715.182.96.158.183-.019.289-.18.423-.33l1.951-2.161c.003-.003.004-.008.007-.01.161-.188.164-.458 0-.649l-.007-.011c-.153-.17-2.148-2.468-2.374-2.49-.245-.025-.909.111-.96.157-.022.02-.065.07-.046.09l1.874 2.076H12.28c-.2 0-.392.047-.528.17-.182.165-.524.71-.524.777 0 .03.01.056.037.056h5.101l-1.874 2.077z"/>
    </defs>
    <g fill="none" fill-rule="evenodd">
        <g>
            <g>
                <g transform="translate(-900 -202) translate(900 202) translate(3 5)">
                    <use fill="#adb5c5" xlink:href="#ey6yw4e8sa"/>
                </g>
            </g>
        </g>
    </g>
</svg>
