<?xml version="1.0" encoding="UTF-8"?>
<svg width="24px" height="24px" viewBox="0 0 24 24" version="1.1" xmlns="http://www.w3.org/2000/svg" xmlns:xlink="http://www.w3.org/1999/xlink">
    <title>C2D0114F-76B2-4AB5-B983-7A46F6BAA4F2</title>
    <g id="Sheet" stroke="none" stroke-width="1" fill="none" fill-rule="evenodd">
        <g id="Iconography" transform="translate(-797.000000, -423.000000)" fill="#d4d9e3">
            <g id="Icon/General/search" transform="translate(797.000000, 423.000000)">
                <g id="♣️-Icon-2" transform="translate(3.000000, 3.000000)">
                    <path d="M7,12.5996 C3.912,12.5996 1.4,10.0876 1.4,6.9996 C1.4,3.9116 3.912,1.4006 7,1.4006 C10.088,1.4006 12.6,3.9116 12.6,6.9996 C12.6,10.0876 10.088,12.5996 7,12.5996 M17.318,16.6706 C17.298,16.4256 17.136,16.2166 16.941,16.0226 L12.387,11.4676 C13.394,10.2556 14,8.6996 14,6.9996 C14,3.1336 10.866,-0.0004 7,-0.0004 C3.134,-0.0004 0,3.1336 0,6.9996 C0,10.8666 3.134,13.9996 7,13.9996 C8.699,13.9996 10.256,13.3946 11.468,12.3876 L17.007,17.9256 C17.034,17.9526 17.077,17.9256 17.103,17.9006 C17.166,17.8376 17.344,16.9966 17.318,16.6706" id="Fill-1"></path>
                </g>
            </g>
        </g>
    </g>
</svg>
