<?xml version="1.0" encoding="UTF-8"?>
<svg width="24px" height="24px" viewBox="0 0 24 24" version="1.1" xmlns="http://www.w3.org/2000/svg" xmlns:xlink="http://www.w3.org/1999/xlink">
    <title>FCEC9B6F-7444-47C3-9064-80A549D9B673</title>
    <defs>
        <path d="M12.0079864,14.2184785 C12.2881728,15.2040011 13.2087851,15.9620953 14.3695571,15.9620953 C15.6904356,15.9620953 16.811181,14.9007634 16.811181,13.6499079 C16.811181,12.3990524 15.7304622,11.3377205 14.3695571,11.3377205 C13.2488117,11.3377205 12.2881728,12.0958147 12.0079864,13.0813372 L8.48564374,13.0813372 C8.24548401,12.1716241 7.44495158,11.4893393 6.48431267,11.3377205 L6.12407307,10.1626744 L15.2901694,10.1626744 C15.5703557,10.1626744 15.7704888,10.0110555 15.8505421,9.74572256 L17.971953,3.07449329 C18.0920329,2.69544617 17.8118465,2.31639905 17.4115803,2.31639905 L5.16343416,2.31639905 C5.12340754,2.31639905 5.12340754,2.39220848 5.12340754,2.43011319 C5.12340754,2.50592261 5.52367375,3.18820742 5.76383348,3.37773098 C5.92393997,3.52934983 6.16409969,3.49144512 6.40425942,3.49144512 L16.5710213,3.49144512 L14.8899032,8.98762832 L5.8038601,8.98762832 L3.20212971,0.421163464 C3.12207647,0.155830482 2.88191674,0.00421163464 2.60173039,0.00421163464 L1.28085188,0.00421163464 C1.04069216,0.00421163464 0.800532428,-0.0336930771 0.640425942,0.11792577 C0.440292835,0.307449329 1.77635684e-15,0.989734141 1.77635684e-15,1.06554356 C1.77635684e-15,1.10344828 1.77635684e-15,1.1792577 0.0400266214,1.1792577 L2.12141093,1.1792577 L5.20346078,11.4893393 C4.28284849,11.8304817 3.64242255,12.6643854 3.64242255,13.6499079 C3.64242255,14.9386681 4.72314132,16 6.08404645,16 C7.28484509,15.9620953 8.24548401,15.2040011 8.48564374,14.2184785 L12.0079864,14.2184785 Z M15.650409,13.6499079 C15.650409,14.294288 15.0900363,14.8249539 14.4095837,14.8249539 C13.7291311,14.8249539 13.1687584,14.294288 13.1687584,13.6499079 C13.2087851,13.0055278 13.7691578,12.4748618 14.4095837,12.4748618 C15.0900363,12.4748618 15.650409,13.0055278 15.650409,13.6499079 Z M6.08404645,14.7870492 C5.40359389,14.7870492 4.84322119,14.2563833 4.84322119,13.6120032 C4.84322119,12.9676231 5.40359389,12.4369571 6.08404645,12.4369571 C6.80452564,12.4369571 7.32487171,12.9676231 7.32487171,13.6120032 C7.32487171,14.2563833 6.76449902,14.7870492 6.08404645,14.7870492 Z" id="path-1"></path>
    </defs>
    <g id="Sheet" stroke="none" stroke-width="1" fill="none" fill-rule="evenodd">
        <g id="Iconography" transform="translate(-798.000000, -664.000000)">
            <g id="Icon/General/shopping_cart" transform="translate(798.000000, 664.000000)">
                <g id="♣️-Icon-2" transform="translate(2.000000, 4.000000)">
                    <mask id="mask-2" fill="white">
                        <use xlink:href="#path-1"></use>
                    </mask>
                    <use id="♣️-Icon" fill="#adb5c5" xlink:href="#path-1"></use>
                </g>
            </g>
        </g>
    </g>
</svg>
