<?xml version="1.0" standalone="no"?>
<!DOCTYPE svg PUBLIC "-//W3C//DTD SVG 1.1//EN" "http://www.w3.org/Graphics/SVG/1.1/DTD/svg11.dtd" >
<svg xmlns="http://www.w3.org/2000/svg" xmlns:xlink="http://www.w3.org/1999/xlink" version="1.1">
<metadata></metadata>
<defs>
<font id="postnlwebbold_italic" horiz-adv-x="573" >
<font-face units-per-em="1000" ascent="750" descent="-250" />
<missing-glyph horiz-adv-x="190" />
<glyph unicode="&#xfb01;" horiz-adv-x="617" d="M-17 -199l25 107q12 50 20 99l66 369h-68l19 109h69l6 32q8 45 30.5 83.5t59.5 62.5q34 23 77.5 35t103.5 12q47 0 84 -3.5t70 -10.5l-34 -118q-55 11 -114 11t-93 -19q-35 -20 -42 -62l-5 -23h327l-94 -485h-143l72 376h-181l-61 -342q-11 -62 -24.5 -118t-31.5 -115 h-138z" />
<glyph unicode="&#xfb02;" horiz-adv-x="614" d="M-17 -199l25 107q12 50 20 99l66 369h-68l21 109h67l6 32q11 56 32 90.5t57 58.5q32 23 85 33.5t117 10.5q54 0 110.5 -7.5t99.5 -18.5l-132 -684h-144l113 589q-14 2 -31.5 3.5t-41.5 1.5q-30 0 -52 -5.5t-34 -14.5q-27 -18 -37 -67l-4 -22h90l-21 -109h-89l-61 -342 q-11 -62 -24.5 -118t-31.5 -115h-138z" />
<glyph unicode="&#xfb03;" horiz-adv-x="942" d="M-17 -199q14 57 25 107t20 99l66 369h-68l21 109h67l4 32q6 43 21.5 78.5t42.5 61t66 39.5t91 14q17 0 41.5 -3t41.5 -8l-33 -116q-8 2 -21.5 4t-27.5 2q-35 0 -55 -18.5t-25 -61.5l-3 -24h182l5 32q7 45 30 83.5t60 62.5q34 23 77.5 35t103.5 12q47 0 84 -3.5t70 -10.5 l-34 -118q-55 11 -114 11t-93 -19q-35 -20 -42 -62l-4 -23h327l-94 -485h-143l72 376h-181l-61 -342q-11 -62 -24.5 -118t-31.5 -115h-138q14 57 25 107t20 99l66 369h-181l-61 -342q-11 -62 -24.5 -118t-31.5 -115h-138z" />
<glyph unicode="&#xfb04;" horiz-adv-x="937" d="M-17 -199q14 57 25 107t20 99l66 369h-68l19 109h69l4 32q6 43 21.5 78.5t42.5 61t66 39.5t91 14q17 0 41.5 -3t41.5 -8l-33 -116q-18 6 -49 6q-35 0 -53.5 -18.5t-26.5 -61.5l-3 -24h181l6 32q10 57 31 91t57 58q32 23 85.5 33.5t120.5 10.5q53 0 107 -7.5t99 -18.5 l-131 -684h-144l112 589q-14 2 -31.5 3.5t-41.5 1.5q-29 0 -51.5 -5.5t-34.5 -14.5q-26 -17 -36 -67l-4 -22h88l-19 -109h-88l-61 -342q-11 -62 -24.5 -118t-31.5 -115h-138q14 57 25 107t20 99l66 369h-181l-61 -342q-11 -62 -24.5 -118t-31.5 -115h-138z" />
<glyph horiz-adv-x="0" />
<glyph unicode="&#xd;" horiz-adv-x="0" />
<glyph unicode=" "  horiz-adv-x="190" />
<glyph unicode="&#x09;" horiz-adv-x="190" />
<glyph unicode="&#xa0;" horiz-adv-x="190" />
<glyph unicode="!" horiz-adv-x="275" d="M-8 37q0 14 3 29q8 42 28 62.5t66 20.5q38 0 52 -14.5t14 -39.5q0 -6 -1 -13t-4 -21q-8 -39 -28 -58t-65 -19q-40 0 -52.5 15t-12.5 38zM39 203l32 219l49 252h143l-49 -252l-54 -219h-121z" />
<glyph unicode="&#x22;" horiz-adv-x="467" d="M73 495l50 250h145l-74 -250h-121zM287 495l50 250h145l-74 -250h-121z" />
<glyph unicode="#" d="M-23 129l26 133h76l30 96h-88l27 133h103l51 158h135l-51 -158h87l50 158h135l-51 -158h61l-27 -133h-76l-30 -96h88l-26 -133h-104l-40 -129h-135l40 129h-86l-40 -129h-135l40 129h-60zM214 262h86l30 96h-86z" />
<glyph unicode="$" d="M14 16l37 154q26 -17 59 -26.5t65 -13.5l33 150q-57 26 -89 68t-32 113q0 47 19 88t55 72t86.5 49t113.5 18l17 86h67l-18 -90q33 -5 59 -12.5t45 -15.5l-38 -152q-46 26 -96 35l-29 -144q27 -13 48.5 -27.5t35.5 -33t21.5 -43t7.5 -58.5q0 -57 -19 -101.5t-53.5 -76 t-84.5 -49.5t-111 -20l-17 -79h-69l18 82q-36 3 -69 10t-62 17zM243 132q14 2 27.5 6.5t24 12.5t17 19.5t6.5 28.5q0 21 -14 33.5t-35 22.5zM252 479q0 -21 14.5 -34t39.5 -24l25 122q-79 -6 -79 -64z" />
<glyph unicode="%" horiz-adv-x="859" d="M55 430q0 24 3.5 52t12 55.5t21.5 53.5t32 47q22 23 52 37.5t69 14.5q53 0 83 -34t30 -98q0 -24 -3.5 -52t-11.5 -55.5t-21.5 -54t-32.5 -47.5q-22 -23 -52 -37t-68 -14q-54 0 -84 33.5t-30 98.5zM128 54l515 624l85 -58l-517 -629zM166 440q0 -26 5.5 -37t15.5 -11 q16 0 27.5 19.5t19 45t11 51.5t3.5 39q0 49 -21 49q-16 0 -27.5 -19.5t-19 -45.5t-11 -52t-3.5 -39zM499 116q0 24 3.5 52t12 55.5t21.5 53.5t32 47q22 23 52 37.5t69 14.5q53 0 83 -34t30 -98q0 -24 -3.5 -52t-11.5 -55.5t-21.5 -54t-32.5 -47.5q-22 -23 -52 -37t-68 -14 q-54 0 -84 33.5t-30 98.5zM610 126q0 -26 5.5 -37t15.5 -11q16 0 27.5 19.5t19 45t11 51.5t3.5 39q0 49 -21 49q-16 0 -27.5 -19.5t-19 -45.5t-11 -52t-3.5 -39z" />
<glyph unicode="&#x26;" horiz-adv-x="625" d="M16 126q0 63 39.5 113.5t107.5 85.5q-37 71 -37 149q0 41 14 80t41 69t66 48.5t89 18.5q73 0 112 -36t39 -97q0 -37 -13 -72.5t-35 -68t-49.5 -59t-56.5 -45.5l30 -42q15 -21 31 -41q17 26 32.5 61.5t24.5 65.5h110q-15 -51 -41.5 -106t-58.5 -103l6 -5q17 -17 33.5 -26 t37.5 -13l-22 -119q-52 3 -90 21t-64 47q-40 -29 -87 -48.5t-103 -19.5q-75 0 -115.5 38t-40.5 104zM158 153q0 -24 14.5 -40t43.5 -16q21 0 44 9.5t40 23.5l-43 56q-20 27 -39 56q-23 -14 -41.5 -37t-18.5 -52zM256 481q0 -26 5.5 -47t18.5 -44q35 26 55.5 61t20.5 77 q0 47 -36 47q-17 0 -29 -8t-19.5 -21.5t-11.5 -30.5t-4 -34z" />
<glyph unicode="'" horiz-adv-x="252" d="M73 495l50 250h145l-74 -250h-121z" />
<glyph unicode="(" horiz-adv-x="389" d="M23 186q0 77 22.5 150t63 140.5t95.5 129t121 116.5l71 -68q-51 -47 -92.5 -100.5t-71 -112t-46 -121t-16.5 -127.5q0 -82 20.5 -145.5t62.5 -127.5l-97 -67q-60 71 -96.5 153.5t-36.5 179.5z" />
<glyph unicode=")" horiz-adv-x="389" d="M-54 -80q51 47 92.5 100.5t71 112t46 121t16.5 127.5q0 82 -20.5 145.5t-63.5 127.5l97 68q61 -71 97 -154t36 -180q0 -77 -22.5 -150t-62.5 -140t-95 -128.5t-121 -116.5z" />
<glyph unicode="*" horiz-adv-x="370" d="M37 525l59 97l79 -54l6 106h102l-36 -108l101 56l22 -96l-114 -27l63 -81l-94 -62l-35 100l-74 -99l-69 64l92 78q-24 5 -51 13z" />
<glyph unicode="+" d="M53 191l26 126h137l30 148h133l-29 -148h140l-25 -126h-140l-29 -147h-134l29 147h-138z" />
<glyph unicode="," horiz-adv-x="252" d="M-54 -167l48 73q20 33 37 68q-43 16 -43 60q0 7 1 15t3 22q8 36 30 57t70 21q39 0 54.5 -16t15.5 -42q0 -42 -22.5 -91.5t-53.5 -97.5q-18 -29 -36 -54l-35 -46z" />
<glyph unicode="-" horiz-adv-x="291" d="M1 180l24 126h225l-24 -126h-225z" />
<glyph unicode="." horiz-adv-x="252" d="M-8 36q0 7 2 16l3 19q8 36 27 57t65 21q38 0 52 -13.5t14 -38.5q0 -6 -1 -15l-4 -19q-7 -36 -27 -57.5t-66 -21.5q-36 0 -50.5 14t-14.5 38z" />
<glyph unicode="/" horiz-adv-x="465" d="M-44 -16l383 710h150l-383 -710h-150z" />
<glyph unicode="0" d="M26 210q0 45 7 96t20.5 100.5t33.5 95.5t47 81q37 51 90 79t123 28q97 0 148 -54t51 -171q0 -43 -7 -93.5t-20.5 -101t-33.5 -97.5t-46 -82q-38 -51 -91 -79t-123 -28q-96 0 -147.5 54.5t-51.5 171.5zM192 220q0 -57 13 -79t39 -22q27 0 49.5 22.5t40.5 72.5 q20 56 33 118.5t13 121.5q0 57 -12.5 79t-38.5 22q-28 0 -50 -22.5t-40 -72.5q-20 -56 -33.5 -118.5t-13.5 -121.5z" />
<glyph unicode="1" d="M43 0l23 122h148l72 375l-141 -77l-11 135l220 119h111l-108 -552h133l-23 -122h-424z" />
<glyph unicode="2" d="M24 0l12 121l203 186l56 54q26 25 44.5 49t29 47.5t10.5 47.5q0 29 -19.5 41.5t-48.5 12.5q-35 0 -76.5 -13t-88.5 -37l8 134q49 23 102.5 35t105.5 12q40 0 73 -10t57 -29.5t37 -48t13 -65.5q0 -54 -21.5 -100.5t-56 -88t-76.5 -78.5l-83 -73l-88 -75h235l-23 -122h-405 z" />
<glyph unicode="3" d="M31 18l40 129q31 -14 70 -23.5t77 -9.5q57 0 88 27t31 77q0 41 -25 57t-74 16h-48l24 122h46q54 0 83.5 25.5t29.5 68.5q0 52 -80 52q-32 0 -68.5 -8.5t-73.5 -23.5l3 127q44 17 94.5 26.5t101.5 9.5q38 0 71.5 -7t58 -23.5t39 -42.5t14.5 -64q0 -66 -34.5 -116 t-89.5 -70v-3q41 -11 67.5 -45t26.5 -94q0 -55 -19.5 -99.5t-56 -76t-89 -48.5t-118.5 -17q-54 0 -102.5 9.5t-86.5 24.5z" />
<glyph unicode="4" d="M16 154l21 108l327 412h189l-78 -398h71l-24 -122h-71l-29 -154h-143l29 154h-292zM187 276h145l49 248z" />
<glyph unicode="5" d="M28 18l40 129q32 -14 72 -23.5t82 -9.5q121 0 121 119q0 32 -21 46t-66 14q-34 0 -65 -5t-60 -14l-27 28l73 372h368l-24 -122h-225l-26 -137q37 8 76 8q75 0 116.5 -37.5t41.5 -110.5q0 -66 -18.5 -120t-55 -92t-92 -58.5t-129.5 -20.5q-48 0 -94.5 9t-86.5 25z" />
<glyph unicode="6" d="M23 200q0 97 26.5 186t77.5 156.5t124.5 107.5t167.5 40q38 0 66 -4t48 -10l-44 -127q-17 5 -36.5 7.5t-40.5 2.5q-32 0 -59.5 -10t-50 -28t-38.5 -42t-24 -52q23 9 50 14t52 5q89 0 131.5 -44.5t42.5 -116.5q0 -61 -20 -115.5t-57.5 -96t-90.5 -65.5t-119 -24 q-107 0 -156.5 57t-49.5 159zM189 206q0 -40 12 -66t48 -26q25 0 44.5 14t32.5 35t19.5 46t6.5 48q0 33 -18.5 48t-49.5 15q-24 0 -43 -5.5t-36 -13.5q-16 -46 -16 -95z" />
<glyph unicode="7" d="M17 0l363 552h-281l24 122h438l-28 -126l-355 -548h-161z" />
<glyph unicode="8" d="M13 150q0 63 35.5 119.5t104.5 92.5q-26 21 -42.5 54t-16.5 75q0 41 18 77.5t50.5 63.5t79 42.5t103.5 15.5q85 0 132 -35.5t47 -104.5q0 -59 -31 -106t-85 -82q39 -20 63.5 -56t24.5 -90q0 -47 -20 -89t-56.5 -73.5t-88.5 -50.5t-116 -19q-44 0 -81 10.5t-64 31 t-42 51.5t-15 73zM169 175q0 -28 17.5 -45.5t49.5 -17.5q18 0 34.5 6.5t29.5 19t21 30.5t8 41q0 26 -17.5 47t-49.5 36q-18 -8 -34.5 -19t-29.5 -25.5t-21 -33t-8 -39.5zM247 493q0 -23 14 -40.5t36 -29.5q32 16 56 40.5t24 59.5q0 24 -14 37t-38 13q-31 0 -54.5 -22.5 t-23.5 -57.5z" />
<glyph unicode="9" d="M15 5l39 126q16 -7 39.5 -12t46.5 -5q31 0 57 8.5t46 23.5q22 17 37 43t26 58q-23 -9 -48.5 -14t-49.5 -5q-88 0 -131.5 44t-43.5 129q0 58 18.5 110t54.5 92t88 63.5t119 23.5q106 0 160 -52t54 -149q0 -52 -8.5 -109.5t-27.5 -113.5t-48.5 -107.5t-71 -90t-96 -61.5 t-122.5 -23q-41 0 -76.5 6t-61.5 15zM198 422q0 -39 18 -53.5t49 -14.5q23 0 43 5.5t36 13.5q8 23 12.5 50.5t4.5 50.5q0 43 -15 65.5t-49 22.5q-26 0 -44.5 -12.5t-30.5 -32.5t-18 -45t-6 -50z" />
<glyph unicode=":" horiz-adv-x="252" d="M-8 36q0 7 2 16l3 19q8 36 27 57t65 21q38 0 52 -13.5t14 -38.5q0 -6 -1 -15l-4 -19q-7 -36 -27 -57.5t-66 -21.5q-36 0 -50.5 14t-14.5 38zM60 387q0 7 2 15l3 20q8 36 27 57t65 21q38 0 52 -13.5t14 -38.5q0 -6 -1 -14l-4 -20q-7 -36 -27 -57.5t-66 -21.5 q-36 0 -50.5 14t-14.5 38z" />
<glyph unicode=";" horiz-adv-x="252" d="M-54 -167l48 73q20 33 37 68q-43 16 -43 60q0 7 1 15t3 22q8 36 30 57t70 21q39 0 54.5 -16t15.5 -42q0 -42 -22.5 -91.5t-53.5 -97.5q-18 -29 -36 -54l-35 -46zM64 387q0 7 2 15l3 20q8 36 27 57t65 21q38 0 52 -13.5t14 -38.5q0 -6 -1 -14l-4 -20q-7 -36 -27 -57.5 t-66 -21.5q-36 0 -50.5 14t-14.5 38z" />
<glyph unicode="&#x3c;" d="M99 208l16 104l317 181l50 -114l-226 -127v-4l166 -124l-68 -96z" />
<glyph unicode="=" d="M32 92l25 126h412l-26 -126h-411zM72 291l26 126h410l-25 -126h-411z" />
<glyph unicode="&#x3e;" d="M91 142l226 127v4l-166 124l68 96l255 -180l-16 -104l-317 -181z" />
<glyph unicode="?" horiz-adv-x="462" d="M61 32q0 12 0.5 19t2.5 15q8 42 28 62.5t66 20.5q38 0 52 -14t14 -34q0 -11 -1 -18.5t-4 -21.5q-8 -39 -28 -58t-65 -19q-40 0 -52.5 14.5t-12.5 33.5zM76 520l15 132q35 14 89 26t111 12q40 0 73 -9t56.5 -27.5t36.5 -47.5t13 -69q0 -41 -16.5 -77t-45.5 -65t-68 -50 t-85 -33l-33 -111h-113l25 194q25 4 55 11t56.5 20t44 32.5t17.5 47.5q0 52 -77 52q-39 0 -79 -10.5t-75 -27.5z" />
<glyph unicode="@" horiz-adv-x="802" d="M30 265q0 94 32.5 173t89.5 136.5t135.5 89.5t170.5 32q70 0 125 -18t93 -51.5t58.5 -81.5t20.5 -109q0 -54 -13.5 -103.5t-40.5 -86.5t-66.5 -59t-91.5 -22q-36 0 -64.5 13t-40.5 33q-34 -46 -91 -46q-48 0 -75.5 31.5t-27.5 97.5q0 41 10.5 80t30.5 69.5t49.5 49 t67.5 18.5q48 0 73 -31l11 21h77l-38 -194q-3 -14 -3 -24q0 -13 5 -19q8 -12 25 -12q19 0 34 15.5t25.5 40t16.5 54t6 57.5q0 85 -47.5 125.5t-139.5 40.5q-65 0 -117 -24t-89 -65.5t-56.5 -98.5t-19.5 -123q0 -90 50.5 -137.5t160.5 -47.5q32 0 62 2.5t66 8.5l-14 -107 q-24 -5 -62 -8t-73 -3q-160 0 -242.5 75.5t-82.5 207.5zM343 304q0 -29 9.5 -43t24.5 -14q16 0 27.5 8.5t21.5 21.5l27 134q-6 8 -16 12.5t-23 4.5q-20 0 -34 -12.5t-22 -31t-11.5 -40t-3.5 -40.5z" />
<glyph unicode="A" horiz-adv-x="609" d="M-47 0l85 186l90 186l84 168l71 134h171q9 -60 19 -143q9 -83 19 -175l19 -184l16 -172h-158l-4 128h-202l-52 -128h-158zM225 269h131q-2 52 -6.5 117t-10.5 123h-9l-28 -59l-28 -62l-26 -62z" />
<glyph unicode="B" horiz-adv-x="595" d="M7 0l130 674h193q49 0 84 -2t62 -10q38 -12 59.5 -43.5t21.5 -85.5q0 -32 -8.5 -61t-24.5 -52t-39.5 -39t-53.5 -22v-2q111 -17 111 -126q0 -75 -34 -129.5t-103 -78.5q-38 -13 -80.5 -18t-98.5 -5h-219zM191 138h47q28 0 53.5 3t44.5 12t30 26t11 45q0 36 -22.5 46.5 t-64.5 10.5h-71zM246 416h55q48 0 72 18.5t24 53.5q0 25 -13 37q-7 6 -19.5 8.5t-35.5 2.5h-60z" />
<glyph unicode="C" horiz-adv-x="552" d="M36 246q0 53 9 103.5t27 96.5t44.5 85t60.5 69q102 90 256 90q35 0 71 -7t67 -18l-41 -140q-24 10 -50.5 15.5t-58.5 5.5q-35 0 -67 -12.5t-57 -32.5q-48 -41 -72 -102t-24 -135q0 -66 30.5 -101t106.5 -35q27 0 61.5 5.5t66.5 17.5l-21 -140q-32 -12 -74 -19.5t-80 -7.5 q-131 0 -193 65.5t-62 196.5z" />
<glyph unicode="D" horiz-adv-x="649" d="M7 0l131 674h182q54 0 102 -5.5t82 -19.5q27 -12 48 -29.5t35 -43.5q15 -27 21 -63q5 -28 4 -62v-22q-2 -58 -12 -114.5t-29.5 -106t-48.5 -90t-69 -66.5q-23 -15 -49.5 -25t-59.5 -16t-73 -8.5t-91 -2.5h-173zM192 141h43q52 0 86.5 11.5t59.5 37.5q16 17 29 44.5 t21 59.5t12.5 65.5t4.5 63.5q0 64 -28.5 87t-92.5 23h-58z" />
<glyph unicode="E" horiz-adv-x="540" d="M7 0l131 674h413l-28 -141h-254l-24 -124h224l-28 -140h-224l-25 -128h258l-27 -141h-416z" />
<glyph unicode="F" horiz-adv-x="533" d="M7 0l130 674h413l-27 -141h-255l-24 -124h225l-28 -140h-225l-51 -269h-158z" />
<glyph unicode="G" horiz-adv-x="628" d="M36 243q0 91 27 172.5t79.5 142.5t129.5 96.5t178 35.5q51 0 92 -9t78 -23l-37 -142q-31 13 -67 21t-77 8q-60 0 -105 -23t-74.5 -61.5t-44 -89.5t-14.5 -108q0 -30 7 -56t21.5 -44.5t37.5 -29t55 -10.5q16 0 28.5 2t23.5 5l23 120h-76l25 128h234l-70 -355 q-107 -39 -209 -39q-128 0 -196.5 62t-68.5 197z" />
<glyph unicode="H" horiz-adv-x="664" d="M7 0l131 674h158l-51 -265h202l52 265h158l-131 -674h-158l51 269h-203l-51 -269h-158z" />
<glyph unicode="I" horiz-adv-x="311" d="M11 0l131 674h158l-131 -674h-158z" />
<glyph unicode="J" horiz-adv-x="442" d="M-35 6l31 127q40 -15 81 -15q52 0 83 37q14 17 22 40.5t16 58.5l82 420h159l-85 -427q-6 -30 -13 -59.5t-17.5 -56.5t-25.5 -50.5t-36 -41.5q-38 -32 -81.5 -43.5t-100.5 -11.5q-31 0 -60.5 6t-54.5 16z" />
<glyph unicode="K" horiz-adv-x="598" d="M7 0l131 674h158l-55 -284q33 34 61 67t54 67l50 71l55 79h160q-46 -74 -108 -157.5t-134 -161.5l130 -355h-179l-98 303h-8l-59 -303h-158z" />
<glyph unicode="L" horiz-adv-x="508" d="M7 0l131 674h158l-104 -533h258l-27 -141h-416z" />
<glyph unicode="M" horiz-adv-x="786" d="M-6 0q16 75 36 160l42 173l44 175l43 166h126l23 -94l27 -106l25 -106l21 -94l59 94l68 105l68 106l60 95h126l-22 -167l-24 -176l-26 -173q-13 -85 -26 -158h-147l15 94l16 91l14 91l15 96l-97 -162l-90 -147h-99l-32 147l-34 162l-23 -96l-20 -91l-20 -91l-20 -94h-148 z" />
<glyph unicode="N" horiz-adv-x="683" d="M7 0l131 674h128l193 -383l75 383h142l-131 -674h-122l-198 392l-75 -392h-143z" />
<glyph unicode="O" horiz-adv-x="665" d="M36 227q0 92 23.5 178t71.5 152q43 59 110.5 96t154.5 37q119 0 176 -64.5t57 -178.5q0 -95 -22.5 -179t-67.5 -147t-112.5 -100t-157.5 -37q-119 0 -176 64.5t-57 178.5zM202 242q0 -60 23 -87.5t64 -27.5q46 0 79 29.5t54 75t31 100t10 104.5q0 57 -23 84t-64 27 q-46 0 -79 -29.5t-54 -75t-31 -99t-10 -101.5z" />
<glyph unicode="P" horiz-adv-x="564" d="M7 0l135 674h167q55 0 93.5 -5.5t67.5 -17.5q35 -16 59.5 -54t24.5 -104q0 -130 -79.5 -201t-222.5 -71h-44l-43 -221h-158zM235 362h27q26 0 49 5t40.5 17t27.5 33.5t10 54.5q0 17 -5.5 28.5t-13.5 18.5q-12 9 -28.5 11.5t-41.5 2.5h-32z" />
<glyph unicode="Q" horiz-adv-x="665" d="M36 227q0 92 23.5 178t71.5 152q43 59 110.5 96t154.5 37q119 0 176 -64.5t57 -178.5q0 -72 -13 -138.5t-39.5 -123t-66 -99.5t-91.5 -69l86 -130l-142 -63l-72 161q-5 -1 -11 -1h-11q-119 0 -176 64.5t-57 178.5zM202 242q0 -60 23 -87.5t64 -27.5q46 0 79 29.5t54 75 t31 100t10 104.5q0 57 -23 84t-64 27q-46 0 -79 -29.5t-54 -75t-31 -99t-10 -101.5z" />
<glyph unicode="R" horiz-adv-x="572" d="M7 0l131 674h172q44 0 80.5 -3t67.5 -14q43 -17 68 -55t25 -100q0 -85 -33.5 -149.5t-106.5 -96.5l70 -256h-161l-52 222q-8 -1 -18 -1h-21h-21l-43 -221h-158zM235 359h27q61 0 93 26.5t32 87.5q0 20 -5 31t-13 18q-11 8 -26 10.5t-39 2.5h-35z" />
<glyph unicode="S" horiz-adv-x="532" d="M-2 16l36 150q33 -17 73.5 -28t76.5 -11q18 0 39 2.5t39.5 10t30.5 21t12 36.5q0 25 -19.5 39t-46.5 26l-50 21q-56 24 -88.5 65.5t-32.5 115.5q0 49 18 90.5t53.5 71.5t87.5 47t120 17q50 0 94 -10t74 -24l-37 -143q-31 15 -69 24t-76 9q-48 0 -73 -15q-13 -8 -20 -21.5 t-7 -27.5q0 -23 17 -35.5t52 -27.5l49 -23q59 -26 88.5 -64t29.5 -104q0 -56 -20 -101.5t-57.5 -77t-90.5 -48.5t-120 -17q-49 0 -95.5 9t-87.5 23z" />
<glyph unicode="T" horiz-adv-x="528" d="M59 533l28 141h474l-27 -141h-157l-103 -533h-158l102 533h-159z" />
<glyph unicode="U" horiz-adv-x="633" d="M36 164q0 35 11 93l81 417h158l-79 -409q-4 -19 -6 -35t-2 -34q0 -33 16.5 -51t61.5 -18q29 0 48.5 8.5t33 26t22.5 43t16 60.5l79 409h159l-82 -417q-14 -72 -36.5 -123.5t-57.5 -85t-85 -49t-119 -15.5q-113 0 -166 46t-53 134z" />
<glyph unicode="V" horiz-adv-x="594" d="M80 674h166q1 -50 4 -113t6 -127t7.5 -124t8.5 -103h4l49 105l56 126l55 126q27 62 44 110h162l-82 -180l-89 -186l-87 -171l-72 -137h-161q-9 55 -20 135t-21 171.5t-18 186.5t-12 181z" />
<glyph unicode="W" horiz-adv-x="888" d="M81 674h165q0 -51 -1 -114v-127v-124.5t2 -106.5h2l26 71l25 69l24 69l26 74l30 92l31 97h192q-3 -53 -4.5 -99.5t-2.5 -89.5q-2 -85 -2.5 -153t-2.5 -130h3l42 107l49 126l48 128l42 111h160l-74 -178l-78 -180l-75 -170l-66 -146h-180v57q0 85 2 175q3 120 10 237h-3 l-91 -254q-42 -116 -83 -215h-182q-5 70 -9 152l-10 170q-4 87 -8 176.5t-7 175.5z" />
<glyph unicode="X" horiz-adv-x="620" d="M-51 0l267 346l-31 84l-33 88l-30 84q-15 40 -25 72h167q13 -45 31 -100.5t36 -103.5h3l38 50l39 54l37 52l32 48h174l-117 -166q-66 -92 -139 -179l130 -329h-174l-71 202h-3l-149 -202h-182z" />
<glyph unicode="Y" horiz-adv-x="564" d="M78 674h158q10 -90 21 -158.5t28 -131.5h4l41 64q20 32 40 68l40 74l43 84h161q-29 -59 -59 -114t-63.5 -110t-72.5 -113l-85 -124l-41 -213h-158l44 225q-17 49 -32.5 103.5t-28.5 112.5t-23.5 117t-16.5 116z" />
<glyph unicode="Z" horiz-adv-x="547" d="M-36 0l23 115l350 418h-259l28 141h456l-23 -112l-354 -421h278l-27 -141h-472z" />
<glyph unicode="[" horiz-adv-x="351" d="M-25 -102l151 776h229l-20 -102h-93l-111 -572h93l-20 -102h-229z" />
<glyph unicode="\" horiz-adv-x="418" d="M64 694h151l105 -710h-149z" />
<glyph unicode="]" horiz-adv-x="351" d="M-54 -102l20 102h93l111 572h-93l20 102h229l-151 -776h-229z" />
<glyph unicode="^" d="M32 331l249 333h120l126 -359l-113 -49l-97 253h-3l-182 -241z" />
<glyph unicode="_" horiz-adv-x="485" d="M-91 -148l17 91h475l-18 -91h-474z" />
<glyph unicode="`" horiz-adv-x="398" d="M35 654l45 106l252 -132l-29 -84z" />
<glyph unicode="a" horiz-adv-x="511" d="M-2 107q0 51 22 90.5t61 66.5t93 41t119 14h16l1 6q1 5 1.5 10t0.5 8q0 22 -14.5 32t-57.5 10q-32 0 -71.5 -8.5t-80.5 -22.5l3 113q44 14 97.5 24t97.5 10q38 0 70 -5t55 -18t36 -36.5t13 -59.5q0 -13 -2 -28t-5 -32l-42 -215q-3 -18 4.5 -25t24.5 -6l-15 -81 q-13 -5 -32.5 -8t-39.5 -3q-42 0 -61.5 16t-20.5 44h-3q-25 -29 -61.5 -44.5t-77.5 -15.5q-60 0 -95.5 33t-35.5 90zM147 144q0 -41 48 -41q21 0 43 10t36 27l16 81h-10q-27 0 -48.5 -4t-38.5 -12q-20 -10 -33 -25.5t-13 -35.5z" />
<glyph unicode="b" horiz-adv-x="560" d="M8 36l128 654h143l-43 -225q26 17 58 26.5t67 9.5q72 0 113 -46.5t41 -131.5q0 -62 -14 -122.5t-47 -108.5t-87.5 -78t-135.5 -30q-55 0 -116 14.5t-107 37.5zM171 129q14 -6 31 -9.5t39 -3.5q34 0 57.5 16t38 41.5t21 58.5t6.5 68q0 74 -71 74q-20 0 -41.5 -7t-38.5 -19 z" />
<glyph unicode="c" horiz-adv-x="463" d="M22 181q0 69 18.5 127.5t55 101.5t91 67t125.5 24q42 0 75.5 -7t59.5 -18l-31 -123q-20 10 -46 15.5t-55 5.5q-64 0 -102.5 -43.5t-38.5 -126.5q0 -49 20.5 -72.5t68.5 -23.5q26 0 55.5 4.5t58.5 15.5l-18 -121q-62 -23 -137 -23q-98 0 -149 48.5t-51 148.5z" />
<glyph unicode="d" horiz-adv-x="566" d="M22 174q0 64 16.5 123.5t50 104.5t83.5 72t117 27q32 0 57 -7.5t41 -18.5l42 215h152l-98 -506q-8 -44 -15.5 -89.5t-12.5 -94.5h-136l-2 51h-2q-28 -31 -62 -49t-79 -18q-72 0 -112 48t-40 142zM176 197q0 -35 12.5 -57.5t49.5 -22.5q26 0 49 15t40 35l37 190 q-9 8 -26.5 13.5t-38.5 5.5q-33 0 -56 -17.5t-38 -44.5t-22 -58.5t-7 -58.5z" />
<glyph unicode="e" horiz-adv-x="524" d="M22 179q0 59 16 116.5t49.5 103.5t86.5 74t128 28q57 0 92.5 -16.5t55.5 -42.5q16 -19 24 -46.5t8 -59.5q0 -28 -4.5 -62t-12.5 -79l-3 -13h-289q-1 -7 -1 -13q0 -26 18 -42q21 -20 75 -20q42 0 82 5.5t74 16.5l-17 -117q-40 -14 -82.5 -21t-84.5 -7q-49 0 -89 10.5 t-68 33.5t-43 60.5t-15 90.5zM189 279h143l2 9q2 10 4 22.5t2 23.5q0 23 -13 38t-45 15q-42 0 -63.5 -30t-29.5 -78z" />
<glyph unicode="f" horiz-adv-x="344" d="M-17 -199l25 107q12 50 20 99l66 369h-68l21 109h67l5 32q7 42 22.5 77.5t42.5 61t65.5 40t90.5 14.5q19 0 42.5 -3t40.5 -8l-33 -116q-10 2 -24 4t-25 2q-35 0 -54 -19t-26 -61l-4 -24h89l-21 -109h-87l-61 -342q-11 -62 -24.5 -118t-31.5 -115h-138z" />
<glyph unicode="g" horiz-adv-x="555" d="M24 180q0 64 18.5 122t52.5 102.5t83 70.5t110 26q39 0 68.5 -13.5t45.5 -33.5l12 31h118l-91 -467q-13 -66 -34.5 -111t-52.5 -72t-72 -38.5t-93 -11.5q-42 0 -80 5.5t-70 15.5l26 112q56 -17 113 -17q60 0 90.5 28.5t39.5 81.5l9 49h-2q-25 -31 -59 -47.5t-80 -16.5 q-75 0 -113.5 50.5t-38.5 133.5zM178 209q0 -35 12.5 -57.5t49.5 -22.5q26 0 48.5 13t39.5 34l35 176q-24 24 -66 24q-29 0 -51 -15t-37 -39t-23 -54t-8 -59z" />
<glyph unicode="h" horiz-adv-x="559" d="M1 0l134 690h144l-49 -244q31 23 72 39t81 16q60 0 93 -30t33 -81q0 -46 -10 -92l-58 -298h-143l49 260l6 32q3 16 3 28q0 21 -13.5 32.5t-36.5 11.5q-24 0 -52 -12.5t-48 -30.5l-61 -321h-144z" />
<glyph unicode="i" horiz-adv-x="276" d="M5 0l94 485h144l-94 -485h-144zM115 588q0 26 4 33q8 36 29 57t66 21q36 0 50.5 -13t14.5 -37q0 -7 -1 -14.5t-4 -21.5q-8 -37 -27 -58t-65 -21q-38 0 -52.5 14.5t-14.5 39.5z" />
<glyph unicode="j" horiz-adv-x="270" d="M-113 -94q18 -5 43 -5q30 0 46.5 18.5t27.5 71.5l97 494h144l-94 -473q-14 -69 -30.5 -113t-41 -69.5t-58.5 -35t-83 -9.5q-20 0 -41.5 3.5t-35.5 8.5zM116 588q0 6 0.5 13t3.5 20q8 36 28 57t67 21q36 0 50.5 -13t14.5 -37q0 -7 -1 -14.5t-4 -21.5q-8 -37 -27 -58 t-65 -21q-38 0 -52.5 14.5t-14.5 39.5z" />
<glyph unicode="k" horiz-adv-x="502" d="M1 0l134 690h144l-74 -380q97 78 154 175h147q-36 -63 -80.5 -120.5t-95.5 -103.5l101 -261h-158l-59 180q-21 -11 -38 -19l-31 -161h-144z" />
<glyph unicode="l" horiz-adv-x="272" d="M3 0l134 690h143l-133 -690h-144z" />
<glyph unicode="m" horiz-adv-x="832" d="M1 0l94 485h131l-5 -47h2q32 29 71 46t81 17q37 0 61.5 -11t39.5 -31q5 -7 9.5 -14.5t6.5 -12.5q37 32 80 50.5t85 18.5q37 0 62.5 -11t40.5 -31q19 -24 21 -61q1 -7 1 -15q0 -32 -8 -71l-60 -312h-143l53 275q5 26 5.5 41.5t-5.5 25.5q-11 20 -43 20q-21 0 -45.5 -12 t-43.5 -31l-62 -319h-144l54 275q5 26 5 41.5t-5 25.5q-11 20 -43 20q-21 0 -46.5 -12t-44.5 -31l-61 -319h-144z" />
<glyph unicode="n" horiz-adv-x="559" d="M1 0l94 485h130l-5 -46h2q38 32 81 47t82 15q54 0 89 -30t35 -81q0 -25 -2.5 -47.5t-7.5 -45.5l-58 -297h-143l49 260l6 33q3 18 3 25q0 46 -49 46q-26 0 -53.5 -12.5t-47.5 -30.5l-61 -321h-144z" />
<glyph unicode="o" horiz-adv-x="557" d="M22 177q0 63 17.5 121.5t53.5 103.5t91.5 72t131.5 27q99 0 147.5 -48.5t48.5 -131.5q0 -71 -16.5 -132t-51.5 -107t-89.5 -72t-130.5 -26q-103 0 -152.5 49.5t-49.5 143.5zM177 185q0 -42 17 -60.5t49 -18.5q30 0 51.5 18t35.5 46t21 62.5t7 67.5q0 42 -16 60.5 t-47 18.5q-29 0 -51 -17.5t-37 -45.5t-22.5 -62.5t-7.5 -68.5z" />
<glyph unicode="p" horiz-adv-x="561" d="M-39 -199l134 684h126l-3 -49h2q26 27 64 46t83 19q72 0 110.5 -45t38.5 -133q0 -65 -16.5 -126t-49.5 -108t-83.5 -76t-119.5 -29q-29 0 -55 7t-46 19l-41 -209h-144zM170 131q30 -25 72 -25q34 0 57.5 17.5t38 44.5t21 60t6.5 64q0 34 -13 55.5t-49 21.5 q-28 0 -54.5 -15.5t-42.5 -35.5z" />
<glyph unicode="q" horiz-adv-x="561" d="M22 183q0 53 16 109t51 102.5t91.5 76.5t136.5 30q26 0 54.5 -4.5t56 -12t54 -18t47.5 -22.5l-124 -643h-144l44 224q-26 -20 -58 -30.5t-64 -10.5q-86 0 -123.5 53.5t-37.5 145.5zM176 202q0 -38 12 -64t52 -26q24 0 48 11t40 26l44 207q-14 7 -32.5 11t-39.5 4 q-33 0 -56.5 -16t-38.5 -41t-22 -54.5t-7 -57.5z" />
<glyph unicode="r" horiz-adv-x="369" d="M1 0l94 485h129l-4 -48h2q27 31 60.5 44.5t68.5 13.5q25 0 40 -5l-40 -124q-10 1 -20 1q-23 -1 -49 -5q-39 -6 -71 -24l-66 -338h-144z" />
<glyph unicode="s" horiz-adv-x="437" d="M-12 11l33 117q28 -13 64 -21t65 -8q10 0 24.5 1t28 5.5t23 13.5t9.5 25q0 17 -15 24.5t-42 15.5l-44 14q-45 14 -69.5 47t-24.5 86q0 43 16 75t44.5 53t67 31.5t84.5 10.5q38 0 78 -8t74 -24l-33 -112q-22 12 -52 19.5t-59 7.5t-51.5 -7.5t-22.5 -31.5q0 -14 10.5 -22 t37.5 -16l44 -13q51 -15 75 -43.5t24 -81.5q0 -84 -56 -134.5t-177 -50.5q-42 0 -82 7t-74 20z" />
<glyph unicode="t" horiz-adv-x="362" d="M24 376l22 109h67l24 124l147 21l-28 -145h104l-26 -109h-99l-37 -189q-7 -32 -7 -53q0 -34 45 -34q11 0 25 2.5t25 5.5l-16 -114q-17 -5 -42 -7.5t-45 -2.5q-76 0 -108 28t-32 84q0 14 3 36.5t7 42.5l38 201h-67z" />
<glyph unicode="u" horiz-adv-x="530" d="M20 113q0 32 6.5 67t14.5 73l45 232h143l-51 -264l-8 -44q-3 -17 -3 -28q0 -13 3 -22.5t12 -15.5q10 -9 42 -9q27 0 43.5 10t26 26.5t14.5 38t9 44.5l52 264h143l-47 -246l-10 -49q-5 -26 -13 -51t-19.5 -48t-29.5 -43q-32 -34 -78.5 -49t-109.5 -15q-185 0 -185 129z " />
<glyph unicode="v" horiz-adv-x="459" d="M34 485h149q-1 -31 -1 -72t2 -84.5t3.5 -85t3.5 -72.5h2l32 72l36 85l35 85q17 41 28 72h149l-32 -69l-41 -86l-45 -93l-47 -91l-42 -82q-20 -38 -35 -64h-143q-9 48 -17.5 113.5t-16 133.5t-13 131t-7.5 107z" />
<glyph unicode="w" horiz-adv-x="737" d="M33 485h149q0 -32 1 -73l1 -84q0 -43 1.5 -84t3.5 -73h2l30 69l35 82l35 85l30 78h129q0 -38 1 -80.5t3 -84.5t3.5 -80.5t3.5 -68.5h2l33 74l36 86l34 84l27 70h151l-31 -69l-41 -85l-45 -91l-45 -92l-42 -83q-20 -39 -35 -65h-136q-7 56 -11 131t-6 150h-2l-62 -149 l-58 -132h-145q-7 41 -15 105.5t-15.5 134.5t-13.5 135.5t-8 109.5z" />
<glyph unicode="x" horiz-adv-x="498" d="M-43 0l197 238l-26 56l-26 63l-27 66l-24 62h155q9 -33 22 -71t24 -67h4l52 69q27 38 46 69h148l-41 -57l-47 -62l-51 -65l-50 -60l115 -241h-160l-53 128h-4l-94 -128h-160z" />
<glyph unicode="y" horiz-adv-x="538" d="M20 110q0 17 1.5 34t5.5 37l59 304h144l-53 -273q-6 -27 -6 -44q0 -20 11 -32.5t39 -12.5q19 0 42 8t43 21l65 333h143l-69 -350q-16 -82 -36.5 -153t-51.5 -110q-36 -45 -87.5 -66t-116.5 -21q-37 0 -63 5t-49 13l21 109q17 -5 37 -8t39 -3q29 0 52.5 5t40.5 17t31 38 t20 58l2 9q-32 -21 -67.5 -30.5t-68.5 -9.5q-63 0 -95.5 32.5t-32.5 89.5z" />
<glyph unicode="z" horiz-adv-x="446" d="M-21 0l14 79l247 297h-178l22 109h354l-16 -78l-254 -298h204l-21 -109h-372z" />
<glyph unicode="{" horiz-adv-x="382" d="M10 236l18 95q66 4 79 64l30 143q16 78 61.5 115.5t121.5 37.5h72l-21 -109h-49q-24 0 -34.5 -11t-16.5 -37l-25 -117q-11 -50 -36 -83.5t-73 -49.5v-2q33 -11 46.5 -36.5t13.5 -58.5q0 -8 -1 -18t-3 -20l-20 -117q-1 -5 -1.5 -10t-0.5 -10q0 -28 35 -28h48l-20 -108h-72 q-64 0 -95.5 31t-31.5 85q0 18 3 36l22 127q2 8 3.5 17.5t1.5 14.5q0 25 -13 36t-42 13z" />
<glyph unicode="|" horiz-adv-x="258" d="M-24 -16l139 710h135l-138 -710h-136z" />
<glyph unicode="}" horiz-adv-x="382" d="M-66 -124l22 108h48q24 0 35 11t16 37l26 117q10 50 35 84t73 49v2q-32 12 -46 37.5t-14 57.5q0 9 1 18.5t3 19.5l20 117q1 5 1.5 10t0.5 10q0 14 -7.5 21t-27.5 7h-48l20 109h72q64 0 95.5 -31.5t31.5 -85.5q0 -17 -3 -36l-22 -127q-2 -7 -3.5 -17t-1.5 -15 q0 -25 13.5 -35.5t41.5 -12.5l-18 -95q-65 -4 -79 -64l-30 -144q-16 -78 -61.5 -115t-121.5 -37h-72z" />
<glyph unicode="~" d="M19 273q44 71 92 105.5t96 34.5q32 0 52.5 -10t38.5 -24l24 -18q12 -9 25 -15.5t26 -6.5q25 0 47.5 19.5t45.5 54.5l71 -71q-40 -66 -87 -102t-92 -36q-31 0 -51 8t-37 22l-22 17q-13 11 -25.5 17t-29.5 6q-23 0 -46.5 -16.5t-51.5 -54.5z" />
<glyph unicode="&#xa1;" horiz-adv-x="275" d="M-34 -189l50 252l53 219h121l-32 -219l-49 -252h-143zM74 390q0 6 1 13t4 21q8 39 28 58t65 19q40 0 52.5 -15t12.5 -38q0 -14 -3 -29q-8 -42 -28 -62.5t-66 -20.5q-38 0 -52 14.5t-14 39.5z" />
<glyph unicode="&#xa2;" d="M53 284q0 61 19.5 116t57 97t91.5 67t123 27l21 99h61l-21 -101q25 -3 46 -8.5t39 -13.5l-31 -123q-17 8 -37.5 13.5t-43.5 7.5l-56 -266q45 3 98 20l-18 -121q-26 -10 -51.5 -14.5t-53.5 -6.5l-19 -93h-63l20 93q-86 7 -134 58.5t-48 148.5zM207 302q0 -80 55 -97 l53 255q-51 -13 -79.5 -54.5t-28.5 -103.5z" />
<glyph unicode="&#xa3;" d="M11 0l18 120q45 12 66.5 36t29.5 67l13 64h-81l24 120h80l10 50q24 130 90 184q32 26 74.5 37.5t96.5 11.5q35 0 72.5 -6.5t69.5 -18.5l-47 -128q-21 9 -46 15t-54 6q-45 0 -68.5 -27.5t-34.5 -80.5l-9 -43h134l-23 -120h-133l-10 -48q-8 -39 -24 -66t-41 -44v-3h233 l-24 -126h-416z" />
<glyph unicode="&#xa4;" d="M-17 103l98 84q-5 15 -8.5 31.5t-3.5 38.5q0 33 13.5 66.5t34.5 59.5l-63 83l88 71l60 -80q23 13 49.5 20.5t53.5 7.5q28 0 52 -7.5t44 -20.5l91 80l61 -71l-99 -86q5 -13 8 -29t3 -38q0 -32 -13 -66t-35 -60l65 -84l-88 -72l-63 83q-23 -13 -50 -20t-53 -7t-49 7t-42 20 l-93 -83zM181 273q0 -37 20 -56t51 -19q21 0 39.5 8.5t33 22.5t23 33t8.5 39q0 34 -20 53.5t-52 19.5q-21 0 -39.5 -9t-33 -23t-22.5 -32t-8 -37z" />
<glyph unicode="&#xa5;" d="M52 79l20 100h102l7 36h-102l20 102h53q-24 85 -42 176.5t-28 180.5h156q10 -90 21 -158.5t28 -131.5h4l41 64q20 32 40 68l40 74l43 84h159l-48 -89l-50 -87l-54 -88l-62 -93h67l-21 -102h-112l-7 -36h113l-21 -100h-111l-15 -79h-154l14 79h-101z" />
<glyph unicode="&#xa6;" horiz-adv-x="258" d="M-25 -16l57 295h136l-57 -295h-136zM55 395l59 299h135l-58 -299h-136z" />
<glyph unicode="&#xa7;" horiz-adv-x="440" d="M-29 12l26 111q35 -14 74.5 -23t67.5 -9q33 0 56 9t23 33q0 14 -16 25.5t-40 21.5l-45 20q-53 23 -74.5 53t-21.5 71q0 42 24 76t66 51q-19 14 -31 37.5t-12 56.5q0 32 14 59t40.5 47t65 31.5t86.5 11.5q40 0 76 -7t60 -18l-25 -107q-26 12 -55.5 19.5t-55.5 7.5 q-44 0 -58.5 -10t-14.5 -24t12.5 -24t39.5 -23l48 -22q53 -25 71 -52t18 -66q0 -38 -20 -71.5t-58 -59.5q32 -26 32 -79q0 -82 -56 -128t-156 -46q-45 0 -87 7.5t-74 20.5zM143 353q0 -19 11 -31t40 -25l48 -22q14 12 22 28t8 33t-8.5 28t-26.5 19l-56 26 q-19 -10 -28.5 -24.5t-9.5 -31.5z" />
<glyph unicode="&#xa8;" horiz-adv-x="398" d="M15 619q0 5 1 12t4 20q7 35 25.5 53.5t58.5 18.5q32 0 45 -12.5t13 -35.5q0 -5 -1 -12t-4 -20q-8 -35 -25.5 -53.5t-56.5 -18.5q-33 0 -46.5 12t-13.5 36zM208 619q0 5 1 12t4 20q7 35 25.5 53.5t58.5 18.5q32 0 45 -12.5t13 -35.5q0 -5 -1 -12t-4 -20 q-8 -35 -25.5 -53.5t-56.5 -18.5q-33 0 -46.5 12t-13.5 36z" />
<glyph unicode="&#xa9;" horiz-adv-x="812" d="M19 271q0 102 33.5 183t92 138t137.5 87.5t171 30.5q70 0 127.5 -23t98.5 -63t63 -95t22 -119q0 -85 -28.5 -165t-84.5 -142.5t-139 -100t-192 -37.5q-68 0 -123.5 22t-95 62t-61 96.5t-21.5 125.5zM146 281q0 -42 13 -78.5t38 -63t62 -42t84 -15.5q66 0 120 25t93 67.5 t60 98.5t21 118q0 43 -14 80t-40 64t-64 42.5t-87 15.5q-65 0 -118 -23t-90.5 -64.5t-57.5 -99t-20 -125.5zM228 288q0 46 13.5 88t40.5 73.5t66.5 50t92.5 18.5q20 0 39.5 -3t33.5 -10l-24 -91q-11 5 -27 8.5t-31 3.5q-24 0 -41.5 -11.5t-29 -29.5t-16.5 -40.5t-5 -45.5 q0 -56 57 -56q14 0 32.5 3t35.5 10l-15 -91q-16 -5 -39 -9t-40 -4q-72 0 -107.5 32.5t-35.5 103.5z" />
<glyph unicode="&#xaa;" horiz-adv-x="353" d="M31 382q0 37 16.5 64t45 44.5t66.5 25.5t80 8h4l1 4q2 8 2 14q0 17 -39 17q-31 0 -58.5 -5.5t-51.5 -15.5l1 88q36 10 71.5 15t71.5 5q16 0 35.5 -3t37 -11.5t29.5 -23.5t12 -40q0 -22 -5 -45l-27 -136q-3 -17 19 -17l-13 -64q-13 -4 -27 -6t-32 -2q-21 0 -35.5 7 t-18.5 26h-2q-17 -15 -41 -24t-51 -9q-39 0 -65 21.5t-26 62.5zM144 406q0 -28 31 -28q11 0 23 5.5t20 13.5l10 53q-36 0 -55 -9q-29 -10 -29 -35z" />
<glyph unicode="&#xab;" horiz-adv-x="615" d="M-12 253l221 253l86 -61l-146 -202l98 -175l-92 -60zM266 253l221 253l86 -61l-146 -202l98 -175l-92 -60z" />
<glyph unicode="&#xac;" d="M53 191l25 126h413l-50 -251h-128l27 125h-287z" />
<glyph unicode="&#xad;" horiz-adv-x="291" d="M1 180l24 126h225l-24 -126h-225z" />
<glyph unicode="&#xae;" horiz-adv-x="791" d="M24 271q0 102 33.5 183t92 138t137.5 87.5t171 30.5q70 0 127.5 -23t98.5 -63t63 -95t22 -119q0 -85 -28.5 -165t-84.5 -142.5t-139 -100t-192 -37.5q-68 0 -123.5 22t-95 62t-61 96.5t-21.5 125.5zM151 281q0 -42 13 -78.5t38 -63t62 -42t84 -15.5q66 0 120 25t93 67.5 t60 98.5t21 118q0 43 -14 80t-40 64t-64 42.5t-87 15.5q-65 0 -118 -23t-90.5 -64.5t-57.5 -99t-20 -125.5zM239 158l69 357h89q55 0 80.5 -7.5t41.5 -21.5q26 -23 26 -68t-21.5 -81.5t-63.5 -51.5l43 -127h-92l-34 118q-3 -1 -7 -1h-8h-7l-23 -117h-93zM371 357h22 q24 0 38.5 13t14.5 39q0 14 -9 19.5t-30 5.5h-22z" />
<glyph unicode="&#xb0;" horiz-adv-x="334" d="M48 541q0 36 13.5 69.5t37.5 59t57.5 41t72.5 15.5q29 0 52 -9.5t38.5 -26t23.5 -39t8 -47.5q0 -36 -14 -69.5t-38 -59t-57 -40.5t-71 -15q-28 0 -51 9.5t-39 26t-24.5 38.5t-8.5 47zM149 557q0 -19 10 -30t30 -11q27 0 44.5 22t17.5 50q0 19 -10 30.5t-30 11.5 q-26 0 -44 -22t-18 -51z" />
<glyph unicode="&#xb1;" d="M10 0l26 122h410l-24 -122h-412zM75 318l26 126h138l29 138h134l-28 -138h138l-25 -126h-138l-28 -138h-135l28 138h-139z" />
<glyph unicode="&#xb4;" horiz-adv-x="398" d="M35 628l252 132l45 -106l-268 -110z" />
<glyph unicode="&#xb5;" horiz-adv-x="540" d="M-37 -199l133 684h144l-52 -262q-5 -27 -7.5 -46.5t-1.5 -30.5q2 -42 56 -42t74 42q5 11 9.5 30.5t9.5 46.5l51 262h144l-47 -244l-14 -65q-6 -26 -10 -37q-26 -85 -81.5 -120t-141.5 -35q-28 0 -54 6t-42 15l-24 -204h-146z" />
<glyph unicode="&#xb6;" horiz-adv-x="540" d="M40 492q0 44 16.5 81t47 64t73.5 42t96 15h259l-153 -788h-115l135 695h-76l-135 -695h-114l84 436q-54 10 -86 48.5t-32 101.5z" />
<glyph unicode="&#xb8;" horiz-adv-x="398" d="M35 -246l33 67q18 -8 38 -13t38 -5q22 0 40.5 9t18.5 32q0 27 -45 27q-16 0 -30.5 -2t-28.5 -5l-9 11l52 120h80l-23 -57h5q42 0 67 -18q24 -17 24 -57q0 -32 -11 -56t-31.5 -42t-49.5 -28t-65 -10q-27 0 -53.5 7t-49.5 20z" />
<glyph unicode="&#xba;" horiz-adv-x="387" d="M49 429q0 48 15.5 92.5t47.5 76.5q51 49 139 49q66 0 101 -33t35 -97q0 -48 -15.5 -92.5t-47.5 -76.5q-51 -49 -140 -49q-66 0 -100.5 32.5t-34.5 97.5zM161 439q0 -50 41 -50q20 0 34 12t22.5 30t12.5 38.5t4 37.5q0 50 -41 50q-20 0 -34 -12t-22.5 -30t-12.5 -38.5 t-4 -37.5z" />
<glyph unicode="&#xbb;" horiz-adv-x="615" d="M-8 69l146 202l-98 175l92 60l167 -245l-221 -253zM270 69l146 202l-98 175l92 60l167 -245l-221 -253z" />
<glyph unicode="&#xbc;" horiz-adv-x="859" d="M37 308l17 88h80l33 164l-81 -39l-13 90l142 69h82l-55 -284h66l-17 -88h-254zM132 54l515 624l85 -58l-517 -629zM458 72l14 71l187 223h130l-41 -209h45l-17 -85h-44l-16 -78h-107l15 78h-166zM569 157h72l21 111z" />
<glyph unicode="&#xbd;" horiz-adv-x="859" d="M37 308l17 88h80l33 164l-81 -39l-13 90l142 69h82l-55 -284h66l-17 -88h-254zM132 54l515 624l85 -58l-517 -629zM511 -6l8 76l109 87q42 34 64 55t22 43q0 14 -10.5 19.5t-32.5 5.5q-20 0 -49.5 -8t-55.5 -21l11 96q29 12 63 20.5t66 8.5q54 0 85 -22t31 -70t-34 -89.5 t-93 -82.5l-39 -27h131l-17 -91h-259z" />
<glyph unicode="&#xbe;" horiz-adv-x="859" d="M45 317l24 89q22 -8 45 -12t44 -4q9 0 21 1.5t22.5 6t17.5 12.5t7 22q0 27 -42 27h-48l16 78h35q14 0 26 1.5t19 6.5q14 9 14 29q0 14 -12.5 19.5t-36.5 5.5q-19 0 -43 -4.5t-41 -11.5l9 87q27 9 58 14.5t59 5.5q58 0 86 -20t28 -65q0 -28 -14 -55.5t-43 -44.5v-2 q19 -8 30.5 -25t11.5 -43q0 -35 -14 -60.5t-38.5 -42.5t-57.5 -25.5t-72 -8.5q-28 0 -58 5.5t-53 13.5zM132 54l515 624l85 -58l-517 -629zM458 72l14 71l187 223h130l-41 -209h45l-17 -85h-44l-16 -78h-107l15 78h-166zM569 157h72l21 111z" />
<glyph unicode="&#xbf;" horiz-adv-x="462" d="M-30 -52q0 41 16.5 77t45 65t68 50t84.5 33l33 111h114l-25 -194q-25 -4 -55 -11t-56.5 -20t-44 -32.5t-17.5 -47.5q0 -52 77 -52q39 0 79 10.5t75 27.5l-16 -132q-35 -14 -88.5 -26t-110.5 -12q-40 0 -73 9t-56.5 27.5t-36.5 47.5t-13 69zM215 383q0 12 0.5 19t2.5 15 q8 42 28 63t66 21q38 0 52 -14.5t14 -34.5q0 -11 -1 -18l-3 -22q-9 -39 -29 -57.5t-65 -18.5q-40 0 -52.5 14t-12.5 33z" />
<glyph unicode="&#xc0;" horiz-adv-x="609" d="M-47 0l85 186l90 186l84 168l71 134h171q9 -60 19 -143t19 -175l19 -184l16 -172h-158l-4 128h-202l-52 -128h-158zM205 833l45 107l252 -133l-29 -83zM225 269h131q-2 52 -6.5 117t-10.5 123h-9l-28 -59l-28 -62l-26 -62z" />
<glyph unicode="&#xc1;" horiz-adv-x="609" d="M-47 0l85 186l90 186l84 168l71 134h171q9 -60 19 -143t19 -175l19 -184l16 -172h-158l-4 128h-202l-52 -128h-158zM225 269h131q-2 52 -6.5 117t-10.5 123h-9l-28 -59l-28 -62l-26 -62zM269 808l252 133l45 -107l-268 -109z" />
<glyph unicode="&#xc2;" horiz-adv-x="609" d="M-47 0l85 186l90 186l84 168l71 134h171q9 -60 19 -143t19 -175l19 -184l16 -172h-158l-4 128h-202l-52 -128h-158zM199 787l161 146h85l114 -154l-67 -56l-98 108h-8l-126 -104zM225 269h131q-2 52 -6.5 117t-10.5 123h-9l-28 -59l-28 -62l-26 -62z" />
<glyph unicode="&#xc3;" horiz-adv-x="609" d="M-47 0l85 186l90 186l84 168l71 134h171q9 -60 19 -143t19 -175l19 -184l16 -172h-158l-4 128h-202l-52 -128h-158zM195 806q29 42 64 66t69 24q20 0 35 -5t30 -16l19 -13q14 -9 24 -14.5t21 -5.5q17 0 34 13.5t32 37.5l48 -68q-28 -39 -61 -61t-65 -22q-21 0 -37.5 6.5 t-30.5 16.5l-17 12q-18 14 -43 14q-20 0 -38.5 -13t-38.5 -38zM225 269h131q-2 52 -6.5 117t-10.5 123h-9l-28 -59l-28 -62l-26 -62z" />
<glyph unicode="&#xc4;" horiz-adv-x="609" d="M-47 0l85 186l90 186l84 168l71 134h171q9 -60 19 -143t19 -175l19 -184l16 -172h-158l-4 128h-202l-52 -128h-158zM223 798q0 5 1 12.5t4 19.5q7 36 25.5 54t58.5 18q32 0 45 -12t13 -35q0 -5 -1 -12.5t-4 -19.5q-8 -36 -25.5 -54t-56.5 -18q-33 0 -46.5 11.5 t-13.5 35.5zM225 269h131q-2 52 -6.5 117t-10.5 123h-9l-28 -59l-28 -62l-26 -62zM416 798q0 5 1 12.5t4 19.5q7 36 25.5 54t58.5 18q32 0 45 -12t13 -35q0 -5 -1 -12.5t-4 -19.5q-8 -36 -25.5 -54t-56.5 -18q-33 0 -46.5 11.5t-13.5 35.5z" />
<glyph unicode="&#xc5;" horiz-adv-x="609" d="M-47 0l85 186l90 186l84 168l71 134h171q9 -60 19 -143t19 -175l19 -184l16 -172h-158l-4 128h-202l-52 -128h-158zM225 269h131q-2 52 -6.5 117t-10.5 123h-9l-28 -59l-28 -62l-26 -62zM271 811q0 30 10 55.5t28.5 44t44 29.5t56.5 11q40 0 68 -26t28 -69 q0 -62 -37.5 -100t-99.5 -38q-43 0 -70.5 25.5t-27.5 67.5zM355 826q0 -12 8 -19t19 -7q17 0 28.5 11.5t11.5 29.5q0 12 -7 19.5t-19 7.5q-17 0 -29 -11t-12 -31z" />
<glyph unicode="&#xc6;" horiz-adv-x="924" d="M-24 0l65 102l81 123l90 132l90 127l78 110l59 80h496l-28 -141h-254l-24 -124h224l-28 -140h-224l-25 -128h258l-27 -141h-416l24 128h-189l-40 -64l-39 -64h-171zM316 269h126l53 269h-2q-43 -60 -89 -130z" />
<glyph unicode="&#xc7;" horiz-adv-x="552" d="M36 242q0 109 36 202.5t105 153.5q48 44 113 67t143 23q35 0 71 -7t67 -18l-41 -140q-24 10 -50.5 15.5t-58.5 5.5q-35 0 -67 -11.5t-57 -31.5q-48 -41 -72 -102t-24 -135q0 -66 30.5 -100t106.5 -34q27 0 61.5 5.5t66.5 17.5l-21 -140q-26 -10 -58.5 -16.5t-64.5 -9.5 l-20 -49h5q42 0 67 -18q24 -17 24 -57q0 -32 -11 -56t-31.5 -42t-49.5 -28t-65 -10q-27 0 -53.5 7t-49.5 20l33 67q18 -8 38 -13t38 -5q22 0 40.5 9t18.5 32q0 27 -45 27q-16 0 -30.5 -2t-28.5 -5l-9 11l49 114q-106 11 -156 74t-50 179z" />
<glyph unicode="&#xc8;" horiz-adv-x="540" d="M7 0l131 674h413l-28 -141h-254l-24 -124h224l-28 -140h-224l-25 -128h258l-27 -141h-416zM194 833l45 107l252 -133l-29 -83z" />
<glyph unicode="&#xc9;" horiz-adv-x="540" d="M7 0l131 674h413l-28 -141h-254l-24 -124h224l-28 -140h-224l-25 -128h258l-27 -141h-416zM256 808l252 133l45 -107l-268 -109z" />
<glyph unicode="&#xca;" horiz-adv-x="540" d="M7 0l131 674h413l-28 -141h-254l-24 -124h224l-28 -140h-224l-25 -128h258l-27 -141h-416zM200 787l161 146h85l114 -154l-67 -56l-98 108h-8l-126 -104z" />
<glyph unicode="&#xcb;" horiz-adv-x="540" d="M7 0l131 674h413l-28 -141h-254l-24 -124h224l-28 -140h-224l-25 -128h258l-27 -141h-416zM216 798q0 5 1 12.5t4 19.5q7 36 25.5 54t58.5 18q32 0 45 -12t13 -35q0 -5 -1 -12.5t-4 -19.5q-8 -36 -25.5 -54t-56.5 -18q-33 0 -46.5 11.5t-13.5 35.5zM409 798q0 5 1 12.5 t4 19.5q7 36 25.5 54t58.5 18q32 0 45 -12t13 -35q0 -5 -1 -12.5t-4 -19.5q-8 -36 -25.5 -54t-56.5 -18q-33 0 -46.5 11.5t-13.5 35.5z" />
<glyph unicode="&#xcc;" horiz-adv-x="311" d="M11 0l131 674h158l-131 -674h-158zM51 833l45 107l252 -133l-29 -83z" />
<glyph unicode="&#xcd;" horiz-adv-x="311" d="M11 0l131 674h158l-131 -674h-158zM105 808l252 133l45 -107l-268 -109z" />
<glyph unicode="&#xce;" horiz-adv-x="311" d="M11 0l131 674h158l-131 -674h-158zM58 787l161 146h85l114 -154l-67 -56l-98 108h-8l-126 -104z" />
<glyph unicode="&#xcf;" horiz-adv-x="311" d="M11 0l131 674h158l-131 -674h-158zM79 798q0 5 1 12.5t4 19.5q7 36 25.5 54t58.5 18q32 0 45 -12t13 -35q0 -5 -1 -12.5t-4 -19.5q-8 -36 -25.5 -54t-56.5 -18q-33 0 -46.5 11.5t-13.5 35.5zM272 798q0 5 1 12.5t4 19.5q7 36 25.5 54t58.5 18q32 0 45 -12t13 -35 q0 -5 -1 -12.5t-4 -19.5q-8 -36 -25.5 -54t-56.5 -18q-33 0 -46.5 11.5t-13.5 35.5z" />
<glyph unicode="&#xd0;" horiz-adv-x="649" d="M-9 275l25 125h69l53 274h182q54 0 102 -5.5t82 -19.5q27 -12 48 -29.5t35 -44t21 -62.5q4 -28 4 -62v-22q-2 -58 -12 -114.5t-29.5 -106t-48.5 -90t-69 -66.5q-23 -15 -49.5 -25t-59.5 -16t-73 -8.5t-91 -2.5h-173l53 275h-69zM192 141h43q52 0 86.5 11.5t59.5 37.5 q16 17 29 44.5t21 59.5t12.5 65.5t4.5 63.5q0 64 -28.5 87t-92.5 23h-58l-26 -133h90l-24 -125h-91z" />
<glyph unicode="&#xd1;" horiz-adv-x="683" d="M7 0l131 674h128l193 -383l75 383h142l-131 -674h-122l-198 392l-75 -392h-143zM236 806q29 42 64 66t69 24q20 0 35 -5t30 -16l19 -13q14 -9 24 -14.5t21 -5.5q17 0 34 13.5t32 37.5l48 -68q-28 -39 -61 -61t-65 -22q-21 0 -37.5 6.5t-30.5 16.5l-17 12q-18 14 -43 14 q-20 0 -38.5 -13t-38.5 -38z" />
<glyph unicode="&#xd2;" horiz-adv-x="665" d="M36 227q0 92 23.5 178t71.5 152q43 59 110.5 96t154.5 37q119 0 176 -64.5t57 -178.5q0 -95 -22.5 -179t-67.5 -147t-112.5 -100t-157.5 -37q-119 0 -176 64.5t-57 178.5zM202 242q0 -60 23 -87.5t64 -27.5q46 0 79 29.5t54 75t31 100t10 104.5q0 57 -23 84t-64 27 q-46 0 -79 -29.5t-54 -75t-31 -99t-10 -101.5zM240 833l45 107l252 -133l-29 -83z" />
<glyph unicode="&#xd3;" horiz-adv-x="665" d="M36 227q0 92 23.5 178t71.5 152q43 59 110.5 96t154.5 37q119 0 176 -64.5t57 -178.5q0 -95 -22.5 -179t-67.5 -147t-112.5 -100t-157.5 -37q-119 0 -176 64.5t-57 178.5zM202 242q0 -60 23 -87.5t64 -27.5q46 0 79 29.5t54 75t31 100t10 104.5q0 57 -23 84t-64 27 q-46 0 -79 -29.5t-54 -75t-31 -99t-10 -101.5zM299 808l252 133l45 -107l-268 -109z" />
<glyph unicode="&#xd4;" horiz-adv-x="665" d="M36 227q0 92 23.5 178t71.5 152q43 59 110.5 96t154.5 37q119 0 176 -64.5t57 -178.5q0 -95 -22.5 -179t-67.5 -147t-112.5 -100t-157.5 -37q-119 0 -176 64.5t-57 178.5zM202 242q0 -60 23 -87.5t64 -27.5q46 0 79 29.5t54 75t31 100t10 104.5q0 57 -23 84t-64 27 q-46 0 -79 -29.5t-54 -75t-31 -99t-10 -101.5zM238 787l161 146h85l114 -154l-67 -56l-98 108h-8l-126 -104z" />
<glyph unicode="&#xd5;" horiz-adv-x="665" d="M36 227q0 92 23.5 178t71.5 152q43 59 110.5 96t154.5 37q119 0 176 -64.5t57 -178.5q0 -95 -22.5 -179t-67.5 -147t-112.5 -100t-157.5 -37q-119 0 -176 64.5t-57 178.5zM202 242q0 -60 23 -87.5t64 -27.5q46 0 79 29.5t54 75t31 100t10 104.5q0 57 -23 84t-64 27 q-46 0 -79 -29.5t-54 -75t-31 -99t-10 -101.5zM235 806q29 42 64 66t69 24q20 0 35 -5t30 -16l19 -13q14 -9 24 -14.5t21 -5.5q17 0 34 13.5t32 37.5l48 -68q-28 -39 -61 -61t-65 -22q-21 0 -37.5 6.5t-30.5 16.5l-17 12q-18 14 -43 14q-20 0 -38.5 -13t-38.5 -38z" />
<glyph unicode="&#xd6;" horiz-adv-x="665" d="M36 227q0 92 23.5 178t71.5 152q43 59 110.5 96t154.5 37q119 0 176 -64.5t57 -178.5q0 -95 -22.5 -179t-67.5 -147t-112.5 -100t-157.5 -37q-119 0 -176 64.5t-57 178.5zM202 242q0 -60 23 -87.5t64 -27.5q46 0 79 29.5t54 75t31 100t10 104.5q0 57 -23 84t-64 27 q-46 0 -79 -29.5t-54 -75t-31 -99t-10 -101.5zM259 798q0 5 1 12.5t4 19.5q7 36 25.5 54t58.5 18q32 0 45 -12t13 -35q0 -5 -1 -12.5t-4 -19.5q-8 -36 -25.5 -54t-56.5 -18q-33 0 -46.5 11.5t-13.5 35.5zM452 798q0 5 1 12.5t4 19.5q7 36 25.5 54t58.5 18q32 0 45 -12 t13 -35q0 -5 -1 -12.5t-4 -19.5q-8 -36 -25.5 -54t-56.5 -18q-33 0 -46.5 11.5t-13.5 35.5z" />
<glyph unicode="&#xd7;" d="M53 144l134 110l-89 114l97 83l90 -113l136 115l69 -90l-139 -114l88 -111l-98 -84l-87 112l-132 -113z" />
<glyph unicode="&#xd8;" horiz-adv-x="661" d="M11 -36l73 96q-47 62 -47 174q0 50 8.5 103t26 103.5t46 95.5t68 79t92 53.5t118.5 19.5q42 0 76.5 -8.5t60.5 -24.5l67 88l60 -33l-78 -102q23 -30 33 -69t10 -87q0 -85 -18.5 -168.5t-60 -149.5t-109 -107t-166.5 -41q-42 0 -76.5 8t-60.5 22l-68 -89zM203 232 q0 -7 1 -13l230 304q-24 22 -64 22q-44 0 -75.5 -29.5t-52 -74.5t-30 -98t-9.5 -99v-12zM233 146q22 -17 57 -17q50 0 82.5 32t52 79.5t27 101t7.5 97.5v6z" />
<glyph unicode="&#xd9;" horiz-adv-x="633" d="M36 164q0 35 11 93l81 417h158l-79 -409q-4 -19 -6 -35t-2 -34q0 -33 16.5 -51t61.5 -18q29 0 48.5 8.5t33 26t22.5 43t16 60.5l79 409h159l-82 -417q-14 -72 -36.5 -123.5t-57.5 -85t-85 -49t-119 -15.5q-113 0 -166 46t-53 134zM204 833l45 107l252 -133l-29 -83z" />
<glyph unicode="&#xda;" horiz-adv-x="633" d="M36 164q0 35 11 93l81 417h158l-79 -409q-4 -19 -6 -35t-2 -34q0 -33 16.5 -51t61.5 -18q29 0 48.5 8.5t33 26t22.5 43t16 60.5l79 409h159l-82 -417q-14 -72 -36.5 -123.5t-57.5 -85t-85 -49t-119 -15.5q-113 0 -166 46t-53 134zM292 808l252 133l45 -107l-268 -109z " />
<glyph unicode="&#xdb;" horiz-adv-x="633" d="M36 164q0 35 11 93l81 417h158l-79 -409q-4 -19 -6 -35t-2 -34q0 -33 16.5 -51t61.5 -18q29 0 48.5 8.5t33 26t22.5 43t16 60.5l79 409h159l-82 -417q-14 -72 -36.5 -123.5t-57.5 -85t-85 -49t-119 -15.5q-113 0 -166 46t-53 134zM213 787l161 146h85l114 -154l-67 -56 l-98 108h-8l-126 -104z" />
<glyph unicode="&#xdc;" horiz-adv-x="633" d="M36 164q0 35 11 93l81 417h158l-79 -409q-4 -19 -6 -35t-2 -34q0 -33 16.5 -51t61.5 -18q29 0 48.5 8.5t33 26t22.5 43t16 60.5l79 409h159l-82 -417q-14 -72 -36.5 -123.5t-57.5 -85t-85 -49t-119 -15.5q-113 0 -166 46t-53 134zM236 798q0 5 1 12.5t4 19.5 q7 36 25.5 54t58.5 18q32 0 45 -12t13 -35q0 -5 -1 -12.5t-4 -19.5q-8 -36 -25.5 -54t-56.5 -18q-33 0 -46.5 11.5t-13.5 35.5zM429 798q0 5 1 12.5t4 19.5q7 36 25.5 54t58.5 18q32 0 45 -12t13 -35q0 -5 -1 -12.5t-4 -19.5q-8 -36 -25.5 -54t-56.5 -18q-33 0 -46.5 11.5 t-13.5 35.5z" />
<glyph unicode="&#xdd;" horiz-adv-x="564" d="M78 674h158q10 -90 21 -158.5t28 -131.5h4l41 64q20 32 40 68l40 74l43 84h161q-29 -59 -59 -114t-63.5 -110t-72.5 -113l-85 -124l-41 -213h-158l44 225q-17 49 -32.5 103.5t-28.5 112.5t-23.5 117t-16.5 116zM248 808l252 133l45 -107l-268 -109z" />
<glyph unicode="&#xde;" horiz-adv-x="566" d="M7 0l131 674h154l-20 -101h16q49 0 88 -4t68 -15q42 -16 65.5 -51t23.5 -92q0 -64 -17.5 -117.5t-55 -92t-95 -60t-137.5 -21.5h-44l-23 -120h-154zM212 261h35q27 0 50 5.5t39.5 18t25.5 34t9 53.5q0 31 -19 45q-11 9 -28.5 12.5t-42.5 3.5h-36z" />
<glyph unicode="&#xdf;" horiz-adv-x="603" d="M-27 -153l162 834q52 13 111 21t113 8q49 0 89.5 -9t70 -28.5t45.5 -50.5t16 -74q0 -30 -7.5 -59t-22.5 -53.5t-37 -44t-50 -31.5v-4q38 -11 63.5 -39.5t25.5 -82.5t-18.5 -100t-54.5 -79t-89 -52t-122 -19q-23 0 -41.5 1.5t-37.5 3.5l35 136q15 -2 27.5 -3.5t29.5 -1.5 q53 0 85.5 25.5t32.5 77.5q0 38 -24.5 53t-75.5 15h-28l23 122h22q51 0 79.5 26t28.5 73q0 38 -22.5 53.5t-64.5 15.5q-19 0 -40 -3t-40 -8l-140 -723h-144z" />
<glyph unicode="&#xe0;" horiz-adv-x="511" d="M-2 107q0 51 22 90.5t61 66.5t93 41t119 14h16l1 6q1 5 1.5 10t0.5 8q0 22 -14.5 32t-57.5 10q-32 0 -71.5 -8.5t-80.5 -22.5l3 113q44 14 97.5 24t97.5 10q38 0 70 -5t55 -18t36 -36.5t13 -59.5q0 -13 -2 -28t-5 -32l-42 -215q-3 -18 4.5 -25t24.5 -6l-15 -81 q-13 -5 -32.5 -8t-39.5 -3q-42 0 -61.5 16t-20.5 44h-3q-25 -29 -61.5 -44.5t-77.5 -15.5q-60 0 -95.5 33t-35.5 90zM147 144q0 -41 48 -41q21 0 43 10t36 27l16 81h-10q-27 0 -48.5 -4t-38.5 -12q-20 -10 -33 -25.5t-13 -35.5zM150 654l45 106l252 -132l-29 -84z" />
<glyph unicode="&#xe1;" horiz-adv-x="511" d="M-2 107q0 51 22 90.5t61 66.5t93 41t119 14h16l1 6q1 5 1.5 10t0.5 8q0 22 -14.5 32t-57.5 10q-32 0 -71.5 -8.5t-80.5 -22.5l3 113q44 14 97.5 24t97.5 10q38 0 70 -5t55 -18t36 -36.5t13 -59.5q0 -13 -2 -28t-5 -32l-42 -215q-3 -18 4.5 -25t24.5 -6l-15 -81 q-13 -5 -32.5 -8t-39.5 -3q-42 0 -61.5 16t-20.5 44h-3q-25 -29 -61.5 -44.5t-77.5 -15.5q-60 0 -95.5 33t-35.5 90zM147 144q0 -41 48 -41q21 0 43 10t36 27l16 81h-10q-27 0 -48.5 -4t-38.5 -12q-20 -10 -33 -25.5t-13 -35.5zM198 628l252 132l45 -106l-268 -110z" />
<glyph unicode="&#xe2;" horiz-adv-x="511" d="M-2 107q0 51 22 90.5t61 66.5t93 41t119 14h16l1 6q1 5 1.5 10t0.5 8q0 22 -14.5 32t-57.5 10q-32 0 -71.5 -8.5t-80.5 -22.5l3 113q44 14 97.5 24t97.5 10q38 0 70 -5t55 -18t36 -36.5t13 -59.5q0 -13 -2 -28t-5 -32l-42 -215q-3 -18 4.5 -25t24.5 -6l-15 -81 q-13 -5 -32.5 -8t-39.5 -3q-42 0 -61.5 16t-20.5 44h-3q-25 -29 -61.5 -44.5t-77.5 -15.5q-60 0 -95.5 33t-35.5 90zM130 603l161 147h85l112 -158l-70 -55l-93 111h-8l-126 -104zM147 144q0 -41 48 -41q21 0 43 10t36 27l16 81h-10q-27 0 -48.5 -4t-38.5 -12 q-20 -10 -33 -25.5t-13 -35.5z" />
<glyph unicode="&#xe3;" horiz-adv-x="511" d="M-2 107q0 51 22 90.5t61 66.5t93 41t119 14h16l1 6q1 5 1.5 10t0.5 8q0 22 -14.5 32t-57.5 10q-32 0 -71.5 -8.5t-80.5 -22.5l3 113q44 14 97.5 24t97.5 10q38 0 70 -5t55 -18t36 -36.5t13 -59.5q0 -13 -2 -28t-5 -32l-42 -215q-3 -18 4.5 -25t24.5 -6l-15 -81 q-13 -5 -32.5 -8t-39.5 -3q-42 0 -61.5 16t-20.5 44h-3q-25 -29 -61.5 -44.5t-77.5 -15.5q-60 0 -95.5 33t-35.5 90zM134 623q29 42 64 66t69 24q20 0 35 -5t30 -16l19 -13q14 -9 24 -14.5t21 -5.5q17 0 34 13.5t32 37.5l48 -68q-57 -89 -121 -89q-23 0 -40.5 9t-32.5 20 l-17 12q-19 13 -42 13q-21 0 -39.5 -12.5t-38.5 -37.5zM147 144q0 -41 48 -41q21 0 43 10t36 27l16 81h-10q-27 0 -48.5 -4t-38.5 -12q-20 -10 -33 -25.5t-13 -35.5z" />
<glyph unicode="&#xe4;" horiz-adv-x="511" d="M-2 107q0 51 22 90.5t61 66.5t93 41t119 14h16l1 6q1 5 1.5 10t0.5 8q0 22 -14.5 32t-57.5 10q-32 0 -71.5 -8.5t-80.5 -22.5l3 113q44 14 97.5 24t97.5 10q38 0 70 -5t55 -18t36 -36.5t13 -59.5q0 -13 -2 -28t-5 -32l-42 -215q-3 -18 4.5 -25t24.5 -6l-15 -81 q-13 -5 -32.5 -8t-39.5 -3q-42 0 -61.5 16t-20.5 44h-3q-25 -29 -61.5 -44.5t-77.5 -15.5q-60 0 -95.5 33t-35.5 90zM147 144q0 -41 48 -41q21 0 43 10t36 27l16 81h-10q-27 0 -48.5 -4t-38.5 -12q-20 -10 -33 -25.5t-13 -35.5zM153 619q0 5 1 12t4 20q7 35 25.5 53.5 t58.5 18.5q32 0 45 -12.5t13 -35.5q0 -5 -1 -12t-4 -20q-8 -35 -25.5 -53.5t-56.5 -18.5q-33 0 -46.5 12t-13.5 36zM346 619q0 5 1 12t4 20q7 35 25.5 53.5t58.5 18.5q32 0 45 -12.5t13 -35.5q0 -5 -1 -12t-4 -20q-8 -35 -25.5 -53.5t-56.5 -18.5q-33 0 -46.5 12t-13.5 36z " />
<glyph unicode="&#xe5;" horiz-adv-x="511" d="M-2 107q0 51 22 90.5t61 66.5t93 41t119 14h16l1 6q1 5 1.5 10t0.5 8q0 22 -14.5 32t-57.5 10q-32 0 -71.5 -8.5t-80.5 -22.5l3 113q44 14 97.5 24t97.5 10q38 0 70 -5t55 -18t36 -36.5t13 -59.5q0 -13 -2 -28t-5 -32l-42 -215q-3 -18 4.5 -25t24.5 -6l-15 -81 q-13 -5 -32.5 -8t-39.5 -3q-42 0 -61.5 16t-20.5 44h-3q-25 -29 -61.5 -44.5t-77.5 -15.5q-60 0 -95.5 33t-35.5 90zM147 144q0 -41 48 -41q21 0 43 10t36 27l16 81h-10q-27 0 -48.5 -4t-38.5 -12q-20 -10 -33 -25.5t-13 -35.5zM215 647q0 27 11 52.5t30 45t44 31t54 11.5 q41 0 66.5 -27.5t25.5 -67.5q0 -30 -11 -55.5t-30.5 -43.5t-45 -28.5t-53.5 -10.5q-40 0 -65.5 27t-25.5 66zM296 663q0 -13 8 -20t19 -7q14 0 27 12.5t13 29.5q0 11 -7 18.5t-19 7.5q-14 0 -27.5 -10.5t-13.5 -30.5z" />
<glyph unicode="&#xe6;" horiz-adv-x="793" d="M-2 109q0 50 22 89t61 66t93 41t119 14h16l1 6q1 5 1.5 10t0.5 8q0 22 -14 32t-54 10q-35 0 -76.5 -8.5t-79.5 -22.5l3 111q41 14 93.5 25t101.5 11q52 0 85.5 -10.5t50.5 -39.5q31 22 68.5 36t80.5 14q57 0 92.5 -16.5t55.5 -42.5q15 -19 23.5 -46.5t8.5 -59.5 q0 -53 -18 -141l-2 -13h-290q-1 -5 -1 -11q0 -27 19 -44q21 -20 75 -20q42 0 81.5 5.5t74.5 16.5l-18 -115q-39 -14 -81.5 -22t-84.5 -8q-65 0 -112.5 17t-73.5 58q-30 -32 -77 -53.5t-101 -21.5q-67 0 -105.5 31t-38.5 94zM147 144q0 -41 48 -41q24 0 52 12.5t45 32.5 q-1 8 -1 15v16q0 11 0.5 21.5t1.5 20.5h-13q-27 0 -48.5 -4t-38.5 -12q-20 -10 -33 -25.5t-13 -35.5zM458 279h143l2 9q2 10 3.5 22.5t1.5 23.5q0 23 -12.5 38t-44.5 15q-42 0 -63.5 -30t-29.5 -78z" />
<glyph unicode="&#xe7;" horiz-adv-x="464" d="M23 193q0 63 20.5 119t59 98t94.5 66.5t127 24.5q42 0 76 -7t60 -18l-31 -123q-20 10 -46 15.5t-55 5.5q-69 0 -111 -44.5t-42 -119.5q0 -53 25 -77.5t76 -24.5q26 0 55 4.5t59 15.5l-18 -121q-53 -19 -113 -22l-18 -47h5q42 0 67 -18q24 -17 24 -57q0 -32 -11 -56 t-31.5 -42t-49.5 -28t-65 -10q-27 0 -53.5 7t-49.5 20l33 67q18 -8 38 -13t37 -5q23 0 41.5 9t18.5 32q0 27 -45 27q-16 0 -30.5 -2t-28.5 -5l-9 11l49 114q-75 13 -116.5 63.5t-41.5 140.5z" />
<glyph unicode="&#xe8;" horiz-adv-x="524" d="M22 179q0 59 16 116.5t49.5 103.5t86.5 74t128 28q57 0 92.5 -16.5t55.5 -42.5q16 -19 24 -46.5t8 -59.5q0 -28 -4.5 -62t-12.5 -79l-3 -13h-289q-1 -7 -1 -13q0 -26 18 -42q21 -20 75 -20q42 0 82 5.5t74 16.5l-17 -117q-40 -14 -82.5 -21t-84.5 -7q-49 0 -89 10.5 t-68 33.5t-43 60.5t-15 90.5zM149 654l45 106l252 -132l-29 -84zM189 279h143l2 9q2 10 4 22.5t2 23.5q0 23 -13 38t-45 15q-42 0 -63.5 -30t-29.5 -78z" />
<glyph unicode="&#xe9;" horiz-adv-x="524" d="M22 179q0 59 16 116.5t49.5 103.5t86.5 74t128 28q57 0 92.5 -16.5t55.5 -42.5q16 -19 24 -46.5t8 -59.5q0 -28 -4.5 -62t-12.5 -79l-3 -13h-289q-1 -7 -1 -13q0 -26 18 -42q21 -20 75 -20q42 0 82 5.5t74 16.5l-17 -117q-40 -14 -82.5 -21t-84.5 -7q-49 0 -89 10.5 t-68 33.5t-43 60.5t-15 90.5zM189 279h143l2 9q2 10 4 22.5t2 23.5q0 23 -13 38t-45 15q-42 0 -63.5 -30t-29.5 -78zM198 628l252 132l45 -106l-268 -110z" />
<glyph unicode="&#xea;" horiz-adv-x="524" d="M22 179q0 59 16 116.5t49.5 103.5t86.5 74t128 28q57 0 92.5 -16.5t55.5 -42.5q16 -19 24 -46.5t8 -59.5q0 -28 -4.5 -62t-12.5 -79l-3 -13h-289q-1 -7 -1 -13q0 -26 18 -42q21 -20 75 -20q42 0 82 5.5t74 16.5l-17 -117q-40 -14 -82.5 -21t-84.5 -7q-49 0 -89 10.5 t-68 33.5t-43 60.5t-15 90.5zM140 603l161 147h85l112 -158l-70 -55l-93 111h-8l-126 -104zM189 279h143l2 9q2 10 4 22.5t2 23.5q0 23 -13 38t-45 15q-42 0 -63.5 -30t-29.5 -78z" />
<glyph unicode="&#xeb;" horiz-adv-x="524" d="M22 179q0 59 16 116.5t49.5 103.5t86.5 74t128 28q57 0 92.5 -16.5t55.5 -42.5q16 -19 24 -46.5t8 -59.5q0 -28 -4.5 -62t-12.5 -79l-3 -13h-289q-1 -7 -1 -13q0 -26 18 -42q21 -20 75 -20q42 0 82 5.5t74 16.5l-17 -117q-40 -14 -82.5 -21t-84.5 -7q-49 0 -89 10.5 t-68 33.5t-43 60.5t-15 90.5zM157 619q0 5 1 12t4 20q7 35 25.5 53.5t58.5 18.5q32 0 45 -12.5t13 -35.5q0 -5 -1 -12t-4 -20q-8 -35 -25.5 -53.5t-56.5 -18.5q-33 0 -46.5 12t-13.5 36zM189 279h143l2 9q2 10 4 22.5t2 23.5q0 23 -13 38t-45 15q-42 0 -63.5 -30t-29.5 -78z M350 619q0 5 1 12t4 20q7 35 25.5 53.5t58.5 18.5q32 0 45 -12.5t13 -35.5q0 -5 -1 -12t-4 -20q-8 -35 -25.5 -53.5t-56.5 -18.5q-33 0 -46.5 12t-13.5 36z" />
<glyph unicode="&#xec;" horiz-adv-x="276" d="M5 0l94 485h144l-94 -485h-144zM9 654l45 106l252 -132l-29 -84z" />
<glyph unicode="&#xed;" horiz-adv-x="276" d="M5 0l94 485h144l-94 -485h-144zM76 628l252 132l45 -106l-268 -110z" />
<glyph unicode="&#xee;" horiz-adv-x="276" d="M5 0l94 485h144l-94 -485h-144zM18 603l161 147h85l112 -158l-70 -55l-93 111h-8l-126 -104z" />
<glyph unicode="&#xef;" horiz-adv-x="276" d="M5 0l94 485h144l-94 -485h-144zM39 619q0 5 1 12t4 20q7 35 25.5 53.5t58.5 18.5q32 0 45 -12.5t13 -35.5q0 -5 -1 -12t-4 -20q-8 -35 -25.5 -53.5t-56.5 -18.5q-33 0 -46.5 12t-13.5 36zM232 619q0 5 1 12t4 20q7 35 25.5 53.5t58.5 18.5q32 0 45 -12.5t13 -35.5 q0 -5 -1 -12t-4 -20q-8 -35 -25.5 -53.5t-56.5 -18.5q-33 0 -46.5 12t-13.5 36z" />
<glyph unicode="&#xf0;" horiz-adv-x="566" d="M22 194q0 64 18 118t50.5 93t77.5 61t98 22q27 0 45.5 -3t34.5 -9q-5 29 -20 51t-30 36l-3 2l-79 -50l-32 50l57 36q-30 17 -64 28l104 60q15 -6 28 -12l26 -14l71 47l36 -50l-53 -34q58 -49 85.5 -118t27.5 -157q0 -83 -16.5 -151t-50.5 -116t-86 -74t-122 -26 q-94 0 -148.5 54.5t-54.5 155.5zM176 198q0 -47 17.5 -64.5t42.5 -17.5q38 0 66.5 31.5t42.5 104.5q4 20 5.5 40t1.5 38v11q-26 14 -65 14q-30 0 -51.5 -14.5t-34.5 -37.5t-19 -50.5t-6 -54.5z" />
<glyph unicode="&#xf1;" horiz-adv-x="559" d="M1 0l94 485h130l-5 -46h2q38 32 81 47t82 15q54 0 89 -30t35 -81q0 -25 -2.5 -47.5t-7.5 -45.5l-58 -297h-143l49 260l6 34q3 17 3 24q0 46 -49 46q-26 0 -53.5 -12.5t-47.5 -30.5l-61 -321h-144zM167 623q29 42 64 66t69 24q20 0 35 -5t30 -16l19 -13q14 -9 24 -14.5 t21 -5.5q17 0 34 13.5t32 37.5l48 -68q-57 -89 -121 -89q-23 0 -40.5 9t-32.5 20l-17 12q-19 13 -42 13q-21 0 -39.5 -12.5t-38.5 -37.5z" />
<glyph unicode="&#xf2;" horiz-adv-x="557" d="M22 177q0 63 17.5 121.5t53.5 103.5t91.5 72t131.5 27q99 0 147.5 -48.5t48.5 -131.5q0 -71 -16.5 -132t-51.5 -107t-89.5 -72t-130.5 -26q-103 0 -152.5 49.5t-49.5 143.5zM174 654l45 106l252 -132l-29 -84zM177 185q0 -42 17 -60.5t49 -18.5q30 0 51.5 18t35.5 46 t21 62.5t7 67.5q0 42 -16 60.5t-47 18.5q-29 0 -51 -17.5t-37 -45.5t-22.5 -62.5t-7.5 -68.5z" />
<glyph unicode="&#xf3;" horiz-adv-x="557" d="M22 177q0 63 17.5 121.5t53.5 103.5t91.5 72t131.5 27q99 0 147.5 -48.5t48.5 -131.5q0 -71 -16.5 -132t-51.5 -107t-89.5 -72t-130.5 -26q-103 0 -152.5 49.5t-49.5 143.5zM177 185q0 -42 17 -60.5t49 -18.5q30 0 51.5 18t35.5 46t21 62.5t7 67.5q0 42 -16 60.5 t-47 18.5q-29 0 -51 -17.5t-37 -45.5t-22.5 -62.5t-7.5 -68.5zM229 628l252 132l45 -106l-268 -110z" />
<glyph unicode="&#xf4;" horiz-adv-x="557" d="M22 177q0 63 17.5 121.5t53.5 103.5t91.5 72t131.5 27q99 0 147.5 -48.5t48.5 -131.5q0 -71 -16.5 -132t-51.5 -107t-89.5 -72t-130.5 -26q-103 0 -152.5 49.5t-49.5 143.5zM161 606l161 147h85l112 -158l-70 -55l-93 111h-8l-126 -104zM177 185q0 -42 17 -60.5t49 -18.5 q30 0 51.5 18t35.5 46t21 62.5t7 67.5q0 42 -16 60.5t-47 18.5q-29 0 -51 -17.5t-37 -45.5t-22.5 -62.5t-7.5 -68.5z" />
<glyph unicode="&#xf5;" horiz-adv-x="557" d="M22 177q0 63 17.5 121.5t53.5 103.5t91.5 72t131.5 27q99 0 147.5 -48.5t48.5 -131.5q0 -71 -16.5 -132t-51.5 -107t-89.5 -72t-130.5 -26q-103 0 -152.5 49.5t-49.5 143.5zM159 623q29 42 64 66t69 24q20 0 35 -5t30 -16l19 -13q14 -9 24 -14.5t21 -5.5q17 0 34 13.5 t32 37.5l48 -68q-57 -89 -121 -89q-23 0 -40.5 9t-32.5 20l-17 12q-19 13 -42 13q-21 0 -39.5 -12.5t-38.5 -37.5zM177 185q0 -42 17 -60.5t49 -18.5q30 0 51.5 18t35.5 46t21 62.5t7 67.5q0 42 -16 60.5t-47 18.5q-29 0 -51 -17.5t-37 -45.5t-22.5 -62.5t-7.5 -68.5z" />
<glyph unicode="&#xf6;" horiz-adv-x="557" d="M22 177q0 63 17.5 121.5t53.5 103.5t91.5 72t131.5 27q99 0 147.5 -48.5t48.5 -131.5q0 -71 -16.5 -132t-51.5 -107t-89.5 -72t-130.5 -26q-103 0 -152.5 49.5t-49.5 143.5zM177 185q0 -42 17 -60.5t49 -18.5q30 0 51.5 18t35.5 46t21 62.5t7 67.5q0 42 -16 60.5 t-47 18.5q-29 0 -51 -17.5t-37 -45.5t-22.5 -62.5t-7.5 -68.5zM181 619q0 5 1 12t4 20q7 35 25.5 53.5t58.5 18.5q32 0 45 -12.5t13 -35.5q0 -5 -1 -12t-4 -20q-8 -35 -25.5 -53.5t-56.5 -18.5q-33 0 -46.5 12t-13.5 36zM374 619q0 5 1 12t4 20q7 35 25.5 53.5t58.5 18.5 q32 0 45 -12.5t13 -35.5q0 -5 -1 -12t-4 -20q-8 -35 -25.5 -53.5t-56.5 -18.5q-33 0 -46.5 12t-13.5 36z" />
<glyph unicode="&#xf7;" d="M53 191l26 126h411l-25 -126h-412zM160 47l1 7q7 33 25.5 52.5t60.5 19.5t53 -20q6 -12 6 -30q0 -10 -2 -22l-1 -7q-7 -33 -25.5 -52.5t-60.5 -19.5t-53 19q-7 12 -7 29q0 11 3 24zM236 436l1 7q7 33 25.5 52.5t60.5 19.5q41 0 52 -19q7 -12 7 -29q0 -11 -3 -24l-1 -7 q-6 -33 -24.5 -52.5t-60.5 -19.5t-53 20q-7 11 -7 28q0 11 3 24z" />
<glyph unicode="&#xf8;" horiz-adv-x="557" d="M-10 -23l66 74q-34 47 -34 126q0 63 17.5 121.5t53.5 103.5t91.5 72t131.5 27q71 0 118 -28l73 82l55 -39l-79 -88q29 -44 29 -107q0 -71 -16.5 -132t-51.5 -107t-89.5 -72t-130.5 -26q-70 0 -118 25l-67 -75zM177 186l160 179q-17 14 -42 14q-29 0 -51 -17.5t-37 -45 t-22.5 -62t-7.5 -68.5zM203 116q14 -10 40 -10q28 0 49 16.5t35.5 42.5t22 58.5t8.5 65.5z" />
<glyph unicode="&#xf9;" horiz-adv-x="530" d="M20 113q0 32 6.5 67t14.5 73l45 232h143l-51 -264l-8 -44q-3 -17 -3 -28q0 -13 3 -22.5t12 -15.5q10 -9 42 -9q27 0 43.5 10t26 26.5t14.5 38t9 44.5l52 264h143l-47 -246l-10 -49q-5 -26 -13 -51t-19.5 -48t-29.5 -43q-32 -34 -78.5 -49t-109.5 -15q-185 0 -185 129z M134 654l45 106l252 -132l-29 -84z" />
<glyph unicode="&#xfa;" horiz-adv-x="530" d="M20 113q0 32 6.5 67t14.5 73l45 232h143l-51 -264l-8 -44q-3 -17 -3 -28q0 -13 3 -22.5t12 -15.5q10 -9 42 -9q27 0 43.5 10t26 26.5t14.5 38t9 44.5l52 264h143l-47 -246l-10 -49q-5 -26 -13 -51t-19.5 -48t-29.5 -43q-32 -34 -78.5 -49t-109.5 -15q-185 0 -185 129z M208 628l252 132l45 -106l-268 -110z" />
<glyph unicode="&#xfb;" horiz-adv-x="530" d="M20 113q0 32 6.5 67t14.5 73l45 232h143l-51 -264l-8 -44q-3 -17 -3 -28q0 -13 3 -22.5t12 -15.5q10 -9 42 -9q27 0 43.5 10t26 26.5t14.5 38t9 44.5l52 264h143l-47 -246l-10 -49q-5 -26 -13 -51t-19.5 -48t-29.5 -43q-32 -34 -78.5 -49t-109.5 -15q-185 0 -185 129z M145 603l161 147h85l112 -158l-70 -55l-93 111h-8l-126 -104z" />
<glyph unicode="&#xfc;" horiz-adv-x="530" d="M20 113q0 32 6.5 67t14.5 73l45 232h143l-51 -264l-8 -44q-3 -17 -3 -28q0 -13 3 -22.5t12 -15.5q10 -9 42 -9q27 0 43.5 10t26 26.5t14.5 38t9 44.5l52 264h143l-47 -246l-10 -49q-5 -26 -13 -51t-19.5 -48t-29.5 -43q-32 -34 -78.5 -49t-109.5 -15q-185 0 -185 129z M158 619q0 5 1 12t4 20q7 35 25.5 53.5t58.5 18.5q32 0 45 -12.5t13 -35.5q0 -5 -1 -12t-4 -20q-8 -35 -25.5 -53.5t-56.5 -18.5q-33 0 -46.5 12t-13.5 36zM351 619q0 5 1 12t4 20q7 35 25.5 53.5t58.5 18.5q32 0 45 -12.5t13 -35.5q0 -5 -1 -12t-4 -20q-8 -35 -25.5 -53.5 t-56.5 -18.5q-33 0 -46.5 12t-13.5 36z" />
<glyph unicode="&#xfd;" horiz-adv-x="538" d="M20 110q0 17 1.5 34t5.5 37l59 304h144l-53 -273q-6 -27 -6 -44q0 -20 11 -32.5t39 -12.5q19 0 42 8t43 21l65 333h143l-69 -350q-16 -82 -36.5 -153t-51.5 -110q-36 -45 -87.5 -66t-116.5 -21q-37 0 -63 5t-49 13l21 109q17 -5 37 -8t39 -3q29 0 52.5 5t40.5 17t31 38 t20 58l2 9q-32 -21 -67.5 -30.5t-68.5 -9.5q-63 0 -95.5 32.5t-32.5 89.5zM212 628l252 132l45 -106l-268 -110z" />
<glyph unicode="&#xfe;" horiz-adv-x="561" d="M-39 -199l175 893h144l-49 -249h2q28 25 63 40.5t71 15.5q72 0 110.5 -44t38.5 -134q0 -65 -16.5 -126t-49.5 -108t-83.5 -76t-119.5 -29q-29 0 -55 7t-46 19l-41 -209h-144zM170 131q11 -11 30.5 -17t41.5 -6q34 0 57.5 17t38 44t21 59.5t6.5 63.5q0 34 -13 54.5 t-49 20.5q-27 0 -53 -14.5t-44 -34.5z" />
<glyph unicode="&#xff;" horiz-adv-x="538" d="M20 110q0 17 1.5 34t5.5 37l59 304h144l-53 -273q-6 -27 -6 -44q0 -20 11 -32.5t39 -12.5q19 0 42 8t43 21l65 333h143l-69 -350q-16 -82 -36.5 -153t-51.5 -110q-36 -45 -87.5 -66t-116.5 -21q-37 0 -63 5t-49 13l21 109q17 -5 37 -8t39 -3q29 0 52.5 5t40.5 17t31 38 t20 58l2 9q-32 -21 -67.5 -30.5t-68.5 -9.5q-63 0 -95.5 32.5t-32.5 89.5zM165 619q0 5 1 12t4 20q7 35 25.5 53.5t58.5 18.5q32 0 45 -12.5t13 -35.5q0 -5 -1 -12t-4 -20q-8 -35 -25.5 -53.5t-56.5 -18.5q-33 0 -46.5 12t-13.5 36zM358 619q0 5 1 12t4 20q7 35 25.5 53.5 t58.5 18.5q32 0 45 -12.5t13 -35.5q0 -5 -1 -12t-4 -20q-8 -35 -25.5 -53.5t-56.5 -18.5q-33 0 -46.5 12t-13.5 36z" />
<glyph unicode="&#x152;" horiz-adv-x="883" d="M36 212q0 54 8 110.5t24.5 109.5t41.5 100t59.5 82t78 55.5t96.5 20.5q47 0 81 -17t55 -49l9 50h405l-28 -141h-254l-24 -124h224l-28 -140h-224l-25 -128h258l-27 -141h-408l10 52q-30 -31 -67.5 -49.5t-87.5 -18.5q-85 0 -131 58.5t-46 169.5zM201 233q0 -104 75 -104 q35 0 61.5 12.5t46.5 34.5l64 330q-30 39 -81 39q-45 0 -77 -31t-51.5 -77.5t-28.5 -101.5t-9 -102z" />
<glyph unicode="&#x153;" horiz-adv-x="841" d="M22 177q0 63 17.5 121.5t52.5 103.5t86.5 72t119.5 27q56 0 94 -20.5t55 -52.5q27 31 71 52t101 21q60 0 94 -16.5t54 -42.5q17 -19 24.5 -46.5t7.5 -59.5q0 -28 -3.5 -62t-12.5 -79l-3 -13h-286q-1 -7 -1 -13q0 -26 17 -42q21 -20 75 -20q41 0 81 5.5t73 16.5l-17 -117 q-40 -14 -81.5 -21t-83.5 -7q-54 0 -97 19t-67 50q-29 -31 -73.5 -50t-104.5 -19q-95 0 -144 48.5t-49 144.5zM175 185q0 -42 17 -60.5t46 -18.5q33 0 55 20t35.5 49.5t19.5 63.5t6 61q0 42 -16 60.5t-45 18.5t-51 -18t-37 -46t-22.5 -62.5t-7.5 -67.5zM510 279h141l2 9 q2 10 3.5 22.5t1.5 23.5q0 23 -12.5 38t-42.5 15q-42 0 -64.5 -29.5t-28.5 -78.5z" />
<glyph unicode="&#x178;" horiz-adv-x="564" d="M78 674h158q10 -90 21 -158.5t28 -131.5h4l41 64q20 32 40 68l40 74l43 84h161q-29 -59 -59 -114t-63.5 -110t-72.5 -113l-85 -124l-41 -213h-158l44 225q-17 49 -32.5 103.5t-28.5 112.5t-23.5 117t-16.5 116zM196 798q0 5 1 12.5t4 19.5q7 36 25.5 54t58.5 18 q32 0 45 -12t13 -35q0 -5 -1 -12.5t-4 -19.5q-8 -36 -25.5 -54t-56.5 -18q-33 0 -46.5 11.5t-13.5 35.5zM389 798q0 5 1 12.5t4 19.5q7 36 25.5 54t58.5 18q32 0 45 -12t13 -35q0 -5 -1 -12.5t-4 -19.5q-8 -36 -25.5 -54t-56.5 -18q-33 0 -46.5 11.5t-13.5 35.5z" />
<glyph unicode="&#x2c6;" horiz-adv-x="398" d="M1 603l161 147h85l112 -158l-70 -55l-93 111h-8l-126 -104z" />
<glyph unicode="&#x2dc;" horiz-adv-x="398" d="M-5 623q29 42 64 66t69 24q20 0 35 -5t30 -16l19 -13q14 -9 24 -14.5t21 -5.5q17 0 34 13.5t32 37.5l48 -68q-57 -89 -121 -89q-23 0 -40.5 9t-32.5 20l-17 12q-19 13 -42 13q-21 0 -39.5 -12.5t-38.5 -37.5z" />
<glyph unicode="&#x2000;" horiz-adv-x="475" />
<glyph unicode="&#x2001;" horiz-adv-x="951" />
<glyph unicode="&#x2002;" horiz-adv-x="475" />
<glyph unicode="&#x2003;" horiz-adv-x="951" />
<glyph unicode="&#x2004;" horiz-adv-x="317" />
<glyph unicode="&#x2005;" horiz-adv-x="237" />
<glyph unicode="&#x2006;" horiz-adv-x="158" />
<glyph unicode="&#x2007;" horiz-adv-x="158" />
<glyph unicode="&#x2008;" horiz-adv-x="118" />
<glyph unicode="&#x2009;" horiz-adv-x="190" />
<glyph unicode="&#x200a;" horiz-adv-x="52" />
<glyph unicode="&#x2010;" horiz-adv-x="291" d="M1 180l24 126h225l-24 -126h-225z" />
<glyph unicode="&#x2011;" horiz-adv-x="291" d="M1 180l24 126h225l-24 -126h-225z" />
<glyph unicode="&#x2012;" horiz-adv-x="291" d="M1 180l24 126h225l-24 -126h-225z" />
<glyph unicode="&#x2013;" horiz-adv-x="568" d="M5 180l24 126h500l-24 -126h-500z" />
<glyph unicode="&#x2014;" horiz-adv-x="1068" d="M5 180l24 126h1000l-24 -126h-1000z" />
<glyph unicode="&#x2018;" horiz-adv-x="280" d="M75 475q0 42 22.5 91.5t53.5 97.5q18 29 37 54l34 46l69 -31l-47 -73q-21 -33 -38 -68q43 -16 43 -60q0 -7 -1 -15t-3 -22q-8 -36 -30 -57t-70 -21q-39 0 -54.5 16t-15.5 42z" />
<glyph unicode="&#x2019;" horiz-adv-x="280" d="M67 448l47 73q21 33 38 68q-43 16 -43 60q0 7 1 15t3 22q8 36 30 57t70 21q39 0 54.5 -16t15.5 -42q0 -42 -22.5 -91.5t-53.5 -97.5q-18 -29 -37 -54l-34 -46z" />
<glyph unicode="&#x201a;" horiz-adv-x="280" d="M-38 -167l48 73q20 33 37 68q-43 16 -43 60q0 7 1 15t3 22q8 36 30 57t70 21q39 0 54.5 -16t15.5 -42q0 -42 -22.5 -91.5t-53.5 -97.5q-18 -29 -36 -54l-35 -46z" />
<glyph unicode="&#x201c;" horiz-adv-x="500" d="M75 475q0 42 22.5 91.5t53.5 97.5q18 29 37 54l34 46l69 -31l-47 -73q-21 -33 -38 -68q43 -16 43 -60q0 -7 -1 -15t-3 -22q-8 -36 -30 -57t-70 -21q-39 0 -54.5 16t-15.5 42zM311 475q0 42 22.5 91.5t53.5 97.5q18 29 37 54l34 46l69 -31l-47 -73q-21 -33 -38 -68 q43 -16 43 -60q0 -7 -1 -15t-3 -22q-8 -36 -30 -57t-70 -21q-39 0 -54.5 16t-15.5 42z" />
<glyph unicode="&#x201d;" horiz-adv-x="500" d="M67 448l47 73q21 33 38 68q-43 16 -43 60q0 7 1 15t3 22q8 36 30 57t70 21q39 0 54.5 -16t15.5 -42q0 -42 -22.5 -91.5t-53.5 -97.5q-18 -29 -37 -54l-34 -46zM303 448l47 73q21 33 38 68q-43 16 -43 60q0 7 1 15t3 22q8 36 30 57t70 21q39 0 54.5 -16t15.5 -42 q0 -42 -22.5 -91.5t-53.5 -97.5q-18 -29 -37 -54l-34 -46z" />
<glyph unicode="&#x201e;" horiz-adv-x="500" d="M-48 -166l48 73q20 33 37 68q-43 16 -43 60q0 7 1 15t3 22q8 36 30 57t70 21q39 0 54.5 -16t15.5 -42q0 -42 -22.5 -91.5t-53.5 -97.5q-18 -29 -36 -54l-35 -46zM188 -166l48 73q20 33 37 68q-43 16 -43 60q0 7 1 15t3 22q8 36 30 57t70 21q39 0 54.5 -16t15.5 -42 q0 -42 -22.5 -91.5t-53.5 -97.5q-18 -29 -36 -54l-35 -46z" />
<glyph unicode="&#x2022;" horiz-adv-x="382" d="M27 178q0 12 1.5 26t6.5 37q6 31 17.5 56.5t30.5 43t47 27t68 9.5q63 0 89 -24t26 -63q0 -14 -1 -27t-6 -36q-6 -32 -18 -57t-31 -43t-47 -27.5t-67 -9.5q-65 0 -90.5 23t-25.5 65z" />
<glyph unicode="&#x2026;" horiz-adv-x="737" d="M-8 36q0 7 2 16l3 19q8 36 27 57t65 21q38 0 52 -13.5t14 -38.5q0 -6 -1 -15l-4 -19q-7 -36 -27 -57.5t-66 -21.5q-36 0 -50.5 14t-14.5 38zM235 36q0 7 1 15l4 20q7 36 26.5 57t65.5 21q37 0 51.5 -13.5t14.5 -38.5q0 -6 -2 -15l-3 -19q-8 -36 -27.5 -57.5t-65.5 -21.5 q-37 0 -51 14t-14 38zM477 36q0 7 1 15l4 20q8 36 27 57t65 21q38 0 52 -13.5t14 -38.5q0 -6 -2 -15l-3 -19q-7 -36 -27 -57.5t-66 -21.5q-36 0 -50.5 14t-14.5 38z" />
<glyph unicode="&#x202f;" horiz-adv-x="190" />
<glyph unicode="&#x2039;" horiz-adv-x="345" d="M-12 253l221 253l86 -61l-146 -202l98 -175l-92 -60z" />
<glyph unicode="&#x203a;" horiz-adv-x="345" d="M-5 69l146 202l-98 175l92 60l167 -245l-221 -253z" />
<glyph unicode="&#x205f;" horiz-adv-x="237" />
<glyph unicode="&#x20ac;" d="M8 208l21 104h78q2 11 3.5 22t3.5 22h-76l21 105h85q17 40 39.5 76t51.5 63q45 42 104.5 66t132.5 24q35 0 69.5 -6t59.5 -17l-39 -142q-23 10 -46.5 15.5t-49.5 5.5q-64 0 -105 -33q-14 -10 -25 -24l-22 -28h143l-21 -105h-160q-2 -11 -3 -21.5t-2 -22.5h155l-20 -104 h-133q7 -39 31.5 -59.5t78.5 -20.5q27 0 58.5 5.5t61.5 17.5l-23 -145q-29 -11 -67.5 -16.5t-72.5 -5.5q-117 0 -173 57.5t-63 166.5h-96z" />
<glyph unicode="&#x2122;" horiz-adv-x="735" d="M74 625l17 86h259l-22 -86h-74l-45 -231h-105l46 231h-76zM331 394l39 164q20 82 39 153h111q6 -40 11 -83l10 -85l42 85l40 83h120q-10 -72 -22.5 -154t-26.5 -163h-92q9 46 15.5 89t14.5 91l-39 -78l-40 -72h-67l-10 72q-6 39 -10 78l-22 -90l-21 -90h-92z" />
<glyph unicode="&#x25fc;" horiz-adv-x="485" d="M0 485h485v-485h-485v485z" />
</font>
</defs>
</svg>
