<?xml version="1.0" standalone="no"?>
<!DOCTYPE svg PUBLIC "-//W3C//DTD SVG 1.1//EN" "http://www.w3.org/Graphics/SVG/1.1/DTD/svg11.dtd" >
<svg xmlns="http://www.w3.org/2000/svg" xmlns:xlink="http://www.w3.org/1999/xlink" version="1.1">
<metadata></metadata>
<defs>
<font id="postnlweblight_italic" horiz-adv-x="501" >
<font-face units-per-em="1000" ascent="750" descent="-250" />
<missing-glyph horiz-adv-x="170" />
<glyph unicode="&#xfb01;" horiz-adv-x="478" d="M-12 -190q18 67 35 159l84 464h-74l10 52h73l7 41q18 95 64 133q50 41 160 41q59 0 107 -13l-14 -49q-52 12 -102 12q-76 0 -108 -24q-33 -26 -48 -105l-7 -36h256l-93 -485h-58l82 433h-195l-84 -462q-17 -90 -39 -161h-56z" />
<glyph unicode="&#xfb02;" horiz-adv-x="479" d="M-12 -190q18 67 35 159l84 464h-74l10 52h73l7 41q10 53 22.5 82t36.5 50q47 42 148 42q71 0 139 -19l-131 -681h-58l123 642q-34 8 -84 8q-60 0 -90 -23q-34 -26 -47 -106l-6 -36h102l-10 -52h-101l-84 -462q-14 -80 -39 -161h-56z" />
<glyph unicode="&#xfb03;" horiz-adv-x="736" d="M-12 -190q18 67 35 159l84 464h-74l10 52h73l7 41q17 98 67 139q42 35 123 35q19 0 45 -4l-16 -49q-15 3 -34 3q-52 0 -77 -21q-36 -32 -49 -108l-6 -36h198l7 41q17 94 64 133q50 41 160 41q59 0 107 -13l-14 -49q-52 12 -102 12q-76 0 -108 -24q-33 -26 -48 -105 l-6 -36h255l-93 -485h-58l82 433h-195l-84 -462q-17 -90 -39 -161h-56q18 67 35 159l84 464h-198l-84 -462q-17 -90 -39 -161h-56z" />
<glyph unicode="&#xfb04;" horiz-adv-x="737" d="M-12 -190q18 67 35 159l84 464h-74l10 52h73l7 41q17 98 67 139q42 35 123 35q19 0 45 -4l-16 -49q-15 3 -34 3q-52 0 -77 -21q-36 -32 -49 -108l-6 -36h198l7 41q10 53 22.5 82t36.5 50q47 42 148 42q71 0 139 -19l-131 -681h-58l123 642q-34 8 -84 8q-60 0 -90 -23 q-34 -26 -47 -106l-6 -36h102l-10 -52h-101l-84 -462q-17 -90 -39 -161h-56q18 67 35 159l84 464h-198l-84 -462q-17 -90 -39 -161h-56z" />
<glyph horiz-adv-x="0" />
<glyph unicode="&#xd;" horiz-adv-x="170" />
<glyph unicode=" "  horiz-adv-x="170" />
<glyph unicode="&#x09;" horiz-adv-x="170" />
<glyph unicode="&#xa0;" horiz-adv-x="170" />
<glyph unicode="!" horiz-adv-x="246" d="M21 15q0 6 4 29q9 48 48 48q30 0 30 -29q0 -9 -4 -30q-5 -26 -16 -37.5t-32 -11.5q-30 0 -30 31zM75 205l31 218l49 251h61l-49 -251l-52 -218h-40z" />
<glyph unicode="&#x22;" horiz-adv-x="283" d="M59 490l42 214h73l-58 -214h-57zM199 490l41 214h74l-58 -214h-57z" />
<glyph unicode="#" d="M-6 192l11 53h84l67 183h-116l11 53h125l71 193h54l-72 -193h147l72 193h54l-72 -193h75l-10 -53h-85l-67 -183h117l-11 -53h-126l-70 -192h-53l70 192h-148l-70 -192h-53l70 192h-75zM143 245h147l67 183h-147z" />
<glyph unicode="$" d="M8 18l21 63q68 -34 149 -34h13l51 260l-9 3q-67 24 -99 63.5t-32 100.5q0 87 57.5 145.5t155.5 68.5l21 103h48l-19 -101q62 -3 128 -27l-22 -59q-60 24 -119 25l-51 -265l9 -3q125 -46 125 -153q0 -89 -53.5 -147.5t-153.5 -72.5l-19 -101h-49l19 97h-7q-91 0 -164 34z M176 482q0 -38 17.5 -61t61.5 -41l49 246q-37 -6 -65 -23q-63 -39 -63 -121zM241 52q59 13 90.5 50.5t31.5 91.5q0 35 -17 57t-59 39z" />
<glyph unicode="%" horiz-adv-x="801" d="M77 420q0 47 14.5 111.5t42.5 104.5q39 54 104 54q97 0 97 -124q0 -47 -14.5 -111.5t-42.5 -104.5q-36 -53 -105 -53q-45 0 -70.5 31t-25.5 92zM137 424q0 -75 44 -75q28 0 47 29q22 34 34.5 88t12.5 97q0 74 -42 74q-31 0 -49 -29q-22 -33 -34.5 -87t-12.5 -97zM142 19 l464 683l54 -25l-466 -682zM446 107q0 47 14.5 111.5t42.5 104.5q39 54 104 54q97 0 97 -124q0 -47 -14.5 -111.5t-42.5 -104.5q-36 -53 -105 -53q-45 0 -70.5 31t-25.5 92zM506 111q0 -75 44 -75q28 0 47 29q22 34 34.5 88t12.5 97q0 74 -42 74q-31 0 -49 -29 q-22 -33 -34.5 -87t-12.5 -97z" />
<glyph unicode="&#x26;" horiz-adv-x="596" d="M25 110q1 118 161 205q-52 81 -52 165q0 86 52 148t137 62q55 0 89 -35.5t34 -94.5q0 -136 -179 -255q65 -94 114 -150q63 90 83 206h57q-31 -146 -105 -244q46 -51 112 -72l-11 -58q-84 15 -146 84q-96 -87 -205 -87q-64 0 -103 32.5t-38 93.5zM92 119q0 -77 88 -77 q84 0 157 66q-69 80 -126 166q-119 -73 -119 -155zM199 486q0 -67 44 -140q138 95 138 208q0 35 -17.5 56t-48.5 21q-51 0 -83.5 -43.5t-32.5 -101.5z" />
<glyph unicode="'" horiz-adv-x="143" d="M55 490l42 214h74l-59 -214h-57z" />
<glyph unicode="(" horiz-adv-x="278" d="M19 188q0 144 76.5 294.5t210.5 261.5l24 -23q-127 -126 -186.5 -263.5t-59.5 -267.5q0 -183 80 -322l-33 -22q-52 77 -82 168t-30 174z" />
<glyph unicode=")" horiz-adv-x="278" d="M-64 -131q127 126 186.5 263.5t59.5 267.5q0 82 -20.5 168t-59.5 154l33 22q52 -77 82 -168t30 -174q0 -145 -76.5 -295t-210.5 -261z" />
<glyph unicode="*" horiz-adv-x="356" d="M60 564l32 55l98 -55l12 121h59l-34 -121l121 56l11 -55l-126 -37l66 -92l-56 -35l-44 105l-87 -104l-42 35l103 91z" />
<glyph unicode="+" d="M47 248l11 59h159l31 160h62l-31 -160h159l-11 -59h-159l-31 -159h-62l31 159h-159z" />
<glyph unicode="," horiz-adv-x="200" d="M-42 -136q42 63 68 115q-27 8 -27 36q0 15 5 37q13 56 59 56q41 0 41 -40q0 -51 -50 -136q-25 -43 -56 -86z" />
<glyph unicode="-" horiz-adv-x="258" d="M20 222l12 59h175l-12 -59h-175z" />
<glyph unicode="." horiz-adv-x="200" d="M17 21q0 17 5 39q11 48 56 48q36 0 36 -37q0 -13 -6 -39q-10 -48 -56 -48q-35 0 -35 37z" />
<glyph unicode="/" horiz-adv-x="378" d="M-32 -16l382 706h66l-383 -706h-65z" />
<glyph unicode="0" d="M34 199q0 94 24.5 207.5t80.5 190.5q67 93 176 93q74 0 113 -50.5t39 -164.5q0 -93 -24.5 -207t-80.5 -190q-68 -94 -177 -94q-74 0 -112.5 50.5t-38.5 164.5zM104 205q0 -77 18.5 -117.5t70.5 -40.5q69 0 116 66q44 63 66 167.5t22 188.5q0 78 -19 118.5t-70 40.5 q-70 0 -116 -66q-44 -63 -66 -168t-22 -189z" />
<glyph unicode="1" d="M51 0l10 56h150l105 542l-170 -96l-13 57l202 115h62l-120 -618h135l-9 -56h-352z" />
<glyph unicode="2" d="M20 0l5 50l135 121q118 105 184.5 193.5t66.5 175.5q0 47 -27.5 68.5t-85.5 21.5q-70 0 -142 -32v62q80 30 158 30t122.5 -36t44.5 -102q0 -56 -19.5 -110t-58 -104.5t-78 -90.5t-94.5 -88l-119 -103h271l-9 -56h-354z" />
<glyph unicode="3" d="M31 17l20 57q61 -30 136 -30q84 0 130.5 42.5t46.5 124.5q0 62 -36.5 90t-120.5 28h-10l11 52h8q75 0 130 43t55 118q0 47 -24 68t-78 21q-64 0 -135 -29l6 59q70 29 142 29q76 0 118 -35t42 -103q0 -71 -38 -119.5t-102 -71.5v-2q103 -28 103 -140q0 -115 -69 -175 t-185 -60q-74 0 -150 33z" />
<glyph unicode="4" d="M16 183l8 48q197 245 388 443h61l-84 -434h92l-11 -57h-93l-34 -183h-65l33 183h-295zM95 240h228l65 338q-134 -141 -293 -338z" />
<glyph unicode="5" d="M23 16l21 58q62 -30 138 -30q86 0 134 51q53 56 53 151q0 98 -111 98q-56 0 -118 -23l-28 24l74 329h296l-10 -55h-238l-53 -236q47 19 102 19q74 0 114.5 -36t40.5 -105q0 -121 -66.5 -199t-197.5 -78q-74 0 -151 32z" />
<glyph unicode="6" d="M41 169q0 110 42 231.5t115 195.5q94 94 215 94q36 0 60 -6l-17 -54q-24 4 -43 4q-85 0 -152 -60q-75 -67 -115 -201q70 46 156 46q72 0 112.5 -40.5t40.5 -110.5q0 -109 -69 -196.5t-179 -87.5q-166 0 -166 185zM111 163q5 -120 106 -120q74 0 120.5 65.5t47.5 148.5 q0 105 -106 105q-68 0 -146 -44q-25 -75 -22 -155z" />
<glyph unicode="7" d="M44 0l392 616h-315l12 58h382l-11 -60l-388 -614h-72z" />
<glyph unicode="8" d="M19 133q0 78 51 137t133 92q-92 59 -91 139q1 83 64 136t154 53q70 0 111 -32t40 -91q0 -126 -165 -208q56 -33 88 -68t32 -86q-1 -94 -70.5 -157.5t-173.5 -63.5q-78 0 -125.5 39t-47.5 110zM86 145q0 -48 32.5 -74.5t83.5 -26.5q65 0 114.5 43t50.5 109q1 38 -27 68.5 t-95 69.5q-66 -28 -112 -75.5t-47 -113.5zM181 507q0 -38 24 -65.5t70 -56.5q137 69 137 172q1 38 -24 57t-67 19q-60 0 -99.5 -34.5t-40.5 -91.5z" />
<glyph unicode="9" d="M18 -8l20 57q21 -8 51 -8q82 0 151 60q72 63 115 200q-69 -46 -155 -46q-72 0 -111.5 40.5t-39.5 110.5q0 115 69 199.5t177 84.5q85 0 125 -51t40 -134q0 -109 -39.5 -229t-108.5 -191q-96 -101 -228 -101q-40 0 -66 8zM118 418q0 -106 104 -106q68 0 146 44 q22 88 22 155q0 120 -106 120q-74 0 -119.5 -64.5t-46.5 -148.5z" />
<glyph unicode=":" horiz-adv-x="200" d="M0 21q0 17 5 39q11 48 56 48q36 0 36 -37q0 -13 -6 -39q-10 -48 -56 -48q-35 0 -35 37zM76 422q0 17 5 39q11 48 56 48q36 0 36 -37q0 -13 -6 -39q-10 -48 -56 -48q-35 0 -35 37z" />
<glyph unicode=";" horiz-adv-x="200" d="M-47 -136q42 63 68 115q-27 8 -27 36q0 15 5 37q13 56 59 56q41 0 41 -40q0 -51 -50 -136q-25 -43 -56 -86zM76 422q0 17 5 39q11 48 56 48q36 0 36 -37q0 -13 -6 -39q-10 -48 -56 -48q-35 0 -35 37z" />
<glyph unicode="&#x3c;" d="M53 253l10 49l324 184l21 -50l-274 -163v-4l207 -158l-36 -42z" />
<glyph unicode="=" d="M20 148l12 60h380l-11 -60h-381zM59 349l12 59h380l-12 -59h-380z" />
<glyph unicode="&#x3e;" d="M53 118l273 163v5l-206 158l36 42l252 -184l-10 -49l-324 -184z" />
<glyph unicode="?" horiz-adv-x="391" d="M44 15q0 6 4 29q8 48 47 48q30 0 30 -29q0 -9 -4 -30q-7 -49 -47 -49q-30 0 -30 31zM85 605l3 58q64 27 135 27q170 0 170 -152q0 -100 -64.5 -157t-164.5 -62l-28 -117h-47l25 162q213 10 213 167q0 54 -28 78.5t-90 24.5q-64 0 -124 -29z" />
<glyph unicode="@" horiz-adv-x="740" d="M46 265q2 179 113.5 303t275.5 124q127 0 198.5 -70t71.5 -186q0 -113 -48.5 -194t-136.5 -81q-66 0 -83 50q-42 -50 -106 -50q-54 0 -81.5 35.5t-27.5 96.5q0 86 48.5 152.5t130.5 66.5q53 0 81 -36l12 25h38l-43 -214q-5 -25 -5 -42q0 -41 45 -41q56 0 88.5 65.5 t32.5 148.5q0 111 -60 164.5t-163 53.5q-133 0 -226.5 -106.5t-93.5 -261.5q0 -115 61 -175t178 -60q82 0 171 23l-4 -49q-89 -25 -182 -25q-134 0 -210 73.5t-75 209.5zM277 297q0 -45 15 -66.5t49 -21.5q52 0 93 53l34 173q-27 29 -69 29q-55 0 -88.5 -51t-33.5 -116z" />
<glyph unicode="A" horiz-adv-x="560" d="M-40 0q168 344 354 674h67q60 -333 91 -674h-68l-15 150h-287q-42 -83 -73 -150h-69zM135 215h247q-15 159 -49 373h-2q-104 -185 -196 -373z" />
<glyph unicode="B" horiz-adv-x="555" d="M27 0l130 674h162q102 0 143 -32q42 -31 42 -99t-31.5 -119.5t-92.5 -67.5v-2q110 -14 110 -122q0 -232 -301 -232h-162zM105 65h100q104 0 160 39.5t56 115.5q0 52 -33 75q-35 22 -125 22h-110zM166 382h81q86 0 130 29q58 39 58 125q0 41 -26 58q-25 15 -96 15h-102z " />
<glyph unicode="C" horiz-adv-x="534" d="M47 240q0 77 20 152.5t60 144t111 111t162 42.5q83 0 150 -40l-27 -60q-56 38 -132 38q-69 0 -124 -37t-86.5 -95.5t-48 -123.5t-16.5 -129q0 -196 163 -196q73 0 160 38l5 -58q-86 -43 -177 -43q-220 0 -220 256z" />
<glyph unicode="D" horiz-adv-x="618" d="M27 0l130 674h143q121 0 181 -27q92 -44 92 -192q0 -114 -38.5 -227.5t-119.5 -171.5q-79 -56 -235 -56h-153zM105 65h90q65 0 104.5 9t77.5 36q58 40 92.5 136.5t34.5 202.5q0 85 -34 120q-22 23 -59 31.5t-105 8.5h-95z" />
<glyph unicode="E" horiz-adv-x="516" d="M27 0l130 674h359l-11 -65h-293l-45 -227h258l-13 -65h-258l-48 -252h294l-12 -65h-361z" />
<glyph unicode="F" horiz-adv-x="499" d="M27 0l130 674h359l-11 -65h-294l-45 -227h259l-13 -65h-259l-60 -317h-66z" />
<glyph unicode="G" horiz-adv-x="590" d="M47 234q0 124 39 225.5t121.5 166t196.5 64.5q97 0 175 -44l-27 -60q-67 42 -156 42q-91 0 -156.5 -60.5t-94.5 -146.5t-29 -182q0 -192 163 -192q75 0 132 22l41 207h-136l13 65h202l-61 -316q-100 -41 -203 -41q-111 0 -165.5 65.5t-54.5 184.5z" />
<glyph unicode="H" horiz-adv-x="645" d="M27 0l130 674h66l-57 -292h329l57 292h66l-130 -674h-66l60 317h-329l-60 -317h-66z" />
<glyph unicode="I" horiz-adv-x="256" d="M30 0l130 674h66l-130 -674h-66z" />
<glyph unicode="J" horiz-adv-x="378" d="M-50 -5l13 53q32 -8 60 -8q81 0 121.5 46.5t60.5 151.5l85 436h66l-84 -433q-17 -85 -39 -132.5t-60 -78.5q-57 -46 -143 -46q-39 0 -80 11z" />
<glyph unicode="K" horiz-adv-x="526" d="M27 0l130 674h66l-63 -325q177 136 340 325h72q-144 -173 -288 -299l162 -375h-77l-143 327q-67 -54 -82 -65l-51 -262h-66z" />
<glyph unicode="L" horiz-adv-x="442" d="M27 0l130 674h66l-118 -609h257l-12 -65h-323z" />
<glyph unicode="M" horiz-adv-x="798" d="M15 0q54 247 169 674h61q87 -336 124 -502h2l321 502h56q-45 -366 -91 -674h-67l78 542h-2l-300 -471h-38l-116 471h-2q-96 -384 -129 -542h-66z" />
<glyph unicode="N" horiz-adv-x="669" d="M27 0l130 674h61l254 -551h1l108 551h61l-130 -674h-52l-264 558h-1l-107 -558h-61z" />
<glyph unicode="O" horiz-adv-x="640" d="M47 234q0 57 11.5 117t38 121.5t64 109.5t96.5 78t129 30q207 0 207 -250q0 -57 -11.5 -117t-38 -121.5t-64.5 -109.5t-96.5 -78t-129.5 -30q-206 0 -206 250zM116 242q0 -99 34 -146t112 -47q64 0 116.5 38t82.5 97t46 123.5t16 125.5q0 99 -34 145.5t-112 46.5 q-64 0 -116.5 -38t-82.5 -97t-46 -123.5t-16 -124.5z" />
<glyph unicode="P" horiz-adv-x="542" d="M27 0l130 674h167q130 0 172 -50q29 -36 29 -98q0 -155 -90 -225q-64 -49 -204 -49h-90l-48 -252h-66zM153 317h78q116 0 160 32q32 24 48 71.5t16 93.5q0 50 -24 71q-31 24 -121 24h-99z" />
<glyph unicode="Q" horiz-adv-x="640" d="M47 234q0 57 11.5 117t38 121.5t64 109.5t96.5 78t129 30q106 0 156.5 -65.5t50.5 -182.5q0 -59 -14 -124.5t-43 -132.5t-82.5 -119t-122.5 -71l69 -118l-61 -37l-73 145q-6 -1 -13 -1q-206 0 -206 250zM116 242q0 -102 34 -147.5t113 -45.5q65 0 116.5 37t82 95.5 t46 123.5t15.5 128q0 99 -34 145.5t-112 46.5q-64 0 -116.5 -38t-82.5 -97t-46 -123.5t-16 -124.5z" />
<glyph unicode="R" horiz-adv-x="555" d="M27 0l130 674h150q75 0 118 -11.5t68 -43.5q30 -37 30 -93q0 -99 -34.5 -164t-119.5 -87l68 -275h-70l-59 263q-36 -2 -80 -2h-83l-50 -261h-68zM157 326h83q89 0 129 15q85 33 85 169q0 50 -27 75q-29 24 -117 24h-97z" />
<glyph unicode="S" horiz-adv-x="489" d="M-3 18l21 63q63 -34 141 -34q86 0 132 40t46 107q0 39 -19 62t-69 41l-36 13q-126 45 -126 171q0 91 63 150t177 59q70 0 134 -27l-22 -59q-56 25 -115 25q-65 0 -106 -26q-28 -18 -44.5 -48.5t-16.5 -64.5q0 -47 20.5 -72t74.5 -45l36 -13q62 -22 90.5 -59t28.5 -98 q0 -101 -66 -160t-187 -59q-87 0 -157 34z" />
<glyph unicode="T" horiz-adv-x="477" d="M69 609l13 65h439l-13 -65h-189l-117 -609h-66l117 609h-184z" />
<glyph unicode="U" horiz-adv-x="613" d="M53 157q0 39 10 92l84 425h66l-83 -424q-9 -48 -9 -84q0 -58 30 -87.5t99 -29.5q90 0 135 46q44 44 65 155l83 424h66l-85 -431q-27 -138 -87.5 -198.5t-185.5 -60.5q-94 0 -141 45.5t-47 127.5z" />
<glyph unicode="V" horiz-adv-x="545" d="M83 674h67q24 -277 70 -587h2q184 344 299 587h69q-137 -283 -350 -674h-69q-55 310 -88 674z" />
<glyph unicode="W" horiz-adv-x="830" d="M75 674h68q0 -285 45 -587h2l175 383q36 80 82 204h65q0 -135 5 -204q12 -229 29 -383h2q148 285 266 587h69q-136 -336 -317 -674h-70q-31 212 -43 529h-2q-96 -232 -244 -529h-69q-58 368 -63 674z" />
<glyph unicode="X" horiz-adv-x="486" d="M-60 0l259 343q-53 140 -117 330h72q33 -111 94 -276q153 198 208 276h74l-256 -334l132 -339h-77l-104 285l-205 -285h-80z" />
<glyph unicode="Y" horiz-adv-x="464" d="M77 674h70q27 -245 70 -386h2q120 179 221 386h69q-52 -101 -129 -230t-143 -223l-42 -221h-66l42 222q-64 186 -94 452z" />
<glyph unicode="Z" horiz-adv-x="502" d="M-12 0l4 62l428 547h-314l12 65h395l-12 -61l-433 -548h332l-13 -65h-399z" />
<glyph unicode="[" horiz-adv-x="339" d="M30 -112l154 795h161l-9 -50h-103l-135 -695h103l-10 -50h-161z" />
<glyph unicode="\" horiz-adv-x="340" d="M68 690h65l109 -706h-67z" />
<glyph unicode="]" horiz-adv-x="339" d="M-29 -112l10 50h102l134 695h-102l9 50h161l-154 -795h-160z" />
<glyph unicode="^" d="M32 322l246 311h55l130 -316l-51 -17l-110 268h-3l-218 -271z" />
<glyph unicode="_" horiz-adv-x="477" d="M-78 -131l12 58h469l-12 -58h-469z" />
<glyph unicode="`" horiz-adv-x="321" d="M50 656l32 59l204 -124l-23 -47z" />
<glyph unicode="a" horiz-adv-x="477" d="M4 105q0 54 32.5 98t88.5 68q71 30 192 30h30l5 27q4 20 4 40q0 41 -24 60t-81 19q-66 0 -140 -31v53q76 32 153 32q73 0 112.5 -30t39.5 -85q0 -33 -8 -70l-43 -226q-5 -22 -5 -31q0 -12 6.5 -17t23.5 -5h6l-8 -40q-18 -5 -37 -5q-24 0 -38.5 13.5t-13.5 39.5 q-71 -61 -161 -61q-65 0 -99.5 32t-34.5 89zM68 110q0 -32 21.5 -51.5t62.5 -19.5q84 0 157 66l29 147h-34q-75 0 -124 -14q-112 -34 -112 -128z" />
<glyph unicode="b" horiz-adv-x="534" d="M21 33l126 657h61l-46 -239q71 50 152 50q80 1 122 -47q39 -43 38 -120v-15q-6 -144 -74.5 -239.5t-196.5 -95.5q-101 0 -182 49zM89 66q46 -24 111 -24q99 0 152 74t58 197v12q0 119 -111 119q-72 0 -148 -53z" />
<glyph unicode="c" horiz-adv-x="450" d="M29 175q0 83 31 156t97 121.5t154 48.5q68 0 126 -36l-20 -57q-53 35 -113 35q-65 0 -114.5 -39t-73.5 -97q-23 -56 -23 -117v-5q2 -140 124 -145h11q60 0 121 30l-1 -55q-64 -31 -140 -31q-91 0 -135 52t-44 139z" />
<glyph unicode="d" horiz-adv-x="523" d="M29 180q0 81 31.5 153t97 120t152.5 48q60 0 113 -30l44 219h60l-96 -497q-17 -85 -30 -193h-56l1 50q-64 -66 -157 -66q-75 0 -117.5 53.5t-42.5 142.5zM93 185q0 -68 28.5 -105t82.5 -37q86 0 152 83l56 284q-50 33 -110 33q-96 0 -152.5 -79t-56.5 -179z" />
<glyph unicode="e" d="M29 168q0 142 71 237.5t189 95.5q77 0 116.5 -44t39.5 -119q0 -50 -9 -101l-4 -21h-336q-3 -24 -3 -45q0 -66 32 -98.5t105 -32.5q69 0 140 30l-1 -53q-71 -33 -153 -33q-96 0 -141.5 46t-45.5 138zM105 269h271q7 33 7 63q0 111 -101 111q-61 0 -101 -34 q-58 -51 -76 -140z" />
<glyph unicode="f" horiz-adv-x="269" d="M-12 -190q18 67 35 159l84 464h-74l10 52h73l7 39q18 100 67 141q42 35 123 35q23 0 45 -4l-16 -49q-15 3 -38 3q-46 0 -73 -21q-35 -27 -49 -108l-6 -36h102l-10 -52h-101l-84 -462q-14 -80 -39 -161h-56z" />
<glyph unicode="g" horiz-adv-x="520" d="M29 178q0 130 74 226.5t189 96.5q84 0 133 -55l15 39h44l-87 -450q-24 -122 -76 -181.5t-161 -59.5q-49 0 -101 18l14 51q43 -15 92 -15q73 0 112.5 41t58.5 128l9 49q-63 -70 -156 -70q-78 0 -119 47.5t-41 134.5zM93 184q0 -130 109 -130q44 0 85 23t70 62l50 251 q-47 53 -116 53q-88 0 -143 -76.5t-55 -182.5z" />
<glyph unicode="h" horiz-adv-x="530" d="M15 0l132 684h60l-51 -257q87 74 183 74q61 0 95.5 -30.5t34.5 -85.5q0 -38 -12 -96l-55 -289h-60l55 285q10 50 10 87q0 36 -19.5 52.5t-62.5 16.5q-46 0 -94.5 -21.5t-86.5 -58.5l-69 -361h-60z" />
<glyph unicode="i" horiz-adv-x="217" d="M17 0l93 485h60l-93 -485h-60zM132 620q0 9 5 28q6 26 15.5 37t29.5 11q28 0 28 -27q0 -9 -5 -30q-7 -27 -15.5 -37t-27.5 -10q-30 0 -30 28z" />
<glyph unicode="j" horiz-adv-x="199" d="M-135 -205l13 52h6q51 0 79 32t45 119l95 487h60l-94 -481q-21 -111 -64.5 -160.5t-122.5 -49.5q-11 0 -17 1zM125 618q0 11 5 30q6 26 16 37t30 11q27 0 27 -25q0 -11 -5 -32q-7 -27 -15.5 -37t-27.5 -10q-30 0 -30 26z" />
<glyph unicode="k" horiz-adv-x="444" d="M15 0l133 690h60l-84 -430q122 81 253 225h72q-98 -113 -202 -197l117 -288h-69l-100 246q-41 -30 -85 -58l-35 -188h-60z" />
<glyph unicode="l" horiz-adv-x="218" d="M17 0l132 690h61l-133 -690h-60z" />
<glyph unicode="m" horiz-adv-x="795" d="M15 0l93 485h49l-5 -61q82 77 169 77q90 0 112 -77q92 77 175 77q59 0 92 -30.5t33 -91.5q0 -43 -12 -107l-53 -272h-60l55 285q9 49 9 87q0 36 -19.5 52.5t-62.5 16.5q-77 0 -151 -69q-1 -12 -10 -62l-59 -310h-60l57 304q9 48 9 72q0 33 -16.5 49t-55.5 16 q-83 0 -160 -80l-69 -361h-60z" />
<glyph unicode="n" horiz-adv-x="530" d="M15 0l93 485h50l-6 -61q41 35 91 56t96 21q61 0 95.5 -30.5t34.5 -85.5q0 -38 -12 -96l-55 -289h-60l54 285q11 53 11 87q0 36 -19 52.5t-62 16.5q-46 0 -95 -21.5t-87 -58.5l-69 -361h-60z" />
<glyph unicode="o" horiz-adv-x="530" d="M29 170q0 61 16.5 118.5t48.5 106t84.5 77.5t117.5 29q85 0 130.5 -49.5t45.5 -136.5q0 -49 -9.5 -95.5t-31 -89.5t-52 -75t-75.5 -51.5t-99 -19.5q-86 0 -131 49.5t-45 136.5zM93 177q0 -139 119 -139q50 0 89 24.5t61 65t33.5 86.5t11.5 94q0 139 -118 139 q-64 0 -110 -43t-66 -102.5t-20 -124.5z" />
<glyph unicode="p" horiz-adv-x="525" d="M-24 -190l133 675h43l-2 -49q84 65 170 65q78 0 118 -59q29 -44 29 -117q0 -61 -15.5 -119t-45.5 -109t-83 -82t-121 -31q-70 0 -125 33l-41 -207h-60zM88 77q47 -36 111 -36q67 0 115 42.5t68 102.5q21 62 21 133q0 63 -25 93q-27 30 -82 30q-78 0 -148 -63z" />
<glyph unicode="q" horiz-adv-x="527" d="M29 178q0 130 78 226.5t202 96.5q89 0 171 -62l-126 -629h-60l46 234q-61 -60 -145 -60q-74 0 -120 50.5t-46 143.5zM93 185q0 -70 31 -106.5t85 -36.5q43 0 82.5 24t65.5 61l54 280q-44 36 -112 36q-88 0 -147 -75t-59 -183z" />
<glyph unicode="r" horiz-adv-x="322" d="M15 0l93 485h50l-7 -65q29 33 69 54.5t79 21.5q13 0 25 -2l-15 -59h-11q-80 0 -152 -65l-71 -370h-60z" />
<glyph unicode="s" horiz-adv-x="400" d="M-4 14l15 51q58 -29 120 -29q66 0 98 27t32 74q0 29 -16 44t-61 29l-23 8q-56 19 -80.5 48.5t-24.5 77.5q0 74 53 115.5t132 41.5q68 0 120 -27l-16 -51q-50 24 -102 24q-54 0 -89.5 -22.5t-35.5 -73.5q0 -29 15.5 -45.5t62.5 -32.5l22 -8q62 -21 83.5 -47.5t21.5 -74.5 q0 -72 -52 -115.5t-141 -43.5q-71 0 -134 30z" />
<glyph unicode="t" horiz-adv-x="302" d="M37 433l11 52h71l27 136l62 9l-28 -145h116l-10 -52h-117l-51 -259q-12 -72 -12 -87q0 -18 7 -31q13 -21 58 -21q29 0 50 7l-5 -50q-26 -8 -53 -8q-65 0 -93 27q-24 21 -24 65v7q0 19 7 65l56 285h-72z" />
<glyph unicode="u" horiz-adv-x="506" d="M50 233l49 252h60l-49 -251q-17 -83 -17 -111q0 -37 17 -57q25 -28 92 -28q43 0 69 8t44.5 33.5t28.5 58.5t22 96l49 251h60l-49 -252q-18 -91 -33 -134t-43 -69q-49 -46 -159 -46q-81 0 -120 34q-38 33 -38 94q0 38 17 121z" />
<glyph unicode="v" horiz-adv-x="421" d="M45 485h60q12 -200 48 -418q147 268 214 418h62q-45 -99 -123.5 -246.5t-132.5 -238.5h-65q-18 83 -37.5 225t-25.5 260z" />
<glyph unicode="w" horiz-adv-x="655" d="M46 485h60q4 -99 35 -401q85 166 186 401h53q5 -137 30 -401q138 273 192 401h62q-87 -198 -245 -485h-51q-23 195 -34 382q-73 -168 -180 -382h-51q-46 254 -57 485z" />
<glyph unicode="x" horiz-adv-x="417" d="M-40 0l201 245q-66 157 -95 240h67q26 -80 69 -194q117 144 152 194h67q-73 -98 -194 -243l111 -242h-70l-84 196l-151 -196h-73z" />
<glyph unicode="y" horiz-adv-x="490" d="M34 122q0 32 8 70l57 293h60l-56 -287q-8 -40 -8 -63q0 -40 20.5 -58.5t65.5 -18.5q82 0 150 76l69 351h60l-88 -450q-25 -122 -77 -181.5t-163 -59.5q-44 0 -98 18l14 51q43 -15 92 -15q73 0 112 40.5t57 128.5l9 48q-62 -65 -154 -65q-61 0 -95.5 33t-34.5 89z" />
<glyph unicode="z" horiz-adv-x="396" d="M-10 50l314 383h-232l11 52h299l-10 -54l-312 -379h248l-9 -52h-307z" />
<glyph unicode="{" horiz-adv-x="330" d="M76 292l7 33q70 21 85 99l35 177q13 68 45 98.5t90 30.5h47l-9 -46h-26q-44 0 -61 -17.5t-29 -75.5l-27 -138q-14 -73 -35 -102.5t-65 -42.5v-1q51 -15 51 -77q0 -25 -8 -70l-26 -134q-4 -30 -6 -48q0 -27 12.5 -36t47.5 -9h26l-9 -46h-47q-90 0 -90 84q0 17 5 45l34 177 q15 76 -47 99z" />
<glyph unicode="|" horiz-adv-x="248" d="M23 -16l135 690h58l-134 -690h-59z" />
<glyph unicode="}" horiz-adv-x="330" d="M-70 -113l9 46h26q44 0 61.5 17.5t28.5 75.5l28 138q13 73 34 102.5t65 41.5v2q-51 15 -51 77q0 28 9 70l25 134q7 35 7 48q0 27 -12.5 36t-47.5 9h-27l9 46h48q89 0 89 -84q0 -17 -5 -45l-34 -177q-15 -78 48 -99l-7 -33q-72 -23 -85 -99l-35 -177q-14 -68 -45.5 -98.5 t-89.5 -30.5h-48z" />
<glyph unicode="~" d="M7 243q69 93 143 93q32 0 89 -34l32 -20q45 -26 74 -26q26 0 46 14t47 48l39 -27q-65 -91 -141 -91q-45 0 -93 30l-34 21q-41 28 -68 28q-40 0 -99 -69z" />
<glyph unicode="&#xa1;" horiz-adv-x="246" d="M-7 -189l49 251l52 218h40l-31 -218l-49 -251h-61zM106 422q0 9 4 30q5 26 16 37.5t32 11.5q30 0 30 -31q0 -6 -4 -29q-9 -48 -48 -48q-30 0 -30 29z" />
<glyph unicode="&#xa2;" d="M51 273q0 75 27 142.5t84.5 117t135.5 58.5l19 99h49l-20 -97q60 -3 112 -35l-19 -57q-46 32 -103 35l-79 -403q58 3 114 30l-1 -55q-54 -26 -124 -30l-18 -94h-48l18 96q-76 9 -111.5 60.5t-35.5 132.5zM115 278q2 -123 94 -142l77 397q-53 -11 -93 -51t-59.5 -93 t-18.5 -111z" />
<glyph unicode="&#xa3;" d="M0 0l10 63q39 24 67 65t38 90l23 120h-80l11 55h80l15 80q22 115 79.5 166t154.5 51q49 0 106 -18l-24 -60q-42 14 -87 14q-76 0 -112 -36t-55 -130l-13 -67h157l-11 -55h-157l-20 -100q-24 -129 -104 -181v-2h330l-9 -55h-399z" />
<glyph unicode="&#xa4;" d="M-14 102l85 73q-14 28 -14 71q0 86 59 152l-66 77l54 43l65 -77q52 32 113 32q62 0 101 -33l85 72l42 -54l-87 -75q11 -28 11 -63q0 -76 -50 -141l73 -84q-3 -3 -9 -7t-18 -13.5t-20 -16.5l-7 -6l-69 80q-57 -39 -125 -39q-55 0 -95 27l-86 -72zM122 256 q0 -44 27.5 -70.5t71.5 -26.5q58 0 103 44t45 107q0 45 -27.5 71t-71.5 26q-58 0 -103 -44t-45 -107z" />
<glyph unicode="&#xa5;" d="M34 98l13 60h125l12 65h-124l12 59h93q-52 195 -75 392h70q23 -215 67 -392h2q129 194 225 392h69q-100 -195 -231 -392h93l-11 -59h-124l-12 -65h122l-13 -60h-120l-18 -98h-66l18 98h-127z" />
<glyph unicode="&#xa6;" horiz-adv-x="221" d="M20 -16l50 260h50l-50 -260h-50zM107 438l50 262h50l-50 -262h-50z" />
<glyph unicode="&#xa7;" horiz-adv-x="398" d="M-7 11l13 52q64 -27 125 -27q55 0 88 23.5t33 69.5q0 27 -16.5 43.5t-62.5 38.5l-42 21q-81 39 -81 107q0 73 87 123q-43 35 -43 91q0 76 65 113q42 24 108 24q55 0 109 -19l-11 -48q-49 17 -102 17q-52 0 -80.5 -21.5t-28.5 -58.5q0 -23 14 -40t50 -34l60 -28 q46 -21 65 -44t19 -58q0 -72 -91 -129q41 -29 41 -91q0 -72 -50.5 -112t-134.5 -40q-63 0 -134 27zM111 351q0 -21 11 -35.5t41 -30.5l70 -36q69 44 69 90q0 23 -16 39.5t-53 32.5l-59 27q-63 -35 -63 -87z" />
<glyph unicode="&#xa8;" horiz-adv-x="321" d="M40 621q0 5 3 20q5 24 20 37.5t33 13.5q40 0 40 -34q0 -7 -3 -22q-10 -49 -57 -49q-36 0 -36 34zM190 621q0 5 3 20q5 24 20.5 37.5t34.5 13.5q39 0 39 -34q0 -7 -3 -22q-9 -49 -56 -49q-38 0 -38 34z" />
<glyph unicode="&#xa9;" horiz-adv-x="702" d="M30 265q0 160 113 279t268 119q119 0 187 -72.5t68 -191.5q0 -102 -50 -193.5t-139 -148.5t-193 -57q-118 0 -186 72.5t-68 192.5zM84 270q0 -103 55 -158.5t155 -55.5q126 -2 220.5 100.5t95.5 235.5q1 103 -54 159t-155 56q-127 0 -222 -102t-95 -235zM202 283 q0 39 11.5 78.5t33 74t59 56t84.5 21.5q51 0 85 -25l-18 -48q-30 23 -73 23q-42 0 -71.5 -30t-41.5 -68.5t-12 -79.5q-1 -88 70 -88q44 0 84 19l-1 -47q-47 -22 -91 -22q-119 0 -119 136z" />
<glyph unicode="&#xaa;" horiz-adv-x="334" d="M54 383q0 91 108 121q39 12 95 12h23l2 12q1 7 1 20q0 24 -14 33t-49 9q-51 0 -102 -22l3 51q58 21 115 21q106 0 106 -77q0 -16 -5 -38l-28 -149q-3 -17 0 -23.5t15 -6.5h7l-8 -40q-12 -4 -31 -4q-38 0 -41 35h-1q-45 -40 -100 -40q-46 0 -71 23.5t-25 62.5zM113 388 q0 -44 48 -44q50 0 92 39l17 86h-29q-33 0 -63 -9q-65 -19 -65 -72z" />
<glyph unicode="&#xab;" horiz-adv-x="447" d="M-9 242l210 233l36 -31l-180 -206l99 -198l-44 -20zM201 242l208 233l36 -31l-180 -206l99 -198l-44 -20z" />
<glyph unicode="&#xac;" d="M34 248l12 59h380l-44 -227h-61l33 168h-320z" />
<glyph unicode="&#xad;" horiz-adv-x="258" d="M20 222l12 59h175l-12 -59h-175z" />
<glyph unicode="&#xae;" horiz-adv-x="702" d="M30 265q0 160 113 279t268 119q119 0 187 -72.5t68 -191.5q0 -102 -50 -193.5t-139 -148.5t-193 -57q-118 0 -186 72.5t-68 192.5zM84 270q0 -103 55 -158.5t155 -55.5q126 -2 220.5 100.5t95.5 235.5q1 103 -54 159t-155 56q-127 0 -222 -102t-95 -235zM208 147l72 366 h91q53 0 78.5 -19t25.5 -63q0 -51 -20.5 -89t-58.5 -52l40 -143h-55l-33 133q-10 -1 -32 -1h-27l-24 -132h-57zM301 332h39q37 0 57 23t20 63q0 25 -12 34.5t-42 9.5h-38z" />
<glyph unicode="&#xb0;" horiz-adv-x="270" d="M50 570q0 56 38.5 99t99.5 43q47 0 70 -24.5t23 -64.5q0 -58 -38.5 -99.5t-99.5 -41.5q-93 0 -93 88zM106 573q0 -42 47 -42q32 0 52 26t20 62q0 44 -47 44q-33 0 -52.5 -27t-19.5 -63z" />
<glyph unicode="&#xb1;" d="M-12 0l11 56h379l-11 -56h-379zM46 304l12 59h159l31 158h62l-31 -158h158l-11 -59h-158l-31 -159h-62l30 159h-159z" />
<glyph unicode="&#xb4;" horiz-adv-x="321" d="M46 591l205 124l31 -59l-214 -112z" />
<glyph unicode="&#xb5;" horiz-adv-x="507" d="M-24 -190l131 675h58l-59 -298q-17 -88 13 -119q28 -31 85 -31q58 0 98 31q42 31 60 119l58 298h58l-59 -303q-21 -101 -72 -147q-57 -51 -151 -51q-87 0 -129 55l-33 -229h-58z" />
<glyph unicode="&#xb6;" horiz-adv-x="505" d="M57 508q1 81 59 128.5t156 47.5h213l-154 -790h-58l144 742h-110l-145 -742h-58l93 479q-67 0 -103.5 39.5t-36.5 95.5z" />
<glyph unicode="&#xb8;" horiz-adv-x="321" d="M47 -219l19 47q30 -10 60 -10q60 0 60 45q0 35 -59 35q-13 0 -22 -1l-4 6l51 115h54l-32 -76q74 -5 74 -70q0 -49 -33.5 -77t-88.5 -28q-42 0 -79 14z" />
<glyph unicode="&#xba;" horiz-adv-x="363" d="M66 420q0 56 18.5 104.5t61.5 82t104 33.5q57 0 90 -32.5t33 -90.5q0 -88 -47.5 -154t-136.5 -66q-59 0 -91 32.5t-32 90.5zM122 425q0 -82 74 -82q58 0 89.5 51t31.5 118q0 82 -73 82q-58 0 -90 -51t-32 -118z" />
<glyph unicode="&#xbb;" horiz-adv-x="447" d="M-37 51l180 206l-99 198l44 20l119 -222l-208 -233zM171 51l180 206l-99 198l44 20l121 -222l-210 -233z" />
<glyph unicode="&#xbc;" horiz-adv-x="801" d="M68 307l11 54h83l50 250l-94 -48l-6 50l119 67h51l-63 -319h78l-9 -54h-220zM150 19l464 683l54 -25l-466 -682zM399 88l8 46q87 104 221 233h50l-45 -225h57l-10 -54h-56l-18 -94h-57l17 94h-167zM471 142h105l29 142q-36 -35 -134 -142z" />
<glyph unicode="&#xbd;" horiz-adv-x="801" d="M68 307l11 54h83l50 250l-94 -48l-6 50l119 67h51l-63 -319h78l-9 -54h-220zM150 19l464 683l54 -25l-466 -682zM449 -6l7 49l44 33q100 76 124 101q43 45 43 93q0 50 -60 50q-44 0 -86 -20l-2 54q50 23 103 23q50 0 77.5 -25.5t27.5 -71.5q0 -52 -33 -98t-105 -97 l-52 -37h143l-9 -54h-222z" />
<glyph unicode="&#xbe;" horiz-adv-x="801" d="M71 316l15 55q43 -19 84 -19q88 0 88 74q0 31 -16 42t-60 11h-26l9 49h27q40 0 64 18q24 19 24 50q0 38 -54 38q-48 0 -91 -15l1 52q52 19 102 19q100 0 100 -84q0 -35 -18.5 -62.5t-51.5 -38.5v-2q25 -6 38.5 -27t13.5 -44q0 -65 -38.5 -100t-110.5 -35q-56 0 -100 19z M150 19l464 683l54 -25l-466 -682zM399 88l8 46q87 104 221 233h50l-45 -225h57l-10 -54h-56l-18 -94h-57l17 94h-167zM471 142h105l29 142q-36 -35 -134 -142z" />
<glyph unicode="&#xbf;" horiz-adv-x="412" d="M6 -53q0 100 64.5 157t164.5 62l28 117h47l-25 -162q-107 -5 -160 -46t-53 -121q0 -54 28 -78.5t90 -24.5q64 0 124 29l-3 -58q-64 -27 -135 -27q-170 0 -170 152zM274 422q0 9 4 30q7 49 47 49q30 0 30 -31q0 -6 -4 -29q-8 -48 -47 -48q-30 0 -30 29z" />
<glyph unicode="&#xc0;" horiz-adv-x="560" d="M-40 0q168 344 354 674h67q60 -333 91 -674h-68l-15 150h-287q-42 -83 -73 -150h-69zM135 215h247q-15 159 -49 373h-2q-104 -185 -196 -373zM193 830l32 59l204 -124l-23 -46z" />
<glyph unicode="&#xc1;" horiz-adv-x="560" d="M-40 0q168 344 354 674h67q60 -333 91 -674h-68l-15 150h-287q-42 -83 -73 -150h-69zM135 215h247q-15 159 -49 373h-2q-104 -185 -196 -373zM277 765l206 124l31 -59l-214 -111z" />
<glyph unicode="&#xc2;" horiz-adv-x="560" d="M-40 0q168 344 354 674h67q60 -333 91 -674h-68l-15 150h-287q-42 -83 -73 -150h-69zM135 215h247q-15 159 -49 373h-2q-104 -185 -196 -373zM223 780l139 120h42l99 -130l-49 -33l-75 91h-6l-114 -88z" />
<glyph unicode="&#xc3;" horiz-adv-x="560" d="M-40 0q168 344 354 674h67q60 -333 91 -674h-68l-15 150h-287q-42 -83 -73 -150h-69zM135 215h247q-15 159 -49 373h-2q-104 -185 -196 -373zM226 800q46 82 102 82q26 0 62 -26l14 -10q24 -18 41 -18q23 0 52 45l34 -30q-37 -74 -87 -74q-31 0 -65 25l-14 10 q-24 19 -44 19q-26 0 -59 -53z" />
<glyph unicode="&#xc4;" horiz-adv-x="560" d="M-40 0q168 344 354 674h67q60 -333 91 -674h-68l-15 150h-287q-42 -83 -73 -150h-69zM135 215h247q-15 159 -49 373h-2q-104 -185 -196 -373zM254 795q0 1 2 21q5 24 20.5 37t33.5 13q40 0 40 -34q0 -6 -3 -21q-10 -50 -58 -50q-35 0 -35 34zM404 795q0 6 3 21 q5 24 20.5 37t34.5 13q39 0 39 -34q0 -6 -3 -21q-10 -50 -56 -50q-38 0 -38 34z" />
<glyph unicode="&#xc5;" horiz-adv-x="560" d="M-40 0q168 344 354 674h67q60 -333 91 -674h-68l-15 150h-287q-42 -83 -73 -150h-69zM135 215h247q-15 159 -49 373h-2q-104 -185 -196 -373zM294 814q1 42 30.5 72t71.5 30q31 0 50 -20.5t18 -50.5q0 -42 -29 -72t-73 -30q-31 0 -50 20.5t-18 50.5zM340 821 q0 -33 31 -33q19 0 33 14t14 36q0 33 -31 33q-19 0 -33 -14t-14 -36z" />
<glyph unicode="&#xc6;" horiz-adv-x="814" d="M-43 0q85 139 228.5 350t228.5 324h400l-11 -65h-293l-45 -227h258l-13 -65h-258l-48 -252h294l-12 -65h-361l29 150h-227q-40 -59 -94 -150h-76zM169 215h198l75 394h-9q-140 -195 -264 -394z" />
<glyph unicode="&#xc7;" horiz-adv-x="534" d="M47 240q0 77 20 152.5t60 144t111 111t162 42.5q83 0 150 -40l-27 -60q-56 38 -132 38q-69 0 -124 -37t-86.5 -95.5t-48 -123.5t-16.5 -129q0 -196 163 -196q73 0 160 38l5 -58q-75 -38 -157 -42l-17 -43q74 -5 74 -70q0 -49 -33.5 -77t-88.5 -28q-42 0 -79 14l19 47 q30 -10 60 -10q60 0 60 45q0 35 -59 35q-13 0 -22 -1l-4 6l37 83q-187 19 -187 254z" />
<glyph unicode="&#xc8;" horiz-adv-x="516" d="M27 0l130 674h359l-11 -65h-293l-45 -227h258l-13 -65h-258l-48 -252h294l-12 -65h-361zM217 830l32 59l204 -124l-23 -46z" />
<glyph unicode="&#xc9;" horiz-adv-x="516" d="M27 0l130 674h359l-11 -65h-293l-45 -227h258l-13 -65h-258l-48 -252h294l-12 -65h-361zM278 765l206 124l31 -59l-214 -111z" />
<glyph unicode="&#xca;" horiz-adv-x="516" d="M27 0l130 674h359l-11 -65h-293l-45 -227h258l-13 -65h-258l-48 -252h294l-12 -65h-361zM221 780l139 120h42l99 -130l-49 -33l-75 91h-6l-114 -88z" />
<glyph unicode="&#xcb;" horiz-adv-x="516" d="M27 0l130 674h359l-11 -65h-293l-45 -227h258l-13 -65h-258l-48 -252h294l-12 -65h-361zM245 795q0 1 2 21q5 24 20.5 37t33.5 13q40 0 40 -34q0 -6 -3 -21q-10 -50 -58 -50q-35 0 -35 34zM395 795q0 6 3 21q5 24 20.5 37t34.5 13q39 0 39 -34q0 -6 -3 -21 q-10 -50 -56 -50q-38 0 -38 34z" />
<glyph unicode="&#xcc;" horiz-adv-x="256" d="M30 0l130 674h66l-130 -674h-66zM30 830l32 59l204 -124l-23 -46z" />
<glyph unicode="&#xcd;" horiz-adv-x="256" d="M30 0l130 674h66l-130 -674h-66zM127 765l206 124l31 -59l-214 -111z" />
<glyph unicode="&#xce;" horiz-adv-x="256" d="M30 0l130 674h66l-130 -674h-66zM67 780l139 120h42l99 -130l-49 -33l-75 91h-6l-114 -88z" />
<glyph unicode="&#xcf;" horiz-adv-x="256" d="M30 0l130 674h66l-130 -674h-66zM95 795q0 1 2 21q5 24 20.5 37t33.5 13q40 0 40 -34q0 -6 -3 -21q-10 -50 -58 -50q-35 0 -35 34zM245 795q0 6 3 21q5 24 20.5 37t34.5 13q39 0 39 -34q0 -6 -3 -21q-10 -50 -56 -50q-38 0 -38 34z" />
<glyph unicode="&#xd0;" horiz-adv-x="618" d="M18 308l12 65h69l58 301h143q121 0 181 -27q92 -44 92 -192q0 -114 -38.5 -227.5t-119.5 -171.5q-79 -56 -235 -56h-153l59 308h-68zM105 65h90q65 0 104.5 9t77.5 36q58 40 92.5 136.5t34.5 202.5q0 85 -34 120q-22 23 -59 31.5t-105 8.5h-95l-46 -236h125l-13 -65h-125 z" />
<glyph unicode="&#xd1;" horiz-adv-x="669" d="M27 0l130 674h61l254 -551h1l108 551h61l-130 -674h-52l-264 558h-1l-107 -558h-61zM265 800q46 82 102 82q26 0 62 -26l14 -10q24 -18 41 -18q24 0 52 45l34 -30q-37 -74 -87 -74q-31 0 -65 25l-14 10q-24 19 -44 19q-26 0 -59 -53z" />
<glyph unicode="&#xd2;" horiz-adv-x="640" d="M47 234q0 57 11.5 117t38 121.5t64 109.5t96.5 78t129 30q207 0 207 -250q0 -57 -11.5 -117t-38 -121.5t-64.5 -109.5t-96.5 -78t-129.5 -30q-206 0 -206 250zM116 242q0 -99 34 -146t112 -47q64 0 116.5 38t82.5 97t46 123.5t16 125.5q0 99 -34 145.5t-112 46.5 q-64 0 -116.5 -38t-82.5 -97t-46 -123.5t-16 -124.5zM271 830l32 59l204 -124l-23 -46z" />
<glyph unicode="&#xd3;" horiz-adv-x="640" d="M47 234q0 57 11.5 117t38 121.5t64 109.5t96.5 78t129 30q207 0 207 -250q0 -57 -11.5 -117t-38 -121.5t-64.5 -109.5t-96.5 -78t-129.5 -30q-206 0 -206 250zM116 242q0 -99 34 -146t112 -47q64 0 116.5 38t82.5 97t46 123.5t16 125.5q0 99 -34 145.5t-112 46.5 q-64 0 -116.5 -38t-82.5 -97t-46 -123.5t-16 -124.5zM319 765l206 124l31 -59l-214 -111z" />
<glyph unicode="&#xd4;" horiz-adv-x="640" d="M47 234q0 57 11.5 117t38 121.5t64 109.5t96.5 78t129 30q207 0 207 -250q0 -57 -11.5 -117t-38 -121.5t-64.5 -109.5t-96.5 -78t-129.5 -30q-206 0 -206 250zM116 242q0 -99 34 -146t112 -47q64 0 116.5 38t82.5 97t46 123.5t16 125.5q0 99 -34 145.5t-112 46.5 q-64 0 -116.5 -38t-82.5 -97t-46 -123.5t-16 -124.5zM274 780l139 120h42l99 -130l-49 -33l-75 91h-6l-114 -88z" />
<glyph unicode="&#xd5;" horiz-adv-x="640" d="M47 234q0 57 11.5 117t38 121.5t64 109.5t96.5 78t129 30q207 0 207 -250q0 -57 -11.5 -117t-38 -121.5t-64.5 -109.5t-96.5 -78t-129.5 -30q-206 0 -206 250zM116 242q0 -99 34 -146t112 -47q64 0 116.5 38t82.5 97t46 123.5t16 125.5q0 99 -34 145.5t-112 46.5 q-64 0 -116.5 -38t-82.5 -97t-46 -123.5t-16 -124.5zM269 800q46 82 102 82q26 0 62 -26l14 -10q24 -18 41 -18q24 0 52 45l34 -30q-37 -74 -87 -74q-31 0 -65 25l-14 10q-24 19 -44 19q-26 0 -59 -53z" />
<glyph unicode="&#xd6;" horiz-adv-x="640" d="M47 234q0 57 11.5 117t38 121.5t64 109.5t96.5 78t129 30q207 0 207 -250q0 -57 -11.5 -117t-38 -121.5t-64.5 -109.5t-96.5 -78t-129.5 -30q-206 0 -206 250zM116 242q0 -99 34 -146t112 -47q64 0 116.5 38t82.5 97t46 123.5t16 125.5q0 99 -34 145.5t-112 46.5 q-64 0 -116.5 -38t-82.5 -97t-46 -123.5t-16 -124.5zM295 795q0 1 2 21q5 24 20.5 37t33.5 13q40 0 40 -34q0 -6 -3 -21q-10 -50 -58 -50q-35 0 -35 34zM445 795q0 6 3 21q5 24 20.5 37t34.5 13q39 0 39 -34q0 -6 -3 -21q-10 -50 -56 -50q-38 0 -38 34z" />
<glyph unicode="&#xd7;" d="M13 135l184 153l-118 146l49 39l117 -144l173 144l38 -45l-173 -145l122 -150l-47 -43l-123 152l-184 -153z" />
<glyph unicode="&#xd8;" horiz-adv-x="640" d="M39 -66l66 106q-58 59 -58 194q0 57 11.5 117t38 121.5t64 109.5t96.5 78t129 30q65 0 109 -26l63 102l45 -23l-67 -110q57 -63 57 -193q0 -57 -11.5 -117t-38 -121.5t-64.5 -109.5t-96.5 -78t-129.5 -30q-61 0 -106 24l-63 -101zM116 242q0 -93 29 -138l313 502 q-31 19 -81 19q-64 0 -116.5 -38t-82.5 -97t-46 -123.5t-16 -124.5zM182 67q33 -18 80 -18q64 0 116.5 38t82.5 97t46 123.5t16 125.5q0 89 -28 135z" />
<glyph unicode="&#xd9;" horiz-adv-x="613" d="M53 157q0 39 10 92l84 425h66l-83 -424q-9 -48 -9 -84q0 -58 30 -87.5t99 -29.5q90 0 135 46q44 44 65 155l83 424h66l-85 -431q-27 -138 -87.5 -198.5t-185.5 -60.5q-94 0 -141 45.5t-47 127.5zM223 830l32 59l204 -124l-23 -46z" />
<glyph unicode="&#xda;" horiz-adv-x="613" d="M53 157q0 39 10 92l84 425h66l-83 -424q-9 -48 -9 -84q0 -58 30 -87.5t99 -29.5q90 0 135 46q44 44 65 155l83 424h66l-85 -431q-27 -138 -87.5 -198.5t-185.5 -60.5q-94 0 -141 45.5t-47 127.5zM299 765l206 124l31 -59l-214 -111z" />
<glyph unicode="&#xdb;" horiz-adv-x="613" d="M53 157q0 39 10 92l84 425h66l-83 -424q-9 -48 -9 -84q0 -58 30 -87.5t99 -29.5q90 0 135 46q44 44 65 155l83 424h66l-85 -431q-27 -138 -87.5 -198.5t-185.5 -60.5q-94 0 -141 45.5t-47 127.5zM251 780l139 120h42l99 -130l-49 -33l-75 91h-6l-114 -88z" />
<glyph unicode="&#xdc;" horiz-adv-x="613" d="M53 157q0 39 10 92l84 425h66l-83 -424q-9 -48 -9 -84q0 -58 30 -87.5t99 -29.5q90 0 135 46q44 44 65 155l83 424h66l-85 -431q-27 -138 -87.5 -198.5t-185.5 -60.5q-94 0 -141 45.5t-47 127.5zM274 795q0 1 2 21q5 24 20.5 37t33.5 13q40 0 40 -34q0 -6 -3 -21 q-10 -50 -58 -50q-35 0 -35 34zM424 795q0 6 3 21q5 24 20.5 37t34.5 13q39 0 39 -34q0 -6 -3 -21q-10 -50 -56 -50q-38 0 -38 34z" />
<glyph unicode="&#xdd;" horiz-adv-x="464" d="M77 674h70q27 -245 70 -386h2q120 179 221 386h69q-52 -101 -129 -230t-143 -223l-42 -221h-66l42 222q-64 186 -94 452zM207 765l206 124l31 -59l-214 -111z" />
<glyph unicode="&#xde;" horiz-adv-x="541" d="M27 0l130 674h66l-22 -116h101q128 0 171 -51q31 -34 30 -102q-4 -152 -91 -221q-62 -48 -203 -48h-90l-26 -136h-66zM132 201h77q118 0 160 32q31 24 47.5 71.5t16.5 93.5q0 50 -25 71q-29 24 -120 24h-100z" />
<glyph unicode="&#xdf;" horiz-adv-x="507" d="M-13 -145l159 822q72 23 153 23q74 0 120.5 -34t46.5 -101q0 -71 -33 -121t-93 -68v-2q50 -11 77.5 -48t26.5 -91q-1 -118 -75 -184.5t-191 -66.5q-12 0 -36 2l11 48q8 -1 23 -1q91 0 146.5 52t55.5 143q0 120 -133 120l10 49q68 10 107.5 52t39.5 107q0 90 -113 90 q-46 0 -91 -13l-151 -778h-60z" />
<glyph unicode="&#xe0;" horiz-adv-x="477" d="M4 105q0 54 32.5 98t88.5 68q71 30 192 30h30l5 27q4 20 4 40q0 41 -24 60t-81 19q-66 0 -140 -31v53q76 32 153 32q73 0 112.5 -30t39.5 -85q0 -33 -8 -70l-43 -226q-5 -22 -5 -31q0 -12 6.5 -17t23.5 -5h6l-8 -40q-18 -5 -37 -5q-24 0 -38.5 13.5t-13.5 39.5 q-71 -61 -161 -61q-65 0 -99.5 32t-34.5 89zM68 110q0 -32 21.5 -51.5t62.5 -19.5q84 0 157 66l29 147h-34q-75 0 -124 -14q-112 -34 -112 -128zM153 656l32 59l204 -124l-23 -47z" />
<glyph unicode="&#xe1;" horiz-adv-x="477" d="M4 105q0 54 32.5 98t88.5 68q71 30 192 30h30l5 27q4 20 4 40q0 41 -24 60t-81 19q-66 0 -140 -31v53q76 32 153 32q73 0 112.5 -30t39.5 -85q0 -33 -8 -70l-43 -226q-5 -22 -5 -31q0 -12 6.5 -17t23.5 -5h6l-8 -40q-18 -5 -37 -5q-24 0 -38.5 13.5t-13.5 39.5 q-71 -61 -161 -61q-65 0 -99.5 32t-34.5 89zM68 110q0 -32 21.5 -51.5t62.5 -19.5q84 0 157 66l29 147h-34q-75 0 -124 -14q-112 -34 -112 -128zM200 591l205 124l31 -59l-214 -112z" />
<glyph unicode="&#xe2;" horiz-adv-x="477" d="M4 105q0 54 32.5 98t88.5 68q71 30 192 30h30l5 27q4 20 4 40q0 41 -24 60t-81 19q-66 0 -140 -31v53q76 32 153 32q73 0 112.5 -30t39.5 -85q0 -33 -8 -70l-43 -226q-5 -22 -5 -31q0 -12 6.5 -17t23.5 -5h6l-8 -40q-18 -5 -37 -5q-24 0 -38.5 13.5t-13.5 39.5 q-71 -61 -161 -61q-65 0 -99.5 32t-34.5 89zM68 110q0 -32 21.5 -51.5t62.5 -19.5q84 0 157 66l29 147h-34q-75 0 -124 -14q-112 -34 -112 -128zM164 605l139 121h42l100 -130l-47 -32l-76 97h-6l-117 -95z" />
<glyph unicode="&#xe3;" horiz-adv-x="477" d="M4 105q0 54 32.5 98t88.5 68q71 30 192 30h30l5 27q4 20 4 40q0 41 -24 60t-81 19q-66 0 -140 -31v53q76 32 153 32q73 0 112.5 -30t39.5 -85q0 -33 -8 -70l-43 -226q-5 -22 -5 -31q0 -12 6.5 -17t23.5 -5h6l-8 -40q-18 -5 -37 -5q-24 0 -38.5 13.5t-13.5 39.5 q-71 -61 -161 -61q-65 0 -99.5 32t-34.5 89zM68 110q0 -32 21.5 -51.5t62.5 -19.5q84 0 157 66l29 147h-34q-75 0 -124 -14q-112 -34 -112 -128zM160 624q46 81 101 81q25 0 63 -26l13 -10q25 -17 41 -17q24 0 52 44l34 -30q-37 -73 -87 -73q-33 0 -65 25l-14 10 q-25 18 -43 18q-28 0 -59 -52z" />
<glyph unicode="&#xe4;" horiz-adv-x="477" d="M4 105q0 54 32.5 98t88.5 68q71 30 192 30h30l5 27q4 20 4 40q0 41 -24 60t-81 19q-66 0 -140 -31v53q76 32 153 32q73 0 112.5 -30t39.5 -85q0 -33 -8 -70l-43 -226q-5 -22 -5 -31q0 -12 6.5 -17t23.5 -5h6l-8 -40q-18 -5 -37 -5q-24 0 -38.5 13.5t-13.5 39.5 q-71 -61 -161 -61q-65 0 -99.5 32t-34.5 89zM68 110q0 -32 21.5 -51.5t62.5 -19.5q84 0 157 66l29 147h-34q-75 0 -124 -14q-112 -34 -112 -128zM188 621q0 5 3 20q5 24 20 37.5t33 13.5q40 0 40 -34q0 -7 -3 -22q-10 -49 -57 -49q-36 0 -36 34zM338 621q0 5 3 20 q5 24 20.5 37.5t34.5 13.5q39 0 39 -34q0 -7 -3 -22q-9 -49 -56 -49q-38 0 -38 34z" />
<glyph unicode="&#xe5;" horiz-adv-x="477" d="M4 105q0 54 32.5 98t88.5 68q71 30 192 30h30l5 27q4 20 4 40q0 41 -24 60t-81 19q-66 0 -140 -31v53q76 32 153 32q73 0 112.5 -30t39.5 -85q0 -33 -8 -70l-43 -226q-5 -22 -5 -31q0 -12 6.5 -17t23.5 -5h6l-8 -40q-18 -5 -37 -5q-24 0 -38.5 13.5t-13.5 39.5 q-71 -61 -161 -61q-65 0 -99.5 32t-34.5 89zM68 110q0 -32 21.5 -51.5t62.5 -19.5q84 0 157 66l29 147h-34q-75 0 -124 -14q-112 -34 -112 -128zM229 639q1 42 30 72t71 30q31 0 50 -20.5t18 -50.5q0 -42 -29 -72t-73 -30q-30 0 -49 20.5t-18 50.5zM274 646q0 -14 8.5 -23.5 t22.5 -9.5q19 0 33.5 14t14.5 36q0 33 -31 33q-20 0 -34 -14t-14 -36z" />
<glyph unicode="&#xe6;" horiz-adv-x="796" d="M4 105q0 54 32.5 98t88.5 68q71 30 192 30h30l5 27q4 20 4 40q0 41 -24 60t-81 19q-66 0 -140 -31v53q76 32 153 32q121 0 145 -78q71 78 175 78q77 0 116.5 -44t39.5 -119q0 -52 -10 -101l-3 -21h-336q-3 -24 -3 -45q0 -66 32 -98.5t105 -32.5q69 0 140 30l-1 -53 q-71 -33 -153 -33q-131 0 -170 88q-37 -41 -92.5 -64.5t-106.5 -23.5q-66 0 -102 32.5t-36 88.5zM68 110q0 -32 21.5 -51.5t62.5 -19.5q45 0 95 24t79 57q-7 61 8 132h-30q-75 0 -124 -14q-112 -34 -112 -128zM400 269h271q7 33 7 63q0 111 -101 111q-61 0 -101 -34 q-57 -50 -76 -140z" />
<glyph unicode="&#xe7;" horiz-adv-x="450" d="M29 179q0 81 31 153t97 120.5t154 48.5q68 0 126 -36l-20 -57q-53 35 -113 35q-65 0 -114.5 -39t-73.5 -97t-23 -122q2 -140 124 -145q65 -3 132 30l-1 -55q-55 -26 -118 -30l-22 -54q74 -5 74 -70q0 -49 -33 -76.5t-89 -27.5q-45 0 -79 13l19 48q29 -11 60 -11 q60 0 60 46q0 34 -59 34h-22l-4 5l42 94q-76 10 -112 62t-36 131z" />
<glyph unicode="&#xe8;" d="M29 168q0 142 71 237.5t189 95.5q77 0 116.5 -44t39.5 -119q0 -50 -9 -101l-4 -21h-336q-3 -24 -3 -45q0 -66 32 -98.5t105 -32.5q69 0 140 30l-1 -53q-71 -33 -153 -33q-96 0 -141.5 46t-45.5 138zM105 269h271q7 33 7 63q0 111 -101 111q-61 0 -101 -34 q-58 -51 -76 -140zM162 656l32 59l204 -124l-23 -47z" />
<glyph unicode="&#xe9;" d="M29 168q0 142 71 237.5t189 95.5q77 0 116.5 -44t39.5 -119q0 -50 -9 -101l-4 -21h-336q-3 -24 -3 -45q0 -66 32 -98.5t105 -32.5q69 0 140 30l-1 -53q-71 -33 -153 -33q-96 0 -141.5 46t-45.5 138zM105 269h271q7 33 7 63q0 111 -101 111q-61 0 -101 -34 q-58 -51 -76 -140zM213 590l205 124l31 -59l-214 -112z" />
<glyph unicode="&#xea;" d="M29 168q0 142 71 237.5t189 95.5q77 0 116.5 -44t39.5 -119q0 -50 -9 -101l-4 -21h-336q-3 -24 -3 -45q0 -66 32 -98.5t105 -32.5q69 0 140 30l-1 -53q-71 -33 -153 -33q-96 0 -141.5 46t-45.5 138zM105 269h271q7 33 7 63q0 111 -101 111q-61 0 -101 -34 q-58 -51 -76 -140zM173 605l139 121h42l100 -130l-47 -32l-76 97h-6l-117 -95z" />
<glyph unicode="&#xeb;" d="M29 168q0 142 71 237.5t189 95.5q77 0 116.5 -44t39.5 -119q0 -50 -9 -101l-4 -21h-336q-3 -24 -3 -45q0 -66 32 -98.5t105 -32.5q69 0 140 30l-1 -53q-71 -33 -153 -33q-96 0 -141.5 46t-45.5 138zM105 269h271q7 33 7 63q0 111 -101 111q-61 0 -101 -34 q-58 -51 -76 -140zM193 621q0 5 3 20q5 24 20 37.5t33 13.5q40 0 40 -34q0 -7 -3 -22q-10 -49 -57 -49q-36 0 -36 34zM343 621q0 5 3 20q5 24 20.5 37.5t34.5 13.5q39 0 39 -34q0 -7 -3 -22q-9 -49 -56 -49q-38 0 -38 34z" />
<glyph unicode="&#xec;" horiz-adv-x="217" d="M-12 656l32 59l204 -124l-23 -47zM17 0l93 485h60l-93 -485h-60z" />
<glyph unicode="&#xed;" horiz-adv-x="217" d="M17 0l93 485h60l-93 -485h-60zM94 591l205 124l31 -59l-214 -112z" />
<glyph unicode="&#xee;" horiz-adv-x="217" d="M17 0l93 485h60l-93 -485h-60zM22 605l139 121h42l100 -130l-47 -32l-76 97h-6l-117 -95z" />
<glyph unicode="&#xef;" horiz-adv-x="217" d="M17 0l93 485h60l-93 -485h-60zM53 621q0 5 3 20q5 24 20 37.5t33 13.5q40 0 40 -34q0 -7 -3 -22q-10 -49 -57 -49q-36 0 -36 34zM203 621q0 5 3 20q5 24 20.5 37.5t34.5 13.5q39 0 39 -34q0 -7 -3 -22q-9 -49 -56 -49q-38 0 -38 34z" />
<glyph unicode="&#xf0;" horiz-adv-x="515" d="M29 170q0 58 15.5 114.5t45 106t80 80t113.5 30.5q56 0 96 -26q-15 85 -72 131l-86 -60l-27 40l71 50q-32 17 -73 29l47 30q41 -13 69 -29l89 62l27 -40l-73 -51q99 -84 99 -258q0 -47 -6.5 -96t-24 -104t-45 -97t-75 -70t-107.5 -28q-74 0 -118 49t-45 137zM93 178 q1 -135 107 -135q53 0 92 36.5t58.5 93.5t28 111t8.5 103q0 14 -1 21q-39 35 -104 35q-62 0 -106.5 -44t-63.5 -102t-19 -119z" />
<glyph unicode="&#xf1;" horiz-adv-x="530" d="M15 0l93 485h50l-6 -61q41 35 91 56t96 21q61 0 95.5 -30.5t34.5 -85.5q0 -38 -12 -96l-55 -289h-60l54 285q11 53 11 87q0 36 -19 52.5t-62 16.5q-46 0 -95 -21.5t-87 -58.5l-69 -361h-60zM206 624q46 81 101 81q25 0 63 -26l13 -10q25 -17 41 -17q24 0 52 44l34 -30 q-37 -73 -87 -73q-33 0 -65 25l-14 10q-25 18 -43 18q-28 0 -59 -52z" />
<glyph unicode="&#xf2;" horiz-adv-x="530" d="M29 170q0 61 16.5 118.5t48.5 106t84.5 77.5t117.5 29q85 0 130.5 -49.5t45.5 -136.5q0 -49 -9.5 -95.5t-31 -89.5t-52 -75t-75.5 -51.5t-99 -19.5q-86 0 -131 49.5t-45 136.5zM93 177q0 -139 119 -139q50 0 89 24.5t61 65t33.5 86.5t11.5 94q0 139 -118 139 q-64 0 -110 -43t-66 -102.5t-20 -124.5zM179 656l32 59l204 -124l-23 -47z" />
<glyph unicode="&#xf3;" horiz-adv-x="530" d="M29 170q0 61 16.5 118.5t48.5 106t84.5 77.5t117.5 29q85 0 130.5 -49.5t45.5 -136.5q0 -49 -9.5 -95.5t-31 -89.5t-52 -75t-75.5 -51.5t-99 -19.5q-86 0 -131 49.5t-45 136.5zM93 177q0 -139 119 -139q50 0 89 24.5t61 65t33.5 86.5t11.5 94q0 139 -118 139 q-64 0 -110 -43t-66 -102.5t-20 -124.5zM234 591l205 124l31 -59l-214 -112z" />
<glyph unicode="&#xf4;" horiz-adv-x="530" d="M29 170q0 61 16.5 118.5t48.5 106t84.5 77.5t117.5 29q85 0 130.5 -49.5t45.5 -136.5q0 -49 -9.5 -95.5t-31 -89.5t-52 -75t-75.5 -51.5t-99 -19.5q-86 0 -131 49.5t-45 136.5zM93 177q0 -139 119 -139q50 0 89 24.5t61 65t33.5 86.5t11.5 94q0 139 -118 139 q-64 0 -110 -43t-66 -102.5t-20 -124.5zM195 605l139 121h42l100 -130l-47 -32l-76 97h-6l-117 -95z" />
<glyph unicode="&#xf5;" horiz-adv-x="530" d="M29 170q0 61 16.5 118.5t48.5 106t84.5 77.5t117.5 29q85 0 130.5 -49.5t45.5 -136.5q0 -49 -9.5 -95.5t-31 -89.5t-52 -75t-75.5 -51.5t-99 -19.5q-86 0 -131 49.5t-45 136.5zM93 177q0 -139 119 -139q50 0 89 24.5t61 65t33.5 86.5t11.5 94q0 139 -118 139 q-64 0 -110 -43t-66 -102.5t-20 -124.5zM194 624q46 81 101 81q25 0 63 -26l13 -10q25 -17 41 -17q24 0 52 44l34 -30q-37 -73 -87 -73q-33 0 -65 25l-14 10q-25 18 -43 18q-28 0 -59 -52z" />
<glyph unicode="&#xf6;" horiz-adv-x="530" d="M29 170q0 61 16.5 118.5t48.5 106t84.5 77.5t117.5 29q85 0 130.5 -49.5t45.5 -136.5q0 -49 -9.5 -95.5t-31 -89.5t-52 -75t-75.5 -51.5t-99 -19.5q-86 0 -131 49.5t-45 136.5zM93 177q0 -139 119 -139q50 0 89 24.5t61 65t33.5 86.5t11.5 94q0 139 -118 139 q-64 0 -110 -43t-66 -102.5t-20 -124.5zM226 621q0 5 3 20q5 24 20 37.5t33 13.5q40 0 40 -34q0 -7 -3 -22q-10 -49 -57 -49q-36 0 -36 34zM376 621q0 5 3 20q5 24 20.5 37.5t34.5 13.5q39 0 39 -34q0 -7 -3 -22q-9 -49 -56 -49q-38 0 -38 34z" />
<glyph unicode="&#xf7;" d="M40 248l11 59h381l-12 -59h-380zM158 95q0 11 6 37q13 46 54 46q36 0 36 -35q0 -13 -6 -37q-10 -47 -54 -47q-36 0 -36 36zM219 413q0 11 6 37q13 47 54 47q36 0 36 -36q0 -13 -6 -37q-9 -47 -54 -47q-36 0 -36 36z" />
<glyph unicode="&#xf8;" horiz-adv-x="530" d="M29 170q0 61 16.5 118.5t48.5 106t84.5 77.5t117.5 29q46 0 82 -17l56 86l41 -20l-58 -90q55 -49 55 -145q0 -49 -9.5 -95.5t-31 -89.5t-52 -75t-75.5 -51.5t-99 -19.5q-45 0 -81 15l-52 -83l-42 21l54 86q-55 49 -55 147zM93 177q0 -66 26 -99l228 357q-27 12 -58 12 q-64 0 -110 -43t-66 -102.5t-20 -124.5zM156 48q27 -10 56 -10q50 0 89 24.5t61 65t33.5 86.5t11.5 94q0 64 -25 96z" />
<glyph unicode="&#xf9;" horiz-adv-x="506" d="M33 115q0 35 17 118l49 252h60l-49 -251q-17 -83 -17 -111q0 -37 17 -57q25 -28 92 -28q43 0 69 8t44.5 33.5t28.5 58.5t22 96l49 251h60l-49 -252q-18 -91 -33 -134t-43 -69q-49 -46 -159 -46q-81 0 -120 34t-38 97zM163 656l32 59l204 -124l-23 -47z" />
<glyph unicode="&#xfa;" horiz-adv-x="506" d="M33 115q0 35 17 118l49 252h60l-49 -251q-17 -83 -17 -111q0 -37 17 -57q25 -28 92 -28q43 0 69 8t44.5 33.5t28.5 58.5t22 96l49 251h60l-49 -252q-18 -91 -33 -134t-43 -69q-49 -46 -159 -46q-81 0 -120 34t-38 97zM231 591l205 124l31 -59l-214 -112z" />
<glyph unicode="&#xfb;" horiz-adv-x="506" d="M33 115q0 35 17 118l49 252h60l-49 -251q-17 -83 -17 -111q0 -37 17 -57q25 -28 92 -28q43 0 69 8t44.5 33.5t28.5 58.5t22 96l49 251h60l-49 -252q-18 -91 -33 -134t-43 -69q-49 -46 -159 -46q-81 0 -120 34t-38 97zM170 605l139 121h42l100 -130l-47 -32l-76 97h-6 l-117 -95z" />
<glyph unicode="&#xfc;" horiz-adv-x="506" d="M33 115q0 35 17 118l49 252h60l-49 -251q-17 -83 -17 -111q0 -37 17 -57q25 -28 92 -28q43 0 69 8t44.5 33.5t28.5 58.5t22 96l49 251h60l-49 -252q-18 -91 -33 -134t-43 -69q-49 -46 -159 -46q-81 0 -120 34t-38 97zM195 621q0 5 3 20q5 24 20 37.5t33 13.5q40 0 40 -34 q0 -7 -3 -22q-10 -49 -57 -49q-36 0 -36 34zM345 621q0 5 3 20q5 24 20.5 37.5t34.5 13.5q39 0 39 -34q0 -7 -3 -22q-9 -49 -56 -49q-38 0 -38 34z" />
<glyph unicode="&#xfd;" horiz-adv-x="490" d="M34 122q0 32 8 70l57 293h60l-56 -287q-8 -40 -8 -63q0 -40 20.5 -58.5t65.5 -18.5q82 0 150 76l69 351h60l-88 -450q-25 -122 -77 -181.5t-163 -59.5q-44 0 -98 18l14 51q43 -15 92 -15q73 0 112 40.5t57 128.5l9 48q-62 -65 -154 -65q-61 0 -95.5 33t-34.5 89zM223 591 l205 124l31 -59l-214 -112z" />
<glyph unicode="&#xfe;" horiz-adv-x="525" d="M-24 -190l172 874h59l-48 -241q77 58 160 58q79 0 119 -59q29 -44 29 -117q0 -48 -9.5 -95t-30 -92t-50.5 -79t-75.5 -54.5t-100.5 -20.5q-69 0 -124 33l-42 -207h-59zM88 77q47 -36 110 -36q68 0 116 42.5t68 102t21 128.5q1 66 -26 97t-82 31q-77 0 -147 -63z" />
<glyph unicode="&#xff;" horiz-adv-x="490" d="M34 122q0 32 8 70l57 293h60l-56 -287q-8 -40 -8 -63q0 -40 20.5 -58.5t65.5 -18.5q82 0 150 76l69 351h60l-88 -450q-25 -122 -77 -181.5t-163 -59.5q-44 0 -98 18l14 51q43 -15 92 -15q73 0 112 40.5t57 128.5l9 48q-62 -65 -154 -65q-61 0 -95.5 33t-34.5 89zM188 621 q0 5 3 20q5 24 20 37.5t33 13.5q40 0 40 -34q0 -7 -3 -22q-10 -49 -57 -49q-36 0 -36 34zM338 621q0 5 3 20q5 24 20.5 37.5t34.5 13.5q39 0 39 -34q0 -7 -3 -22q-9 -49 -56 -49q-38 0 -38 34z" />
<glyph unicode="&#x152;" horiz-adv-x="845" d="M47 234q0 56 11.5 117t37.5 122t63 109t92 78t120 30q68 0 114 -42l5 26h355l-11 -65h-293l-45 -227h258l-13 -65h-258l-48 -252h294l-12 -65h-357l7 38q-24 -24 -60.5 -39t-75.5 -15q-84 0 -134 63.5t-50 186.5zM116 242q0 -193 127 -193q76 0 134 63l92 470 q-34 43 -96 43q-63 0 -114.5 -38t-81 -97t-45.5 -123.5t-16 -124.5z" />
<glyph unicode="&#x153;" horiz-adv-x="852" d="M29 170q0 83 28 156.5t89.5 124t145.5 50.5q125 0 151 -105q28 51 80.5 78t113.5 27q79 0 119 -44t40 -119q0 -57 -9 -101l-4 -21h-336q-3 -24 -3 -45q0 -66 32 -98.5t105 -32.5q69 0 140 30l-1 -53q-71 -33 -152 -33q-69 0 -114.5 32.5t-59.5 83.5q-65 -116 -191 -116 q-84 0 -129 49.5t-45 136.5zM93 177q0 -139 119 -139q83 0 131 82t48 192q0 69 -25.5 102t-81.5 33q-90 0 -140.5 -83.5t-50.5 -186.5zM456 269h272q6 38 6 63q0 111 -101 111q-62 0 -100 -34q-57 -49 -77 -140z" />
<glyph unicode="&#x178;" horiz-adv-x="464" d="M77 674h70q27 -245 70 -386h2q120 179 221 386h69q-52 -101 -129 -230t-143 -223l-42 -221h-66l42 222q-64 186 -94 452zM187 795q0 1 2 21q5 24 20.5 37t33.5 13q40 0 40 -34q0 -6 -3 -21q-10 -50 -58 -50q-35 0 -35 34zM337 795q0 6 3 21q5 24 20.5 37t34.5 13 q39 0 39 -34q0 -6 -3 -21q-10 -50 -56 -50q-38 0 -38 34z" />
<glyph unicode="&#x2c6;" horiz-adv-x="321" d="M21 605l139 121h42l100 -130l-47 -32l-76 97h-6l-117 -95z" />
<glyph unicode="&#x2dc;" horiz-adv-x="321" d="M15 624q46 81 101 81q25 0 63 -26l13 -10q26 -17 41 -17q24 0 52 44l34 -30q-37 -73 -87 -73q-32 0 -65 25l-14 10q-25 18 -43 18q-28 0 -59 -52z" />
<glyph unicode="&#x2000;" horiz-adv-x="458" />
<glyph unicode="&#x2001;" horiz-adv-x="916" />
<glyph unicode="&#x2002;" horiz-adv-x="458" />
<glyph unicode="&#x2003;" horiz-adv-x="916" />
<glyph unicode="&#x2004;" horiz-adv-x="305" />
<glyph unicode="&#x2005;" horiz-adv-x="229" />
<glyph unicode="&#x2006;" horiz-adv-x="152" />
<glyph unicode="&#x2007;" horiz-adv-x="152" />
<glyph unicode="&#x2008;" horiz-adv-x="114" />
<glyph unicode="&#x2009;" horiz-adv-x="183" />
<glyph unicode="&#x200a;" horiz-adv-x="50" />
<glyph unicode="&#x2010;" horiz-adv-x="258" d="M20 222l12 59h175l-12 -59h-175z" />
<glyph unicode="&#x2011;" horiz-adv-x="258" d="M20 222l12 59h175l-12 -59h-175z" />
<glyph unicode="&#x2012;" horiz-adv-x="258" d="M20 222l12 59h175l-12 -59h-175z" />
<glyph unicode="&#x2013;" horiz-adv-x="500" d="M-21 225l9 53h500l-9 -53h-500z" />
<glyph unicode="&#x2014;" horiz-adv-x="1000" d="M-22 225l9 53h1000l-9 -53h-1000z" />
<glyph unicode="&#x2018;" horiz-adv-x="156" d="M58 530q0 51 50 136q25 43 56 86l40 -18q-42 -63 -68 -115q27 -8 27 -36q0 -15 -5 -37q-13 -56 -59 -56q-41 0 -41 40z" />
<glyph unicode="&#x2019;" horiz-adv-x="150" d="M45 476q42 63 68 115q-27 8 -27 36q0 15 5 37q13 56 59 56q41 0 41 -40q0 -51 -50 -136q-25 -43 -56 -86z" />
<glyph unicode="&#x201a;" horiz-adv-x="139" d="M-79 -136q42 63 68 115q-27 8 -27 36q0 15 5 37q13 56 59 56q41 0 41 -40q0 -51 -50 -136q-25 -43 -56 -86z" />
<glyph unicode="&#x201c;" horiz-adv-x="331" d="M58 520q0 51 50 136q25 43 56 86l40 -18q-42 -63 -68 -115q27 -8 27 -36q0 -15 -5 -37q-13 -56 -59 -56q-41 0 -41 40zM233 520q0 51 50 136q25 43 56 86l40 -18q-42 -63 -68 -115q27 -8 27 -36q0 -15 -5 -37q-13 -56 -59 -56q-41 0 -41 40z" />
<glyph unicode="&#x201d;" horiz-adv-x="323" d="M45 491q42 63 68 115q-27 8 -27 36q0 15 5 37q13 56 59 56q41 0 41 -40q0 -51 -50 -136q-25 -43 -56 -86zM218 491q42 63 68 115q-27 8 -27 36q0 15 5 37q13 56 59 56q41 0 41 -40q0 -51 -50 -136q-25 -43 -56 -86z" />
<glyph unicode="&#x201e;" horiz-adv-x="302" d="M-79 -136q42 63 68 115q-27 8 -27 36q0 15 5 37q13 56 59 56q41 0 41 -40q0 -51 -50 -136q-25 -43 -56 -86zM84 -136q42 63 68 115q-27 8 -27 36q0 15 5 37q13 56 59 56q41 0 41 -40q0 -51 -50 -136q-25 -43 -56 -86z" />
<glyph unicode="&#x2022;" horiz-adv-x="363" d="M35 196q0 33 9 69q16 69 47.5 99.5t99.5 30.5q98 0 98 -81q0 -30 -8 -65q-17 -77 -46 -103t-99 -26q-101 0 -101 76z" />
<glyph unicode="&#x2026;" horiz-adv-x="553" d="M-11 21q0 15 6 39q13 48 56 48q35 0 35 -37q0 -17 -5 -39q-10 -48 -56 -48q-36 0 -36 37zM172 21q0 15 6 39q12 48 55 48q36 0 36 -37q0 -13 -6 -39q-10 -48 -55 -48q-36 0 -36 37zM354 21q0 15 6 39q13 48 55 48q36 0 36 -37q0 -13 -6 -39q-8 -48 -55 -48q-36 0 -36 37z " />
<glyph unicode="&#x202f;" horiz-adv-x="183" />
<glyph unicode="&#x2039;" horiz-adv-x="239" d="M-9 242l210 233l36 -31l-180 -206l99 -198l-44 -20z" />
<glyph unicode="&#x203a;" horiz-adv-x="239" d="M-37 41l180 206l-99 198l44 20l121 -222l-210 -233z" />
<glyph unicode="&#x205f;" horiz-adv-x="229" />
<glyph unicode="&#x20ac;" d="M-2 213l20 61h74q2 44 9 83h-76l21 59h68q73 274 313 274q77 0 150 -44l-28 -60q-63 42 -131 42q-179 0 -236 -212h172l-20 -59h-163q-6 -34 -8 -83h154l-21 -61h-134q4 -88 36 -127t102 -39q79 0 152 38l4 -60q-77 -41 -167 -41q-98 0 -146 56t-52 173h-93z" />
<glyph unicode="&#x2122;" horiz-adv-x="652" d="M73 663l10 48h218l-10 -48h-84l-53 -269h-51l52 269h-82zM273 394q15 65 78 317h51q18 -80 51 -211l129 211h52q-17 -147 -45 -317h-52q23 131 36 224l-116 -189h-39q-39 165 -43 184q-17 -66 -51 -219h-51z" />
<glyph unicode="&#x25fc;" horiz-adv-x="485" d="M0 485h485v-485h-485v485z" />
</font>
</defs>
</svg>
