<?xml version="1.0" standalone="no"?>
<!DOCTYPE svg PUBLIC "-//W3C//DTD SVG 1.1//EN" "http://www.w3.org/Graphics/SVG/1.1/DTD/svg11.dtd" >
<svg xmlns="http://www.w3.org/2000/svg" xmlns:xlink="http://www.w3.org/1999/xlink" version="1.1">
<metadata></metadata>
<defs>
<font id="postnlwebitalic" horiz-adv-x="526" >
<font-face units-per-em="1000" ascent="750" descent="-250" />
<missing-glyph horiz-adv-x="177" />
<glyph unicode="&#xfb01;" horiz-adv-x="531" d="M-13 -194q26 103 37 168l78 439h-71l15 72h69l7 37q21 106 78 144q54 37 169 37q57 0 128 -13l-21 -73q-53 11 -109 11q-82 0 -114 -24q-33 -26 -44 -88l-5 -31h284l-95 -485h-89l79 413h-192l-64 -361q-23 -131 -56 -246h-84z" />
<glyph unicode="&#xfb02;" horiz-adv-x="534" d="M-13 -194q26 103 37 168l78 439h-71l15 72h69l7 36q19 99 69 139q54 42 169 42q82 0 168 -22l-131 -680h-88l119 622q-37 7 -81 7q-64 0 -93 -23q-34 -25 -45 -91l-5 -30h98l-13 -72h-98l-64 -361q-23 -131 -56 -246h-84z" />
<glyph unicode="&#xfb03;" horiz-adv-x="815" d="M-13 -194q26 103 37 168l78 439h-71l15 72h70l6 36q19 100 64 140.5t133 40.5q32 0 62 -7l-22 -72q-20 4 -40 4q-48 0 -72 -23.5t-36 -88.5l-6 -30h194l7 36q21 106 78 144q54 37 169 37q57 0 128 -13l-21 -73q-53 11 -109 11q-82 0 -114 -24q-33 -26 -44 -88l-5 -30h284 l-95 -485h-89l79 413h-192l-64 -361q-23 -131 -56 -246h-84q22 85 37 168l78 439h-195l-64 -361q-23 -131 -56 -246h-84z" />
<glyph unicode="&#xfb04;" horiz-adv-x="818" d="M-13 -194q26 103 37 168l78 439h-71l15 72h70l6 36q17 100 63 140.5t134 40.5q32 0 62 -7l-22 -72q-20 4 -40 4q-48 0 -72 -23.5t-36 -88.5l-6 -30h194l7 36q19 99 69 139q54 42 169 42q82 0 168 -22l-131 -680h-88l119 622q-37 7 -81 7q-64 0 -93 -23q-34 -25 -45 -91 l-5 -30h98l-13 -72h-98l-64 -361q-23 -131 -56 -246h-84q22 85 37 168l78 439h-195l-64 -361q-23 -131 -56 -246h-84z" />
<glyph horiz-adv-x="0" />
<glyph unicode="&#xd;" horiz-adv-x="111" />
<glyph unicode=" "  horiz-adv-x="177" />
<glyph unicode="&#x09;" horiz-adv-x="177" />
<glyph unicode="&#xa0;" horiz-adv-x="177" />
<glyph unicode="!" horiz-adv-x="258" d="M14 22q0 8 3 29q5 31 20 46.5t44 15.5q42 0 42 -38q0 -11 -4 -32q-5 -31 -19.5 -45t-44.5 -14q-41 0 -41 38zM64 204l32 219l50 251h89l-50 -251l-52 -219h-69z" />
<glyph unicode="&#x22;" horiz-adv-x="348" d="M73 495l44 224h99l-63 -224h-80zM239 495l44 224h98l-63 -224h-79z" />
<glyph unicode="#" d="M-12 170l17 81h80l55 153h-106l16 80h118l64 181h81l-64 -181h127l64 181h82l-65 -181h71l-17 -80h-81l-54 -153h106l-16 -81h-119l-59 -170h-81l59 170h-126l-59 -170h-82l59 170h-70zM168 251h126l53 153h-125z" />
<glyph unicode="$" d="M10 17l27 96q67 -37 154 -37l43 220l-4 2q-68 28 -101 67t-33 104q0 83 58 144.5t156 73.5l19 98h66l-19 -96q64 -4 130 -28l-28 -92q-60 26 -120 29l-43 -221l28 -10q108 -44 108 -156q0 -87 -55.5 -150t-155.5 -74l-19 -96h-66l18 93q-98 5 -163 33zM199 481 q0 -53 55 -78l37 189q-44 -12 -68 -41.5t-24 -69.5zM258 84q45 11 68.5 42.5t23.5 69.5q0 49 -55 76z" />
<glyph unicode="%" horiz-adv-x="785" d="M53 422q0 30 4 62.5t16 70t30.5 67t50 49t71.5 19.5q102 0 102 -125q0 -50 -15.5 -113.5t-46.5 -103.5q-38 -51 -107 -51q-50 0 -77.5 31.5t-27.5 93.5zM125 32l482 662l64 -37l-483 -663zM129 428q0 -65 36 -65q27 0 48 34q18 30 28 78t10 83q0 66 -36 66q-24 0 -43 -25 q-20 -30 -31.5 -81.5t-11.5 -89.5zM457 109q0 30 4 62.5t16 70t30.5 67t50 49t71.5 19.5q102 0 102 -125q0 -50 -15.5 -113.5t-46.5 -103.5q-38 -51 -107 -51q-50 0 -77.5 31.5t-27.5 93.5zM533 115q0 -65 36 -65q27 0 48 34q18 30 28 78t10 83q0 66 -36 66q-24 0 -43 -25 q-20 -30 -31.5 -81.5t-11.5 -89.5z" />
<glyph unicode="&#x26;" horiz-adv-x="606" d="M19 115q0 63 44.5 114.5t115.5 88.5q-49 80 -49 160q0 85 54.5 148.5t143.5 63.5q61 0 97 -35.5t36 -95.5q0 -72 -48.5 -137.5t-122.5 -114.5q54 -77 96 -128q50 74 74 180h76q-34 -136 -104 -230q44 -50 100 -65l-15 -79q-87 10 -149 79q-94 -80 -200 -80 q-68 0 -108.5 34.5t-40.5 96.5zM116 131q0 -34 20.5 -52t56.5 -18q65 0 132 53q-61 74 -111 148q-98 -60 -98 -131zM219 484q0 -58 37 -122q117 83 117 183q0 31 -15 48.5t-42 17.5q-44 0 -70.5 -38t-26.5 -89z" />
<glyph unicode="'" horiz-adv-x="182" d="M68 495l44 224h99l-63 -224h-80z" />
<glyph unicode="(" horiz-adv-x="317" d="M29 187q0 145 78.5 290t213.5 259l41 -39q-119 -116 -179.5 -247t-60.5 -259q0 -170 82 -304l-55 -39q-120 165 -120 339z" />
<glyph unicode=")" horiz-adv-x="317" d="M-60 -113q119 116 179.5 247.5t60.5 258.5q0 168 -83 304l55 39q121 -164 121 -339q0 -145 -78.5 -290t-213.5 -259z" />
<glyph unicode="*" horiz-adv-x="367" d="M58 550l42 70l91 -54l10 115h74l-35 -116l114 56l15 -70l-122 -34l65 -87l-69 -45l-41 104l-83 -103l-51 46l99 85z" />
<glyph unicode="+" d="M47 228l16 82h151l30 156h88l-30 -156h152l-17 -82h-152l-30 -154h-87l30 154h-151z" />
<glyph unicode="," horiz-adv-x="230" d="M-55 -158q59 86 84 137q-33 6 -33 45q0 15 3 29q14 69 75 69q51 0 51 -46q0 -64 -60 -159q-34 -56 -65 -96z" />
<glyph unicode="-" horiz-adv-x="269" d="M16 208l16 82h192l-16 -82h-192z" />
<glyph unicode="." horiz-adv-x="230" d="M2 26q0 13 5 38q13 58 68 58q46 0 46 -42q0 -11 -4 -37q-12 -59 -69 -59q-46 0 -46 42z" />
<glyph unicode="/" horiz-adv-x="409" d="M-36 -16l382 707h96l-383 -707h-95z" />
<glyph unicode="0" d="M32 203q0 94 25.5 205.5t79.5 184.5q69 97 189 97q83 0 125.5 -52t42.5 -167q0 -92 -26 -203.5t-80 -186.5q-69 -97 -189 -97q-167 0 -167 219zM135 210q0 -70 16.5 -104t59.5 -34q60 0 107 73q36 56 54.5 149t18.5 170q0 69 -17 103.5t-60 34.5q-63 0 -106 -75 q-35 -61 -54 -152t-19 -165z" />
<glyph unicode="1" d="M30 0l16 83h148l93 482l-160 -92l-11 85l207 116h80l-116 -591h135l-15 -83h-377z" />
<glyph unicode="2" d="M3 0l8 80l159 142q111 100 163 167.5t52 139.5q0 76 -102 76q-70 0 -149 -38l3 87q85 36 175 36q82 0 128.5 -37.5t46.5 -109.5q0 -52 -16 -98t-53.5 -92.5t-75 -82.5t-103.5 -93l-109 -94h259l-15 -83h-371z" />
<glyph unicode="3" d="M-4 18l27 84q69 -32 139 -32q79 0 123.5 38t44.5 106q0 56 -34 78.5t-109 22.5h-22l15 78h22q68 0 114.5 36.5t46.5 100.5q1 39 -22.5 57.5t-73.5 18.5q-61 0 -137 -31l5 84q84 31 161 31q78 0 123 -34.5t45 -103.5q0 -70 -36 -120t-99 -71v-2q47 -10 75.5 -44t28.5 -87 q0 -116 -73 -180t-193 -64q-86 0 -171 34z" />
<glyph unicode="4" d="M1 173l13 69q219 272 362 432h110l-81 -422h84l-16 -79h-85l-32 -173h-93l32 173h-294zM122 252h189l59 302q-69 -78 -248 -302z" />
<glyph unicode="5" d="M5 16l28 83q67 -31 144 -31q75 0 120 47.5t45 126.5q0 84 -104 84q-53 0 -116 -21l-34 23l75 346h317l-14 -81h-231l-43 -198q40 14 93 14q75 0 115.5 -36.5t40.5 -106.5q0 -126 -70 -204t-204 -78q-85 0 -162 32z" />
<glyph unicode="6" d="M28 179q0 72 16 144t48.5 138t77 117t107 81.5t133.5 30.5q50 0 80 -9l-27 -80q-22 7 -55 7q-89 0 -147.5 -62.5t-86.5 -153.5q64 37 137 37q77 0 119.5 -41.5t42.5 -113.5q0 -116 -72 -203t-191 -87q-182 0 -182 195zM131 178q3 -110 93 -110q65 0 106 58.5t41 130.5 q0 44 -24.5 67t-69.5 23q-69 0 -127 -39q-21 -63 -19 -130z" />
<glyph unicode="7" d="M23 0l383 593h-298l16 81h402l-18 -83l-376 -591h-109z" />
<glyph unicode="8" d="M16 139q0 73 46.5 131t123.5 92q-80 57 -80 136q1 83 66.5 137.5t165.5 54.5q74 0 119 -34t44 -97q0 -122 -152 -199q108 -60 108 -151q0 -95 -73 -160t-183 -65q-84 0 -134.5 40.5t-50.5 114.5zM116 155q0 -41 27 -64t71 -23q59 0 100 37t42 96q1 33 -24 59.5t-80 58.5 q-57 -23 -96 -65t-40 -99zM205 502q0 -32 20 -56t58 -47q118 52 118 144q0 69 -78 69q-50 0 -83.5 -30.5t-34.5 -79.5z" />
<glyph unicode="9" d="M34 -4l25 80q32 -10 62 -10q84 0 140.5 61.5t85.5 154.5q-58 -37 -134 -37q-77 0 -118.5 42t-41.5 117q0 116 71 201t187 85q92 0 137 -51.5t45 -138.5q0 -88 -22.5 -176t-65.5 -165.5t-117 -126t-167 -48.5q-42 0 -87 12zM155 419q0 -92 92 -92q61 0 123 35 q20 80 20 137q0 108 -91 108q-65 0 -104.5 -57.5t-39.5 -130.5z" />
<glyph unicode=":" horiz-adv-x="239" d="M2 26q0 13 5 38q13 58 68 58q46 0 46 -42q0 -11 -4 -37q-12 -59 -69 -59q-46 0 -46 42zM77 409q0 13 5 38q13 58 68 58q46 0 46 -42q0 -11 -4 -37q-12 -59 -69 -59q-46 0 -46 42z" />
<glyph unicode=";" horiz-adv-x="239" d="M-55 -158q59 86 84 137q-33 6 -33 45q0 15 3 29q14 69 75 69q51 0 51 -46q0 -64 -60 -159q-34 -56 -65 -96zM77 409q0 13 5 38q13 58 68 58q46 0 46 -42q0 -11 -4 -37q-12 -59 -69 -59q-46 0 -46 42z" />
<glyph unicode="&#x3c;" d="M79 242l11 60l325 185l27 -68l-256 -150l-1 -6l193 -147l-46 -57z" />
<glyph unicode="=" d="M17 129l17 82h391l-17 -82h-391zM58 329l17 82h391l-17 -82h-391z" />
<glyph unicode="&#x3e;" d="M72 127l256 150l1 5l-193 148l46 57l253 -183l-11 -60l-324 -185z" />
<glyph unicode="?" horiz-adv-x="416" d="M51 22q0 1 2 29q11 62 64 62q43 0 43 -38q0 -11 -4 -32q-5 -31 -20 -45t-44 -14q-41 0 -41 38zM83 575l6 84q75 31 156 31t128 -37.5t47 -114.5q0 -95 -63 -155.5t-163 -72.5l-28 -108h-70l25 172q199 15 199 148q0 44 -25.5 64.5t-78.5 20.5q-71 0 -133 -32z" />
<glyph unicode="@" horiz-adv-x="763" d="M41 265q1 182 114.5 304.5t287.5 122.5q132 0 206 -69t74 -186q0 -114 -51 -194.5t-143 -80.5q-71 0 -91 49q-40 -49 -101 -49q-52 0 -80.5 35t-28.5 99q0 87 48 151.5t123 64.5q53 0 81 -35l11 24h51l-40 -207q-3 -15 -3 -27q-4 -47 38 -47q49 0 78 61.5t29 136.5 q0 102 -55 150.5t-154 48.5q-132 0 -220.5 -99.5t-88.5 -247.5q0 -106 58.5 -161t172.5 -55q72 0 155 20l-7 -69q-73 -21 -165 -21q-143 0 -221.5 73t-77.5 208zM298 301q0 -79 53 -79q45 0 80 46l32 159q-24 24 -58 24q-46 0 -76.5 -44.5t-30.5 -105.5z" />
<glyph unicode="A" horiz-adv-x="579" d="M-43 0q190 396 348 674h101q55 -323 86 -674h-100l-11 143h-258l-65 -143h-101zM167 234h207q-16 173 -39 326h-5q-78 -145 -163 -326z" />
<glyph unicode="B" horiz-adv-x="575" d="M20 0l130 674h173q106 0 153 -28t47 -107q0 -66 -33 -117t-92 -65v-2q110 -12 110 -123q0 -232 -305 -232h-183zM136 90h80q190 0 190 131q0 49 -29.5 66.5t-103.5 17.5h-96zM194 394h75q153 0 153 125q0 37 -20.5 51t-82.5 14h-88z" />
<glyph unicode="C" horiz-adv-x="541" d="M43 239q0 86 23 165t66.5 143.5t115 103.5t160.5 39q82 0 150 -34l-32 -89q-56 32 -127 32q-80 0 -139 -53t-86.5 -130.5t-27.5 -165.5t37 -131.5t117 -43.5q69 0 148 34l-3 -89q-80 -36 -169 -36q-233 0 -233 255z" />
<glyph unicode="D" horiz-adv-x="630" d="M20 0l130 674h158q122 0 181 -26q98 -46 98 -193v-9q-1 -116 -40 -226t-118 -165t-249 -55h-160zM136 91h74q59 0 97.5 10.5t71.5 36.5q48 37 76.5 124t28.5 178q0 81 -35.5 112t-135.5 31h-82z" />
<glyph unicode="E" horiz-adv-x="523" d="M20 0l130 674h380l-18 -91h-281l-37 -191h246l-18 -92h-245l-41 -209h281l-16 -91h-381z" />
<glyph unicode="F" horiz-adv-x="509" d="M20 0l131 674h380l-18 -91h-282l-37 -191h246l-18 -92h-245l-59 -300h-98z" />
<glyph unicode="G" horiz-adv-x="605" d="M44 239q0 123 42 224t129 164t206 63q91 0 174 -40l-31 -88q-66 36 -152 36q-126 0 -195.5 -102t-69.5 -249q0 -173 149 -173q60 0 103 12l35 182h-115l18 86h211l-65 -339q-90 -31 -203 -31q-114 0 -175 65t-61 190z" />
<glyph unicode="H" horiz-adv-x="652" d="M20 0l130 674h98l-54 -282h284l56 282h98l-130 -674h-98l57 300h-285l-58 -300h-98z" />
<glyph unicode="I" horiz-adv-x="283" d="M27 0l130 674h98l-130 -674h-98z" />
<glyph unicode="J" horiz-adv-x="400" d="M-45 -1l20 79q35 -11 68 -11q70 0 105.5 40.5t54.5 135.5l84 431h98l-84 -432q-27 -134 -84 -196t-169 -62q-45 0 -93 15z" />
<glyph unicode="K" horiz-adv-x="557" d="M20 0l131 674h98l-60 -306q160 133 297 306h104q-135 -176 -272 -305l151 -369h-114l-119 305q-44 -36 -69 -53l-49 -252h-98z" />
<glyph unicode="L" horiz-adv-x="466" d="M20 0l130 674h98l-112 -583h257l-17 -91h-356z" />
<glyph unicode="M" horiz-adv-x="788" d="M5 0q73 326 168 674h83q61 -231 115 -466l297 466h82q-45 -365 -93 -674h-95q68 440 74 482h-3l-261 -414h-60l-97 414h-3q-75 -300 -113 -482h-94z" />
<glyph unicode="N" horiz-adv-x="675" d="M20 0l130 674h80l238 -492h1l96 492h90l-130 -674h-78l-240 500h-1l-96 -500h-90z" />
<glyph unicode="O" horiz-adv-x="649" d="M44 232q0 79 20.5 156.5t60 146.5t108.5 112t156 43q216 0 216 -248q0 -80 -20.5 -158.5t-60.5 -147t-109 -110.5t-156 -42q-215 0 -215 248zM147 242q0 -85 30 -125t95 -40q57 0 103.5 34.5t73 89t40.5 115t14 118.5q0 83 -30.5 123.5t-96.5 40.5q-57 0 -103 -35 t-72 -89.5t-40 -114.5t-14 -117z" />
<glyph unicode="P" horiz-adv-x="553" d="M20 0l132 674h167q115 0 166 -35t51 -128q-1 -66 -24.5 -125.5t-71.5 -94.5q-66 -49 -201 -49h-75l-46 -242h-98zM182 333h60q99 0 136 29q27 20 41 58.5t14 79.5q0 49 -27.5 66t-98.5 17h-76z" />
<glyph unicode="Q" horiz-adv-x="649" d="M44 232q0 79 20.5 156.5t60 146.5t108.5 112t156 43q216 0 216 -248q0 -91 -24 -177t-80 -159.5t-135 -102.5l74 -129l-93 -40l-72 151q-5 -1 -16 -1q-215 0 -215 248zM147 242q0 -85 30 -125t95 -40q57 0 103.5 34.5t73 89t40.5 115t14 118.5q0 83 -30.5 123.5 t-96.5 40.5q-57 0 -103 -35t-72 -89.5t-40 -114.5t-14 -117z" />
<glyph unicode="R" horiz-adv-x="562" d="M20 0l130 674h167q113 0 166 -35.5t53 -126.5q0 -89 -37.5 -156t-114.5 -91l68 -265h-102l-56 248q-15 -1 -65 -1h-63l-48 -247h-98zM183 338h64q73 0 110 15t57.5 53.5t20.5 89.5q0 47 -27 67t-99 20h-78z" />
<glyph unicode="S" horiz-adv-x="506" d="M-2 17l25 94q66 -36 145 -36q72 0 114.5 31t42.5 89q0 33 -18 53t-61 36l-41 17q-124 49 -124 170q0 98 69.5 158.5t184.5 60.5q77 0 145 -29l-27 -90q-60 29 -126 29q-60 0 -94 -22q-50 -32 -50 -95q0 -34 19 -54.5t66 -39.5l41 -17q60 -24 89 -61.5t29 -98.5 q0 -104 -69.5 -166t-193.5 -62q-92 0 -166 33z" />
<glyph unicode="T" horiz-adv-x="496" d="M66 583l18 91h445l-17 -91h-172l-113 -583h-98l113 583h-176z" />
<glyph unicode="U" horiz-adv-x="621" d="M48 159q0 37 9 92l84 423h98l-82 -419q-8 -40 -8 -78q0 -50 26 -75t85 -25q80 0 117 41.5t55 136.5l81 419h98l-83 -426q-28 -141 -90.5 -202.5t-191.5 -61.5q-198 0 -198 175z" />
<glyph unicode="V" horiz-adv-x="557" d="M75 674h103q19 -313 50 -545h3q173 331 270 545h102q-159 -346 -344 -674h-102q-55 314 -82 674z" />
<glyph unicode="W" horiz-adv-x="850" d="M76 674h102q0 -292 31 -547h2l148 348q31 77 75 199h109q-1 -45 -1 -86q0 -61 2 -113q7 -221 17 -348h3q133 279 235 547h101q-139 -346 -308 -674h-109q-21 220 -24 508h-2q-111 -282 -219 -508h-109q-45 352 -53 674z" />
<glyph unicode="X" horiz-adv-x="530" d="M-54 0l260 350q-33 80 -116 324h106q34 -116 86 -258q117 156 185 258h109l-73 -104l-93 -130q-40 -54 -84 -108l125 -332h-110l-92 262h-1l-186 -262h-116z" />
<glyph unicode="Y" horiz-adv-x="500" d="M78 674h100q29 -247 60 -352h2q117 173 205 352h101q-118 -234 -275 -456l-41 -218h-98l43 223q-68 196 -97 451z" />
<glyph unicode="Z" horiz-adv-x="518" d="M-19 0l9 81l401 502h-295l19 91h416l-17 -79l-404 -504h312l-17 -91h-424z" />
<glyph unicode="[" horiz-adv-x="344" d="M11 -109l153 789h185l-13 -68h-100l-126 -653h100l-14 -68h-185z" />
<glyph unicode="\" horiz-adv-x="368" d="M83 691h95l107 -707h-96z" />
<glyph unicode="]" horiz-adv-x="344" d="M-34 -109l14 68h99l126 653h-99l12 68h186l-154 -789h-184z" />
<glyph unicode="^" d="M34 325l247 319h78l126 -322l-74 -34l-101 260h-1l-207 -262z" />
<glyph unicode="_" horiz-adv-x="487" d="M-85 -137l13 70h471l-14 -70h-470z" />
<glyph unicode="`" horiz-adv-x="348" d="M45 655l37 75l221 -127l-25 -59z" />
<glyph unicode="a" horiz-adv-x="486" d="M-1 110q0 52 30.5 95t84.5 68q73 34 193 34h24l2 10q6 34 6 54q0 30 -20 42.5t-73 12.5q-68 0 -146 -31l1 73q83 33 168 33q161 0 161 -116q0 -25 -8 -67l-39 -199q-8 -37 -8 -48q0 -26 32 -26l-8 -54q-23 -7 -49 -7q-62 0 -62 61h-2q-63 -61 -151 -61q-61 0 -98.5 31 t-37.5 95zM93 124q0 -64 70 -64q33 0 69.5 16t61.5 41l24 125h-25q-88 0 -144 -30t-56 -88z" />
<glyph unicode="b" horiz-adv-x="545" d="M17 35l128 655h91l-48 -243q70 54 150 54q72 0 112.5 -46t40.5 -131q0 -63 -16 -121.5t-48 -108.5t-85 -80t-121 -30q-112 0 -204 51zM117 83q45 -20 100 -20q87 0 133 74t47 170q0 110 -95 110q-73 0 -130 -55z" />
<glyph unicode="c" horiz-adv-x="456" d="M27 180q0 132 76 226.5t209 94.5q70 0 129 -32l-23 -79q-52 30 -109 30q-85 0 -136 -67t-51 -161q2 -126 113 -130h4q55 0 121 27l-7 -77q-64 -28 -139 -28q-94 0 -140.5 52.5t-46.5 143.5z" />
<glyph unicode="d" horiz-adv-x="540" d="M27 178q0 134 74.5 228.5t204.5 94.5q63 0 106 -27l43 216h89l-104 -531q-3 -14 -26 -159h-77l1 50h-1q-61 -66 -149 -66q-77 0 -119 51t-42 143zM122 187q0 -118 90 -118q81 0 135 72l50 254q-39 25 -94 25q-82 0 -131.5 -68t-49.5 -165z" />
<glyph unicode="e" horiz-adv-x="505" d="M27 170q0 137 70 234t193 97q84 0 124.5 -44t40.5 -120q0 -53 -13 -115l-3 -17h-320q-2 -11 -2 -32q0 -110 122 -110q71 0 145 27q-1 -11 -3.5 -36t-3.5 -38q-72 -32 -157 -32q-98 0 -145.5 44.5t-47.5 141.5zM130 273h229q7 28 7 60q0 91 -87 91q-56 0 -96.5 -42.5 t-52.5 -108.5z" />
<glyph unicode="f" horiz-adv-x="297" d="M-13 -194q26 103 37 168l78 439h-71l15 72h69l7 37q19 99 64.5 140t132.5 41q32 0 62 -7l-22 -72q-20 4 -40 4q-48 0 -72 -23t-37 -89l-6 -31h98l-13 -72h-98l-64 -361q-23 -131 -56 -246h-84z" />
<glyph unicode="g" horiz-adv-x="533" d="M27 180q0 128 73.5 224.5t190.5 96.5q80 0 127 -50l15 34h69l-90 -460q-24 -122 -77.5 -178.5t-163.5 -56.5q-63 0 -120 20l16 73q52 -18 103 -18q68 0 104.5 36t51.5 112l10 51q-61 -66 -152 -66q-74 0 -115.5 48.5t-41.5 133.5zM122 193q0 -112 91 -112q37 0 73 19.5 t61 50.5l45 229q-36 41 -98 41q-79 0 -125.5 -68t-46.5 -160z" />
<glyph unicode="h" horiz-adv-x="541" d="M10 0l134 690h89l-51 -257q83 68 173 68q60 0 94 -31t34 -84q0 -33 -11 -95l-56 -291h-89l52 275q10 47 10 78q0 62 -68 62q-38 0 -80 -19t-75 -50l-67 -346h-89z" />
<glyph unicode="i" horiz-adv-x="239" d="M13 0l94 485h89l-94 -485h-89zM127 606q0 12 5 31q7 32 20.5 45.5t41.5 13.5q40 0 40 -33q0 -13 -5 -33q-8 -33 -20 -46.5t-39 -13.5q-43 0 -43 36z" />
<glyph unicode="j" horiz-adv-x="232" d="M-128 -205l16 73q10 -3 24 -3q25 0 43.5 11.5t29 34.5t16 42t11.5 49l95 483h89l-93 -474q-22 -111 -64 -166t-122 -55q-23 0 -45 5zM126 606q0 12 5 31q7 32 20.5 45.5t41.5 13.5q40 0 40 -33q0 -13 -5 -33q-8 -33 -20 -46.5t-39 -13.5q-43 0 -43 36z" />
<glyph unicode="k" horiz-adv-x="466" d="M10 0l134 690h89l-80 -411q116 79 219 206h98q-93 -120 -193 -207l110 -278h-100l-85 223q-18 -13 -69 -45l-34 -178h-89z" />
<glyph unicode="l" horiz-adv-x="240" d="M13 0l134 690h89l-134 -690h-89z" />
<glyph unicode="m" horiz-adv-x="809" d="M10 0l94 485h78l-5 -56q79 72 161 72q93 0 116 -74q85 74 173 74q59 0 92 -32t33 -90q0 -37 -9 -82l-57 -297h-89l53 281q9 47 9 80q0 54 -67 54q-69 0 -133 -61q-2 -20 -8 -51l-59 -303h-89l54 281q11 57 11 80q0 54 -63 54q-33 0 -71 -19t-68 -50l-67 -346h-89z" />
<glyph unicode="n" horiz-adv-x="541" d="M10 0l94 485h78l-5 -56q80 72 178 72q59 0 93.5 -31t34.5 -84q0 -34 -11 -95l-56 -291h-89l52 275q11 59 11 78q0 63 -69 63q-80 0 -155 -70l-67 -346h-89z" />
<glyph unicode="o" horiz-adv-x="540" d="M27 172q0 62 17 120t50 105t87.5 75.5t122.5 28.5q89 0 135.5 -49t46.5 -135q0 -89 -27.5 -162t-91 -122t-155.5 -49q-91 0 -138 49.5t-47 138.5zM122 179q0 -118 100 -118q57 0 96.5 39t56 92.5t16.5 113.5q0 118 -100 118q-54 0 -94 -38.5t-57.5 -93t-17.5 -113.5z" />
<glyph unicode="p" horiz-adv-x="543" d="M-28 -194l133 679h73l-2 -49q73 65 160 65q72 0 112.5 -46t40.5 -131q0 -63 -16 -121.5t-48 -108.5t-85 -80t-121 -30q-67 0 -117 31l-41 -209h-89zM118 96q43 -33 97 -33q86 0 132.5 74t47.5 170q0 110 -95 110q-33 0 -69 -17t-62 -42z" />
<glyph unicode="q" horiz-adv-x="537" d="M27 180q0 80 31.5 152t98 120.5t154.5 48.5q99 0 187 -60l-126 -635h-90l46 231q-61 -53 -137 -53q-78 0 -121 51t-43 145zM122 191q0 -59 24.5 -92t69.5 -33q78 0 131 69l51 256q-39 27 -100 27q-78 0 -127 -68.5t-49 -158.5z" />
<glyph unicode="r" horiz-adv-x="343" d="M10 0l94 485h77l-4 -55h1q25 30 63 48t76 18q11 0 23 -2l-23 -87q-87 0 -148 -45l-70 -362h-89z" />
<glyph unicode="s" horiz-adv-x="414" d="M-6 12l22 75q62 -30 123 -30q53 0 83.5 21t30.5 61q0 25 -14.5 38t-55.5 26l-34 10q-100 33 -100 128q0 76 52.5 118t138.5 42q73 0 134 -28l-21 -75q-54 26 -113 26q-38 0 -67 -17.5t-29 -54.5q0 -25 14.5 -40t54.5 -28l30 -9q56 -19 80 -46t24 -74q0 -77 -57.5 -124 t-155.5 -47q-71 0 -140 28z" />
<glyph unicode="t" horiz-adv-x="328" d="M34 413l14 72h69l26 132l92 13l-28 -145h111l-14 -72h-112l-45 -235q-11 -55 -11 -75q0 -26 13.5 -36t44.5 -10q26 0 51 7l-9 -72q-27 -8 -65 -8q-127 0 -127 95q0 29 12 97l47 237h-69z" />
<glyph unicode="u" horiz-adv-x="514" d="M28 115q0 30 19 125l47 245h89l-49 -256q-15 -72 -15 -97q0 -35 16 -51q20 -21 75 -21q37 0 60 8t38 32t23 50.5t18 78.5l50 256h89l-49 -250q-17 -85 -31 -127.5t-43 -71.5q-53 -52 -169 -52q-168 0 -168 131z" />
<glyph unicode="v" horiz-adv-x="435" d="M41 485h91q7 -216 31 -382h3q32 54 95 184t91 198h92q-44 -100 -122 -251.5t-128 -233.5h-96q-43 250 -57 485z" />
<glyph unicode="w" horiz-adv-x="684" d="M42 485h91q3 -122 25 -371q72 149 167 371h80q10 -203 23 -371q120 242 172 371h92q-108 -238 -243 -485h-80q-19 154 -28 347l-159 -347h-85q-43 263 -55 485z" />
<glyph unicode="x" horiz-adv-x="446" d="M-44 0l201 248q-85 194 -101 237h98q8 -25 67 -175h1q59 69 132 175h100q-43 -60 -195 -251l119 -234h-99l-85 175h-1l-134 -175h-103z" />
<glyph unicode="y" horiz-adv-x="515" d="M29 117q0 31 8 71l58 297h89l-55 -282q-9 -41 -9 -64q0 -58 72 -58q35 0 73.5 16.5t64.5 43.5l68 344h89l-87 -442q-28 -138 -82.5 -195.5t-167.5 -57.5q-49 0 -105 16l16 73q42 -14 84 -14q71 0 107.5 33t52.5 104l10 50q-62 -56 -154 -56q-61 0 -96.5 33t-35.5 88z" />
<glyph unicode="z" horiz-adv-x="440" d="M-12 0l3 60l311 353h-242l15 72h354l-13 -62l-315 -351h256l-13 -72h-356z" />
<glyph unicode="{" horiz-adv-x="348" d="M53 273l11 54q69 17 84 87l29 146q18 91 54 124t110 33h47l-12 -69h-34q-38 0 -52.5 -14.5t-24.5 -62.5l-23 -113q-16 -79 -38 -114t-70 -49v-2q54 -16 54 -72q0 -20 -6 -70l-23 -123q-5 -25 -5 -37q0 -23 11 -31.5t41 -8.5h34l-14 -68h-40q-119 0 -119 81q0 34 9 81 l26 135q4 22 4 37q0 44 -53 56z" />
<glyph unicode="|" horiz-adv-x="252" d="M15 -16l136 697h86l-137 -697h-85z" />
<glyph unicode="}" horiz-adv-x="348" d="M-61 -117l13 68h34q37 0 52 15t24 62l23 114q16 78 38 113t70 50v2q-54 15 -54 71q0 28 7 70l22 123q5 27 5 40q0 21 -11.5 29t-40.5 8h-34l14 69h40q119 0 119 -82q0 -35 -9 -80l-26 -136q-4 -22 -4 -37q0 -43 53 -55l-11 -54q-70 -17 -83 -88l-30 -145 q-18 -91 -53.5 -124t-109.5 -33h-48z" />
<glyph unicode="~" d="M10 253q38 56 73.5 82.5t84.5 26.5q43 0 91 -33l26 -18q37 -26 66 -26q46 0 95 66l51 -42q-38 -54 -73 -80.5t-79 -26.5q-48 0 -102 37l-26 18q-32 23 -59 23q-45 0 -99 -72z" />
<glyph unicode="&#xa1;" horiz-adv-x="250" d="M-30 -189l50 251l52 219h69l-32 -219l-50 -251h-89zM82 410q0 11 4 32q5 31 19.5 45t44.5 14q41 0 41 -38q0 -8 -3 -29q-5 -31 -20 -46.5t-44 -15.5q-42 0 -42 38z" />
<glyph unicode="&#xa2;" d="M52 275q0 121 67.5 212.5t185.5 105.5l18 97h65l-19 -98q53 -5 100 -29l-24 -80q-43 26 -92 29l-69 -355q50 4 103 27l-7 -78q-53 -23 -111 -26l-19 -96h-65l19 97q-76 10 -114 61t-38 133zM147 286q2 -101 73 -123l67 343q-64 -18 -102 -79.5t-38 -140.5z" />
<glyph unicode="&#xa3;" d="M4 0l14 86q82 40 100 134l20 100h-80l15 78h81l14 71q24 123 81.5 172t160.5 49q56 0 119 -20l-29 -85q-37 16 -89 16q-70 0 -102 -32.5t-48 -111.5l-12 -59h149l-16 -78h-148l-16 -82q-22 -111 -87 -153v-2h294l-17 -83h-404z" />
<glyph unicode="&#xa4;" d="M-21 102l90 76q-14 33 -14 71q0 80 56 143l-65 79l66 54l63 -79q51 31 109 31q60 0 99 -31l87 75l50 -61l-92 -78q10 -26 10 -65q0 -74 -48 -136l70 -84l-66 -52l-67 80q-53 -34 -117 -34q-52 0 -94 26l-88 -75zM137 262q0 -41 24.5 -65t64.5 -24q52 0 92.5 39t40.5 95 q0 41 -25 65t-65 24q-52 0 -92 -39.5t-40 -94.5z" />
<glyph unicode="&#xa5;" d="M41 91l14 75h118l10 54h-116l15 75h79q-48 165 -74 379h100q19 -209 58 -356h3q122 183 207 356h100q-101 -195 -225 -379h84l-14 -75h-121l-10 -54h122l-13 -75h-123l-16 -91h-97l16 91h-117z" />
<glyph unicode="&#xa6;" horiz-adv-x="235" d="M5 -17l52 272h81l-53 -272h-80zM94 440l53 275h80l-53 -275h-80z" />
<glyph unicode="&#xa7;" horiz-adv-x="413" d="M-11 11l18 72q71 -28 131 -28q48 0 77.5 19t29.5 56q0 22 -16 37t-56 34l-44 21q-46 23 -65.5 48.5t-19.5 63.5q0 36 24 68.5t64 53.5q-43 35 -43 93q0 63 49 102t136 39q64 0 119 -21l-17 -69q-50 21 -105 21q-48 0 -72 -16.5t-24 -43.5q0 -22 12.5 -37t45.5 -31l56 -26 q47 -23 66.5 -47.5t19.5 -59.5q0 -77 -86 -129q39 -29 39 -87q0 -75 -53.5 -117.5t-141.5 -42.5q-73 0 -144 27zM126 352q0 -20 11.5 -34t40.5 -28l60 -30q57 36 57 77q0 21 -13.5 35t-49.5 31l-51 23q-55 -28 -55 -74z" />
<glyph unicode="&#xa8;" horiz-adv-x="348" d="M31 620q0 8 4 24q12 58 64 58q47 0 47 -39q0 -8 -4 -25q-14 -57 -66 -57q-45 0 -45 39zM197 620q0 8 4 24q12 58 64 58q46 0 46 -39q0 -12 -3 -25q-14 -57 -66 -57q-45 0 -45 39z" />
<glyph unicode="&#xa9;" horiz-adv-x="741" d="M26 264q0 168 117.5 292t287.5 124q123 0 196.5 -77t72.5 -200q-1 -167 -117.5 -291.5t-285.5 -124.5q-124 0 -197.5 77t-73.5 200zM106 274q0 -97 54.5 -153t150.5 -56q125 0 216.5 98.5t92.5 228.5q1 97 -54 153.5t-151 56.5q-127 0 -217 -98.5t-92 -229.5zM214 292 q0 90 51.5 160t144.5 70q49 0 82 -21l-20 -64q-29 20 -68 20q-56 0 -85 -49.5t-29 -110.5q-1 -77 65 -77q42 0 79 17l-6 -62q-43 -19 -87 -19q-127 0 -127 136z" />
<glyph unicode="&#xaa;" horiz-adv-x="342" d="M31 383q0 69 59 102.5t147 33.5h15l2 8q2 14 2 20q0 31 -54 31t-106 -20l2 64q68 20 125 20q110 0 110 -78q0 -17 -5 -40l-29 -148q-5 -26 23 -26l-9 -48q-18 -5 -39 -5q-46 0 -49 38h-2q-35 -38 -96 -38q-42 0 -69 21.5t-27 64.5zM108 390q0 -17 11.5 -26.5t30.5 -9.5 q41 0 77 34l15 74q-134 0 -134 -72z" />
<glyph unicode="&#xab;" horiz-adv-x="507" d="M6 243l210 239l56 -43q-120 -129 -175 -196q36 -77 98 -195l-72 -43q-63 121 -117 238zM221 243l212 239l56 -43l-176 -196q30 -63 98 -195l-70 -43z" />
<glyph unicode="&#xac;" d="M49 228l16 82h392l-47 -235h-84l31 153h-308z" />
<glyph unicode="&#xad;" horiz-adv-x="270" d="M16 208l16 82h192l-16 -82h-192z" />
<glyph unicode="&#xae;" horiz-adv-x="741" d="M26 264q0 168 117.5 292t287.5 124q123 0 196.5 -77t72.5 -200q-1 -167 -117.5 -291.5t-285.5 -124.5q-124 0 -197.5 77t-73.5 200zM106 274q0 -97 54.5 -153t150.5 -56q125 0 216.5 98.5t92.5 228.5q1 97 -54 153.5t-151 56.5q-127 0 -217 -98.5t-92 -229.5zM225 165 l69 352h71q78 0 108.5 -18.5t30.5 -69.5q0 -46 -21.5 -80.5t-57.5 -48.5l36 -135h-70l-28 123q-8 -1 -26 -1h-20l-23 -122h-69zM330 348h33q68 0 68 70q0 21 -11.5 29t-38.5 8h-32z" />
<glyph unicode="&#xb0;" horiz-adv-x="293" d="M53 560q0 64 44 110t109 46q50 0 76.5 -28t26.5 -72q0 -63 -43 -109t-110 -46q-49 0 -76 26t-27 73zM125 567q0 -41 44 -41q31 0 50 24.5t19 57.5q0 44 -45 44q-30 0 -49 -25.5t-19 -59.5z" />
<glyph unicode="&#xb1;" d="M-4 0l16 80h391l-16 -80h-391zM60 308l16 83h153l30 151h87l-30 -151h151l-16 -83h-151l-30 -150h-88l30 150h-152z" />
<glyph unicode="&#xb4;" horiz-adv-x="348" d="M42 603l222 127l36 -75l-233 -111z" />
<glyph unicode="&#xb5;" horiz-adv-x="521" d="M-34 -194l131 679h88l-56 -285q-16 -78 3 -106q21 -34 80 -34q57 0 88 28q18 17 26.5 41.5t16.5 70.5l57 285h88l-55 -282q-16 -77 -32.5 -115t-49.5 -63q-53 -41 -135 -41q-83 0 -132 47l-29 -225h-89z" />
<glyph unicode="&#xb6;" horiz-adv-x="535" d="M54 494q0 82 59.5 139t161.5 57h239l-154 -790h-78l141 725h-98l-142 -725h-77l88 459q-65 4 -102.5 38.5t-37.5 96.5z" />
<glyph unicode="&#xb8;" horiz-adv-x="348" d="M43 -229l24 54q33 -12 66 -12q59 0 59 43q0 32 -54 32q-9 0 -35 -2l-6 7l52 118h63l-30 -70q83 -3 83 -73q0 -52 -36.5 -83t-98.5 -31q-50 0 -87 17z" />
<glyph unicode="&#xba;" horiz-adv-x="373" d="M45 423q0 90 49.5 154.5t141.5 64.5q60 0 94.5 -32.5t34.5 -92.5q0 -91 -49.5 -155.5t-141.5 -64.5q-62 0 -95.5 32.5t-33.5 93.5zM121 429q0 -70 63 -70q50 0 77 46t27 105q0 70 -62 70q-50 0 -77.5 -46t-27.5 -105z" />
<glyph unicode="&#xbb;" horiz-adv-x="505" d="M-11 48l173 195q-46 99 -98 195l72 44l118 -239l-211 -238zM205 48q100 108 173 195q-36 80 -98 195l72 44l119 -239l-211 -238z" />
<glyph unicode="&#xbc;" horiz-adv-x="785" d="M34 307l12 66h83l44 220l-90 -45l-8 64l127 68h61l-60 -307h74l-11 -66h-232zM130 32l482 662l64 -37l-483 -663zM401 82l10 55q113 133 204 230h83l-43 -220h52l-12 -65h-52l-16 -88h-76l17 88h-167zM490 147h90l26 132z" />
<glyph unicode="&#xbd;" horiz-adv-x="785" d="M34 307l12 66h83l44 220l-90 -45l-8 64l127 68h61l-60 -307h74l-11 -66h-232zM130 32l482 662l64 -37l-483 -663zM456 -6l7 61l67 51l58 44q15 13 39.5 37t33.5 42t9 38q0 43 -55 43q-47 0 -93 -24l2 67q52 24 113 24q52 0 80 -25.5t28 -70.5q0 -50 -33.5 -95.5 t-108.5 -97.5l-39 -28h139l-12 -66h-235z" />
<glyph unicode="&#xbe;" horiz-adv-x="785" d="M33 316l19 67q40 -17 83 -17q85 0 85 59q0 22 -12 34t-56 12h-32l12 60h29q79 0 79 57q0 35 -56 35q-44 0 -85 -18l3 65q48 20 108 20q104 0 104 -85q0 -33 -17 -61.5t-48 -41.5v-1q48 -12 48 -68q0 -66 -41.5 -101t-118.5 -35q-54 0 -104 19zM130 32l482 662l64 -37 l-483 -663zM401 82l10 55q113 133 204 230h83l-43 -220h52l-12 -65h-52l-16 -88h-76l17 88h-167zM490 147h90l26 132z" />
<glyph unicode="&#xbf;" horiz-adv-x="425" d="M-16 -53q0 95 63 155.5t163 72.5l28 108h70l-25 -172q-199 -15 -199 -148q0 -44 25.5 -64.5t78.5 -20.5q71 0 133 32l-6 -84q-75 -31 -156 -31t-128 37.5t-47 114.5zM244 410q0 11 4 32q5 31 20 45t44 14q41 0 41 -38q0 -1 -2 -29q-11 -62 -64 -62q-43 0 -43 38z" />
<glyph unicode="&#xc0;" horiz-adv-x="579" d="M-43 0q190 396 348 674h101q55 -323 86 -674h-100l-11 143h-258l-65 -143h-101zM167 234h207q-16 173 -39 326h-5q-78 -145 -163 -326zM185 831l37 76l221 -127l-25 -59z" />
<glyph unicode="&#xc1;" horiz-adv-x="579" d="M-43 0q190 396 348 674h101q55 -323 86 -674h-100l-11 143h-258l-65 -143h-101zM167 234h207q-16 173 -39 326h-5q-78 -145 -163 -326zM282 780l221 128l36 -77l-232 -110z" />
<glyph unicode="&#xc2;" horiz-adv-x="579" d="M-43 0q190 396 348 674h101q55 -323 86 -674h-100l-11 143h-258l-65 -143h-101zM167 234h207q-16 173 -39 326h-5q-78 -145 -163 -326zM214 782l147 130h57l101 -136l-55 -41l-80 94h-6l-119 -94z" />
<glyph unicode="&#xc3;" horiz-adv-x="579" d="M-43 0q190 396 348 674h101q55 -323 86 -674h-100l-11 143h-258l-65 -143h-101zM167 234h207q-16 173 -39 326h-5q-78 -145 -163 -326zM213 802q49 85 112 85q31 0 60 -22l21 -15q23 -17 37 -17q28 0 61 47l39 -44q-44 -76 -101 -76q-32 0 -63 23l-19 14q-19 14 -40 14 q-31 0 -68 -51z" />
<glyph unicode="&#xc4;" horiz-adv-x="579" d="M-43 0q190 396 348 674h101q55 -323 86 -674h-100l-11 143h-258l-65 -143h-101zM167 234h207q-16 173 -39 326h-5q-78 -145 -163 -326zM243 796q0 1 2 25q12 58 65 58q46 0 46 -39q0 -9 -4 -25q-12 -57 -66 -57q-43 0 -43 38zM407 796q0 9 4 25q12 58 65 58q46 0 46 -39 q0 -9 -4 -25q-12 -57 -65 -57q-46 0 -46 38z" />
<glyph unicode="&#xc5;" horiz-adv-x="579" d="M-43 0q190 396 348 674h101q55 -323 86 -674h-100l-11 143h-258l-65 -143h-101zM167 234h207q-16 173 -39 326h-5q-78 -145 -163 -326zM291 814q1 47 33.5 80.5t81.5 33.5q34 0 55.5 -22.5t20.5 -55.5q0 -49 -32 -82t-82 -33q-35 0 -56.5 22.5t-20.5 56.5zM349 824 q0 -14 8 -23t21 -9q18 0 32 14t14 34q0 13 -8 22t-21 9q-18 0 -32 -13t-14 -34z" />
<glyph unicode="&#xc6;" horiz-adv-x="853" d="M-34 0q81 132 229 348.5t230 325.5h435l-18 -91h-281l-37 -191h246l-18 -92h-245l-41 -209h281l-16 -91h-381l27 143h-213q-35 -53 -89 -143h-109zM222 234h174l67 350h-7q-94 -128 -234 -350z" />
<glyph unicode="&#xc7;" horiz-adv-x="541" d="M43 239q0 86 23 165t66.5 143.5t115 103.5t160.5 39q82 0 150 -34l-32 -89q-56 32 -127 32q-80 0 -139 -53t-86.5 -130.5t-27.5 -165.5t37 -131.5t117 -43.5q69 0 148 34l-3 -89q-69 -30 -147 -35l-18 -44q83 -3 83 -73q0 -52 -36.5 -83t-98.5 -31q-50 0 -87 17l24 54 q33 -12 66 -12q59 0 59 43q0 32 -54 32q-9 0 -35 -2l-6 7l41 93q-193 20 -193 253z" />
<glyph unicode="&#xc8;" horiz-adv-x="523" d="M20 0l130 674h380l-18 -91h-281l-37 -191h246l-18 -92h-245l-41 -209h281l-16 -91h-381zM212 831l37 76l221 -127l-25 -59z" />
<glyph unicode="&#xc9;" horiz-adv-x="523" d="M20 0l130 674h380l-18 -91h-281l-37 -191h246l-18 -92h-245l-41 -209h281l-16 -91h-381zM261 780l221 128l36 -77l-232 -110z" />
<glyph unicode="&#xca;" horiz-adv-x="523" d="M20 0l130 674h380l-18 -91h-281l-37 -191h246l-18 -92h-245l-41 -209h281l-16 -91h-381zM209 782l147 130h57l101 -136l-55 -41l-80 94h-6l-119 -94z" />
<glyph unicode="&#xcb;" horiz-adv-x="523" d="M20 0l130 674h380l-18 -91h-281l-37 -191h246l-18 -92h-245l-41 -209h281l-16 -91h-381zM225 796q0 1 2 25q12 58 65 58q46 0 46 -39q0 -9 -4 -25q-12 -57 -66 -57q-43 0 -43 38zM389 796q0 9 4 25q12 58 65 58q46 0 46 -39q0 -9 -4 -25q-12 -57 -65 -57q-46 0 -46 38z " />
<glyph unicode="&#xcc;" horiz-adv-x="283" d="M27 0l130 674h98l-130 -674h-98zM35 831l37 76l221 -127l-25 -59z" />
<glyph unicode="&#xcd;" horiz-adv-x="283" d="M27 0l130 674h98l-130 -674h-98zM127 780l221 128l36 -77l-232 -110z" />
<glyph unicode="&#xce;" horiz-adv-x="283" d="M27 0l130 674h98l-130 -674h-98zM66 782l147 130h57l101 -136l-55 -41l-80 94h-6l-119 -94z" />
<glyph unicode="&#xcf;" horiz-adv-x="283" d="M27 0l130 674h98l-130 -674h-98zM95 796q0 1 2 25q12 58 65 58q46 0 46 -39q0 -9 -4 -25q-12 -57 -66 -57q-43 0 -43 38zM259 796q0 9 4 25q12 58 65 58q46 0 46 -39q0 -9 -4 -25q-12 -57 -65 -57q-46 0 -46 38z" />
<glyph unicode="&#xd0;" horiz-adv-x="630" d="M9 297l16 85h69l56 292h158q122 0 181 -26q101 -47 98 -202q-1 -116 -40 -226t-118 -165t-249 -55h-160l58 297h-69zM136 91h74q104 0 162 40q51 35 81.5 124t30.5 185q0 81 -35.5 112t-135.5 31h-82l-39 -201h114l-18 -85h-112z" />
<glyph unicode="&#xd1;" horiz-adv-x="675" d="M20 0l130 674h80l238 -492h1l96 492h90l-130 -674h-78l-240 500h-1l-96 -500h-90zM256 802q49 85 112 85q31 0 60 -22l21 -15q23 -17 37 -17q28 0 61 47l39 -44q-44 -76 -101 -76q-32 0 -63 23l-19 14q-19 14 -40 14q-31 0 -68 -51z" />
<glyph unicode="&#xd2;" horiz-adv-x="649" d="M44 232q0 79 20.5 156.5t60 146.5t108.5 112t156 43q216 0 216 -248q0 -80 -20.5 -158.5t-60.5 -147t-109 -110.5t-156 -42q-215 0 -215 248zM147 242q0 -85 30 -125t95 -40q57 0 103.5 34.5t73 89t40.5 115t14 118.5q0 83 -30.5 123.5t-96.5 40.5q-57 0 -103 -35 t-72 -89.5t-40 -114.5t-14 -117zM249 831l37 76l221 -127l-25 -59z" />
<glyph unicode="&#xd3;" horiz-adv-x="649" d="M44 232q0 79 20.5 156.5t60 146.5t108.5 112t156 43q216 0 216 -248q0 -80 -20.5 -158.5t-60.5 -147t-109 -110.5t-156 -42q-215 0 -215 248zM147 242q0 -85 30 -125t95 -40q57 0 103.5 34.5t73 89t40.5 115t14 118.5q0 83 -30.5 123.5t-96.5 40.5q-57 0 -103 -35 t-72 -89.5t-40 -114.5t-14 -117zM318 780l221 128l36 -77l-232 -110z" />
<glyph unicode="&#xd4;" horiz-adv-x="649" d="M44 232q0 79 20.5 156.5t60 146.5t108.5 112t156 43q216 0 216 -248q0 -80 -20.5 -158.5t-60.5 -147t-109 -110.5t-156 -42q-215 0 -215 248zM147 242q0 -85 30 -125t95 -40q57 0 103.5 34.5t73 89t40.5 115t14 118.5q0 83 -30.5 123.5t-96.5 40.5q-57 0 -103 -35 t-72 -89.5t-40 -114.5t-14 -117zM259 782l147 130h57l101 -136l-55 -41l-80 94h-6l-119 -94z" />
<glyph unicode="&#xd5;" horiz-adv-x="649" d="M44 232q0 79 20.5 156.5t60 146.5t108.5 112t156 43q216 0 216 -248q0 -80 -20.5 -158.5t-60.5 -147t-109 -110.5t-156 -42q-215 0 -215 248zM147 242q0 -85 30 -125t95 -40q57 0 103.5 34.5t73 89t40.5 115t14 118.5q0 83 -30.5 123.5t-96.5 40.5q-57 0 -103 -35 t-72 -89.5t-40 -114.5t-14 -117zM252 802q49 85 112 85q31 0 60 -22l21 -15q23 -17 37 -17q28 0 61 47l39 -44q-44 -76 -101 -76q-32 0 -63 23l-19 14q-19 14 -40 14q-31 0 -68 -51z" />
<glyph unicode="&#xd6;" horiz-adv-x="649" d="M44 232q0 79 20.5 156.5t60 146.5t108.5 112t156 43q216 0 216 -248q0 -80 -20.5 -158.5t-60.5 -147t-109 -110.5t-156 -42q-215 0 -215 248zM147 242q0 -85 30 -125t95 -40q57 0 103.5 34.5t73 89t40.5 115t14 118.5q0 83 -30.5 123.5t-96.5 40.5q-57 0 -103 -35 t-72 -89.5t-40 -114.5t-14 -117zM285 796q0 1 2 25q12 58 65 58q46 0 46 -39q0 -9 -4 -25q-12 -57 -66 -57q-43 0 -43 38zM449 796q0 9 4 25q12 58 65 58q46 0 46 -39q0 -9 -4 -25q-12 -57 -65 -57q-46 0 -46 38z" />
<glyph unicode="&#xd7;" d="M26 138l166 138l-108 134l66 56l108 -134l160 135l49 -62l-162 -133l111 -137l-65 -57l-111 137l-165 -138z" />
<glyph unicode="&#xd8;" horiz-adv-x="649" d="M29 -55l68 102q-53 63 -53 185q0 79 20.5 156.5t60 146.5t108.5 112t156 43q70 0 118 -28l65 97l56 -30l-72 -108q49 -64 49 -179q0 -80 -20.5 -158.5t-60.5 -147t-109 -110.5t-156 -42q-64 0 -112 24l-65 -97zM147 242q0 -60 15 -98l289 434q-29 20 -75 20 q-57 0 -103 -35t-72 -89.5t-40 -114.5t-14 -117zM203 93q26 -16 69 -16q57 0 103.5 34.5t73 89t40.5 115t14 118.5q0 54 -13 89z" />
<glyph unicode="&#xd9;" horiz-adv-x="621" d="M48 159q0 37 9 92l84 423h98l-82 -419q-8 -40 -8 -78q0 -50 26 -75t85 -25q80 0 117 41.5t55 136.5l81 419h98l-83 -426q-28 -141 -90.5 -202.5t-191.5 -61.5q-198 0 -198 175zM208 831l37 76l221 -127l-25 -59z" />
<glyph unicode="&#xda;" horiz-adv-x="621" d="M48 159q0 37 9 92l84 423h98l-82 -419q-8 -40 -8 -78q0 -50 26 -75t85 -25q80 0 117 41.5t55 136.5l81 419h98l-83 -426q-28 -141 -90.5 -202.5t-191.5 -61.5q-198 0 -198 175zM292 780l221 128l36 -77l-232 -110z" />
<glyph unicode="&#xdb;" horiz-adv-x="621" d="M48 159q0 37 9 92l84 423h98l-82 -419q-8 -40 -8 -78q0 -50 26 -75t85 -25q80 0 117 41.5t55 136.5l81 419h98l-83 -426q-28 -141 -90.5 -202.5t-191.5 -61.5q-198 0 -198 175zM233 782l147 130h57l101 -136l-55 -41l-80 94h-6l-119 -94z" />
<glyph unicode="&#xdc;" horiz-adv-x="621" d="M48 159q0 37 9 92l84 423h98l-82 -419q-8 -40 -8 -78q0 -50 26 -75t85 -25q80 0 117 41.5t55 136.5l81 419h98l-83 -426q-28 -141 -90.5 -202.5t-191.5 -61.5q-198 0 -198 175zM264 796q0 1 2 25q12 58 65 58q46 0 46 -39q0 -9 -4 -25q-12 -57 -66 -57q-43 0 -43 38z M428 796q0 9 4 25q12 58 65 58q46 0 46 -39q0 -9 -4 -25q-12 -57 -65 -57q-46 0 -46 38z" />
<glyph unicode="&#xdd;" horiz-adv-x="500" d="M78 674h100q29 -247 60 -352h2q117 173 205 352h101q-118 -234 -275 -456l-41 -218h-98l43 223q-68 196 -97 451zM234 780l221 128l36 -77l-232 -110z" />
<glyph unicode="&#xde;" horiz-adv-x="545" d="M20 0l130 674h98l-21 -110h70q113 0 165 -34.5t51 -122.5q-2 -154 -93 -225q-66 -52 -205 -52h-71l-26 -130h-98zM161 222h61q98 0 135 29q27 20 40.5 58.5t13.5 79.5q0 49 -27 65.5t-98 16.5h-76z" />
<glyph unicode="&#xdf;" horiz-adv-x="540" d="M-19 -147l160 825q86 25 178 25q85 0 135.5 -35.5t50.5 -108.5q0 -68 -32.5 -119.5t-91.5 -71.5v-2q44 -9 71.5 -44.5t27.5 -87.5q0 -115 -77 -182.5t-197 -67.5q-30 0 -51 4l20 79q17 -3 34 -3q77 0 126.5 45t49.5 118q0 55 -35 77.5t-98 22.5l15 73q66 6 105 43t39 97 q0 83 -106 83q-44 0 -87 -12l-148 -758h-89z" />
<glyph unicode="&#xe0;" horiz-adv-x="486" d="M-1 110q0 52 30.5 95t84.5 68q73 34 193 34h24l2 10q6 34 6 54q0 30 -20 42.5t-73 12.5q-68 0 -146 -31l1 73q83 33 168 33q161 0 161 -116q0 -25 -8 -67l-39 -199q-8 -37 -8 -48q0 -26 32 -26l-8 -54q-23 -7 -49 -7q-62 0 -62 61h-2q-63 -61 -151 -61q-61 0 -98.5 31 t-37.5 95zM93 124q0 -64 70 -64q33 0 69.5 16t61.5 41l24 125h-25q-88 0 -144 -30t-56 -88zM139 655l37 75l221 -127l-25 -59z" />
<glyph unicode="&#xe1;" horiz-adv-x="486" d="M-1 110q0 52 30.5 95t84.5 68q73 34 193 34h24l2 10q6 34 6 54q0 30 -20 42.5t-73 12.5q-68 0 -146 -31l1 73q83 33 168 33q161 0 161 -116q0 -25 -8 -67l-39 -199q-8 -37 -8 -48q0 -26 32 -26l-8 -54q-23 -7 -49 -7q-62 0 -62 61h-2q-63 -61 -151 -61q-61 0 -98.5 31 t-37.5 95zM93 124q0 -64 70 -64q33 0 69.5 16t61.5 41l24 125h-25q-88 0 -144 -30t-56 -88zM196 603l222 127l36 -75l-233 -111z" />
<glyph unicode="&#xe2;" horiz-adv-x="486" d="M-1 110q0 52 30.5 95t84.5 68q73 34 193 34h24l2 10q6 34 6 54q0 30 -20 42.5t-73 12.5q-68 0 -146 -31l1 73q83 33 168 33q161 0 161 -116q0 -25 -8 -67l-39 -199q-8 -37 -8 -48q0 -26 32 -26l-8 -54q-23 -7 -49 -7q-62 0 -62 61h-2q-63 -61 -151 -61q-61 0 -98.5 31 t-37.5 95zM93 124q0 -64 70 -64q33 0 69.5 16t61.5 41l24 125h-25q-88 0 -144 -30t-56 -88zM153 604l146 130h57l101 -136l-53 -40l-81 98h-6l-121 -97z" />
<glyph unicode="&#xe3;" horiz-adv-x="486" d="M-1 110q0 52 30.5 95t84.5 68q73 34 193 34h24l2 10q6 34 6 54q0 30 -20 42.5t-73 12.5q-68 0 -146 -31l1 73q83 33 168 33q161 0 161 -116q0 -25 -8 -67l-39 -199q-8 -37 -8 -48q0 -26 32 -26l-8 -54q-23 -7 -49 -7q-62 0 -62 61h-2q-63 -61 -151 -61q-61 0 -98.5 31 t-37.5 95zM93 124q0 -64 70 -64q33 0 69.5 16t61.5 41l24 125h-25q-88 0 -144 -30t-56 -88zM148 624q49 84 111 84q30 0 61 -21l21 -16q22 -16 37 -16q18 0 31 11t30 35l39 -43q-44 -77 -101 -77q-32 0 -63 23l-20 15q-17 13 -39 13q-32 0 -68 -51z" />
<glyph unicode="&#xe4;" horiz-adv-x="486" d="M-1 110q0 52 30.5 95t84.5 68q73 34 193 34h24l2 10q6 34 6 54q0 30 -20 42.5t-73 12.5q-68 0 -146 -31l1 73q83 33 168 33q161 0 161 -116q0 -25 -8 -67l-39 -199q-8 -37 -8 -48q0 -26 32 -26l-8 -54q-23 -7 -49 -7q-62 0 -62 61h-2q-63 -61 -151 -61q-61 0 -98.5 31 t-37.5 95zM93 124q0 -64 70 -64q33 0 69.5 16t61.5 41l24 125h-25q-88 0 -144 -30t-56 -88zM175 620q0 8 4 24q12 58 64 58q47 0 47 -39q0 -8 -4 -25q-14 -57 -66 -57q-45 0 -45 39zM341 620q0 8 4 24q12 58 64 58q46 0 46 -39q0 -12 -3 -25q-14 -57 -66 -57q-45 0 -45 39z " />
<glyph unicode="&#xe5;" horiz-adv-x="486" d="M-1 110q0 52 30.5 95t84.5 68q73 34 193 34h24l2 10q6 34 6 54q0 30 -20 42.5t-73 12.5q-68 0 -146 -31l1 73q83 33 168 33q161 0 161 -116q0 -25 -8 -67l-39 -199q-8 -37 -8 -48q0 -26 32 -26l-8 -54q-23 -7 -49 -7q-62 0 -62 61h-2q-63 -61 -151 -61q-61 0 -98.5 31 t-37.5 95zM93 124q0 -64 70 -64q33 0 69.5 16t61.5 41l24 125h-25q-88 0 -144 -30t-56 -88zM222 642q1 47 33 81t81 34q35 0 56.5 -22.5t20.5 -56.5q0 -49 -32.5 -81.5t-82.5 -32.5q-34 0 -55.5 22.5t-20.5 55.5zM280 652q0 -14 8 -22.5t21 -8.5q18 0 32 13.5t14 33.5 q0 14 -8 22.5t-22 8.5q-18 0 -31.5 -13t-13.5 -34z" />
<glyph unicode="&#xe6;" horiz-adv-x="790" d="M-1 110q0 52 30.5 95t84.5 68q73 34 193 34h25l2 13q5 32 5 39q0 35 -21 51t-72 16q-69 0 -145 -31l1 73q82 33 168 33q114 0 140 -68q71 68 167 68q82 0 122.5 -44t40.5 -120q0 -55 -12 -115l-4 -17h-320q-3 -21 -1 -41q2 -51 30 -76t90 -25q70 0 146 27l-6 -74 q-73 -32 -156 -32q-139 0 -176 84q-34 -38 -87.5 -61t-104.5 -23q-67 0 -103.5 34t-36.5 92zM93 124q0 -28 18.5 -45.5t53.5 -17.5q38 0 80 20t66 49q-2 26 0 55q1 29 6 57h-24q-88 0 -144 -30t-56 -88zM415 273h229q7 28 7 60q0 91 -85 91q-56 0 -96.5 -41.5t-54.5 -109.5z " />
<glyph unicode="&#xe7;" horiz-adv-x="456" d="M27 180q0 132 76 226.5t209 94.5q70 0 129 -32l-23 -79q-52 30 -109 30q-85 0 -136 -67t-51 -161q2 -126 113 -130q57 -1 125 27l-7 -77q-51 -23 -113 -27l-18 -44q83 -3 83 -73q0 -52 -36.5 -83t-98.5 -31q-50 0 -87 17l24 54q33 -12 66 -12q59 0 59 43q0 32 -54 32 q-9 0 -35 -2l-6 7l41 94q-76 9 -113.5 60t-37.5 133z" />
<glyph unicode="&#xe8;" horiz-adv-x="505" d="M27 170q0 137 70 234t193 97q84 0 124.5 -44t40.5 -120q0 -53 -13 -115l-3 -17h-320q-2 -11 -2 -32q0 -110 122 -110q71 0 145 27q-1 -11 -3.5 -36t-3.5 -38q-72 -32 -157 -32q-98 0 -145.5 44.5t-47.5 141.5zM130 273h229q7 28 7 60q0 91 -87 91q-56 0 -96.5 -42.5 t-52.5 -108.5zM155 655l37 75l221 -127l-25 -59z" />
<glyph unicode="&#xe9;" horiz-adv-x="505" d="M27 170q0 137 70 234t193 97q84 0 124.5 -44t40.5 -120q0 -53 -13 -115l-3 -17h-320q-2 -11 -2 -32q0 -110 122 -110q71 0 145 27q-1 -11 -3.5 -36t-3.5 -38q-72 -32 -157 -32q-98 0 -145.5 44.5t-47.5 141.5zM130 273h229q7 28 7 60q0 91 -87 91q-56 0 -96.5 -42.5 t-52.5 -108.5zM213 602l222 127l36 -75l-233 -111z" />
<glyph unicode="&#xea;" horiz-adv-x="505" d="M27 170q0 137 70 234t193 97q84 0 124.5 -44t40.5 -120q0 -53 -13 -115l-3 -17h-320q-2 -11 -2 -32q0 -110 122 -110q71 0 145 27q-1 -11 -3.5 -36t-3.5 -38q-72 -32 -157 -32q-98 0 -145.5 44.5t-47.5 141.5zM130 273h229q7 28 7 60q0 91 -87 91q-56 0 -96.5 -42.5 t-52.5 -108.5zM157 604l146 130h57l101 -136l-53 -40l-81 98h-6l-121 -97z" />
<glyph unicode="&#xeb;" horiz-adv-x="505" d="M27 170q0 137 70 234t193 97q84 0 124.5 -44t40.5 -120q0 -53 -13 -115l-3 -17h-320q-2 -11 -2 -32q0 -110 122 -110q71 0 145 27q-1 -11 -3.5 -36t-3.5 -38q-72 -32 -157 -32q-98 0 -145.5 44.5t-47.5 141.5zM130 273h229q7 28 7 60q0 91 -87 91q-56 0 -96.5 -42.5 t-52.5 -108.5zM179 620q0 8 4 24q12 58 64 58q47 0 47 -39q0 -8 -4 -25q-14 -57 -66 -57q-45 0 -45 39zM345 620q0 8 4 24q12 58 64 58q46 0 46 -39q0 -12 -3 -25q-14 -57 -66 -57q-45 0 -45 39z" />
<glyph unicode="&#xec;" horiz-adv-x="239" d="M-16 655l37 75l221 -127l-25 -59zM13 0l94 485h89l-94 -485h-89z" />
<glyph unicode="&#xed;" horiz-adv-x="239" d="M13 0l94 485h89l-94 -485h-89zM84 603l222 127l36 -75l-233 -111z" />
<glyph unicode="&#xee;" horiz-adv-x="239" d="M13 0l94 485h89l-94 -485h-89zM17 604l146 130h57l101 -136l-53 -40l-81 98h-6l-121 -97z" />
<glyph unicode="&#xef;" horiz-adv-x="239" d="M13 0l94 485h89l-94 -485h-89zM43 620q0 8 4 24q12 58 64 58q47 0 47 -39q0 -8 -4 -25q-14 -57 -66 -57q-45 0 -45 39zM209 620q0 8 4 24q12 58 64 58q46 0 46 -39q0 -12 -3 -25q-14 -57 -66 -57q-45 0 -45 39z" />
<glyph unicode="&#xf0;" horiz-adv-x="519" d="M27 177q0 128 67 223.5t183 95.5q55 0 92 -21q-12 71 -68 119l-82 -56l-25 38l66 46q-27 15 -74 31l67 40q41 -13 68 -30l80 55l27 -39l-66 -44q108 -89 108 -265q0 -54 -8 -106t-27.5 -103.5t-49 -90t-77 -62.5t-107.5 -24q-79 0 -126.5 51t-47.5 142zM122 185 q0 -116 90 -116q56 0 94.5 49.5t53.5 114t15 134.5q0 11 -1 18q-33 27 -90 27q-53 0 -91.5 -37.5t-54.5 -87t-16 -102.5z" />
<glyph unicode="&#xf1;" horiz-adv-x="541" d="M10 0l94 485h78l-5 -56q80 72 178 72q59 0 93.5 -31t34.5 -84q0 -34 -11 -95l-56 -291h-89l52 275q11 59 11 78q0 63 -69 63q-80 0 -155 -70l-67 -346h-89zM186 624q49 84 111 84q30 0 61 -21l21 -16q22 -16 37 -16q18 0 31 11t30 35l39 -43q-44 -77 -101 -77 q-32 0 -63 23l-20 15q-17 13 -39 13q-32 0 -68 -51z" />
<glyph unicode="&#xf2;" horiz-adv-x="540" d="M27 172q0 62 17 120t50 105t87.5 75.5t122.5 28.5q89 0 135.5 -49t46.5 -135q0 -89 -27.5 -162t-91 -122t-155.5 -49q-91 0 -138 49.5t-47 138.5zM122 179q0 -118 100 -118q57 0 96.5 39t56 92.5t16.5 113.5q0 118 -100 118q-54 0 -94 -38.5t-57.5 -93t-17.5 -113.5z M173 655l37 75l221 -127l-25 -59z" />
<glyph unicode="&#xf3;" horiz-adv-x="540" d="M27 172q0 62 17 120t50 105t87.5 75.5t122.5 28.5q89 0 135.5 -49t46.5 -135q0 -89 -27.5 -162t-91 -122t-155.5 -49q-91 0 -138 49.5t-47 138.5zM122 179q0 -118 100 -118q57 0 96.5 39t56 92.5t16.5 113.5q0 118 -100 118q-54 0 -94 -38.5t-57.5 -93t-17.5 -113.5z M240 603l222 127l36 -75l-233 -111z" />
<glyph unicode="&#xf4;" horiz-adv-x="540" d="M27 172q0 62 17 120t50 105t87.5 75.5t122.5 28.5q89 0 135.5 -49t46.5 -135q0 -89 -27.5 -162t-91 -122t-155.5 -49q-91 0 -138 49.5t-47 138.5zM122 179q0 -118 100 -118q57 0 96.5 39t56 92.5t16.5 113.5q0 118 -100 118q-54 0 -94 -38.5t-57.5 -93t-17.5 -113.5z M189 605l146 130h57l101 -136l-53 -40l-81 98h-6l-121 -97z" />
<glyph unicode="&#xf5;" horiz-adv-x="540" d="M27 172q0 62 17 120t50 105t87.5 75.5t122.5 28.5q89 0 135.5 -49t46.5 -135q0 -89 -27.5 -162t-91 -122t-155.5 -49q-91 0 -138 49.5t-47 138.5zM122 179q0 -118 100 -118q57 0 96.5 39t56 92.5t16.5 113.5q0 118 -100 118q-54 0 -94 -38.5t-57.5 -93t-17.5 -113.5z M181 624q49 84 111 84q30 0 61 -21l21 -16q22 -16 37 -16q18 0 31 11t30 35l39 -43q-44 -77 -101 -77q-32 0 -63 23l-20 15q-17 13 -39 13q-32 0 -68 -51z" />
<glyph unicode="&#xf6;" horiz-adv-x="540" d="M27 172q0 62 17 120t50 105t87.5 75.5t122.5 28.5q89 0 135.5 -49t46.5 -135q0 -89 -27.5 -162t-91 -122t-155.5 -49q-91 0 -138 49.5t-47 138.5zM122 179q0 -118 100 -118q57 0 96.5 39t56 92.5t16.5 113.5q0 118 -100 118q-54 0 -94 -38.5t-57.5 -93t-17.5 -113.5z M206 620q0 8 4 24q12 58 64 58q47 0 47 -39q0 -8 -4 -25q-13 -57 -66 -57q-45 0 -45 39zM372 620q0 8 4 24q12 58 64 58q46 0 46 -39q0 -12 -3 -25q-13 -57 -66 -57q-45 0 -45 39z" />
<glyph unicode="&#xf7;" d="M47 228l16 82h391l-16 -82h-391zM164 75q0 16 4 36q14 55 66 55q43 0 43 -43q0 -13 -4 -33q-12 -55 -65 -55q-44 0 -44 40zM227 412q0 16 4 36q7 28 22 41.5t44 13.5q43 0 43 -42q0 -15 -4 -33q-12 -56 -65 -56q-44 0 -44 40z" />
<glyph unicode="&#xf8;" horiz-adv-x="540" d="M17 -49l58 81q-48 48 -48 140q0 62 17 120t50 105t87.5 75.5t122.5 28.5q55 0 95 -20l61 84l45 -27l-64 -88q45 -48 45 -133q0 -89 -27.5 -162t-91 -122t-155.5 -49q-51 0 -94 18l-58 -80zM122 179q0 -39 12 -66l214 296q-22 15 -57 15q-54 0 -94 -38.5t-57.5 -93 t-17.5 -113.5zM169 73q21 -12 53 -12q57 0 96.5 39t56 92.5t16.5 113.5q0 37 -10 61z" />
<glyph unicode="&#xf9;" horiz-adv-x="514" d="M28 115q0 30 19 125l47 245h89l-49 -256q-15 -72 -15 -97q0 -35 16 -51q20 -21 75 -21q37 0 60 8t38 32t23 50.5t18 78.5l50 256h89l-49 -250q-17 -85 -31 -127.5t-43 -71.5q-53 -52 -169 -52q-168 0 -168 131zM141 655l37 75l221 -127l-25 -59z" />
<glyph unicode="&#xfa;" horiz-adv-x="514" d="M28 115q0 30 19 125l47 245h89l-49 -256q-15 -72 -15 -97q0 -35 16 -51q20 -21 75 -21q37 0 60 8t38 32t23 50.5t18 78.5l50 256h89l-49 -250q-17 -85 -31 -127.5t-43 -71.5q-53 -52 -169 -52q-168 0 -168 131zM220 603l222 127l36 -75l-233 -111z" />
<glyph unicode="&#xfb;" horiz-adv-x="514" d="M28 115q0 30 19 125l47 245h89l-49 -256q-15 -72 -15 -97q0 -35 16 -51q20 -21 75 -21q37 0 60 8t38 32t23 50.5t18 78.5l50 256h89l-49 -250q-17 -85 -31 -127.5t-43 -71.5q-53 -52 -169 -52q-168 0 -168 131zM155 604l146 130h57l101 -136l-53 -40l-81 98h-6l-121 -97z " />
<glyph unicode="&#xfc;" horiz-adv-x="514" d="M28 115q0 30 19 125l47 245h89l-49 -256q-15 -72 -15 -97q0 -35 16 -51q20 -21 75 -21q37 0 60 8t38 32t23 50.5t18 78.5l50 256h89l-49 -250q-17 -85 -31 -127.5t-43 -71.5q-53 -52 -169 -52q-168 0 -168 131zM177 620q0 8 4 24q12 58 64 58q47 0 47 -39q0 -8 -4 -25 q-14 -57 -66 -57q-45 0 -45 39zM343 620q0 8 4 24q12 58 64 58q46 0 46 -39q0 -12 -3 -25q-14 -57 -66 -57q-45 0 -45 39z" />
<glyph unicode="&#xfd;" horiz-adv-x="515" d="M29 117q0 31 8 71l58 297h89l-55 -282q-9 -41 -9 -64q0 -58 72 -58q35 0 73.5 16.5t64.5 43.5l68 344h89l-87 -442q-28 -138 -82.5 -195.5t-167.5 -57.5q-49 0 -105 16l16 73q42 -14 84 -14q71 0 107.5 33t52.5 104l10 50q-62 -56 -154 -56q-61 0 -96.5 33t-35.5 88z M220 603l222 127l36 -75l-233 -111z" />
<glyph unicode="&#xfe;" horiz-adv-x="538" d="M-30 -194l173 881h89l-48 -243h1q72 57 151 57q70 0 109 -45.5t39 -131.5q0 -50 -9.5 -97.5t-30.5 -91.5t-51.5 -77.5t-76 -53.5t-99.5 -20q-66 0 -116 31l-42 -209h-89zM117 96q42 -32 97 -32q86 0 130.5 73.5t45.5 169.5q0 109 -92 109q-67 0 -130 -58z" />
<glyph unicode="&#xff;" horiz-adv-x="515" d="M29 117q0 31 8 71l58 297h89l-55 -282q-9 -41 -9 -64q0 -58 72 -58q35 0 73.5 16.5t64.5 43.5l68 344h89l-87 -442q-28 -138 -82.5 -195.5t-167.5 -57.5q-49 0 -105 16l16 73q42 -14 84 -14q71 0 107.5 33t52.5 104l10 50q-62 -56 -154 -56q-61 0 -96.5 33t-35.5 88z M181 620q0 8 4 24q12 58 64 58q47 0 47 -39q0 -8 -4 -25q-14 -57 -66 -57q-45 0 -45 39zM347 620q0 8 4 24q12 58 64 58q46 0 46 -39q0 -12 -3 -25q-14 -57 -66 -57q-45 0 -45 39z" />
<glyph unicode="&#x152;" horiz-adv-x="858" d="M44 226q0 50 8.5 102t25 104.5t43 98.5t60.5 81.5t81 56.5t100 21q80 0 122 -51l7 35h374l-18 -91h-281l-37 -191h246l-18 -92h-245l-41 -209h281l-16 -91h-375l8 43q-52 -59 -143 -59q-84 0 -133 62t-49 180zM147 241q0 -163 108 -163q34 0 68 15.5t57 40.5l83 422 q-31 41 -91 41q-56 0 -101 -35t-71 -89.5t-39.5 -114.5t-13.5 -117z" />
<glyph unicode="&#x153;" horiz-adv-x="847" d="M27 172q0 62 17 120t49.5 105t84.5 75.5t116 28.5q61 0 99.5 -26.5t51.5 -70.5q29 45 77.5 71t109.5 26q84 0 124.5 -44t40.5 -120q0 -62 -11 -115l-4 -17h-320q-3 -25 0 -45q6 -97 121 -97q69 0 145 27q-1 -11 -3.5 -36t-3.5 -38q-73 -32 -157 -32q-64 0 -108 25t-61 69 q-56 -94 -187 -94q-88 0 -134.5 49t-46.5 139zM122 179q0 -118 99 -118q54 0 91 39t51.5 92t14.5 115q0 116 -91 116q-77 0 -121 -75.5t-44 -168.5zM473 273h228q7 28 7 60q0 91 -85 91q-59 0 -97.5 -40.5t-52.5 -110.5z" />
<glyph unicode="&#x178;" horiz-adv-x="500" d="M78 674h100q29 -247 60 -352h2q117 173 205 352h101q-118 -234 -275 -456l-41 -218h-98l43 223q-68 196 -97 451zM194 796q0 1 2 25q12 58 65 58q46 0 46 -39q0 -9 -4 -25q-12 -57 -66 -57q-43 0 -43 38zM358 796q0 9 4 25q12 58 65 58q46 0 46 -39q0 -9 -4 -25 q-12 -57 -65 -57q-46 0 -46 38z" />
<glyph unicode="&#x2c6;" horiz-adv-x="348" d="M15 604l146 130h57l101 -136l-53 -40l-81 98h-6l-121 -97z" />
<glyph unicode="&#x2dc;" horiz-adv-x="348" d="M8 624q49 84 111 84q30 0 61 -21l21 -16q22 -16 37 -16q18 0 31 11t30 35l39 -43q-44 -77 -101 -77q-32 0 -63 23l-20 15q-17 13 -39 13q-32 0 -68 -51z" />
<glyph unicode="&#x2000;" horiz-adv-x="464" />
<glyph unicode="&#x2001;" horiz-adv-x="928" />
<glyph unicode="&#x2002;" horiz-adv-x="464" />
<glyph unicode="&#x2003;" horiz-adv-x="928" />
<glyph unicode="&#x2004;" horiz-adv-x="309" />
<glyph unicode="&#x2005;" horiz-adv-x="232" />
<glyph unicode="&#x2006;" horiz-adv-x="154" />
<glyph unicode="&#x2007;" horiz-adv-x="154" />
<glyph unicode="&#x2008;" horiz-adv-x="116" />
<glyph unicode="&#x2009;" horiz-adv-x="185" />
<glyph unicode="&#x200a;" horiz-adv-x="51" />
<glyph unicode="&#x2010;" horiz-adv-x="269" d="M16 208l16 82h192l-16 -82h-192z" />
<glyph unicode="&#x2011;" horiz-adv-x="269" d="M16 208l16 82h192l-16 -82h-192z" />
<glyph unicode="&#x2012;" horiz-adv-x="269" d="M16 208l16 82h192l-16 -82h-192z" />
<glyph unicode="&#x2013;" horiz-adv-x="508" d="M7 210l14 78h481l-14 -78h-481z" />
<glyph unicode="&#x2014;" horiz-adv-x="1008" d="M16 210l14 78h963l-14 -78h-963z" />
<glyph unicode="&#x2018;" horiz-adv-x="172" d="M46 487q0 64 60 159q34 56 65 96l55 -21q-59 -86 -84 -137q33 -6 33 -45q0 -15 -3 -29q-14 -69 -75 -69q-51 0 -51 46z" />
<glyph unicode="&#x2019;" horiz-adv-x="169" d="M35 462q59 86 84 137q-33 6 -33 45q0 15 3 29q14 69 75 69q51 0 51 -46q0 -64 -60 -159q-34 -56 -65 -96z" />
<glyph unicode="&#x201a;" horiz-adv-x="169" d="M-88 -158q59 86 84 137q-33 6 -33 45q0 15 3 29q14 69 75 69q51 0 51 -46q0 -64 -60 -159q-34 -56 -65 -96z" />
<glyph unicode="&#x201c;" horiz-adv-x="370" d="M51 487q0 64 60 159q34 56 65 96l55 -21q-59 -86 -84 -137q33 -6 33 -45q0 -15 -3 -29q-14 -69 -75 -69q-51 0 -51 46zM249 487q0 64 60 159q34 56 65 96l55 -21q-59 -86 -84 -137q33 -6 33 -45q0 -15 -3 -29q-14 -69 -75 -69q-51 0 -51 46z" />
<glyph unicode="&#x201d;" horiz-adv-x="370" d="M34 462q59 86 84 137q-33 6 -33 45q0 15 3 29q14 69 75 69q51 0 51 -46q0 -64 -60 -159q-34 -56 -65 -96zM235 462q59 86 84 137q-33 6 -33 45q0 15 3 29q14 69 75 69q51 0 51 -46q0 -64 -60 -159q-34 -56 -65 -96z" />
<glyph unicode="&#x201e;" horiz-adv-x="370" d="M-84 -158q59 86 84 137q-33 6 -33 45q0 15 3 29q14 69 75 69q51 0 51 -46q0 -64 -60 -159q-34 -56 -65 -96zM117 -158q59 86 84 137q-33 6 -33 45q0 15 3 29q14 69 75 69q51 0 51 -46q0 -64 -60 -159q-34 -56 -65 -96z" />
<glyph unicode="&#x2022;" horiz-adv-x="371" d="M34 189q0 28 10 74q15 68 48.5 100.5t104.5 32.5q104 0 104 -84q0 -28 -9 -70q-15 -75 -48 -107t-104 -32q-57 0 -81.5 22t-24.5 64z" />
<glyph unicode="&#x2026;" horiz-adv-x="639" d="M-4 26q0 13 5 38q13 58 68 58q47 0 47 -42q0 -15 -5 -37q-12 -59 -69 -59q-46 0 -46 42zM207 26q0 13 5 38q12 58 67 58q47 0 47 -42q0 -15 -5 -37q-12 -59 -69 -59q-45 0 -45 42zM417 26q0 13 5 38q13 58 68 58q47 0 47 -42q0 -15 -5 -37q-12 -59 -69 -59q-46 0 -46 42z " />
<glyph unicode="&#x202f;" horiz-adv-x="185" />
<glyph unicode="&#x2039;" horiz-adv-x="288" d="M5 243l209 239q19 -14 55 -44q-107 -116 -174 -195q29 -63 97 -195q-23 -15 -71 -43z" />
<glyph unicode="&#x203a;" horiz-adv-x="288" d="M-8 48l171 195q-38 85 -96 195l71 44q48 -93 116 -239l-208 -238z" />
<glyph unicode="&#x205f;" horiz-adv-x="232" />
<glyph unicode="&#x20ac;" d="M2 211l19 76h77q1 32 8 70h-76l21 75h73q40 119 120 188.5t200 69.5q72 0 142 -36l-32 -89q-54 34 -119 34q-149 0 -206 -167h161l-20 -75h-162q-5 -29 -7 -70h154l-20 -76h-134q5 -72 35 -104t93 -32q73 0 141 33l-5 -91q-68 -33 -157 -33q-103 0 -153.5 57.5 t-58.5 169.5h-94z" />
<glyph unicode="&#x2122;" horiz-adv-x="682" d="M71 650l13 61h233l-15 -61h-81l-50 -256h-70l50 256h-80zM289 394q21 92 78 317h73l40 -196l113 196h75q-18 -142 -46 -317h-66q7 40 20 120.5t14 87.5l-104 -175h-48q-26 119 -35 172q-9 -35 -25.5 -106t-23.5 -99h-65z" />
<glyph unicode="&#x25fc;" horiz-adv-x="485" d="M0 485h485v-485h-485v485z" />
</font>
</defs>
</svg>
