<?xml version="1.0" standalone="no"?>
<!DOCTYPE svg PUBLIC "-//W3C//DTD SVG 1.1//EN" "http://www.w3.org/Graphics/SVG/1.1/DTD/svg11.dtd" >
<svg xmlns="http://www.w3.org/2000/svg" xmlns:xlink="http://www.w3.org/1999/xlink" version="1.1">
<metadata></metadata>
<defs>
<font id="postnlweblight" horiz-adv-x="501" >
<font-face units-per-em="1000" ascent="750" descent="-250" />
<missing-glyph horiz-adv-x="175" />
<glyph unicode="&#xfb01;" horiz-adv-x="486" d="M24 433v52h76v40q0 91 38 130q41 44 142 44q63 0 115 -13l-6 -49q-54 12 -108 12q-66 0 -93 -23q-28 -27 -28 -106v-35h251v-485h-61v433h-190v-433h-60v433h-76z" />
<glyph unicode="&#xfb02;" horiz-adv-x="484" d="M24 433v52h76v40q0 91 38 130q41 44 133 44q72 0 143 -19v-680h-60v640q-34 9 -85 9q-54 0 -81 -23q-28 -27 -28 -106v-35h111l-6 -52h-105v-433h-60v433h-76z" />
<glyph unicode="&#xfb03;" horiz-adv-x="736" d="M24 433v52h76v40q0 91 38 130q41 44 124 44q17 0 45 -4l-6 -49q-18 3 -32 3q-54 0 -81 -23q-28 -27 -28 -106v-35h190v40q0 91 38 130q41 44 143 44q62 0 114 -13l-6 -49q-54 12 -107 12q-67 0 -93 -23q-28 -25 -28 -106v-35h250v-485h-60v433h-190v-433h-61v433h-190 v-433h-60v433h-76z" />
<glyph unicode="&#xfb04;" horiz-adv-x="734" d="M24 433v52h76v40q0 91 38 130q41 44 124 44q17 0 45 -4l-6 -49q-18 3 -32 3q-54 0 -81 -23q-28 -27 -28 -106v-35h190v40q0 91 38 130q41 44 138 44q67 0 138 -19v-680h-60v640q-34 9 -85 9q-54 0 -81 -23q-28 -27 -28 -106v-35h111l-6 -52h-105v-433h-60v433h-190v-433 h-60v433h-76z" />
<glyph horiz-adv-x="0" />
<glyph unicode="&#xd;" horiz-adv-x="175" />
<glyph unicode=" "  horiz-adv-x="175" />
<glyph unicode="&#x09;" horiz-adv-x="175" />
<glyph unicode="&#xa0;" horiz-adv-x="175" />
<glyph unicode="!" horiz-adv-x="245" d="M84 34v10q0 48 38 48t38 -48v-10q0 -50 -38 -50t-38 50zM90 423v251h63v-251l-10 -218h-42z" />
<glyph unicode="&#x22;" horiz-adv-x="299" d="M47 490v214h73l-16 -214h-57zM186 490v214h74l-16 -214h-58z" />
<glyph unicode="#" d="M23 192v53h85l32 183h-117v53h125l34 193h54l-34 -193h147l34 193h54l-34 -193h75v-53h-84l-32 -183h116v-53h-126l-33 -192h-53l33 192h-148l-33 -192h-53l33 192h-75zM161 245h148l32 183h-148z" />
<glyph unicode="$" d="M54 18l10 63q81 -35 154 -35h19v263q-91 28 -135.5 73t-44.5 122q0 79 49.5 126t130.5 57v104h50v-101q70 -1 137 -27l-12 -61q-73 24 -125 25v-261q36 -12 57.5 -20t47.5 -23.5t39.5 -33.5t23 -47t9.5 -66q0 -81 -46.5 -128t-130.5 -59v-102h-50v97h-14q-83 0 -169 34z M128 508q0 -50 28.5 -78.5t80.5 -47.5v241q-25 -5 -51 -17q-58 -29 -58 -98zM287 51q106 22 106 121q0 53 -26.5 79.5t-79.5 43.5v-244z" />
<glyph unicode="%" horiz-adv-x="760" d="M51 486v14q0 190 122 190t122 -190v-14q0 -189 -122 -189t-122 189zM108 493q0 -77 15.5 -111t49.5 -34q36 0 50.5 33t14.5 112t-14.5 112t-50.5 33q-34 0 -49.5 -34t-15.5 -111zM190 19l333 683l58 -25l-334 -682zM464 174v13q0 190 122 190t122 -190v-13 q0 -190 -122 -190t-122 190zM521 180q0 -76 16 -110t49 -34q36 0 50.5 33t14.5 111q0 79 -14.5 112.5t-50.5 33.5q-33 0 -49 -34.5t-16 -111.5z" />
<glyph unicode="&#x26;" horiz-adv-x="602" d="M45 131v7q0 102 125 177q-87 99 -87 199v8q0 26 8 53t25.5 54t50.5 44t77 17q66 0 105.5 -44t39.5 -115q0 -128 -135 -226q94 -101 149 -150q43 72 43 206h59q0 -137 -59 -241q70 -58 123 -72v-61q-72 7 -161 84q-80 -87 -193 -87q-71 0 -120.5 38.5t-49.5 108.5z M112 140q0 -46 31.5 -72t80.5 -26q85 0 145 64q-84 76 -165 168q-92 -61 -92 -131v-3zM146 517q0 -81 75 -171q105 78 105 179q0 48 -21.5 76.5t-64.5 28.5q-48 0 -71 -33t-23 -75v-5z" />
<glyph unicode="'" horiz-adv-x="159" d="M47 490v214h73l-16 -214h-57z" />
<glyph unicode="(" horiz-adv-x="370" d="M99 295q0 252 194 449l29 -23q-153 -187 -153 -426q0 -238 152 -427l-27 -22q-195 203 -195 449z" />
<glyph unicode=")" horiz-adv-x="370" d="M48 721l29 23q194 -197 194 -449q0 -246 -195 -449l-27 22q152 191 152 427q0 237 -153 426z" />
<glyph unicode="*" horiz-adv-x="344" d="M22 562l22 55l108 -55l-11 121h59l-11 -121l111 56l21 -55l-119 -37l84 -92l-49 -35l-65 105l-67 -104l-49 36l86 90z" />
<glyph unicode="+" d="M60 248v59h159v160h62v-160h159v-59h-159v-159h-62v159h-159z" />
<glyph unicode="," horiz-adv-x="198" d="M40 -136q30 64 46 115q-37 10 -37 59v14q0 56 49 56q50 0 50 -60q0 -73 -65 -202z" />
<glyph unicode="-" horiz-adv-x="281" d="M50 222v59h181v-59h-181z" />
<glyph unicode="." horiz-adv-x="198" d="M51 41v11q0 56 48 56t48 -56v-11q0 -57 -48 -57t-48 57z" />
<glyph unicode="/" horiz-adv-x="378" d="M28 -16l254 706h68l-253 -706h-69z" />
<glyph unicode="0" d="M50 322v29q0 180 47 259.5t153 79.5t153.5 -80t47.5 -259v-29q0 -179 -47 -258.5t-154 -79.5q-106 0 -153 79.5t-47 258.5zM120 337q0 -155 29.5 -222t100.5 -67t100.5 67t29.5 222q0 156 -29.5 223t-100.5 67t-100.5 -67t-29.5 -223z" />
<glyph unicode="1" d="M64 559l186 115h62v-618h141v-56h-362v56h155v550l-160 -100z" />
<glyph unicode="2" d="M56 62l84 87q50 53 82 90t69.5 86.5t56 94.5t18.5 84q0 60 -31 93q-34 33 -101 33q-77 0 -152 -32l-8 60q79 32 173 32q87 0 138 -45t51 -129q0 -82 -53.5 -167t-186.5 -221l-70 -72h302v-56h-365z" />
<glyph unicode="3" d="M57 16l11 59q69 -31 142 -31q157 0 157 142q0 68 -44 104q-47 39 -142 39h-9v52h9q75 0 121 36.5t46 100.5q0 112 -126 112q-69 0 -139 -29l-6 60q77 29 152 29q87 0 138.5 -42.5t51.5 -121.5q0 -124 -115 -167v-2q61 -13 97.5 -56.5t36.5 -115.5q0 -98 -58 -149.5 t-168 -51.5q-81 0 -155 32z" />
<glyph unicode="4" d="M17 183v56q131 208 304 435h61v-434h95v-57h-95v-183h-66v183h-299zM84 240h232v338q-112 -144 -232 -338z" />
<glyph unicode="5" d="M56 9l9 61q67 -26 151 -26q88 0 126 51q30 41 30 106q0 72 -33 107.5t-105 35.5q-60 0 -119 -24l-32 15l10 339h311v-55h-249l-8 -234q46 17 103 17q90 0 141 -51t51 -147q0 -106 -61 -163t-164 -57q-76 0 -161 25z" />
<glyph unicode="6" d="M40 285q0 76 15 143.5t47 128.5t91 97t139 36q36 0 57 -6l-7 -54q-22 4 -44 4q-88 0 -144 -58q-59 -64 -79 -203q60 46 152 46q88 0 139.5 -54t51.5 -149q0 -99 -55 -165.5t-148 -66.5q-215 0 -215 301zM113 318q-10 -82 7 -155q29 -120 134 -120q63 0 98 45t35 121 q0 73 -33.5 113t-99.5 40q-72 0 -141 -44z" />
<glyph unicode="7" d="M45 616v58h394v-60l-277 -614h-75l283 616h-325z" />
<glyph unicode="8" d="M39 169q0 61 39.5 113t110.5 80q-56 32 -89.5 69t-33.5 95q0 74 55.5 119t136.5 45q82 0 132.5 -41.5t50.5 -116.5q0 -49 -35 -95t-98 -78q73 -38 113.5 -79.5t40.5 -105.5q0 -89 -61.5 -139.5t-150.5 -50.5q-90 0 -150.5 48t-60.5 137zM110 177q0 -63 40.5 -98 t101.5 -35q59 0 99 34.5t40 94.5q0 48 -33 83t-118 78q-130 -55 -130 -157zM137 529q0 -47 32 -79t92 -66q110 58 110 145q0 51 -31.5 77.5t-83.5 26.5q-49 0 -84 -27.5t-35 -76.5z" />
<glyph unicode="9" d="M41 458q0 102 55.5 167t152.5 65q211 0 211 -301q0 -76 -15 -143.5t-47 -128.5t-91 -97t-139 -36q-36 0 -57 6l6 55q20 -5 45 -5q88 0 144 58q59 64 79 203q-61 -46 -152 -46q-87 0 -139.5 55.5t-52.5 147.5zM112 466q0 -73 33.5 -113.5t99.5 -40.5q71 0 142 44 q10 83 -8 155q-27 120 -134 120q-62 0 -97.5 -45t-35.5 -120z" />
<glyph unicode=":" horiz-adv-x="198" d="M51 41v11q0 56 48 56t48 -56v-11q0 -57 -48 -57t-48 57zM51 441v11q0 56 48 56t48 -56v-11q0 -57 -48 -57t-48 57z" />
<glyph unicode=";" horiz-adv-x="198" d="M40 -136q30 64 46 115q-37 10 -37 59v14q0 56 49 56q50 0 50 -60q0 -73 -65 -202zM51 441v11q0 56 48 56t48 -56v-11q0 -57 -48 -57t-48 57z" />
<glyph unicode="&#x3c;" d="M91 253v49l288 184l31 -50l-242 -156v-5l242 -157l-31 -49z" />
<glyph unicode="=" d="M60 148v60h380v-60h-380zM60 349v59h380v-59h-380z" />
<glyph unicode="&#x3e;" d="M91 118l243 157v5l-243 156l31 50l288 -184v-49l-288 -184z" />
<glyph unicode="?" horiz-adv-x="419" d="M40 663q67 27 144 27q88 0 138.5 -46t50.5 -141q0 -87 -48 -137.5t-134 -50.5l-10 -129h-50l-8 182h31q82 0 119 32t37 105q0 128 -135 128q-67 0 -128 -25zM119 34v10q0 48 38 48t38 -48v-10q0 -50 -38 -50t-38 50z" />
<glyph unicode="@" horiz-adv-x="755" d="M51 346v3q0 155 90.5 248t242.5 93q155 0 237 -87.5t82 -234.5q0 -196 -139 -196q-63 0 -94 45q-43 -45 -108 -45q-51 0 -82.5 25.5t-31.5 72.5q0 50 39 79t120 29h45v14q0 39 -19.5 54.5t-65.5 15.5q-45 0 -93 -17l-3 49q55 16 107 16q63 0 95 -32q31 -28 31 -87v-93 q0 -84 65 -84q78 0 78 151q0 127 -68.5 198t-192.5 71q-130 0 -201 -76.5t-71 -207.5q0 -148 79.5 -230t231.5 -82q84 0 148 16l4 -48q-70 -22 -158 -22q-169 0 -268.5 94t-99.5 268zM304 273q0 -59 65 -59q50 0 87 39q-4 16 -4 37v47h-31q-117 0 -117 -64z" />
<glyph unicode="A" horiz-adv-x="573" d="M25 0q83 283 228 674h69q126 -328 226 -674h-70q-19 71 -44 150h-293q-10 -30 -45 -150h-71zM161 215h252q-52 171 -125 373h-2z" />
<glyph unicode="B" horiz-adv-x="563" d="M87 0v674h153q42 0 71.5 -2.5t62.5 -12.5t52.5 -28t33 -50.5t13.5 -78.5q0 -113 -89 -144v-2q60 -9 98.5 -53.5t38.5 -112.5q0 -90 -54 -142q-34 -30 -82 -39t-121 -9h-177zM153 65h122q92 0 133.5 24.5t41.5 103.5q0 56 -34 87q-39 37 -133 37h-130v-252zM153 382h102 q79 0 115 25.5t36 95.5q0 55 -34 83q-31 23 -107 23h-112v-227z" />
<glyph unicode="C" horiz-adv-x="550" d="M52 336v5q0 170 72.5 259.5t214.5 89.5q94 0 177 -46l-18 -66q-80 45 -161 45q-106 0 -160 -72.5t-54 -211.5q0 -290 209 -290q91 0 165 38l17 -59q-77 -44 -184 -44q-147 0 -212.5 95t-65.5 257z" />
<glyph unicode="D" horiz-adv-x="619" d="M87 0v674h148q124 0 191 -27q141 -60 141 -303v-9q0 -200 -96 -281q-38 -31 -95.5 -42.5t-148.5 -11.5h-140zM153 65h103q69 0 111 12t71 41q58 59 58 222q0 169 -68 226q-51 43 -177 43h-98v-544z" />
<glyph unicode="E" horiz-adv-x="507" d="M87 0v674h375l-5 -65h-304v-227h267v-65h-267v-252h304v-65h-370z" />
<glyph unicode="F" horiz-adv-x="495" d="M87 0v674h375l-5 -65h-304v-227h267v-65h-267v-317h-66z" />
<glyph unicode="G" horiz-adv-x="600" d="M52 332v5q0 170 75 261.5t216 91.5q95 0 180 -46l-18 -66q-82 45 -164 45q-106 0 -162 -73t-56 -211q0 -140 53 -215t160 -75q65 0 120 20v207h-140v65h206v-316q-82 -41 -183 -41q-287 0 -287 348z" />
<glyph unicode="H" horiz-adv-x="645" d="M87 0v674h66v-292h339v292h66v-674h-66v317h-339v-317h-66z" />
<glyph unicode="I" horiz-adv-x="246" d="M90 0v674h66v-674h-66z" />
<glyph unicode="J" horiz-adv-x="396" d="M26 -5l4 58q38 -9 66 -9q86 0 121 47q17 23 22 56t5 93v434h66v-433q0 -83 -10.5 -129.5t-44.5 -78.5q-51 -49 -149 -49q-42 0 -80 11z" />
<glyph unicode="K" horiz-adv-x="531" d="M87 0v674h66v-334q158 143 289 334h71q-112 -168 -238 -295l243 -379h-80l-214 330q-38 -38 -71 -66v-264h-66z" />
<glyph unicode="L" horiz-adv-x="450" d="M87 0v674h66v-609h265v-65h-331z" />
<glyph unicode="M" horiz-adv-x="813" d="M76 0q12 312 40 674h63q178 -380 228 -502h2q47 113 230 502h59q27 -352 39 -674h-69q-1 78 -26 542h-2l-215 -471h-40l-213 471h-2q-21 -357 -26 -542h-68z" />
<glyph unicode="N" horiz-adv-x="673" d="M87 0v674h62l374 -551h1v551h62v-674h-53l-383 558h-1v-558h-62z" />
<glyph unicode="O" horiz-adv-x="619" d="M52 332v10q0 161 61.5 254.5t196.5 93.5q134 0 195.5 -93.5t61.5 -254.5v-10q0 -161 -61.5 -254.5t-195.5 -93.5q-135 0 -196.5 93.5t-61.5 254.5zM123 338q0 -144 43.5 -216.5t143.5 -72.5t143 72t43 216q0 143 -43 215.5t-143 72.5q-101 0 -144 -72t-43 -215z" />
<glyph unicode="P" horiz-adv-x="540" d="M87 0v674h153q152 0 209 -59q50 -52 50 -149q0 -109 -60 -164q-56 -50 -170 -50h-116v-252h-66zM153 317h105q89 0 129.5 29.5t40.5 119.5q0 77 -47 113q-40 30 -125 30h-103v-292z" />
<glyph unicode="Q" horiz-adv-x="619" d="M52 332v10q0 161 61.5 254.5t196.5 93.5q134 0 195.5 -93.5t61.5 -254.5v-10q0 -265 -152 -328l103 -127l-55 -37l-108 147q-23 -3 -45 -3q-135 0 -196.5 93.5t-61.5 254.5zM123 338q0 -144 43.5 -216.5t143.5 -72.5t143 72t43 216q0 143 -43 215.5t-143 72.5 q-101 0 -144 -72t-43 -215z" />
<glyph unicode="R" horiz-adv-x="552" d="M87 0v674h150q152 0 209 -59q50 -52 50 -145q0 -105 -60 -160q-25 -20 -56 -32l124 -278h-71l-112 264q-25 -3 -55 -3h-113v-261h-66zM153 326h82q83 0 107 7q83 22 83 137q0 73 -47 109q-40 30 -125 30h-100v-283z" />
<glyph unicode="S" horiz-adv-x="477" d="M49 508q0 88 59.5 135t151.5 47q75 0 136 -27l-11 -61q-66 25 -125 25q-61 0 -101 -29t-40 -90q0 -58 32 -87t94 -48l32 -10q81 -25 121 -63.5t40 -123.5q0 -93 -56 -142.5t-169 -49.5q-81 0 -162 34l9 63q81 -35 151 -35q75 0 115.5 28.5t40.5 97.5q0 59 -29.5 84.5 t-93.5 45.5l-29 9q-82 26 -124 72t-42 125z" />
<glyph unicode="T" horiz-adv-x="523" d="M35 609v65h454l-8 -65h-188v-609h-66v609h-192z" />
<glyph unicode="U" horiz-adv-x="636" d="M84 243v431h66v-424q0 -104 37.5 -152.5t130.5 -48.5t130.5 48.5t37.5 152.5v424h66v-431q0 -131 -54 -195t-180 -64q-125 0 -179.5 64.5t-54.5 194.5z" />
<glyph unicode="V" horiz-adv-x="576" d="M26 674h71q75 -261 190 -587h2q115 326 190 587h71q-91 -310 -227 -674h-71q-131 351 -226 674z" />
<glyph unicode="W" horiz-adv-x="887" d="M26 674h71q54 -267 165 -587h2q47 156 105 383q26 107 43 204h66q27 -135 46 -204q65 -247 108 -383h1q90 255 157 587h70q-73 -338 -193 -674h-71q-75 217 -150 533h-2q-61 -269 -146 -533h-72q-134 377 -200 674z" />
<glyph unicode="X" horiz-adv-x="534" d="M30 0l201 340l-192 334h81q88 -171 152 -280q86 145 157 280h75q-82 -150 -197 -334l202 -340h-88l-153 284l-155 -284h-83z" />
<glyph unicode="Y" horiz-adv-x="512" d="M26 674h73q71 -215 155 -381h3q91 180 156 381h73q-76 -228 -198 -453v-221h-64v222q-122 220 -198 452z" />
<glyph unicode="Z" horiz-adv-x="518" d="M49 62l339 547h-331v65h408v-61l-340 -548h345v-65h-412z" />
<glyph unicode="[" horiz-adv-x="345" d="M99 -112v795h167v-50h-107v-695h107v-50h-167z" />
<glyph unicode="\" horiz-adv-x="378" d="M28 690h68l254 -706h-69z" />
<glyph unicode="]" horiz-adv-x="345" d="M80 -62h106v695h-106v50h166v-795h-166v50z" />
<glyph unicode="^" d="M37 322l186 311h55l186 -311l-54 -27l-160 274l-163 -274z" />
<glyph unicode="_" horiz-adv-x="491" d="M3 -73h485v-58h-485v58z" />
<glyph unicode="`" horiz-adv-x="321" d="M48 656l38 59l189 -124l-29 -47z" />
<glyph unicode="a" horiz-adv-x="484" d="M39 127q0 46 24.5 84.5t68.5 59.5q66 30 187 30h30v27q0 61 -28.5 90t-100.5 29q-65 0 -135 -31l-10 53q72 32 156 32q178 0 178 -169v-242q0 -31 6 -42t29 -11h4v-40q-12 -5 -33 -5q-56 0 -64 53q-67 -61 -161 -61q-65 0 -108 38.5t-43 104.5zM103 131q0 -40 25.5 -66 t74.5 -26q43 0 83 19.5t63 46.5v147h-34q-75 0 -124 -14q-88 -29 -88 -107z" />
<glyph unicode="b" horiz-adv-x="518" d="M62 0q5 50 5 161v529h60v-236q70 47 150 47q53 0 97 -25.5t68 -75.5q30 -62 30 -154v-3q0 -97 -35 -161q-54 -98 -173 -98q-76 0 -147 53l-6 -37h-49zM127 96q63 -54 132 -54q67 0 107 45q41 50 41 160q0 107 -41 155q-37 42 -106 42q-70 0 -133 -50v-298z" />
<glyph unicode="c" horiz-adv-x="444" d="M47 238v3q0 124 56.5 192t164.5 68q79 0 140 -38l-10 -58q-51 38 -126 38q-161 0 -161 -201q0 -101 37 -151.5t119 -50.5q71 0 129 30l10 -53q-66 -33 -142 -33q-100 0 -152 52q-65 65 -65 202z" />
<glyph unicode="d" horiz-adv-x="521" d="M47 230v4q0 144 72 214q55 53 140 53q73 0 135 -32v221h60v-497q0 -96 5 -193h-51l-5 42q-71 -58 -153 -58q-89 0 -143 60q-60 66 -60 186zM111 241q0 -95 37.5 -147t113.5 -52q73 0 132 56v311q-57 35 -119 35q-88 0 -126 -57t-38 -146z" />
<glyph unicode="e" d="M47 239v2q0 68 20 124.5t68.5 96t119.5 39.5q166 0 194 -182q6 -35 6 -82v-21h-343q9 -176 161 -176q79 0 137 30l10 -53q-66 -33 -150 -33q-103 0 -155 53q-68 68 -68 202zM111 269h279q-8 174 -132 174q-61 0 -96 -37q-44 -44 -51 -137z" />
<glyph unicode="f" horiz-adv-x="286" d="M24 433v52h76v40q0 91 38 130q41 44 124 44q17 0 45 -4l-6 -49q-18 3 -32 3q-54 0 -81 -23q-28 -27 -28 -106v-35h116l-6 -52h-110v-433h-60v433h-76z" />
<glyph unicode="g" horiz-adv-x="504" d="M56 333v4q0 82 51.5 123t136.5 41q79 0 130 -36q40 49 105 64v-68q-38 -5 -76 -26q29 -42 29 -98v-4q0 -85 -53 -124.5t-135 -39.5q-40 0 -67 8q-23 -45 -42 -98l121 -5q118 -5 160 -52q29 -30 29 -84q0 -68 -53 -106t-144 -38q-88 0 -137 33t-49 92q0 27 13.5 55.5 t34.5 46.5q-22 1 -33 12q-11 10 -11 24q0 21 21 62q20 35 46 73q-77 41 -77 141zM120 335q0 -58 29 -86.5t96 -28.5q66 0 94.5 28.5t28.5 86.5t-28.5 86t-94.5 28q-67 0 -96 -28.5t-29 -85.5zM121 -71q0 -37 32.5 -59.5t98.5 -22.5q61 0 97 21.5t36 65.5q0 36 -25 54 q-31 23 -123 27l-80 2q-36 -36 -36 -88z" />
<glyph unicode="h" horiz-adv-x="526" d="M67 0v690h60v-263q77 74 173 74q82 0 121 -40q41 -41 41 -139v-322h-60v311q0 77 -27 104q-23 26 -82 26q-40 0 -86 -21.5t-80 -58.5v-361h-60z" />
<glyph unicode="i" horiz-adv-x="210" d="M67 639v8q0 49 38 49t38 -49v-8q0 -47 -38 -47t-38 47zM75 0v485h60v-485h-60z" />
<glyph unicode="j" horiz-adv-x="207" d="M-36 -205l3 52h9q51 0 75 32.5t24 118.5v487h60v-481q0 -105 -36.5 -157.5t-116.5 -52.5q-12 0 -18 1zM67 639v8q0 49 38 49t38 -49v-8q0 -47 -38 -47t-38 47z" />
<glyph unicode="k" horiz-adv-x="434" d="M67 0v690h60v-424q113 88 210 219h70q-78 -113 -166 -196l175 -289h-72l-149 247q-28 -23 -68 -52v-195h-60z" />
<glyph unicode="l" horiz-adv-x="200" d="M70 0v690h60v-690h-60z" />
<glyph unicode="m" horiz-adv-x="801" d="M67 0v485h49l7 -58q67 74 161 74q92 0 128 -73q75 73 168 73q75 0 117 -40q40 -40 40 -139v-322h-60v311q0 72 -22 99q-24 31 -85 31q-78 0 -141 -69q2 -18 2 -62v-310h-60v304q0 26 -1.5 43.5t-7 37t-15.5 30.5t-28 18.5t-44 7.5q-38 0 -78 -21t-70 -55v-365h-60z" />
<glyph unicode="n" horiz-adv-x="526" d="M67 0v485h49l8 -61q77 77 176 77q82 0 121 -40q41 -41 41 -139v-322h-60v311q0 77 -27 104q-23 26 -82 26q-42 0 -86.5 -21t-79.5 -59v-361h-60z" />
<glyph unicode="o" horiz-adv-x="519" d="M47 242v1q0 125 53 191.5t159 66.5q213 0 213 -257v-2q0 -126 -53 -192t-160 -66q-106 0 -159 66.5t-53 191.5zM111 242q0 -204 149 -204q148 0 148 204q0 205 -148 205q-149 0 -149 -205z" />
<glyph unicode="p" horiz-adv-x="522" d="M67 -190v675h44l7 -49q76 65 162 65t137 -58q58 -64 58 -188v-5q0 -144 -72 -214q-54 -52 -140 -52q-73 0 -136 33v-207h-60zM127 77q56 -36 120 -36q88 0 126 56.5t38 145.5q0 109 -44 158q-36 39 -98 39q-75 0 -142 -61v-302z" />
<glyph unicode="q" horiz-adv-x="522" d="M47 239v5q0 107 51.5 182t156.5 75q79 0 149 -52l7 36h44v-675h-60v220q-71 -46 -152 -46q-54 0 -98.5 25t-68.5 75q-29 60 -29 155zM111 237q0 -104 43 -154q37 -42 106 -42q71 0 135 50v302q-59 50 -126 50q-158 0 -158 -206z" />
<glyph unicode="r" horiz-adv-x="303" d="M67 0v485h49l7 -67q67 72 160 79v-68q-91 -5 -156 -68v-361h-60z" />
<glyph unicode="s" horiz-adv-x="401" d="M49 359q0 71 49 106.5t126 35.5q56 0 110 -18l-6 -53q-54 17 -99 17q-119 0 -119 -82q0 -39 24 -57.5t75 -32.5l25 -8q72 -23 100.5 -52t28.5 -84q0 -147 -175 -147q-72 0 -137 28l5 53q67 -29 126 -29q58 0 89 19t31 70q0 33 -21.5 52.5t-68.5 32.5l-28 8 q-32 9 -50.5 17t-41 24t-33 40.5t-10.5 59.5z" />
<glyph unicode="t" horiz-adv-x="315" d="M19 433v52h76v136l60 9v-145h126l-3 -52h-123v-259q0 -86 20 -112.5t81 -26.5q9 0 27 2l5 -50q-26 -3 -47 -3q-81 0 -113.5 40t-32.5 124v285h-76z" />
<glyph unicode="u" horiz-adv-x="512" d="M64 221v264h60v-263q0 -74 6 -105.5t28 -51.5q32 -27 98 -27t98 27q22 20 28 51.5t6 105.5v263h60v-264q0 -62 -6 -100t-24.5 -72t-58.5 -49.5t-103 -15.5t-102.5 15.5t-58.5 49.5t-25 72t-6 100z" />
<glyph unicode="v" horiz-adv-x="426" d="M15 485h63q50 -193 133 -416h2q95 261 134 416h64q-64 -229 -169 -485h-65q-36 89 -84.5 229.5t-77.5 255.5z" />
<glyph unicode="w" horiz-adv-x="668" d="M15 485h63q24 -98 117 -401q73 239 112 401h54q43 -177 111 -401q98 318 118 401h63q-51 -201 -156 -485h-54q-86 293 -109 382q-36 -141 -110 -382h-53q-104 276 -156 485z" />
<glyph unicode="x" horiz-adv-x="420" d="M15 0l159 245l-148 240h75l111 -192q68 109 112 192h70q-67 -115 -149 -240l161 -245h-82l-116 196l-119 -196h-74z" />
<glyph unicode="y" horiz-adv-x="500" d="M64 192v293h60v-287q0 -73 24 -102q27 -37 86 -37q74 0 139 45v381h60v-450q0 -119 -55.5 -180t-188.5 -61q-21 0 -52 4l4 49q30 -3 44 -3q107 0 149 46q39 45 39 127v28q-72 -45 -148 -45q-49 0 -88.5 23t-57.5 67q-15 35 -15 102z" />
<glyph unicode="z" horiz-adv-x="411" d="M35 51l246 382h-239v52h309v-54l-245 -379h255v-52h-316z" />
<glyph unicode="{" horiz-adv-x="341" d="M66 292v33q71 21 71 99v177q0 65 27 97t85 32h50v-46h-27q-45 0 -60 -17.5t-15 -75.5v-138q0 -74 -17 -104t-64 -40v-2q47 -9 64 -39t17 -104v-138q0 -58 15 -75.5t60 -17.5h27v-46h-50q-58 0 -85 32t-27 97v177q0 76 -71 99z" />
<glyph unicode="|" horiz-adv-x="272" d="M106 -16v715h60v-715h-60z" />
<glyph unicode="}" horiz-adv-x="345" d="M47 -67h27q45 0 59.5 17.5t14.5 75.5v138q0 73 17.5 103.5t64.5 39.5v2q-47 10 -64.5 40.5t-17.5 103.5v138q0 58 -14.5 75.5t-59.5 17.5h-27v46h49q59 0 86 -32t27 -97v-177q0 -78 70 -99v-33q-70 -23 -70 -99v-177q0 -65 -27 -97t-86 -32h-49v46z" />
<glyph unicode="~" d="M19 243q54 93 126 93q33 0 95 -34l37 -20q50 -26 78 -26q26 0 43.5 14t38.5 48l43 -27q-48 -91 -124 -91q-44 0 -98 30l-40 21q-50 28 -71 28q-18 0 -35 -11.5t-27 -23.5t-25 -34z" />
<glyph unicode="&#xa1;" horiz-adv-x="245" d="M84 441v10q0 50 38 50t38 -50v-10q0 -48 -38 -48t-38 48zM90 62l11 218h42l10 -218v-251h-63v251z" />
<glyph unicode="&#xa2;" d="M70 331v3q0 111 46 177.5t134 79.5v99h51v-96q76 -3 131 -38l-11 -57q-49 34 -120 37v-403q66 3 118 30l10 -52q-58 -30 -128 -33v-94h-51v96q-74 6 -115 49q-65 65 -65 202zM134 336q0 -178 116 -199v395q-116 -25 -116 -196z" />
<glyph unicode="&#xa3;" d="M53 338v55h83v80q0 217 205 217q51 0 106 -16l-13 -63q-40 14 -89 14q-80 0 -111.5 -39t-31.5 -126v-67h162v-55h-162v-100q0 -61 -21 -111.5t-51 -69.5v-2h300v-55h-370l-3 63q36 23 57.5 65t21.5 90v120h-83z" />
<glyph unicode="&#xa4;" d="M19 101l73 73q-31 48 -31 109t32 108l-74 74l47 47l74 -73q46 34 111 34q63 0 110 -33l74 72l47 -47l-74 -73q33 -45 33 -109q0 -65 -33 -110l74 -72l-47 -48l-74 72q-47 -32 -110 -32q-65 0 -111 33l-74 -73zM127 283q0 -54 36 -89t88 -35t88 35t36 89t-36 89t-88 35 t-88 -35t-36 -89z" />
<glyph unicode="&#xa5;" d="M20 674h73q75 -229 155 -386h3q87 171 156 386h73q-67 -200 -166 -392h99v-59h-131v-65h131v-60h-131v-98h-64v98h-128v60h128v65h-128v59h96q-105 203 -166 392z" />
<glyph unicode="&#xa6;" horiz-adv-x="272" d="M110 -16v260h52v-260h-52zM110 467v267h52v-267h-52z" />
<glyph unicode="&#xa7;" horiz-adv-x="462" d="M71 356q0 68 70 105q-64 39 -64 104q0 60 45 92.5t118 32.5q56 0 104 -19l-2 -48q-54 17 -98 17q-53 0 -79.5 -19.5t-26.5 -51.5q0 -26 18.5 -45t61.5 -37l68 -29q54 -23 79.5 -50t25.5 -76q0 -58 -60 -109q23 -12 38.5 -37.5t15.5 -56.5q0 -73 -45 -109t-123 -36 q-69 0 -138 27l3 52q80 -27 129 -27q57 0 85.5 21t28.5 58q0 34 -19 53t-80 43l-46 20q-109 44 -109 125zM134 363q0 -29 15.5 -45t51.5 -33l90 -41q43 44 43 81q0 27 -19.5 47t-66.5 39l-66 27q-48 -26 -48 -75z" />
<glyph unicode="&#xa8;" horiz-adv-x="321" d="M34 636v5q0 24 13.5 37.5t33.5 13.5q22 0 35 -13t13 -38v-5q0 -49 -48 -49q-20 0 -33.5 12.5t-13.5 36.5zM190 636v5q0 24 14 37.5t34 13.5q21 0 34.5 -13t13.5 -38v-5q0 -24 -13.5 -36.5t-34.5 -12.5q-20 0 -34 12.5t-14 36.5z" />
<glyph unicode="&#xa9;" horiz-adv-x="747" d="M51 332q0 141 91.5 236t232.5 95q140 0 231.5 -95t91.5 -236q0 -142 -91.5 -237t-231.5 -95q-141 0 -232.5 95t-91.5 237zM109 332q0 -116 74.5 -196.5t191.5 -80.5t191 80.5t74 196.5q0 115 -74 194.5t-191 79.5q-118 0 -192 -79.5t-74 -194.5zM230 328v2q0 91 39.5 137 t109.5 46q53 0 93 -25l-8 -48q-41 24 -81 24q-97 0 -97 -133q0 -134 93 -134q43 0 84 19l9 -46q-50 -23 -91 -23q-151 0 -151 181z" />
<glyph unicode="&#xaa;" horiz-adv-x="349" d="M34 396q0 64 51 91t126 27h23v12q0 36 -16.5 50t-57.5 14q-48 0 -94 -22l-8 51q57 21 108 21q63 0 93 -26t30 -89v-153q0 -25 27 -25v-42q-12 -3 -28 -3q-40 0 -48 32q-42 -37 -101 -37q-50 0 -77.5 26.5t-27.5 72.5zM91 397q0 -24 14.5 -38.5t41.5 -14.5q52 0 87 35v88 h-30q-113 0 -113 -70z" />
<glyph unicode="&#xab;" horiz-adv-x="525" d="M56 243l168 232l48 -31l-146 -201l145 -200l-47 -31zM251 243l168 232l48 -31l-146 -201l145 -200l-47 -31z" />
<glyph unicode="&#xac;" d="M60 248v59h380v-227h-61v168h-319z" />
<glyph unicode="&#xad;" horiz-adv-x="281" d="M50 222v59h181v-59h-181z" />
<glyph unicode="&#xae;" horiz-adv-x="747" d="M51 332q0 141 91.5 236t232.5 95q140 0 231.5 -95t91.5 -236q0 -142 -91.5 -237t-231.5 -95q-141 0 -232.5 95t-91.5 237zM109 332q0 -116 74.5 -196.5t191.5 -80.5t191 80.5t74 196.5q0 115 -74 194.5t-191 79.5q-118 0 -192 -79.5t-74 -194.5zM272 147v366h92 q72 0 104 -27t32 -88q0 -82 -57 -106l65 -145h-60l-55 133q-11 -1 -34 -1h-28v-132h-59zM331 332h36q42 0 57 13.5t15 52.5q0 34 -16 47.5t-56 13.5h-36v-127z" />
<glyph unicode="&#xb0;" horiz-adv-x="270" d="M22 597q0 49 28.5 82t84.5 33q55 0 83.5 -33t28.5 -82q0 -57 -29.5 -86t-82.5 -29t-83 29t-30 86zM79 597q0 -66 56 -66t56 66t-56 66t-56 -66z" />
<glyph unicode="&#xb1;" d="M60 0v56h379v-56h-379zM60 304v59h159v158h62v-158h158v-59h-158v-159h-62v159h-159z" />
<glyph unicode="&#xb4;" horiz-adv-x="321" d="M47 591l188 124l39 -59l-199 -112z" />
<glyph unicode="&#xb5;" horiz-adv-x="514" d="M67 -190v675h60v-297q0 -88 37 -119q35 -31 94 -31q60 0 95 31q37 31 37 119v297h60v-302q0 -99 -46 -146q-52 -53 -146 -53q-88 0 -142 56l11 -230h-60z" />
<glyph unicode="&#xb6;" d="M44 531q0 75 45.5 117t122.5 42h237v-791h-60v742h-113v-742h-61v479q-77 0 -124 43t-47 110z" />
<glyph unicode="&#xb8;" horiz-adv-x="321" d="M64 -220l12 48q33 -10 65 -10q53 0 53 38q0 22 -15.5 32t-54.5 10q-13 0 -21 -1l-5 6l30 115l53 -5l-16 -71q92 -6 92 -83q0 -44 -30 -68t-80 -24q-46 0 -83 13z" />
<glyph unicode="&#xba;" horiz-adv-x="361" d="M33 466v5q0 81 37.5 125t110.5 44q72 0 109.5 -44t37.5 -125v-5q0 -81 -37.5 -125t-109.5 -44q-73 0 -110.5 44t-37.5 125zM90 469q0 -65 23 -93t68 -28q44 0 67 28t23 93t-23 92.5t-67 27.5q-45 0 -68 -27.5t-23 -92.5z" />
<glyph unicode="&#xbb;" horiz-adv-x="525" d="M58 444l48 31l168 -232l-168 -231l-47 31l145 200zM253 444l48 31l168 -232l-168 -231l-47 31l145 200z" />
<glyph unicode="&#xbc;" horiz-adv-x="801" d="M51 614l113 67h48v-327h83v-48h-227v48h89v258l-88 -48zM214 19l333 683l58 -25l-334 -682zM449 88v41q66 100 185 240h45v-232h57v-49h-57v-95h-56v95h-174zM509 137h114v147q-49 -58 -114 -147z" />
<glyph unicode="&#xbd;" horiz-adv-x="801" d="M51 614l113 67h48v-327h83v-48h-227v48h89v258l-88 -48zM214 19l333 683l58 -25l-334 -682zM522 40l46 41q71 66 98.5 104.5t27.5 80.5q0 60 -67 60q-38 0 -91 -20l-13 48q53 23 110 23q58 0 88 -27.5t30 -76.5q0 -53 -36.5 -106.5t-121.5 -124.5h159v-49h-226z" />
<glyph unicode="&#xbe;" horiz-adv-x="801" d="M61 319l12 49q48 -20 88 -20q43 0 61 15q20 15 20 53q0 32 -18 46q-23 17 -73 17h-19v45h20q77 0 77 64q0 50 -62 50q-34 0 -83 -15l-9 48q48 19 97 19q114 0 114 -96q0 -64 -49 -88q29 -8 46 -31t17 -56q0 -122 -135 -122q-52 0 -104 22zM214 19l333 683l58 -25 l-334 -682zM449 88v41q66 100 185 240h45v-232h57v-49h-57v-95h-56v95h-174zM509 137h114v147q-49 -58 -114 -147z" />
<glyph unicode="&#xbf;" horiz-adv-x="419" d="M46 -18q0 87 48 137.5t134 50.5l10 129h50l8 -182h-31q-82 0 -119 -32t-37 -105q0 -128 135 -128q67 0 128 25l7 -55q-67 -27 -144 -27q-88 0 -138.5 46t-50.5 141zM224 441v10q0 50 38 50t38 -50v-10q0 -48 -38 -48t-38 48z" />
<glyph unicode="&#xc0;" horiz-adv-x="573" d="M25 0q83 283 228 674h69q126 -328 226 -674h-70q-19 71 -44 150h-293q-10 -30 -45 -150h-71zM151 830l38 59l189 -124l-29 -46zM161 215h252q-52 171 -125 373h-2z" />
<glyph unicode="&#xc1;" horiz-adv-x="573" d="M25 0q83 283 228 674h69q126 -328 226 -674h-70q-19 71 -44 150h-293q-10 -30 -45 -150h-71zM161 215h252q-52 171 -125 373h-2zM212 765l188 124l39 -59l-199 -111z" />
<glyph unicode="&#xc2;" horiz-adv-x="573" d="M25 0q83 283 228 674h69q126 -328 226 -674h-70q-19 71 -44 150h-293q-10 -30 -45 -150h-71zM146 780l120 120h42l120 -120l-45 -36l-93 91h-6l-95 -91zM161 215h252q-52 171 -125 373h-2z" />
<glyph unicode="&#xc3;" horiz-adv-x="573" d="M25 0q83 283 228 674h69q126 -328 226 -674h-70q-19 71 -44 150h-293q-10 -30 -45 -150h-71zM137 803q41 81 94 81q28 0 62 -26l17 -12q23 -16 41 -16q28 0 49 42l36 -34q-28 -70 -88 -70q-28 0 -62 24l-15 10q-25 18 -39 18q-30 0 -55 -51zM161 215h252 q-52 171 -125 373h-2z" />
<glyph unicode="&#xc4;" horiz-adv-x="573" d="M25 0q83 283 228 674h69q126 -328 226 -674h-70q-19 71 -44 150h-293q-10 -30 -45 -150h-71zM161 215h252q-52 171 -125 373h-2zM161 811v5q0 24 13.5 37t33.5 13q48 0 48 -50v-5q0 -50 -48 -50q-20 0 -33.5 13t-13.5 37zM317 811v5q0 24 14 37t34 13q21 0 34.5 -13 t13.5 -37v-5q0 -24 -13.5 -37t-34.5 -13q-20 0 -34 13t-14 37z" />
<glyph unicode="&#xc5;" horiz-adv-x="573" d="M25 0q83 283 228 674h69q126 -328 226 -674h-70q-19 71 -44 150h-293q-10 -30 -45 -150h-71zM161 215h252q-52 171 -125 373h-2zM201 829q0 37 24.5 62t61.5 25t61.5 -24.5t24.5 -62.5q0 -37 -24.5 -61.5t-61.5 -24.5t-61.5 24.5t-24.5 61.5zM247 829q0 -18 11 -29.5 t29 -11.5t29 11.5t11 29.5q0 19 -10.5 30.5t-29.5 11.5t-29.5 -11.5t-10.5 -30.5z" />
<glyph unicode="&#xc6;" horiz-adv-x="791" d="M24 0q57 136 160 346.5t167 327.5h395l-5 -65h-284v-227h248v-65h-248v-252h284v-65h-350v150h-226q-32 -68 -65 -150h-76zM194 215h197v394h-10q-101 -195 -187 -394z" />
<glyph unicode="&#xc7;" horiz-adv-x="550" d="M52 336v5q0 170 72.5 259.5t214.5 89.5q94 0 177 -46l-18 -66q-80 45 -161 45q-106 0 -160 -72.5t-54 -211.5q0 -290 209 -290q91 0 165 38l17 -59q-74 -42 -181 -44l-9 -42q92 -6 92 -83q0 -44 -30 -68t-80 -24q-46 0 -83 13l12 48q33 -10 65 -10q53 0 53 38 q0 22 -15.5 32t-54.5 10q-13 0 -21 -1l-5 6l22 85q-227 31 -227 348z" />
<glyph unicode="&#xc8;" horiz-adv-x="507" d="M87 0v674h375l-5 -65h-304v-227h267v-65h-267v-252h304v-65h-370zM150 830l38 59l189 -124l-29 -46z" />
<glyph unicode="&#xc9;" horiz-adv-x="507" d="M87 0v674h375l-5 -65h-304v-227h267v-65h-267v-252h304v-65h-370zM198 765l188 124l39 -59l-199 -111z" />
<glyph unicode="&#xca;" horiz-adv-x="507" d="M87 0v674h375l-5 -65h-304v-227h267v-65h-267v-252h304v-65h-370zM144 780l120 120h42l120 -120l-45 -36l-93 91h-6l-95 -91z" />
<glyph unicode="&#xcb;" horiz-adv-x="507" d="M87 0v674h375l-5 -65h-304v-227h267v-65h-267v-252h304v-65h-370zM149 811v5q0 24 13.5 37t33.5 13q48 0 48 -50v-5q0 -50 -48 -50q-20 0 -33.5 13t-13.5 37zM305 811v5q0 24 14 37t34 13q21 0 34.5 -13t13.5 -37v-5q0 -24 -13.5 -37t-34.5 -13q-20 0 -34 13t-14 37z" />
<glyph unicode="&#xcc;" horiz-adv-x="246" d="M-11 830l38 59l189 -124l-29 -46zM90 0v674h66v-674h-66z" />
<glyph unicode="&#xcd;" horiz-adv-x="246" d="M48 765l188 124l39 -59l-199 -111zM90 0v674h66v-674h-66z" />
<glyph unicode="&#xce;" horiz-adv-x="246" d="M-18 780l120 120h42l120 -120l-45 -36l-93 91h-6l-95 -91zM90 0v674h66v-674h-66z" />
<glyph unicode="&#xcf;" horiz-adv-x="246" d="M-3 811v5q0 24 13.5 37t33.5 13q48 0 48 -50v-5q0 -50 -48 -50q-20 0 -33.5 13t-13.5 37zM90 0v674h66v-674h-66zM153 811v5q0 24 14 37t34 13q21 0 34.5 -13t13.5 -37v-5q0 -24 -13.5 -37t-34.5 -13q-20 0 -34 13t-14 37z" />
<glyph unicode="&#xd0;" horiz-adv-x="619" d="M18 309v65h69v300h148q124 0 191 -27q141 -60 141 -303v-9q0 -200 -96 -281q-38 -31 -95.5 -42.5t-148.5 -11.5h-140v309h-69zM153 65h103q69 0 111 12t71 41q58 59 58 222q0 169 -68 226q-51 43 -177 43h-98v-235h146v-65h-146v-244z" />
<glyph unicode="&#xd1;" horiz-adv-x="673" d="M87 0v674h62l374 -551h1v551h62v-674h-53l-383 558h-1v-558h-62zM189 803q41 81 94 81q28 0 62 -26l17 -12q23 -16 41 -16q28 0 49 42l36 -34q-28 -70 -88 -70q-28 0 -62 24l-15 10q-25 18 -39 18q-30 0 -55 -51z" />
<glyph unicode="&#xd2;" horiz-adv-x="619" d="M52 332v10q0 161 61.5 254.5t196.5 93.5q134 0 195.5 -93.5t61.5 -254.5v-10q0 -161 -61.5 -254.5t-195.5 -93.5q-135 0 -196.5 93.5t-61.5 254.5zM123 338q0 -144 43.5 -216.5t143.5 -72.5t143 72t43 216q0 143 -43 215.5t-143 72.5q-101 0 -144 -72t-43 -215zM192 830 l38 59l189 -124l-29 -46z" />
<glyph unicode="&#xd3;" horiz-adv-x="619" d="M52 332v10q0 161 61.5 254.5t196.5 93.5q134 0 195.5 -93.5t61.5 -254.5v-10q0 -161 -61.5 -254.5t-195.5 -93.5q-135 0 -196.5 93.5t-61.5 254.5zM123 338q0 -144 43.5 -216.5t143.5 -72.5t143 72t43 216q0 143 -43 215.5t-143 72.5q-101 0 -144 -72t-43 -215zM226 765 l188 124l39 -59l-199 -111z" />
<glyph unicode="&#xd4;" horiz-adv-x="619" d="M52 332v10q0 161 61.5 254.5t196.5 93.5q134 0 195.5 -93.5t61.5 -254.5v-10q0 -161 -61.5 -254.5t-195.5 -93.5q-135 0 -196.5 93.5t-61.5 254.5zM123 338q0 -144 43.5 -216.5t143.5 -72.5t143 72t43 216q0 143 -43 215.5t-143 72.5q-101 0 -144 -72t-43 -215zM171 780 l120 120h42l120 -120l-45 -36l-93 91h-6l-95 -91z" />
<glyph unicode="&#xd5;" horiz-adv-x="619" d="M52 332v10q0 161 61.5 254.5t196.5 93.5q134 0 195.5 -93.5t61.5 -254.5v-10q0 -161 -61.5 -254.5t-195.5 -93.5q-135 0 -196.5 93.5t-61.5 254.5zM123 338q0 -144 43.5 -216.5t143.5 -72.5t143 72t43 216q0 143 -43 215.5t-143 72.5q-101 0 -144 -72t-43 -215zM164 803 q40 81 94 81q28 0 62 -26l17 -12q23 -16 41 -16q28 0 49 42l36 -34q-28 -70 -88 -70q-28 0 -62 24l-15 10q-25 18 -39 18q-30 0 -55 -51z" />
<glyph unicode="&#xd6;" horiz-adv-x="619" d="M52 332v10q0 161 61.5 254.5t196.5 93.5q134 0 195.5 -93.5t61.5 -254.5v-10q0 -161 -61.5 -254.5t-195.5 -93.5q-135 0 -196.5 93.5t-61.5 254.5zM123 338q0 -144 43.5 -216.5t143.5 -72.5t143 72t43 216q0 143 -43 215.5t-143 72.5q-101 0 -144 -72t-43 -215zM185 811 v5q0 24 13.5 37t33.5 13q48 0 48 -50v-5q0 -50 -48 -50q-20 0 -33.5 13t-13.5 37zM341 811v5q0 24 14 37t34 13q21 0 34.5 -13t13.5 -37v-5q0 -24 -13.5 -37t-34.5 -13q-20 0 -34 13t-14 37z" />
<glyph unicode="&#xd7;" d="M65 428l44 41l148 -148l149 148l41 -41l-147 -150l146 -145l-41 -44l-148 148l-148 -148l-42 42l148 148z" />
<glyph unicode="&#xd8;" horiz-adv-x="619" d="M52 332v10q0 161 61.5 254.5t196.5 93.5q67 0 117 -26l45 102l51 -23l-49 -112q93 -87 93 -289v-10q0 -161 -61.5 -254.5t-195.5 -93.5q-62 0 -111 22l-46 -106l-51 27l48 110q-98 85 -98 295zM123 338q0 -168 57 -235l220 500q-39 22 -90 22q-101 0 -144 -72t-43 -215z M226 66q36 -17 84 -17q100 0 143 72t43 216q0 158 -52 228z" />
<glyph unicode="&#xd9;" horiz-adv-x="636" d="M84 243v431h66v-424q0 -104 37.5 -152.5t130.5 -48.5t130.5 48.5t37.5 152.5v424h66v-431q0 -131 -54 -195t-180 -64q-125 0 -179.5 64.5t-54.5 194.5zM193 830l38 59l189 -124l-29 -46z" />
<glyph unicode="&#xda;" horiz-adv-x="636" d="M84 243v431h66v-424q0 -104 37.5 -152.5t130.5 -48.5t130.5 48.5t37.5 152.5v424h66v-431q0 -131 -54 -195t-180 -64q-125 0 -179.5 64.5t-54.5 194.5zM226 765l188 124l39 -59l-199 -111z" />
<glyph unicode="&#xdb;" horiz-adv-x="636" d="M84 243v431h66v-424q0 -104 37.5 -152.5t130.5 -48.5t130.5 48.5t37.5 152.5v424h66v-431q0 -131 -54 -195t-180 -64q-125 0 -179.5 64.5t-54.5 194.5zM182 780l120 120h42l120 -120l-45 -36l-93 91h-6l-95 -91z" />
<glyph unicode="&#xdc;" horiz-adv-x="636" d="M84 243v431h66v-424q0 -104 37.5 -152.5t130.5 -48.5t130.5 48.5t37.5 152.5v424h66v-431q0 -131 -54 -195t-180 -64q-125 0 -179.5 64.5t-54.5 194.5zM193 811v5q0 24 13.5 37t33.5 13q48 0 48 -50v-5q0 -50 -48 -50q-20 0 -33.5 13t-13.5 37zM349 811v5q0 24 14 37 t34 13q21 0 34.5 -13t13.5 -37v-5q0 -24 -13.5 -37t-34.5 -13q-20 0 -34 13t-14 37z" />
<glyph unicode="&#xdd;" horiz-adv-x="512" d="M26 674h73q71 -215 155 -381h3q91 180 156 381h73q-76 -228 -198 -453v-221h-64v222q-122 220 -198 452zM184 765l188 124l39 -59l-199 -111z" />
<glyph unicode="&#xde;" horiz-adv-x="527" d="M87 0v674h66v-116h74q152 0 210 -59q49 -51 49 -150q0 -110 -60 -164q-55 -49 -170 -49h-103v-136h-66zM153 201h92q89 0 129.5 29t40.5 119q0 77 -46 114q-40 30 -125 30h-91v-292z" />
<glyph unicode="&#xdf;" horiz-adv-x="498" d="M67 -145v821q74 23 148 23q88 0 144 -42.5t56 -126.5q0 -52 -24.5 -92t-69.5 -56v-2q68 -15 102.5 -63t34.5 -107q0 -98 -65.5 -154t-160.5 -56q-14 0 -36 2l2 48q12 -1 21 -1q79 0 127.5 41t48.5 119q0 68 -45 105.5t-118 37.5v49q123 8 123 125q0 60 -39 89.5 t-101 29.5q-49 0 -88 -13v-777h-60z" />
<glyph unicode="&#xe0;" horiz-adv-x="484" d="M39 127q0 46 24.5 84.5t68.5 59.5q66 30 187 30h30v27q0 61 -28.5 90t-100.5 29q-65 0 -135 -31l-10 53q72 32 156 32q178 0 178 -169v-242q0 -31 6 -42t29 -11h4v-40q-12 -5 -33 -5q-56 0 -64 53q-67 -61 -161 -61q-65 0 -108 38.5t-43 104.5zM103 131q0 -40 25.5 -66 t74.5 -26q43 0 83 19.5t63 46.5v147h-34q-75 0 -124 -14q-88 -29 -88 -107zM125 656l38 59l189 -124l-29 -47z" />
<glyph unicode="&#xe1;" horiz-adv-x="484" d="M39 127q0 46 24.5 84.5t68.5 59.5q66 30 187 30h30v27q0 61 -28.5 90t-100.5 29q-65 0 -135 -31l-10 53q72 32 156 32q178 0 178 -169v-242q0 -31 6 -42t29 -11h4v-40q-12 -5 -33 -5q-56 0 -64 53q-67 -61 -161 -61q-65 0 -108 38.5t-43 104.5zM103 131q0 -40 25.5 -66 t74.5 -26q43 0 83 19.5t63 46.5v147h-34q-75 0 -124 -14q-88 -29 -88 -107zM144 591l188 124l39 -59l-199 -112z" />
<glyph unicode="&#xe2;" horiz-adv-x="484" d="M39 127q0 46 24.5 84.5t68.5 59.5q66 30 187 30h30v27q0 61 -28.5 90t-100.5 29q-65 0 -135 -31l-10 53q72 32 156 32q178 0 178 -169v-242q0 -31 6 -42t29 -11h4v-40q-12 -5 -33 -5q-56 0 -64 53q-67 -61 -161 -61q-65 0 -108 38.5t-43 104.5zM102 605l120 121h42 l120 -121l-45 -36l-93 92h-6l-95 -92zM103 131q0 -40 25.5 -66t74.5 -26q43 0 83 19.5t63 46.5v147h-34q-75 0 -124 -14q-88 -29 -88 -107z" />
<glyph unicode="&#xe3;" horiz-adv-x="484" d="M39 127q0 46 24.5 84.5t68.5 59.5q66 30 187 30h30v27q0 61 -28.5 90t-100.5 29q-65 0 -135 -31l-10 53q72 32 156 32q178 0 178 -169v-242q0 -31 6 -42t29 -11h4v-40q-12 -5 -33 -5q-56 0 -64 53q-67 -61 -161 -61q-65 0 -108 38.5t-43 104.5zM94 628q40 80 94 80 q27 0 62 -25l17 -13q24 -15 41 -15q28 0 49 41l36 -33q-28 -70 -88 -70q-29 0 -62 23l-15 11q-26 17 -39 17q-31 0 -55 -50zM103 131q0 -40 25.5 -66t74.5 -26q43 0 83 19.5t63 46.5v147h-34q-75 0 -124 -14q-88 -29 -88 -107z" />
<glyph unicode="&#xe4;" horiz-adv-x="484" d="M39 127q0 46 24.5 84.5t68.5 59.5q66 30 187 30h30v27q0 61 -28.5 90t-100.5 29q-65 0 -135 -31l-10 53q72 32 156 32q178 0 178 -169v-242q0 -31 6 -42t29 -11h4v-40q-12 -5 -33 -5q-56 0 -64 53q-67 -61 -161 -61q-65 0 -108 38.5t-43 104.5zM103 131q0 -40 25.5 -66 t74.5 -26q43 0 83 19.5t63 46.5v147h-34q-75 0 -124 -14q-88 -29 -88 -107zM114 636v5q0 24 13.5 37.5t33.5 13.5q22 0 35 -13t13 -38v-5q0 -49 -48 -49q-20 0 -33.5 12.5t-13.5 36.5zM270 636v5q0 24 14 37.5t34 13.5q21 0 34.5 -13t13.5 -38v-5q0 -24 -13.5 -36.5 t-34.5 -12.5q-20 0 -34 12.5t-14 36.5z" />
<glyph unicode="&#xe5;" horiz-adv-x="484" d="M39 127q0 46 24.5 84.5t68.5 59.5q66 30 187 30h30v27q0 61 -28.5 90t-100.5 29q-65 0 -135 -31l-10 53q72 32 156 32q178 0 178 -169v-242q0 -31 6 -42t29 -11h4v-40q-12 -5 -33 -5q-56 0 -64 53q-67 -61 -161 -61q-65 0 -108 38.5t-43 104.5zM103 131q0 -40 25.5 -66 t74.5 -26q43 0 83 19.5t63 46.5v147h-34q-75 0 -124 -14q-88 -29 -88 -107zM156 655q0 37 24.5 61.5t61.5 24.5t61.5 -24.5t24.5 -61.5q0 -38 -24.5 -62.5t-61.5 -24.5t-61.5 25t-24.5 62zM202 655q0 -19 10.5 -30.5t29.5 -11.5t29.5 11.5t10.5 30.5q0 18 -11 29.5t-29 11.5 t-29 -11.5t-11 -29.5z" />
<glyph unicode="&#xe6;" horiz-adv-x="806" d="M39 127q0 46 24 83t69 57q66 30 190 30h30v31q0 61 -28.5 90t-100.5 29q-65 0 -135 -31l-10 53q72 32 156 32q125 0 164 -87q55 87 163 87q164 0 194 -182q5 -29 5 -72v-20h-345q5 -88 46.5 -137.5t116.5 -49.5q80 0 138 30l10 -53q-66 -33 -151 -33q-102 0 -155 53 q-15 15 -26 33q-74 -86 -196 -86q-70 0 -114.5 38t-44.5 105zM106 131q0 -40 25.5 -66t74.5 -26t92.5 22t72.5 59q-19 53 -19 123v5h-34q-75 0 -124 -14q-88 -29 -88 -103zM416 279h279q-6 164 -131 164q-61 0 -96 -37q-46 -45 -52 -127z" />
<glyph unicode="&#xe7;" horiz-adv-x="444" d="M47 238v3q0 124 56.5 192t164.5 68q79 0 140 -38l-10 -58q-51 38 -126 38q-161 0 -161 -201q0 -101 37 -151.5t119 -50.5q71 0 129 30l10 -53q-62 -30 -131 -33l-10 -42q92 -6 92 -83q0 -43 -30.5 -67.5t-80.5 -24.5q-45 0 -82 13l12 48q33 -10 65 -10q53 0 53 38 q0 24 -20 34t-71 7l-5 6l21 84q-67 9 -107 49q-65 65 -65 202z" />
<glyph unicode="&#xe8;" d="M47 239v2q0 68 20 124.5t68.5 96t119.5 39.5q166 0 194 -182q6 -35 6 -82v-21h-343q9 -176 161 -176q79 0 137 30l10 -53q-66 -33 -150 -33q-103 0 -155 53q-68 68 -68 202zM111 269h279q-8 174 -132 174q-61 0 -96 -37q-44 -44 -51 -137zM140 656l38 59l189 -124 l-29 -47z" />
<glyph unicode="&#xe9;" d="M47 239v2q0 68 20 124.5t68.5 96t119.5 39.5q166 0 194 -182q6 -35 6 -82v-21h-343q9 -176 161 -176q79 0 137 30l10 -53q-66 -33 -150 -33q-103 0 -155 53q-68 68 -68 202zM111 269h279q-8 174 -132 174q-61 0 -96 -37q-44 -44 -51 -137zM165 591l188 124l39 -59 l-199 -112z" />
<glyph unicode="&#xea;" d="M47 239v2q0 68 20 124.5t68.5 96t119.5 39.5q166 0 194 -182q6 -35 6 -82v-21h-343q9 -176 161 -176q79 0 137 30l10 -53q-66 -33 -150 -33q-103 0 -155 53q-68 68 -68 202zM111 269h279q-8 174 -132 174q-61 0 -96 -37q-44 -44 -51 -137zM121 605l120 121h42l120 -121 l-45 -36l-93 92h-6l-95 -92z" />
<glyph unicode="&#xeb;" d="M47 239v2q0 68 20 124.5t68.5 96t119.5 39.5q166 0 194 -182q6 -35 6 -82v-21h-343q9 -176 161 -176q79 0 137 30l10 -53q-66 -33 -150 -33q-103 0 -155 53q-68 68 -68 202zM111 269h279q-8 174 -132 174q-61 0 -96 -37q-44 -44 -51 -137zM135 636v5q0 24 13.5 37.5 t33.5 13.5q22 0 35 -13t13 -38v-5q0 -49 -48 -49q-20 0 -33.5 12.5t-13.5 36.5zM291 636v5q0 24 14 37.5t34 13.5q21 0 34.5 -13t13.5 -38v-5q0 -24 -13.5 -36.5t-34.5 -12.5q-20 0 -34 12.5t-14 36.5z" />
<glyph unicode="&#xec;" horiz-adv-x="210" d="M-26 656l38 59l189 -124l-29 -47zM75 0v485h60v-485h-60z" />
<glyph unicode="&#xed;" horiz-adv-x="210" d="M23 591l188 124l39 -59l-199 -112zM75 0v485h60v-485h-60z" />
<glyph unicode="&#xee;" horiz-adv-x="210" d="M-36 605l120 121h42l120 -121l-45 -36l-93 92h-6l-95 -92zM75 0v485h60v-485h-60z" />
<glyph unicode="&#xef;" horiz-adv-x="210" d="M-21 636v5q0 24 13.5 37.5t33.5 13.5q22 0 35 -13t13 -38v-5q0 -49 -48 -49q-20 0 -33.5 12.5t-13.5 36.5zM75 0v485h60v-485h-60zM135 636v5q0 24 14 37.5t34 13.5q21 0 34.5 -13t13.5 -38v-5q0 -24 -13.5 -36.5t-34.5 -12.5q-20 0 -34 12.5t-14 36.5z" />
<glyph unicode="&#xf0;" horiz-adv-x="495" d="M47 242q0 114 47.5 182.5t144.5 68.5q63 0 123 -46q-27 104 -110 161l-81 -63l-28 32l68 54q-44 23 -93 35l44 31q47 -13 90 -34l67 54l29 -33l-55 -43q149 -97 149 -359q0 -147 -47 -222.5t-152 -75.5q-90 0 -143 69t-53 189zM110 244q0 -97 36.5 -150.5t100.5 -53.5 q69 0 100.5 55.5t31.5 180.5q0 67 -7 116q-60 48 -125 48q-137 0 -137 -196z" />
<glyph unicode="&#xf1;" horiz-adv-x="526" d="M67 0v485h49l8 -61q77 77 176 77q82 0 121 -40q41 -41 41 -139v-322h-60v311q0 77 -27 104q-23 26 -82 26q-42 0 -86.5 -21t-79.5 -59v-361h-60zM124 628q40 80 94 80q27 0 62 -25l17 -13q24 -15 41 -15q28 0 49 41l36 -33q-28 -70 -88 -70q-29 0 -62 23l-15 11 q-26 17 -39 17q-31 0 -55 -50z" />
<glyph unicode="&#xf2;" horiz-adv-x="519" d="M47 242v1q0 125 53 191.5t159 66.5q213 0 213 -257v-2q0 -126 -53 -192t-160 -66q-106 0 -159 66.5t-53 191.5zM111 242q0 -204 149 -204q148 0 148 204q0 205 -148 205q-149 0 -149 -205zM142 656l38 59l189 -124l-29 -47z" />
<glyph unicode="&#xf3;" horiz-adv-x="519" d="M47 242v1q0 125 53 191.5t159 66.5q213 0 213 -257v-2q0 -126 -53 -192t-160 -66q-106 0 -159 66.5t-53 191.5zM111 242q0 -204 149 -204q148 0 148 204q0 205 -148 205q-149 0 -149 -205zM169 591l188 124l39 -59l-199 -112z" />
<glyph unicode="&#xf4;" horiz-adv-x="519" d="M47 242v1q0 125 53 191.5t159 66.5q213 0 213 -257v-2q0 -126 -53 -192t-160 -66q-106 0 -159 66.5t-53 191.5zM111 242q0 -204 149 -204q148 0 148 204q0 205 -148 205q-149 0 -149 -205zM120 605l120 121h42l120 -121l-45 -36l-93 92h-6l-95 -92z" />
<glyph unicode="&#xf5;" horiz-adv-x="519" d="M47 242v1q0 125 53 191.5t159 66.5q213 0 213 -257v-2q0 -126 -53 -192t-160 -66q-106 0 -159 66.5t-53 191.5zM111 242q0 -204 149 -204q148 0 148 204q0 205 -148 205q-149 0 -149 -205zM112 628q40 80 94 80q27 0 62 -25l17 -13q24 -15 41 -15q28 0 49 41l36 -33 q-28 -70 -88 -70q-29 0 -62 23l-15 11q-26 17 -39 17q-31 0 -55 -50z" />
<glyph unicode="&#xf6;" horiz-adv-x="519" d="M47 242v1q0 125 53 191.5t159 66.5q213 0 213 -257v-2q0 -126 -53 -192t-160 -66q-106 0 -159 66.5t-53 191.5zM111 242q0 -204 149 -204q148 0 148 204q0 205 -148 205q-149 0 -149 -205zM137 636v5q0 24 13.5 37.5t33.5 13.5q22 0 35 -13t13 -38v-5q0 -49 -48 -49 q-20 0 -33.5 12.5t-13.5 36.5zM293 636v5q0 24 14 37.5t34 13.5q21 0 34.5 -13t13.5 -38v-5q0 -24 -13.5 -36.5t-34.5 -12.5q-20 0 -34 12.5t-14 36.5z" />
<glyph unicode="&#xf7;" d="M60 248v59h380v-59h-380zM206 113v12q0 53 45 53q46 0 46 -53v-12q0 -54 -46 -54q-45 0 -45 54zM206 432v11q0 54 45 54q46 0 46 -54v-11q0 -55 -46 -55q-45 0 -45 55z" />
<glyph unicode="&#xf8;" horiz-adv-x="519" d="M47 242v1q0 125 53 191.5t159 66.5q47 0 86 -14l38 83l47 -20l-40 -87q82 -63 82 -219v-2q0 -126 -53 -192t-160 -66q-48 0 -81 13l-37 -81l-47 21l38 82q-85 60 -85 223zM111 242q0 -117 46 -166l165 360q-28 11 -62 11q-149 0 -149 -205zM201 48q23 -10 59 -10 q148 0 148 204q0 115 -44 163z" />
<glyph unicode="&#xf9;" horiz-adv-x="512" d="M64 221v264h60v-263q0 -74 6 -105.5t28 -51.5q32 -27 98 -27t98 27q22 20 28 51.5t6 105.5v263h60v-264q0 -62 -6 -100t-24.5 -72t-58.5 -49.5t-103 -15.5t-102.5 15.5t-58.5 49.5t-25 72t-6 100zM128 656l38 59l189 -124l-29 -47z" />
<glyph unicode="&#xfa;" horiz-adv-x="512" d="M64 221v264h60v-263q0 -74 6 -105.5t28 -51.5q32 -27 98 -27t98 27q22 20 28 51.5t6 105.5v263h60v-264q0 -62 -6 -100t-24.5 -72t-58.5 -49.5t-103 -15.5t-102.5 15.5t-58.5 49.5t-25 72t-6 100zM170 591l188 124l39 -59l-199 -112z" />
<glyph unicode="&#xfb;" horiz-adv-x="512" d="M64 221v264h60v-263q0 -74 6 -105.5t28 -51.5q32 -27 98 -27t98 27q22 20 28 51.5t6 105.5v263h60v-264q0 -62 -6 -100t-24.5 -72t-58.5 -49.5t-103 -15.5t-102.5 15.5t-58.5 49.5t-25 72t-6 100zM118 605l120 121h42l120 -121l-45 -36l-93 92h-6l-95 -92z" />
<glyph unicode="&#xfc;" horiz-adv-x="512" d="M64 221v264h60v-263q0 -74 6 -105.5t28 -51.5q32 -27 98 -27t98 27q22 20 28 51.5t6 105.5v263h60v-264q0 -62 -6 -100t-24.5 -72t-58.5 -49.5t-103 -15.5t-102.5 15.5t-58.5 49.5t-25 72t-6 100zM130 636v5q0 24 13.5 37.5t33.5 13.5q22 0 35 -13t13 -38v-5 q0 -49 -48 -49q-20 0 -33.5 12.5t-13.5 36.5zM286 636v5q0 24 14 37.5t34 13.5q21 0 34.5 -13t13.5 -38v-5q0 -24 -13.5 -36.5t-34.5 -12.5q-20 0 -34 12.5t-14 36.5z" />
<glyph unicode="&#xfd;" horiz-adv-x="500" d="M64 192v293h60v-287q0 -73 24 -102q27 -37 86 -37q74 0 139 45v381h60v-450q0 -119 -55.5 -180t-188.5 -61q-21 0 -52 4l4 49q30 -3 44 -3q107 0 149 46q39 45 39 127v28q-72 -45 -148 -45q-49 0 -88.5 23t-57.5 67q-15 35 -15 102zM165 591l188 124l39 -59l-199 -112z " />
<glyph unicode="&#xfe;" horiz-adv-x="522" d="M67 -190v874h60v-240q72 57 153 57q86 0 137 -58q58 -64 58 -188v-5q0 -144 -72 -214q-54 -52 -140 -52q-73 0 -136 33v-207h-60zM127 77q56 -36 120 -36q88 0 126 56.5t38 145.5q0 109 -44 158q-36 39 -98 39q-75 0 -142 -61v-302z" />
<glyph unicode="&#xff;" horiz-adv-x="500" d="M64 192v293h60v-287q0 -73 24 -102q27 -37 86 -37q74 0 139 45v381h60v-450q0 -119 -55.5 -180t-188.5 -61q-21 0 -52 4l4 49q30 -3 44 -3q107 0 149 46q39 45 39 127v28q-72 -45 -148 -45q-49 0 -88.5 23t-57.5 67q-15 35 -15 102zM123 636v5q0 24 13.5 37.5t33.5 13.5 q22 0 35 -13t13 -38v-5q0 -49 -48 -49q-20 0 -33.5 12.5t-13.5 36.5zM279 636v5q0 24 14 37.5t34 13.5q21 0 34.5 -13t13.5 -38v-5q0 -24 -13.5 -36.5t-34.5 -12.5q-20 0 -34 12.5t-14 36.5z" />
<glyph unicode="&#x152;" horiz-adv-x="830" d="M52 332v10q0 160 61.5 254t193.5 94q75 0 119 -42v26h359l-8 -65h-291v-227h256v-65h-256v-252h293v-65h-355v35q-21 -24 -56.5 -37.5t-73.5 -13.5q-124 0 -183 94.5t-59 253.5zM123 338q0 -142 42.5 -215.5t135.5 -73.5q77 0 119 50v481q-44 46 -113 46q-100 0 -142 -72 t-42 -216z" />
<glyph unicode="&#x153;" horiz-adv-x="863" d="M47 242v1q0 125 53 191.5t159 66.5q133 0 184 -108q50 108 174 108q166 0 194 -182q6 -35 6 -82v-21h-344q11 -176 161 -176q80 0 138 30l10 -53q-66 -33 -150 -33q-103 0 -156 53q-20 20 -35 51q-54 -104 -182 -104q-106 0 -159 66.5t-53 191.5zM111 242 q0 -204 149 -204q148 0 148 194v18q-2 197 -148 197q-149 0 -149 -205zM472 269h280q-8 174 -132 174q-61 0 -96 -37q-45 -45 -52 -137z" />
<glyph unicode="&#x178;" horiz-adv-x="512" d="M26 674h73q71 -215 155 -381h3q91 180 156 381h73q-76 -228 -198 -453v-221h-64v222q-122 220 -198 452zM131 811v5q0 24 13.5 37t33.5 13q48 0 48 -50v-5q0 -50 -48 -50q-20 0 -33.5 13t-13.5 37zM287 811v5q0 24 14 37t34 13q21 0 34.5 -13t13.5 -37v-5 q0 -24 -13.5 -37t-34.5 -13q-20 0 -34 13t-14 37z" />
<glyph unicode="&#x2c6;" horiz-adv-x="321" d="M20 605l120 121h42l120 -121l-45 -36l-93 92h-6l-95 -92z" />
<glyph unicode="&#x2dc;" horiz-adv-x="321" d="M11 628q40 80 94 80q27 0 62 -25l17 -13q24 -15 41 -15q29 0 49 41l36 -33q-28 -70 -88 -70q-29 0 -62 23l-15 11q-25 17 -39 17q-31 0 -55 -50z" />
<glyph unicode="&#x2000;" horiz-adv-x="458" />
<glyph unicode="&#x2001;" horiz-adv-x="916" />
<glyph unicode="&#x2002;" horiz-adv-x="458" />
<glyph unicode="&#x2003;" horiz-adv-x="916" />
<glyph unicode="&#x2004;" horiz-adv-x="305" />
<glyph unicode="&#x2005;" horiz-adv-x="229" />
<glyph unicode="&#x2006;" horiz-adv-x="152" />
<glyph unicode="&#x2007;" horiz-adv-x="152" />
<glyph unicode="&#x2008;" horiz-adv-x="114" />
<glyph unicode="&#x2009;" horiz-adv-x="183" />
<glyph unicode="&#x200a;" horiz-adv-x="50" />
<glyph unicode="&#x2010;" horiz-adv-x="281" d="M50 222v59h181v-59h-181z" />
<glyph unicode="&#x2011;" horiz-adv-x="281" d="M50 222v59h181v-59h-181z" />
<glyph unicode="&#x2012;" horiz-adv-x="281" d="M50 222v59h181v-59h-181z" />
<glyph unicode="&#x2013;" horiz-adv-x="491" d="M3 225v53h485v-53h-485z" />
<glyph unicode="&#x2014;" horiz-adv-x="976" d="M3 225v53h970v-53h-970z" />
<glyph unicode="&#x2018;" horiz-adv-x="186" d="M42 551q0 73 65 202l43 -18q-30 -64 -46 -115q37 -10 37 -59v-14q0 -56 -49 -56q-50 0 -50 60z" />
<glyph unicode="&#x2019;" horiz-adv-x="186" d="M36 492q30 64 46 115q-37 10 -37 59v14q0 56 49 56q50 0 50 -60q0 -73 -65 -202z" />
<glyph unicode="&#x201a;" horiz-adv-x="186" d="M36 -136q30 64 46 115q-37 10 -37 59v14q0 56 49 56q50 0 50 -60q0 -73 -65 -202z" />
<glyph unicode="&#x201c;" horiz-adv-x="364" d="M42 551q0 73 65 202l43 -18q-30 -64 -46 -115q37 -10 37 -59v-14q0 -56 -49 -56q-50 0 -50 60zM220 551q0 73 65 202l43 -18q-30 -64 -46 -115q37 -10 37 -59v-14q0 -56 -49 -56q-50 0 -50 60z" />
<glyph unicode="&#x201d;" horiz-adv-x="364" d="M36 492q30 64 46 115q-37 10 -37 59v14q0 56 49 56q50 0 50 -60q0 -73 -65 -202zM214 492q30 64 46 115q-37 10 -37 59v14q0 56 49 56q50 0 50 -60q0 -73 -65 -202z" />
<glyph unicode="&#x201e;" horiz-adv-x="364" d="M36 -136q30 64 46 115q-37 10 -37 59v14q0 56 49 56q50 0 50 -60q0 -73 -65 -202zM214 -136q30 64 46 115q-37 10 -37 59v14q0 56 49 56q50 0 50 -60q0 -73 -65 -202z" />
<glyph unicode="&#x2022;" horiz-adv-x="345" d="M56 250v15q0 64 27 97t92 33q64 0 89 -32.5t25 -97.5v-15q0 -65 -25 -97.5t-89 -32.5q-65 0 -92 33t-27 97z" />
<glyph unicode="&#x2026;" horiz-adv-x="582" d="M51 41v11q0 56 48 56t48 -56v-11q0 -57 -48 -57t-48 57zM244 41v11q0 56 47 56q48 0 48 -56v-11q0 -57 -48 -57q-47 0 -47 57zM436 41v11q0 56 47 56q48 0 48 -56v-11q0 -57 -48 -57q-47 0 -47 57z" />
<glyph unicode="&#x202f;" horiz-adv-x="183" />
<glyph unicode="&#x2039;" horiz-adv-x="330" d="M56 243l168 232l48 -31l-146 -201l145 -200l-47 -31z" />
<glyph unicode="&#x203a;" horiz-adv-x="330" d="M58 444l48 31l168 -232l-168 -231l-47 31l145 200z" />
<glyph unicode="&#x205f;" horiz-adv-x="229" />
<glyph unicode="&#x20ac;" d="M8 213l10 61h57q-1 24 -1 67v16h-66l10 59h58q21 274 256 274q88 0 162 -44l-17 -65q-69 42 -145 42q-84 0 -129 -47.5t-55 -159.5h189l-10 -59h-182v-14q0 -45 2 -69h180l-10 -61h-165q14 -91 55.5 -127.5t121.5 -36.5q82 0 147 39l16 -61q-71 -43 -163 -43 q-115 0 -174.5 55t-74.5 174h-72z" />
<glyph unicode="&#x2122;" horiz-adv-x="625" d="M22 663v48h221l-2 -48h-85v-269h-51v269h-83zM275 394q3 103 16 317h51l44 -101l48 -110l88 211h52q11 -150 17 -317h-52q-5 172 -7 224l-80 -189h-39l-79 184q-3 -57 -8 -219h-51z" />
<glyph unicode="&#x25fc;" horiz-adv-x="485" d="M0 485h485v-485h-485v485z" />
</font>
</defs>
</svg>
