<?xml version="1.0" standalone="no"?>
<!DOCTYPE svg PUBLIC "-//W3C//DTD SVG 1.1//EN" "http://www.w3.org/Graphics/SVG/1.1/DTD/svg11.dtd" >
<svg xmlns="http://www.w3.org/2000/svg" xmlns:xlink="http://www.w3.org/1999/xlink" version="1.1">
<metadata></metadata>
<defs>
<font id="postnlwebregular" horiz-adv-x="527" >
<font-face units-per-em="1000" ascent="750" descent="-250" />
<missing-glyph horiz-adv-x="181" />
<glyph unicode="&#xfb01;" horiz-adv-x="529" d="M21 412v73h74v40q0 178 200 178q64 0 131 -13l-7 -73q-66 11 -114 11q-68 0 -93.5 -24.5t-25.5 -86.5v-32h275v-485h-91v412h-184v-412h-91v412h-74z" />
<glyph unicode="&#xfb02;" horiz-adv-x="530" d="M21 412v73h74v40q0 90 48.5 134t151.5 44q88 0 170 -21v-682h-91v621q-38 8 -84 8q-59 0 -81.5 -25.5t-22.5 -87.5v-31h106l-6 -73h-100v-412h-91v412h-74z" />
<glyph unicode="&#xfb03;" horiz-adv-x="808" d="M21 412v73h74v39q0 179 166 179q35 0 64 -7l-8 -72q-14 4 -38 4q-52 0 -72.5 -24t-20.5 -87v-32h188v40q0 178 200 178q64 0 131 -13l-7 -73q-66 11 -115 11q-67 0 -92.5 -24.5t-25.5 -86.5v-32h275v-485h-91v412h-184v-412h-91v412h-188v-412h-91v412h-74z" />
<glyph unicode="&#xfb04;" horiz-adv-x="809" d="M21 412v73h74v39q0 179 166 179q35 0 64 -7l-8 -72q-14 4 -38 4q-52 0 -72.5 -24t-20.5 -87v-32h188v40q0 90 48.5 134t151.5 44q88 0 170 -21v-682h-92v621q-38 8 -83 8q-59 0 -81.5 -25.5t-22.5 -87.5v-31h106l-6 -73h-100v-412h-91v412h-188v-412h-91v412h-74z" />
<glyph horiz-adv-x="0" />
<glyph unicode="&#xd;" horiz-adv-x="181" />
<glyph unicode=" "  horiz-adv-x="181" />
<glyph unicode="&#x09;" horiz-adv-x="181" />
<glyph unicode="&#xa0;" horiz-adv-x="181" />
<glyph unicode="!" horiz-adv-x="258" d="M77 44v9q0 60 52 60q53 0 53 -60v-9q0 -60 -53 -60q-29 0 -40.5 15t-11.5 45zM83 423v251h92v-251l-11 -219h-71z" />
<glyph unicode="&#x22;" horiz-adv-x="355" d="M51 495v224h100l-19 -224h-81zM213 495v224h100l-20 -224h-80z" />
<glyph unicode="#" d="M24 170v81h82l25 153h-107v80h119l28 181h82l-29 -181h126l29 181h82l-29 -181h71v-80h-82l-25 -153h107v-81h-119l-27 -170h-81l26 170h-126l-27 -170h-82l27 170h-70zM188 251h126l25 153h-126z" />
<glyph unicode="$" d="M56 499q0 79 49 127.5t133 58.5v100h66v-98q77 -3 137 -28l-10 -93q-62 27 -127 30v-217l22 -7q81 -29 119.5 -68.5t38.5 -119.5q0 -82 -49 -131t-131 -62v-98h-66v93q-97 1 -177 32l9 95q76 -35 168 -37v222l-23 8q-76 25 -117.5 70.5t-41.5 122.5zM160 502 q0 -38 19.5 -60t58.5 -38v187q-19 -3 -33 -11q-45 -23 -45 -78zM304 82q76 22 76 95q0 41 -19 62.5t-57 36.5v-194z" />
<glyph unicode="%" horiz-adv-x="820" d="M70 494q0 102 31 149t99 47t99 -47t31 -149t-31 -149.5t-99 -47.5t-99 47.5t-31 149.5zM147 494q0 -70 13 -100.5t40 -30.5q29 0 41 30t12 101q0 70 -12 100t-41 30q-53 0 -53 -130zM200 30l359 673l72 -37l-362 -674zM490 181q0 102 31 149t99 47t99 -47t31 -149 t-31 -149.5t-99 -47.5t-99 47.5t-31 149.5zM567 181q0 -70 13 -100.5t40 -30.5q29 0 41 30t12 101q0 70 -12 100t-41 30q-53 0 -53 -130z" />
<glyph unicode="&#x26;" horiz-adv-x="606" d="M36 136v4q0 51 32 98.5t92 81.5q-78 95 -78 201q0 66 41 117.5t127 51.5q71 0 114.5 -45t43.5 -120q0 -116 -127 -216l37 -41l45 -48q19 -20 39 -38q36 70 38 184h77q-3 -135 -56 -236q56 -52 110 -63v-82q-83 6 -164 77q-80 -78 -189 -78q-85 0 -133.5 40.5t-48.5 111.5 zM134 149q0 -41 27 -64.5t71 -23.5q72 0 121 52q-62 58 -143 149q-76 -49 -76 -113zM171 510q0 -71 62 -146q83 69 83 153q0 93 -69 93q-41 0 -58.5 -27t-17.5 -67v-6z" />
<glyph unicode="'" horiz-adv-x="194" d="M51 495v224h100l-19 -224h-81z" />
<glyph unicode="(" horiz-adv-x="380" d="M86 293q0 250 200 443l49 -39q-151 -176 -151 -405t151 -405l-48 -39q-201 198 -201 445z" />
<glyph unicode=")" horiz-adv-x="380" d="M45 697l48 39q201 -194 201 -443q0 -246 -201 -445l-47 39q150 177 150 405q0 229 -151 405z" />
<glyph unicode="*" horiz-adv-x="356" d="M21 549l29 70l102 -55l-12 116h74l-12 -117l105 56l28 -69l-117 -34l84 -88l-62 -44l-61 103l-64 -102l-61 46l84 85z" />
<glyph unicode="+" d="M66 228v82h153v156h89v-156h152v-82h-152v-154h-89v154h-153z" />
<glyph unicode="," horiz-adv-x="221" d="M35 -158q39 77 58 137q-45 8 -45 68v6q0 69 62 69q33 0 47.5 -17.5t14.5 -56.5q0 -76 -78 -227z" />
<glyph unicode="-" horiz-adv-x="287" d="M45 208v82h198v-82h-198z" />
<glyph unicode="." horiz-adv-x="222" d="M52 48v11q0 63 60 63q58 0 58 -63v-11q0 -64 -58 -64q-60 0 -60 64z" />
<glyph unicode="/" horiz-adv-x="396" d="M23 -16l253 707h97l-252 -707h-98z" />
<glyph unicode="0" d="M48 338q0 185 52 268.5t164 83.5t163.5 -83t51.5 -268q0 -190 -48.5 -272.5t-166.5 -82.5q-112 0 -164 84t-52 270zM152 338q0 -144 25.5 -204.5t86.5 -60.5t86.5 60.5t25.5 204.5t-25.5 203.5t-86.5 59.5t-86.5 -59.5t-25.5 -203.5z" />
<glyph unicode="1" d="M61 558l192 116h83v-591h137v-83h-388v83h152v483l-148 -89z" />
<glyph unicode="2" d="M57 81l82 87l77 83q26 30 64 79t56 90.5t18 77.5q0 106 -113 106q-76 0 -155 -38l-10 85q84 39 183 39q90 0 144.5 -46.5t54.5 -133.5q0 -80 -48.5 -156t-165.5 -194l-76 -77h280v-83h-381z" />
<glyph unicode="3" d="M55 17l12 87q75 -33 149 -33q140 0 140 120q0 125 -161 125h-22v76h21q67 0 103.5 33t36.5 88q0 91 -111 91q-75 0 -138 -30l-12 84q84 32 167 32q89 0 143.5 -43t54.5 -126q0 -57 -27.5 -99.5t-78.5 -57.5v-3q60 -13 94 -56.5t34 -110.5q0 -102 -64 -156t-175 -54 q-90 0 -166 33z" />
<glyph unicode="4" d="M21 173v73q155 250 279 428h110v-422h91v-79h-91v-173h-99v173h-290zM122 252h189v294q-79 -114 -189 -294z" />
<glyph unicode="5" d="M60 11l12 86q76 -28 150 -28q77 0 114 44q26 30 26 92t-30 92t-95 30q-58 0 -121 -23l-31 17l7 353h335l-4 -83h-242l-3 -196q42 14 95 14q90 0 141.5 -51.5t51.5 -147.5q0 -109 -63 -167.5t-171 -58.5q-86 0 -172 27z" />
<glyph unicode="6" d="M41 289q0 62 9.5 118.5t32 108.5t56 90t85 61t115.5 23q49 0 77 -9l-10 -80q-28 7 -60 7q-77 0 -127 -50q-48 -52 -67 -166q58 37 134 37q93 0 145.5 -55.5t52.5 -152.5q0 -101 -58 -169t-157 -68q-228 0 -228 305zM147 309q-7 -59 3 -112q20 -128 118 -128 q53 0 82.5 38.5t29.5 104.5q0 132 -114 132q-62 0 -119 -35z" />
<glyph unicode="7" d="M51 591v83h414v-83l-271 -591h-106l275 591h-312z" />
<glyph unicode="8" d="M42 177q0 59 35.5 109t98.5 76q-110 64 -110 158q0 76 58 123t145 47q86 0 141 -44t55 -121q0 -48 -32 -91.5t-88 -73.5q65 -34 102 -76t37 -104q0 -91 -63.5 -143.5t-157.5 -52.5t-157.5 50t-63.5 143zM146 183q0 -53 33.5 -83.5t85.5 -30.5q51 0 83 30t32 81 q0 43 -29 74.5t-98 64.5q-107 -46 -107 -136zM168 521q0 -39 27 -67.5t76 -55.5q39 20 65.5 52t26.5 72q0 43 -26.5 66.5t-69.5 23.5q-42 0 -70.5 -24.5t-28.5 -66.5z" />
<glyph unicode="9" d="M40 453q0 105 60 171t161 66q224 0 224 -303q0 -78 -16 -147t-49.5 -128t-93.5 -93.5t-140 -34.5q-50 0 -77 9l10 80q28 -7 60 -7q47 0 83 18t57.5 50.5t34 67.5t20.5 80q-55 -37 -133 -37q-93 0 -147 57.5t-54 150.5zM144 462q0 -64 29.5 -99t86.5 -35q62 0 119 35 q3 33 3 43q3 200 -123 200q-53 0 -84 -39t-31 -105z" />
<glyph unicode=":" horiz-adv-x="221" d="M49 48v11q0 63 60 63q58 0 58 -63v-11q0 -64 -58 -64q-60 0 -60 64zM49 431v11q0 63 60 63q58 0 58 -63v-11q0 -64 -58 -64q-60 0 -60 64z" />
<glyph unicode=";" horiz-adv-x="221" d="M35 -158q39 77 58 137q-45 8 -45 68v6q0 69 62 69q33 0 47.5 -17.5t14.5 -56.5q0 -76 -78 -227zM49 431v11q0 63 60 63q58 0 58 -63v-11q0 -64 -58 -64q-60 0 -60 64z" />
<glyph unicode="&#x3c;" d="M97 239v60l290 185l41 -68l-228 -144v-5l228 -145l-41 -66z" />
<glyph unicode="=" d="M66 123v84h394v-84h-394zM66 334v82h394v-82h-394z" />
<glyph unicode="&#x3e;" d="M99 122l228 145v5l-228 144l41 68l291 -185v-60l-291 -183z" />
<glyph unicode="?" horiz-adv-x="438" d="M38 660q79 30 163 30q85 0 141 -46t56 -138q0 -84 -47.5 -136t-136.5 -59l-8 -120h-71l-10 189h25q78 2 114.5 31.5t36.5 92.5q0 102 -118 102q-71 0 -137 -29zM120 44v9q0 60 53 60q52 0 52 -60v-9q0 -30 -11.5 -45t-40.5 -15q-53 0 -53 60z" />
<glyph unicode="@" horiz-adv-x="776" d="M55 340v3q0 155 92 251.5t250 96.5q156 0 240 -87t84 -232q0 -96 -38 -149t-113 -53q-71 0 -98 46q-41 -44 -104 -44q-49 0 -79.5 25.5t-30.5 71.5q0 52 41 82t120 30h32v13q0 31 -15.5 41.5t-54.5 10.5q-45 0 -96 -20l-6 60q62 20 114 20q65 0 95 -27q31 -28 31 -89v-87 q0 -75 53 -75q68 0 68 139q0 118 -62 183t-180 65q-122 0 -188.5 -73t-66.5 -199q0 -138 72 -213.5t208 -75.5q78 0 140 15l5 -68q-62 -19 -150 -19q-171 0 -267 94t-96 264zM329 274q0 -46 53 -46q41 0 72 33q-3 17 -3 35v32h-27q-95 -1 -95 -54z" />
<glyph unicode="A" horiz-adv-x="589" d="M22 0q89 316 224 674h99q119 -309 222 -674h-101q-22 83 -40 143h-262q-9 -29 -23.5 -81.5t-16.5 -61.5h-102zM189 234h211q-54 178 -103 319h-4z" />
<glyph unicode="B" horiz-adv-x="578" d="M81 0v674h167q45 0 77.5 -3t66 -13.5t53.5 -28.5t33 -49.5t13 -75.5q0 -50 -22.5 -88.5t-68.5 -54.5v-2q62 -10 99.5 -54t37.5 -110q0 -51 -15 -87.5t-38 -57t-60 -32.5t-70.5 -15t-79.5 -3h-193zM180 89h97q41 0 65.5 3t47.5 14t33.5 33.5t10.5 59.5q0 106 -143 106 h-111v-216zM180 394h86q65 0 94.5 23t29.5 78q0 47 -27.5 68.5t-91.5 21.5h-91v-191z" />
<glyph unicode="C" horiz-adv-x="542" d="M50 330v7q0 170 75.5 261.5t221.5 91.5q91 0 166 -40l-15 -93q-66 38 -146 38q-100 0 -149.5 -67t-49.5 -191q0 -260 193 -260q86 0 154 34l12 -88q-76 -39 -171 -39q-291 0 -291 346z" />
<glyph unicode="D" horiz-adv-x="631" d="M81 0v674h161q89 0 149 -14.5t104.5 -51.5t65 -102t20.5 -164q0 -205 -101 -287q-38 -31 -97.5 -43t-150.5 -12h-151zM180 91h46q9 0 26 0.5t25 0.5q113 4 156.5 60.5t43.5 188.5q0 129 -44.5 185.5t-173.5 56.5h-79v-492z" />
<glyph unicode="E" horiz-adv-x="520" d="M81 0v674h394l-6 -91h-289v-191h254v-92h-254v-209h287v-91h-386z" />
<glyph unicode="F" horiz-adv-x="507" d="M81 0v674h394l-6 -91h-289v-191h254v-92h-254v-300h-99z" />
<glyph unicode="G" horiz-adv-x="612" d="M50 329v6q0 172 79 263.5t225 91.5q89 0 184 -44l-14 -90q-85 40 -162 40q-102 0 -155.5 -67t-53.5 -196q0 -257 195 -257q50 0 94 14v178h-118v86h217v-329q-89 -41 -190 -41q-301 0 -301 345z" />
<glyph unicode="H" horiz-adv-x="652" d="M81 0v674h99v-282h293v282h98v-674h-98v300h-293v-300h-99z" />
<glyph unicode="I" horiz-adv-x="266" d="M84 0v674h98v-674h-98z" />
<glyph unicode="J" horiz-adv-x="413" d="M26 -1l5 81q36 -12 73 -12q76 0 107 44q23 32 23 132v430h99v-431q0 -148 -58 -204q-57 -55 -158 -55q-48 0 -91 15z" />
<glyph unicode="K" horiz-adv-x="557" d="M81 0v674h99v-317q130 131 248 317h102q-115 -191 -219 -305l229 -369h-116l-181 305q-27 -27 -63 -59v-246h-99z" />
<glyph unicode="L" horiz-adv-x="475" d="M81 0v674h99v-583h264v-91h-363z" />
<glyph unicode="M" horiz-adv-x="804" d="M68 0q7 280 38 674h85q133 -280 212 -466l213 466h83q30 -384 37 -674h-97q-11 408 -22 482l-185 -414h-61l-185 414h-1q-19 -395 -21 -482h-96z" />
<glyph unicode="N" horiz-adv-x="678" d="M81 0v674h86l338 -492h1v492h92v-674h-79l-346 500h-1v-500h-91z" />
<glyph unicode="O" horiz-adv-x="630" d="M50 334v8q0 348 265 348t265 -348v-8q0 -350 -265 -350t-265 350zM153 338q0 -131 37.5 -196t124.5 -65q88 0 124.5 64.5t36.5 195.5t-37 196t-124 65t-124.5 -65t-37.5 -195z" />
<glyph unicode="P" horiz-adv-x="549" d="M81 0v674h160q134 0 201 -43.5t67 -161.5q0 -123 -63.5 -175t-190.5 -52h-75v-242h-99zM180 333h62q31 0 51.5 1.5t44 9t37 21t22.5 38.5t9 60q0 69 -41 98q-21 15 -50 18.5t-91 3.5h-44v-250z" />
<glyph unicode="Q" horiz-adv-x="631" d="M50 333v8q0 349 265 349q266 0 266 -349v-8q0 -254 -142 -322l101 -125l-83 -48l-105 148q-24 -2 -37 -2q-265 0 -265 349zM153 338q0 -131 37.5 -196t124.5 -65q88 0 124.5 64.5t36.5 195.5t-37 196t-124 65t-124.5 -65t-37.5 -195z" />
<glyph unicode="R" horiz-adv-x="562" d="M81 0v674h165q60 0 103.5 -8t81.5 -28.5t57.5 -61.5t19.5 -102q0 -79 -29 -131t-81 -72l123 -271h-104l-106 249q-40 -2 -64 -2h-67v-247h-99zM180 338h63q90 0 125.5 23.5t35.5 108.5q0 62 -32.5 87.5t-110.5 25.5h-81v-245z" />
<glyph unicode="S" horiz-adv-x="498" d="M48 499q0 89 61 140t162 51q81 0 148 -29l-11 -93q-65 30 -129 30q-53 0 -82 -16q-46 -25 -46 -80q0 -45 28.5 -69.5t83.5 -44.5l40 -15q80 -29 118 -68.5t38 -120.5q0 -99 -60.5 -149.5t-173.5 -50.5q-86 0 -171 33l9 95q79 -38 155 -38q68 0 102.5 23.5t34.5 79.5 q0 48 -25.5 70.5t-82.5 41.5l-39 14q-160 56 -160 196z" />
<glyph unicode="T" horiz-adv-x="529" d="M31 583v91h468l-8 -91h-179v-583h-98v583h-183z" />
<glyph unicode="U" horiz-adv-x="640" d="M78 248v426h99v-419q0 -93 31 -135.5t112 -42.5t112.5 42.5t31.5 135.5v419h99v-426q0 -134 -55.5 -199t-187.5 -65q-131 0 -186.5 65t-55.5 199z" />
<glyph unicode="V" horiz-adv-x="591" d="M22 674h106q52 -195 166 -545h3q114 350 166 545h106q-91 -330 -220 -674h-107q-129 344 -220 674z" />
<glyph unicode="W" horiz-adv-x="891" d="M22 674h105q56 -275 142 -547h2q50 187 85 348q23 106 38 199h108q14 -90 40 -199q46 -194 89 -348h2q72 237 133 547h103q-77 -354 -183 -674h-111q-66 224 -126 512h-2q-62 -297 -126 -512h-109q-116 347 -190 674z" />
<glyph unicode="X" horiz-adv-x="569" d="M25 0l201 340l-191 334h114l137 -254l142 254h110q-84 -158 -194 -335l203 -339h-124l-138 256h-1l-140 -256h-119z" />
<glyph unicode="Y" horiz-adv-x="533" d="M22 674h105q71 -218 138 -352h3q67 134 138 352h105q-75 -228 -195 -451v-223h-99v223q-120 223 -195 451z" />
<glyph unicode="Z" horiz-adv-x="533" d="M45 81l316 502h-307v91h428v-79l-315 -504h320v-91h-435z" />
<glyph unicode="[" horiz-adv-x="350" d="M86 -103v790h191v-71h-103v-648h103v-71h-191z" />
<glyph unicode="\" horiz-adv-x="396" d="M22 691h98l253 -707h-98z" />
<glyph unicode="]" horiz-adv-x="350" d="M74 -32h103v648h-103v71h190v-790h-190v71z" />
<glyph unicode="^" d="M38 325l186 319h78l187 -319l-74 -40l-151 263h-1l-154 -263z" />
<glyph unicode="_" horiz-adv-x="493" d="M4 -67h485v-70h-485v70z" />
<glyph unicode="`" horiz-adv-x="348" d="M49 655l48 75l204 -127l-35 -59z" />
<glyph unicode="a" horiz-adv-x="497" d="M38 129q0 179 274 179h25v19q0 56 -25 77q-24 20 -81 20q-66 0 -146 -32l-14 75q86 34 172 34q95 0 140 -38t45 -132v-244q0 -26 6.5 -34.5t28.5 -8.5v-53q-17 -7 -48 -7q-63 0 -72 60q-60 -60 -153 -60q-66 0 -109 38.5t-43 106.5zM133 138q0 -35 21 -56.5t62 -21.5 q35 0 68 15.5t53 38.5v125h-15q-39 0 -68 -3.5t-59 -13t-46 -31t-16 -53.5z" />
<glyph unicode="b" horiz-adv-x="535" d="M62 0q3 57 3 161v529h91v-237q63 48 143 48q91 0 142 -66t51 -188v-4q0 -112 -52 -185.5t-153 -73.5q-82 0 -143 58h-1l-6 -42h-75zM156 117q52 -50 114 -50q127 0 127 178q0 173 -124 173q-64 0 -117 -46v-255z" />
<glyph unicode="c" horiz-adv-x="448" d="M43 239v4q0 127 62 192.5t170 65.5q80 0 139 -32l-9 -80q-56 33 -121 33q-146 0 -146 -182q0 -91 34.5 -134t108.5 -43q63 0 124 27l8 -76q-63 -30 -141 -30q-114 0 -172 64q-57 64 -57 191z" />
<glyph unicode="d" horiz-adv-x="536" d="M43 232v5q0 119 55.5 191.5t157.5 72.5q70 0 123 -34v223h92v-490q0 -74 2 -200h-77l-6 42h-1q-60 -58 -144 -58q-93 0 -147.5 66t-54.5 182zM138 241q0 -79 31 -126.5t96 -47.5q64 0 114 50v266q-40 35 -102 35q-139 0 -139 -177z" />
<glyph unicode="e" horiz-adv-x="507" d="M43 240v2q0 113 55 186t163 73q203 0 203 -260q0 -24 -1 -36h-324q11 -143 142 -143q80 0 145 28l8 -74q-67 -32 -155 -32q-236 0 -236 256zM138 273h232q-5 151 -110 151q-60 0 -90 -42t-32 -109z" />
<glyph unicode="f" horiz-adv-x="307" d="M21 411v74h74v39q0 179 166 179q35 0 64 -7l-8 -72q-14 4 -38 4q-52 0 -72.5 -24t-20.5 -87v-32h108l-6 -74h-102v-411h-91v411h-74z" />
<glyph unicode="g" horiz-adv-x="509" d="M50 327v5q0 84 54 126.5t143 42.5q78 0 134 -35q42 53 110 62v-86q-46 -4 -71 -19q25 -37 25 -91v-5q0 -86 -55.5 -127t-142.5 -41q-34 0 -63 7q-21 -45 -32 -79l114 -3q109 -3 150 -35q45 -33 45 -99q0 -79 -59.5 -119.5t-154.5 -40.5q-91 0 -140 32.5t-49 89.5t45 99 q-22 1 -34.5 13t-12.5 31q0 39 69 131q-75 42 -75 141zM145 -69q0 -72 110 -72q56 0 88.5 20.5t32.5 58.5q0 33 -22 46q-21 15 -102 18l-80 3q-27 -30 -27 -74zM145 330q0 -53 24 -77.5t78 -24.5q55 0 79 24.5t24 77.5t-24 77.5t-79 24.5q-54 0 -78 -24.5t-24 -77.5z" />
<glyph unicode="h" horiz-adv-x="536" d="M62 0v690h91v-255q69 66 165 66q78 0 117 -41q41 -41 41 -145v-315h-91v301q0 66 -21 91q-22 24 -71 24q-36 0 -74.5 -17.5t-65.5 -47.5v-351h-91z" />
<glyph unicode="i" horiz-adv-x="227" d="M60 628v7q0 61 55 61q52 0 52 -61v-7q0 -60 -52 -60q-55 0 -55 60zM68 0v485h91v-485h-91z" />
<glyph unicode="j" horiz-adv-x="226" d="M-40 -208l6 78q9 -1 28 -1q35 0 54 20q20 24 20 96v500h91v-489q0 -46 -7 -81t-24 -64.5t-49 -45t-78 -15.5q-31 0 -41 2zM60 628v7q0 61 55 61q52 0 52 -61v-7q0 -60 -52 -60q-55 0 -55 60z" />
<glyph unicode="k" horiz-adv-x="458" d="M62 0v690h91v-409q107 90 180 204h99q-70 -118 -157 -204l168 -281h-103l-133 223q-31 -27 -54 -42v-181h-91z" />
<glyph unicode="l" horiz-adv-x="221" d="M65 0v690h91v-690h-91z" />
<glyph unicode="m" horiz-adv-x="812" d="M62 0v485h77l7 -53q28 30 70 49.5t86 19.5q91 0 128 -70q72 70 166 70q157 0 157 -180v-321h-91v303q0 61 -20 85q-22 27 -71 27q-67 0 -121 -60q2 -18 2 -59v-296h-91v298q0 59 -16.5 88t-66.5 29q-32 0 -66.5 -18t-58.5 -47v-350h-91z" />
<glyph unicode="n" horiz-adv-x="537" d="M62 0v485h79l7 -56q70 72 170 72q78 0 117 -41q41 -41 41 -145v-315h-91v301q0 66 -21 91q-22 24 -71 24q-36 0 -74.5 -17.5t-65.5 -47.5v-351h-91z" />
<glyph unicode="o" horiz-adv-x="533" d="M43 241v3q0 124 56 190.5t167 66.5t167.5 -66t56.5 -190v-4q0 -125 -56.5 -191t-167.5 -66t-167 66.5t-56 190.5zM138 242q0 -181 129 -181q66 0 97 44.5t31 136.5q0 93 -31 137.5t-97 44.5q-129 0 -129 -182z" />
<glyph unicode="p" horiz-adv-x="535" d="M62 -194v679h76l7 -49q66 65 152 65q89 0 142 -65t53 -181v-6q0 -119 -54.5 -192t-157.5 -73q-64 0 -127 38v-216h-91zM153 102q48 -35 112 -35q132 0 132 177q0 43 -8.5 78t-36.5 64t-74 29q-71 0 -125 -56v-257z" />
<glyph unicode="q" horiz-adv-x="534" d="M43 239v5q0 67 20.5 123.5t69 95t118.5 38.5q79 0 140 -46l6 30h75v-679h-92v224q-61 -46 -138 -46q-95 0 -147 65.5t-52 189.5zM138 237q0 -171 125 -171q63 0 117 47v263q-44 41 -109 41q-133 0 -133 -180z" />
<glyph unicode="r" horiz-adv-x="325" d="M62 0v485h79l7 -59q0 -8 1 -8q58 74 156 78q0 -8 -0.5 -46t-0.5 -46q-91 -1 -151 -61v-343h-91z" />
<glyph unicode="s" horiz-adv-x="411" d="M42 358q0 67 50.5 105t131.5 38q65 0 123 -21l-8 -77q-52 22 -107 22q-99 0 -99 -65q0 -30 19.5 -44.5t63.5 -28.5l32 -10q68 -21 99 -53t31 -92q0 -75 -50 -111.5t-137 -36.5q-77 0 -145 28l7 76q69 -30 130 -30q51 0 77.5 15t26.5 52q0 31 -17 46t-65 29l-32 10 q-131 37 -131 148z" />
<glyph unicode="t" horiz-adv-x="335" d="M19 411v74h72v132l91 13v-145h119l-5 -74h-114v-254q0 -59 16.5 -79t59.5 -20q22 0 44 4l2 -72q-27 -6 -58 -6q-88 0 -121.5 39t-33.5 125v263h-72z" />
<glyph unicode="u" horiz-adv-x="518" d="M58 200v285h91v-273q0 -69 10 -98q19 -53 100 -53t100 53q10 29 10 98v273h91v-285q0 -119 -45 -167.5t-156 -48.5q-110 0 -155.5 49t-45.5 167z" />
<glyph unicode="v" horiz-adv-x="444" d="M15 485h95q17 -77 50.5 -198t56.5 -189h7q70 212 111 387h95q-32 -113 -81.5 -261.5t-80.5 -223.5h-97q-32 79 -80.5 228t-75.5 257z" />
<glyph unicode="w" horiz-adv-x="698" d="M15 485h95q24 -109 101 -371q51 168 98 371h80q30 -136 98 -371q37 101 101 371h95q-55 -218 -153 -485h-85q-55 182 -96 347q-29 -120 -97 -347h-84q-93 248 -153 485z" />
<glyph unicode="x" horiz-adv-x="452" d="M16 0l157 243q-86 132 -150 242h106q35 -67 96 -171q54 85 99 171h99q-47 -84 -147 -241l162 -244h-113l-103 172l-102 -172h-104z" />
<glyph unicode="y" horiz-adv-x="525" d="M61 188v297h91v-285q0 -63 22.5 -91.5t75.5 -28.5q67 0 122 39v366h91v-355q0 -70 -1 -103q-3 -117 -59 -177t-186 -60q-30 0 -70 7l6 70q30 -4 54 -4q83 0 124 33t41 118v26q-64 -45 -145 -45q-166 0 -166 193z" />
<glyph unicode="z" horiz-adv-x="439" d="M33 61l254 344h-234v80h350v-62l-256 -344h248v-79h-355z" />
<glyph unicode="{" horiz-adv-x="358" d="M60 271v54q69 17 69 87l1 166q2 137 128 137h58v-69h-35q-38 0 -51 -16t-13 -62l-1 -130q0 -65 -18 -96.5t-64 -42.5v-2q46 -12 64 -44t18 -96l1 -130q0 -46 13 -61.5t51 -15.5h35v-69h-58q-126 0 -128 137l-1 166q0 70 -69 87z" />
<glyph unicode="|" horiz-adv-x="270" d="M91 -16v731h88v-731h-88z" />
<glyph unicode="}" horiz-adv-x="361" d="M45 -50h35q38 0 51 15.5t13 61.5l1 130q0 64 18 96t64 44v2q-46 11 -64 42.5t-18 96.5l-1 130q0 46 -13 62t-51 16h-35v69h58q126 0 128 -137l1 -166q0 -70 69 -87v-54q-69 -17 -69 -87l-1 -166q-2 -137 -128 -137h-58v69z" />
<glyph unicode="~" d="M20 255q54 108 140 108q26 0 46.5 -8.5t55.5 -28.5l26 -15q4 -2 15 -8.5t15 -8.5t12.5 -5.5t15.5 -5t15 -1.5q44 0 82 69l62 -44q-55 -105 -142 -105q-40 0 -101 35l-25 14q-46 26 -70 26q-43 0 -85 -69z" />
<glyph unicode="&#xa1;" horiz-adv-x="258" d="M77 432v8q0 31 11.5 46t40.5 15q53 0 53 -61v-8q0 -60 -53 -60q-52 0 -52 60zM83 62l10 219h71l11 -219v-251h-92v251z" />
<glyph unicode="&#xa2;" d="M73 331v4q0 115 51.5 180t143.5 76v104h66v-103q61 -6 110 -31l-9 -80q-47 26 -101 32v-357q51 4 101 26l8 -76q-49 -23 -109 -29v-93h-66v93q-90 9 -138 63q-57 64 -57 191zM168 332q0 -151 100 -173v349q-100 -24 -100 -176z" />
<glyph unicode="&#xa3;" d="M55 317v78h78v72q0 223 210 223q63 0 123 -20l-16 -89q-43 17 -97 17q-66 0 -94 -34.5t-28 -109.5v-59h153v-78h-153v-79q0 -53 -17 -95.5t-45 -60.5v-1h281v-81h-388l-3 81q74 41 74 139v97h-78z" />
<glyph unicode="&#xa4;" horiz-adv-x="521" d="M20 101l78 77q-30 49 -30 106q0 56 29 104l-77 77l59 56l74 -76q46 32 108 32q61 0 107 -31l75 75l58 -56l-77 -77q30 -47 30 -104q0 -59 -30 -106l77 -77l-58 -55l-76 74q-46 -29 -106 -29q-62 0 -107 30l-75 -75zM149 284q0 -50 31.5 -80.5t80.5 -30.5t80.5 30.5 t31.5 80.5q0 49 -31.5 80t-80.5 31t-80.5 -31t-31.5 -80z" />
<glyph unicode="&#xa5;" d="M21 674h105q71 -218 136 -366h3q75 163 136 366h105q-64 -195 -155 -376h87l-3 -74h-122v-58h122v-74h-122v-92h-99v92h-120v74h120v58h-120l-4 74h85q-89 176 -154 376z" />
<glyph unicode="&#xa6;" horiz-adv-x="270" d="M93 -16v272h83v-272h-83zM93 441v274h83v-274h-83z" />
<glyph unicode="&#xa7;" horiz-adv-x="461" d="M56 350q0 66 71 106q-64 39 -64 106q0 59 49 93.5t127 34.5q57 0 114 -21l-3 -70q-53 21 -104 21q-92 0 -92 -56q0 -23 19 -39.5t64 -34.5l60 -25q56 -23 83 -52t27 -75q0 -65 -67 -112q58 -32 58 -103q0 -66 -50.5 -102.5t-133.5 -36.5q-75 0 -145 28l3 72 q81 -28 135 -28q101 0 101 64q0 26 -17.5 42.5t-65.5 36.5l-61 25q-108 44 -108 126zM141 359q0 -22 13 -37.5t45 -29.5l87 -36q37 31 37 71q0 23 -17.5 41t-58.5 35l-64 26q-42 -27 -42 -70z" />
<glyph unicode="&#xa8;" horiz-adv-x="348" d="M33 638v6q0 58 55 58q57 0 57 -58v-6q0 -57 -57 -57q-55 0 -55 57zM204 638v6q0 58 55 58q56 0 56 -58v-6q0 -57 -56 -57q-55 0 -55 57z" />
<glyph unicode="&#xa9;" horiz-adv-x="777" d="M49 334q0 155 98 251t242 96t242 -96t98 -251t-98 -251t-242 -96t-242 96t-98 251zM130 334q0 -122 71.5 -195.5t187.5 -73.5t187.5 73.5t71.5 195.5t-71.5 195.5t-187.5 73.5t-187.5 -73.5t-71.5 -195.5zM241 329q0 92 41 139.5t117 47.5q50 0 87 -21l-8 -62 q-38 18 -73 18q-90 0 -90 -118q0 -119 87 -119q43 0 77 17l7 -62q-48 -19 -86 -19q-159 0 -159 179z" />
<glyph unicode="&#xaa;" horiz-adv-x="349" d="M27 398q0 63 50 91t129 28h16v10q0 29 -13.5 40t-48.5 11q-50 0 -98 -23l-10 63q59 24 117 24q64 0 95.5 -27t31.5 -91v-151q0 -23 24 -22v-49q-18 -5 -38 -5q-41 0 -52 35h-3q-33 -35 -93 -35q-49 0 -78 26.5t-29 74.5zM104 401q0 -44 47 -44q42 0 71 29v76h-24 q-6 0 -23.5 -1.5t-27 -5.5t-21 -10t-17 -17.5t-5.5 -26.5z" />
<glyph unicode="&#xab;" horiz-adv-x="558" d="M49 243l171 239l68 -44l-140 -195l139 -195l-67 -43zM270 243l171 239l68 -44l-140 -195l139 -195l-67 -43z" />
<glyph unicode="&#xac;" d="M66 228v82h394v-235h-84v153h-310z" />
<glyph unicode="&#xad;" horiz-adv-x="287" d="M45 208v82h198v-82h-198z" />
<glyph unicode="&#xae;" horiz-adv-x="777" d="M49 334q0 155 98 251t242 96t242 -96t98 -251t-98 -251t-242 -96t-242 96t-98 251zM130 334q0 -122 71.5 -195.5t187.5 -73.5t187.5 73.5t71.5 195.5t-71.5 195.5t-187.5 73.5t-187.5 -73.5t-71.5 -195.5zM279 153v360h92q81 0 114.5 -27.5t33.5 -86.5q0 -83 -58 -108 l65 -138h-73l-54 126q-9 -1 -27 -1h-22v-125h-71zM350 340h32q36 0 49.5 11.5t13.5 45.5q0 30 -14 41.5t-50 11.5h-31v-110z" />
<glyph unicode="&#xb0;" horiz-adv-x="302" d="M21 588q0 54 34.5 92t94.5 38q61 0 95 -37.5t34 -92.5q0 -59 -35 -94.5t-94 -35.5q-57 0 -93 35.5t-36 94.5zM95 588q0 -30 14.5 -47t40.5 -17q27 0 41 17t14 47q0 64 -55 64q-26 0 -40.5 -17t-14.5 -47z" />
<glyph unicode="&#xb1;" d="M66 0v80h394v-80h-394zM66 308v83h153v151h89v-151h152v-83h-152v-150h-89v150h-153z" />
<glyph unicode="&#xb4;" horiz-adv-x="348" d="M49 603l202 127l49 -75l-217 -111z" />
<glyph unicode="&#xb5;" horiz-adv-x="522" d="M62 -194v679h91v-283q0 -74 27 -105q30 -35 86 -35q66 0 90 41q17 29 17 109v273h91v-287q0 -99 -35 -149q-47 -64 -158 -64q-83 0 -130 44l15 -223h-94z" />
<glyph unicode="&#xb6;" horiz-adv-x="518" d="M33 522q0 77 49 122.5t128 45.5h251v-790h-79v725h-101v-725h-78l-1 459q-76 5 -122.5 50t-46.5 113z" />
<glyph unicode="&#xb8;" horiz-adv-x="348" d="M68 -229l16 54q36 -12 70 -12q53 0 53 37t-54 38q-14 0 -44 -2l-7 7l29 118l63 -7l-14 -63q99 -5 99 -87q0 -48 -31.5 -74t-86.5 -26q-54 0 -93 17z" />
<glyph unicode="&#xba;" horiz-adv-x="367" d="M30 467v5q0 81 39 125.5t114 44.5q76 0 115 -44t39 -126v-5q0 -82 -39 -126t-115 -44q-75 0 -114 44.5t-39 125.5zM107 469q0 -57 19 -82t57 -25q39 0 58 25t19 82q0 58 -19 83t-58 25q-38 0 -57 -25t-19 -83z" />
<glyph unicode="&#xbb;" horiz-adv-x="557" d="M49 48l139 195l-139 195l68 44l170 -239l-170 -238zM269 438l68 44l171 -239l-171 -238l-67 43l139 195z" />
<glyph unicode="&#xbc;" horiz-adv-x="820" d="M47 612l118 68h61v-311h76v-62h-236v62h86v224l-83 -45zM208 30l359 673l72 -37l-362 -674zM470 82v54q87 131 162 231h76v-224h51v-61h-51v-88h-74v88h-164zM539 143h95v138z" />
<glyph unicode="&#xbd;" horiz-adv-x="820" d="M47 612l118 68h61v-311h76v-62h-236v62h86v224l-83 -45zM208 30l359 673l72 -37l-362 -674zM533 53l61 58q60 58 81.5 89.5t21.5 62.5q0 47 -59 47q-38 0 -92 -25l-12 63q62 29 122 29q55 0 86 -28t31 -77q0 -47 -26 -89.5t-92 -102.5l-25 -23h145v-63h-237z" />
<glyph unicode="&#xbe;" horiz-adv-x="820" d="M61 318l11 63q46 -18 89 -18q74 0 74 56q0 28 -18 39.5t-60 11.5h-27v59h25q37 0 53.5 12t16.5 41q0 42 -58 42q-38 0 -81 -16l-9 62q51 20 107 20q57 0 87.5 -25t30.5 -72q0 -62 -51 -87q60 -18 60 -88q0 -59 -36.5 -90t-105.5 -31q-55 0 -108 21zM208 30l359 673 l72 -37l-362 -674zM470 82v54q87 131 162 231h76v-224h51v-61h-51v-88h-74v88h-164zM539 143h95v138z" />
<glyph unicode="&#xbf;" horiz-adv-x="438" d="M40 -21q0 84 47.5 136t135.5 59l9 120h71l9 -189h-25q-78 -2 -114 -31.5t-36 -92.5q0 -102 117 -102q70 0 138 29l8 -83q-79 -30 -163 -30q-85 0 -141 46t-56 138zM213 432v9q0 30 11.5 45t40.5 15t40.5 -15t11.5 -45v-9q0 -60 -52 -60t-52 60z" />
<glyph unicode="&#xc0;" horiz-adv-x="589" d="M22 0q89 316 224 674h99q119 -309 222 -674h-101q-22 83 -40 143h-262q-9 -29 -23.5 -81.5t-16.5 -61.5h-102zM142 831l48 76l204 -127l-35 -59zM189 234h211q-54 178 -103 319h-4z" />
<glyph unicode="&#xc1;" horiz-adv-x="589" d="M22 0q89 316 224 674h99q119 -309 222 -674h-101q-22 83 -40 143h-262q-9 -29 -23.5 -81.5t-16.5 -61.5h-102zM189 234h211q-54 178 -103 319h-4zM200 780l203 127l49 -76l-217 -110z" />
<glyph unicode="&#xc2;" horiz-adv-x="589" d="M22 0q89 316 224 674h99q119 -309 222 -674h-101q-22 83 -40 143h-262q-9 -29 -23.5 -81.5t-16.5 -61.5h-102zM141 782l126 130h58l125 -130l-50 -44l-101 96h-6l-102 -96zM189 234h211q-54 178 -103 319h-4z" />
<glyph unicode="&#xc3;" horiz-adv-x="589" d="M22 0q89 316 224 674h99q119 -309 222 -674h-101q-22 83 -40 143h-262q-9 -29 -23.5 -81.5t-16.5 -61.5h-102zM128 802q19 42 49.5 64t61.5 22q33 0 63 -20l14 -11q27 -21 47 -21q32 0 53 43l46 -46q-15 -33 -41.5 -53t-58.5 -20q-40 0 -69 22l-15 11q-20 15 -38 15 q-32 0 -60 -50zM189 234h211q-54 178 -103 319h-4z" />
<glyph unicode="&#xc4;" horiz-adv-x="589" d="M22 0q89 316 224 674h99q119 -309 222 -674h-101q-22 83 -40 143h-262q-9 -29 -23.5 -81.5t-16.5 -61.5h-102zM154 815v6q0 58 55 58q57 0 57 -58v-6q0 -57 -57 -57q-55 0 -55 57zM189 234h211q-54 178 -103 319h-4zM325 815v6q0 58 55 58q56 0 56 -58v-6q0 -57 -56 -57 q-55 0 -55 57z" />
<glyph unicode="&#xc5;" horiz-adv-x="589" d="M22 0q89 316 224 674h99q119 -309 222 -674h-101q-22 83 -40 143h-262q-9 -29 -23.5 -81.5t-16.5 -61.5h-102zM189 234h211q-54 178 -103 319h-4zM199 831q0 41 28 69t69 28t68.5 -28t27.5 -69q0 -40 -28 -68.5t-68 -28.5q-41 0 -69 28t-28 69zM258 831q0 -17 10 -28 t28 -11q16 0 26.5 11t10.5 28t-10.5 28t-26.5 11q-18 0 -28 -10.5t-10 -28.5z" />
<glyph unicode="&#xc6;" horiz-adv-x="831" d="M20 0q56 131 162 347.5t167 326.5h437l-7 -91h-276v-191h242v-92h-242v-209h277v-91h-375v143h-214l-62 -143h-109zM232 234h173v350h-8q-41 -81 -165 -350z" />
<glyph unicode="&#xc7;" horiz-adv-x="542" d="M50 330v7q0 170 75.5 261.5t221.5 91.5q91 0 166 -40l-15 -93q-66 38 -146 38q-100 0 -149.5 -67t-49.5 -191q0 -260 193 -260q86 0 154 34l12 -88q-76 -39 -171 -39l-9 -43q99 -5 99 -87q0 -48 -31.5 -74t-86.5 -26q-54 0 -93 17l16 54q36 -12 70 -12q53 0 53 37t-54 38 q-14 0 -44 -2l-7 7l23 96q-227 34 -227 341z" />
<glyph unicode="&#xc8;" horiz-adv-x="520" d="M81 0v674h394l-6 -91h-289v-191h254v-92h-254v-209h287v-91h-386zM147 831l48 76l204 -127l-35 -59z" />
<glyph unicode="&#xc9;" horiz-adv-x="520" d="M81 0v674h394l-6 -91h-289v-191h254v-92h-254v-209h287v-91h-386zM192 780l203 127l49 -76l-217 -110z" />
<glyph unicode="&#xca;" horiz-adv-x="520" d="M81 0v674h394l-6 -91h-289v-191h254v-92h-254v-209h287v-91h-386zM132 782l126 130h58l125 -130l-50 -44l-101 96h-6l-102 -96z" />
<glyph unicode="&#xcb;" horiz-adv-x="520" d="M81 0v674h394l-6 -91h-289v-191h254v-92h-254v-209h287v-91h-386zM144 815v6q0 58 55 58q57 0 57 -58v-6q0 -57 -57 -57q-55 0 -55 57zM315 815v6q0 58 55 58q56 0 56 -58v-6q0 -57 -56 -57q-55 0 -55 57z" />
<glyph unicode="&#xcc;" horiz-adv-x="266" d="M-23 831l48 76l204 -127l-35 -59zM84 0v674h98v-674h-98z" />
<glyph unicode="&#xcd;" horiz-adv-x="266" d="M36 780l203 127l49 -76l-217 -110zM84 0v674h98v-674h-98z" />
<glyph unicode="&#xce;" horiz-adv-x="266" d="M-21 782l126 130h58l125 -130l-50 -44l-101 96h-6l-102 -96zM84 0v674h98v-674h-98z" />
<glyph unicode="&#xcf;" horiz-adv-x="266" d="M-7 815v6q0 58 55 58q57 0 57 -58v-6q0 -57 -57 -57q-55 0 -55 57zM84 0v674h98v-674h-98zM164 815v6q0 58 55 58q56 0 56 -58v-6q0 -57 -56 -57q-55 0 -55 57z" />
<glyph unicode="&#xd0;" horiz-adv-x="631" d="M12 297v86h69v291h161q89 0 149 -14.5t104.5 -51.5t65 -102t20.5 -164q0 -205 -101 -287q-38 -31 -97.5 -43t-150.5 -12h-151v297h-69zM180 91h46q9 0 26 0.5t25 0.5q114 4 157 60.5t43 188.5q0 129 -44.5 185.5t-173.5 56.5h-79v-200h126v-86h-126v-206z" />
<glyph unicode="&#xd1;" horiz-adv-x="678" d="M81 0v674h86l338 -492h1v492h92v-674h-79l-346 500h-1v-500h-91zM171 802q19 42 49.5 64t61.5 22q33 0 63 -20l14 -11q27 -21 47 -21q32 0 53 43l46 -46q-15 -33 -41.5 -53t-58.5 -20q-40 0 -69 22l-15 11q-20 15 -38 15q-32 0 -60 -50z" />
<glyph unicode="&#xd2;" horiz-adv-x="630" d="M50 334v8q0 348 265 348t265 -348v-8q0 -350 -265 -350t-265 350zM153 338q0 -131 37.5 -196t124.5 -65q88 0 124.5 64.5t36.5 195.5t-37 196t-124 65t-124.5 -65t-37.5 -195zM183 831l48 76l204 -127l-35 -59z" />
<glyph unicode="&#xd3;" horiz-adv-x="630" d="M50 334v8q0 348 265 348t265 -348v-8q0 -350 -265 -350t-265 350zM153 338q0 -131 37.5 -196t124.5 -65q88 0 124.5 64.5t36.5 195.5t-37 196t-124 65t-124.5 -65t-37.5 -195zM213 780l203 127l49 -76l-217 -110z" />
<glyph unicode="&#xd4;" horiz-adv-x="630" d="M50 334v8q0 348 265 348t265 -348v-8q0 -350 -265 -350t-265 350zM153 338q0 -131 37.5 -196t124.5 -65q88 0 124.5 64.5t36.5 195.5t-37 196t-124 65t-124.5 -65t-37.5 -195zM163 782l126 130h58l125 -130l-50 -44l-101 96h-6l-102 -96z" />
<glyph unicode="&#xd5;" horiz-adv-x="630" d="M50 334v8q0 348 265 348t265 -348v-8q0 -350 -265 -350t-265 350zM149 802q19 42 49.5 64t61.5 22q33 0 63 -20l14 -11q27 -21 47 -21q32 0 53 43l46 -46q-15 -33 -41.5 -53t-58.5 -20q-40 0 -69 22l-15 11q-20 15 -38 15q-32 0 -60 -50zM153 338q0 -131 37.5 -196 t124.5 -65q88 0 124.5 64.5t36.5 195.5t-37 196t-124 65t-124.5 -65t-37.5 -195z" />
<glyph unicode="&#xd6;" horiz-adv-x="630" d="M50 334v8q0 348 265 348t265 -348v-8q0 -350 -265 -350t-265 350zM153 338q0 -131 37.5 -196t124.5 -65q88 0 124.5 64.5t36.5 195.5t-37 196t-124 65t-124.5 -65t-37.5 -195zM175 815v6q0 58 55 58q57 0 57 -58v-6q0 -57 -57 -57q-55 0 -55 57zM346 815v6q0 58 55 58 q56 0 56 -58v-6q0 -57 -56 -57q-55 0 -55 57z" />
<glyph unicode="&#xd7;" d="M71 406l58 58l138 -138l136 136l54 -55l-136 -135l136 -136l-57 -59l-137 137l-136 -135l-54 55l136 135z" />
<glyph unicode="&#xd8;" horiz-adv-x="630" d="M50 334v8q0 348 265 348q74 0 127 -28l49 101l57 -27l-54 -112q86 -86 86 -282v-8q0 -350 -265 -350q-67 0 -120 24l-47 -98l-56 30l50 103q-92 86 -92 291zM153 338q0 -134 37 -196l210 433q-35 23 -85 23q-87 0 -124.5 -65t-37.5 -195zM237 95q31 -18 78 -18 q88 0 124.5 64.5t36.5 195.5q0 124 -31 186z" />
<glyph unicode="&#xd9;" horiz-adv-x="640" d="M78 248v426h99v-419q0 -93 31 -135.5t112 -42.5t112.5 42.5t31.5 135.5v419h99v-426q0 -134 -55.5 -199t-187.5 -65q-131 0 -186.5 65t-55.5 199zM184 831l48 76l204 -127l-35 -59z" />
<glyph unicode="&#xda;" horiz-adv-x="640" d="M78 248v426h99v-419q0 -93 31 -135.5t112 -42.5t112.5 42.5t31.5 135.5v419h99v-426q0 -134 -55.5 -199t-187.5 -65q-131 0 -186.5 65t-55.5 199zM225 780l203 127l49 -76l-217 -110z" />
<glyph unicode="&#xdb;" horiz-adv-x="640" d="M78 248v426h99v-419q0 -93 31 -135.5t112 -42.5t112.5 42.5t31.5 135.5v419h99v-426q0 -134 -55.5 -199t-187.5 -65q-131 0 -186.5 65t-55.5 199zM169 782l126 130h58l125 -130l-50 -44l-101 96h-6l-102 -96z" />
<glyph unicode="&#xdc;" horiz-adv-x="640" d="M78 248v426h99v-419q0 -93 31 -135.5t112 -42.5t112.5 42.5t31.5 135.5v419h99v-426q0 -134 -55.5 -199t-187.5 -65q-131 0 -186.5 65t-55.5 199zM180 815v6q0 58 55 58q57 0 57 -58v-6q0 -57 -57 -57q-55 0 -55 57zM351 815v6q0 58 55 58q56 0 56 -58v-6q0 -57 -56 -57 q-55 0 -55 57z" />
<glyph unicode="&#xdd;" horiz-adv-x="533" d="M22 674h105q71 -218 138 -352h3q67 134 138 352h105q-75 -228 -195 -451v-223h-99v223q-120 223 -195 451zM179 780l203 127l49 -76l-217 -110z" />
<glyph unicode="&#xde;" horiz-adv-x="542" d="M81 0v674h98v-110h53q63 0 107.5 -8.5t83.5 -30.5t59 -66t20 -110q0 -110 -62.5 -164.5t-178.5 -54.5h-82v-130h-98zM179 222h40q41 0 62 1t47.5 7.5t38.5 19.5t21 37.5t9 61.5q0 65 -36.5 93.5t-112.5 28.5h-69v-249z" />
<glyph unicode="&#xdf;" horiz-adv-x="541" d="M62 -151v825q90 29 181 29q94 0 154 -44.5t60 -131.5q0 -51 -24.5 -94.5t-66.5 -59.5v-3q63 -15 97 -63.5t34 -106.5q0 -105 -63 -160t-173 -55q-25 0 -47 3l3 79q14 -2 35 -2q150 0 150 133q0 63 -42.5 95.5t-114.5 32.5v74q119 5 119 117q0 53 -33.5 79t-88.5 26 q-50 0 -90 -14v-759h-90z" />
<glyph unicode="&#xe0;" horiz-adv-x="497" d="M38 129q0 179 274 179h25v19q0 56 -25 77q-24 20 -81 20q-66 0 -146 -32l-14 75q86 34 172 34q95 0 140 -38t45 -132v-244q0 -26 6.5 -34.5t28.5 -8.5v-53q-17 -7 -48 -7q-63 0 -72 60q-60 -60 -153 -60q-66 0 -109 38.5t-43 106.5zM118 655l48 75l204 -127l-35 -59z M133 138q0 -35 21 -56.5t62 -21.5q35 0 68 15.5t53 38.5v125h-15q-39 0 -68 -3.5t-59 -13t-46 -31t-16 -53.5z" />
<glyph unicode="&#xe1;" horiz-adv-x="497" d="M38 129q0 179 274 179h25v19q0 56 -25 77q-24 20 -81 20q-66 0 -146 -32l-14 75q86 34 172 34q95 0 140 -38t45 -132v-244q0 -26 6.5 -34.5t28.5 -8.5v-53q-17 -7 -48 -7q-63 0 -72 60q-60 -60 -153 -60q-66 0 -109 38.5t-43 106.5zM133 138q0 -35 21 -56.5t62 -21.5 q35 0 68 15.5t53 38.5v125h-15q-39 0 -68 -3.5t-59 -13t-46 -31t-16 -53.5zM147 603l202 127l49 -75l-217 -111z" />
<glyph unicode="&#xe2;" horiz-adv-x="497" d="M38 129q0 179 274 179h25v19q0 56 -25 77q-24 20 -81 20q-66 0 -146 -32l-14 75q86 34 172 34q95 0 140 -38t45 -132v-244q0 -26 6.5 -34.5t28.5 -8.5v-53q-17 -7 -48 -7q-63 0 -72 60q-60 -60 -153 -60q-66 0 -109 38.5t-43 106.5zM97 605l126 130h58l125 -130l-50 -43 l-101 95h-6l-102 -95zM133 138q0 -35 21 -56.5t62 -21.5q35 0 68 15.5t53 38.5v125h-15q-39 0 -68 -3.5t-59 -13t-46 -31t-16 -53.5z" />
<glyph unicode="&#xe3;" horiz-adv-x="497" d="M38 129q0 179 274 179h25v19q0 56 -25 77q-24 20 -81 20q-66 0 -146 -32l-14 75q86 34 172 34q95 0 140 -38t45 -132v-244q0 -26 6.5 -34.5t28.5 -8.5v-53q-17 -7 -48 -7q-63 0 -72 60q-60 -60 -153 -60q-66 0 -109 38.5t-43 106.5zM86 625q19 42 49.5 64t61.5 22 q33 0 63 -20l14 -11q27 -21 47 -21q32 0 53 43l46 -46q-15 -33 -41.5 -53t-58.5 -20q-40 0 -69 22l-15 11q-20 15 -38 15q-32 0 -60 -50zM133 138q0 -35 21 -56.5t62 -21.5q35 0 68 15.5t53 38.5v125h-15q-39 0 -68 -3.5t-59 -13t-46 -31t-16 -53.5z" />
<glyph unicode="&#xe4;" horiz-adv-x="497" d="M38 129q0 179 274 179h25v19q0 56 -25 77q-24 20 -81 20q-66 0 -146 -32l-14 75q86 34 172 34q95 0 140 -38t45 -132v-244q0 -26 6.5 -34.5t28.5 -8.5v-53q-17 -7 -48 -7q-63 0 -72 60q-60 -60 -153 -60q-66 0 -109 38.5t-43 106.5zM109 638v6q0 58 55 58q57 0 57 -58v-6 q0 -57 -57 -57q-55 0 -55 57zM133 138q0 -35 21 -56.5t62 -21.5q35 0 68 15.5t53 38.5v125h-15q-39 0 -68 -3.5t-59 -13t-46 -31t-16 -53.5zM280 638v6q0 58 55 58q56 0 56 -58v-6q0 -57 -56 -57q-55 0 -55 57z" />
<glyph unicode="&#xe5;" horiz-adv-x="497" d="M38 129q0 179 274 179h25v19q0 56 -25 77q-24 20 -81 20q-66 0 -146 -32l-14 75q86 34 172 34q95 0 140 -38t45 -132v-244q0 -26 6.5 -34.5t28.5 -8.5v-53q-17 -7 -48 -7q-63 0 -72 60q-60 -60 -153 -60q-66 0 -109 38.5t-43 106.5zM133 138q0 -35 21 -56.5t62 -21.5 q35 0 68 15.5t53 38.5v125h-15q-39 0 -68 -3.5t-59 -13t-46 -31t-16 -53.5zM155 661q0 40 28.5 68t68.5 28t68 -28t28 -68q0 -41 -28 -69t-68 -28q-41 0 -69 28t-28 69zM214 661q0 -18 10 -29t28 -11q16 0 26.5 11.5t10.5 28.5q0 16 -10.5 27t-26.5 11q-17 0 -27.5 -11 t-10.5 -27z" />
<glyph unicode="&#xe6;" horiz-adv-x="806" d="M38 130q0 178 274 178h27v21q0 95 -108 95q-66 0 -146 -32l-14 75q86 34 172 34q121 0 157 -78h1q54 78 159 78q203 0 203 -260q0 -24 -1 -36h-324q11 -143 142 -143q80 0 145 28l8 -74q-67 -32 -155 -32q-132 0 -190 80q-77 -80 -186 -80q-75 0 -119.5 38t-44.5 108z M133 138q0 -35 21.5 -57t62.5 -22q40 0 77.5 18.5t60.5 49.5q-15 44 -15 112h-18q-39 0 -68 -3.5t-59 -13t-46 -31t-16 -53.5zM437 273h232q-5 151 -110 151q-60 0 -90 -42t-32 -109z" />
<glyph unicode="&#xe7;" horiz-adv-x="450" d="M43 239v4q0 127 62 192.5t170 65.5q80 0 139 -32l-9 -80q-56 33 -121 33q-146 0 -146 -182q0 -91 34.5 -134t108.5 -43q63 0 124 27l8 -76q-58 -27 -131 -30l-9 -43q99 -5 99 -87q0 -48 -31.5 -74t-86.5 -26q-54 0 -93 17l16 54q36 -12 70 -12q53 0 53 37t-54 38 q-14 0 -44 -2l-7 7l23 95q-76 12 -118 60q-57 64 -57 191z" />
<glyph unicode="&#xe8;" horiz-adv-x="507" d="M43 240v2q0 113 55 186t163 73q203 0 203 -260q0 -24 -1 -36h-324q11 -143 142 -143q80 0 145 28l8 -74q-67 -32 -155 -32q-236 0 -236 256zM127 655l48 75l204 -127l-35 -59zM138 273h232q-5 151 -110 151q-60 0 -90 -42t-32 -109z" />
<glyph unicode="&#xe9;" horiz-adv-x="507" d="M43 240v2q0 113 55 186t163 73q203 0 203 -260q0 -24 -1 -36h-324q11 -143 142 -143q80 0 145 28l8 -74q-67 -32 -155 -32q-236 0 -236 256zM138 273h232q-5 151 -110 151q-60 0 -90 -42t-32 -109zM170 603l202 127l49 -75l-217 -111z" />
<glyph unicode="&#xea;" horiz-adv-x="507" d="M43 240v2q0 113 55 186t163 73q203 0 203 -260q0 -24 -1 -36h-324q11 -143 142 -143q80 0 145 28l8 -74q-67 -32 -155 -32q-236 0 -236 256zM107 604l126 130h58l125 -130l-50 -43l-101 95h-6l-102 -95zM138 273h232q-5 151 -110 151q-60 0 -90 -42t-32 -109z" />
<glyph unicode="&#xeb;" horiz-adv-x="507" d="M43 240v2q0 113 55 186t163 73q203 0 203 -260q0 -24 -1 -36h-324q11 -143 142 -143q80 0 145 28l8 -74q-67 -32 -155 -32q-236 0 -236 256zM121 638v6q0 58 55 58q57 0 57 -58v-6q0 -57 -57 -57q-55 0 -55 57zM138 273h232q-5 151 -110 151q-60 0 -90 -42t-32 -109z M292 638v6q0 58 55 58q56 0 56 -58v-6q0 -57 -56 -57q-55 0 -55 57z" />
<glyph unicode="&#xec;" horiz-adv-x="226" d="M-53 655l48 75l204 -127l-35 -59zM68 0v485h90v-485h-90z" />
<glyph unicode="&#xed;" horiz-adv-x="226" d="M29 603l202 127l49 -75l-217 -111zM68 0v485h90v-485h-90z" />
<glyph unicode="&#xee;" horiz-adv-x="226" d="M-41 604l126 130h58l125 -130l-50 -43l-101 95h-6l-102 -95zM68 0v485h90v-485h-90z" />
<glyph unicode="&#xef;" horiz-adv-x="226" d="M-28 638v6q0 58 55 58q57 0 57 -58v-6q0 -57 -57 -57q-55 0 -55 57zM68 0v485h90v-485h-90zM143 638v6q0 58 55 58q56 0 56 -58v-6q0 -57 -56 -57q-55 0 -55 57z" />
<glyph unicode="&#xf0;" horiz-adv-x="513" d="M43 244q0 118 53.5 183t142.5 65q60 0 108 -34q-26 87 -103 131l-69 -56l-34 39l54 45q-36 17 -85 31l68 45q47 -13 82 -29l64 51l35 -40l-49 -38q84 -57 123.5 -143.5t39.5 -217.5q0 -140 -53.5 -216t-162.5 -76q-97 0 -155.5 68t-58.5 192zM141 246q0 -87 31.5 -133 t85.5 -46q59 0 87.5 48t28.5 154q0 62 -8 105q-50 35 -105 35q-120 0 -120 -163z" />
<glyph unicode="&#xf1;" horiz-adv-x="537" d="M62 0v485h79l7 -56q70 72 170 72q78 0 117 -41q41 -41 41 -145v-315h-91v301q0 66 -21 91q-22 24 -71 24q-36 0 -74.5 -17.5t-65.5 -47.5v-351h-91zM108 624q19 42 49.5 64t61.5 22q33 0 63 -20l14 -11q27 -21 47 -21q32 0 53 43l46 -46q-15 -33 -41.5 -53t-58.5 -20 q-40 0 -69 22l-15 11q-20 15 -38 15q-32 0 -60 -50z" />
<glyph unicode="&#xf2;" horiz-adv-x="533" d="M43 241v3q0 124 56 190.5t167 66.5t167.5 -66t56.5 -190v-4q0 -125 -56.5 -191t-167.5 -66t-167 66.5t-56 190.5zM134 655l48 75l204 -127l-35 -59zM138 242q0 -181 129 -181q66 0 97 44.5t31 136.5q0 93 -31 137.5t-97 44.5q-129 0 -129 -182z" />
<glyph unicode="&#xf3;" horiz-adv-x="533" d="M43 241v3q0 124 56 190.5t167 66.5t167.5 -66t56.5 -190v-4q0 -125 -56.5 -191t-167.5 -66t-167 66.5t-56 190.5zM138 242q0 -181 129 -181q66 0 97 44.5t31 136.5q0 93 -31 137.5t-97 44.5q-129 0 -129 -182zM169 603l202 127l49 -75l-217 -111z" />
<glyph unicode="&#xf4;" horiz-adv-x="533" d="M43 241v3q0 124 56 190.5t167 66.5t167.5 -66t56.5 -190v-4q0 -125 -56.5 -191t-167.5 -66t-167 66.5t-56 190.5zM114 604l126 130h58l125 -130l-50 -43l-101 95h-6l-102 -95zM138 242q0 -181 129 -181q66 0 97 44.5t31 136.5q0 93 -31 137.5t-97 44.5q-129 0 -129 -182z " />
<glyph unicode="&#xf5;" horiz-adv-x="533" d="M43 241v3q0 124 56 190.5t167 66.5t167.5 -66t56.5 -190v-4q0 -125 -56.5 -191t-167.5 -66t-167 66.5t-56 190.5zM101 624q19 42 49.5 64t61.5 22q33 0 63 -20l14 -11q27 -21 47 -21q32 0 53 43l46 -46q-15 -33 -41.5 -53t-58.5 -20q-40 0 -69 22l-15 11q-20 15 -38 15 q-32 0 -60 -50zM138 242q0 -181 129 -181q66 0 97 44.5t31 136.5q0 93 -31 137.5t-97 44.5q-129 0 -129 -182z" />
<glyph unicode="&#xf6;" horiz-adv-x="533" d="M43 241v3q0 124 56 190.5t167 66.5t167.5 -66t56.5 -190v-4q0 -125 -56.5 -191t-167.5 -66t-167 66.5t-56 190.5zM127 638v6q0 58 55 58q57 0 57 -58v-6q0 -57 -57 -57q-55 0 -55 57zM138 242q0 -181 129 -181q66 0 97 44.5t31 136.5q0 93 -31 137.5t-97 44.5 q-129 0 -129 -182zM298 638v6q0 58 55 58q56 0 56 -58v-6q0 -57 -56 -57q-55 0 -55 57z" />
<glyph unicode="&#xf7;" d="M66 228v82h394v-82h-394zM209 96v11q0 60 55 60q54 0 54 -60v-11q0 -60 -54 -60q-55 0 -55 60zM209 433v10q0 60 55 60q54 0 54 -60v-10q0 -61 -54 -61q-55 0 -55 61z" />
<glyph unicode="&#xf8;" horiz-adv-x="533" d="M43 241v3q0 124 56 190.5t167 66.5q58 0 100 -18l48 88l53 -26l-51 -93q74 -65 74 -207v-4q0 -125 -56.5 -191t-167.5 -66q-51 0 -96 16l-42 -78l-50 29l42 78q-77 64 -77 212zM138 242q0 -85 27 -130l162 299q-28 13 -60 13q-129 0 -129 -182zM209 72q22 -11 58 -11 q66 0 97 44.5t31 136.5q0 82 -25 126z" />
<glyph unicode="&#xf9;" horiz-adv-x="518" d="M58 200v285h91v-273q0 -69 10 -98q19 -53 100 -53t100 53q10 29 10 98v273h91v-285q0 -119 -45 -167.5t-156 -48.5q-110 0 -155.5 49t-45.5 167zM122 655l48 75l204 -127l-35 -59z" />
<glyph unicode="&#xfa;" horiz-adv-x="518" d="M58 200v285h91v-273q0 -69 10 -98q19 -53 100 -53t100 53q10 29 10 98v273h91v-285q0 -119 -45 -167.5t-156 -48.5q-110 0 -155.5 49t-45.5 167zM162 603l202 127l49 -75l-217 -111z" />
<glyph unicode="&#xfb;" horiz-adv-x="518" d="M58 200v285h91v-273q0 -69 10 -98q19 -53 100 -53t100 53q10 29 10 98v273h91v-285q0 -119 -45 -167.5t-156 -48.5q-110 0 -155.5 49t-45.5 167zM107 604l126 130h58l125 -130l-50 -43l-101 95h-6l-102 -95z" />
<glyph unicode="&#xfc;" horiz-adv-x="518" d="M58 200v285h91v-273q0 -69 10 -98q19 -53 100 -53t100 53q10 29 10 98v273h91v-285q0 -119 -45 -167.5t-156 -48.5q-110 0 -155.5 49t-45.5 167zM118 638v6q0 58 55 58q57 0 57 -58v-6q0 -57 -57 -57q-55 0 -55 57zM289 638v6q0 58 55 58q56 0 56 -58v-6q0 -57 -56 -57 q-55 0 -55 57z" />
<glyph unicode="&#xfd;" horiz-adv-x="525" d="M61 188v297h91v-285q0 -63 22.5 -91.5t75.5 -28.5q67 0 122 39v366h91v-355q0 -70 -1 -103q-3 -117 -59 -177t-186 -60q-30 0 -70 7l6 70q30 -4 54 -4q83 0 124 33t41 118v26q-64 -45 -145 -45q-166 0 -166 193zM169 603l202 127l49 -75l-217 -111z" />
<glyph unicode="&#xfe;" horiz-adv-x="535" d="M62 -194v881h91v-242q66 56 144 56q91 0 143 -65t52 -181v-6q0 -119 -54.5 -192t-157.5 -73q-68 0 -127 37v-215h-91zM153 100q49 -33 105 -33q140 0 140 177q0 31 -5 58.5t-17.5 54.5t-37.5 43t-61 16q-71 0 -124 -55v-261z" />
<glyph unicode="&#xff;" horiz-adv-x="525" d="M61 188v297h91v-285q0 -63 22.5 -91.5t75.5 -28.5q67 0 122 39v366h91v-355q0 -70 -1 -103q-3 -117 -59 -177t-186 -60q-30 0 -70 7l6 70q30 -4 54 -4q83 0 124 33t41 118v26q-64 -45 -145 -45q-166 0 -166 193zM127 638v6q0 58 55 58q57 0 57 -58v-6q0 -57 -57 -57 q-55 0 -55 57zM298 638v6q0 58 55 58q56 0 56 -58v-6q0 -57 -56 -57q-55 0 -55 57z" />
<glyph unicode="&#x152;" horiz-adv-x="857" d="M50 333v8q0 159 59 254t182 95q79 0 135 -49v33h386l-6 -91h-289v-191h254v-92h-254v-209h287v-91h-378v40q-20 -26 -56 -41t-78 -15q-124 0 -183 93.5t-59 255.5zM153 338q0 -130 37 -195.5t120 -65.5q71 0 108 45v435q-48 43 -110 43q-155 0 -155 -262z" />
<glyph unicode="&#x153;" horiz-adv-x="859" d="M43 241v3q0 124 56 190.5t167 66.5q123 0 176 -94q53 94 171 94q203 0 203 -260q0 -24 -1 -36h-324q11 -143 142 -143q80 0 145 28l8 -74q-67 -32 -155 -32q-135 0 -189 91q-56 -91 -176 -91q-111 0 -167 66.5t-56 190.5zM138 242q0 -92 31.5 -137t97.5 -45 q128 0 128 176q0 96 -30 142.5t-98 46.5q-66 0 -97.5 -45t-31.5 -138zM490 273h232q-5 151 -110 151q-60 0 -90 -42t-32 -109z" />
<glyph unicode="&#x178;" horiz-adv-x="533" d="M22 674h105q71 -218 138 -352h3q67 134 138 352h105q-75 -228 -195 -451v-223h-99v223q-120 223 -195 451zM125 815v6q0 58 55 58q57 0 57 -58v-6q0 -57 -57 -57q-55 0 -55 57zM296 815v6q0 58 55 58q56 0 56 -58v-6q0 -57 -56 -57q-55 0 -55 57z" />
<glyph unicode="&#x2c6;" horiz-adv-x="348" d="M20 604l126 130h58l125 -130l-50 -43l-101 95h-6l-102 -95z" />
<glyph unicode="&#x2dc;" horiz-adv-x="348" d="M6 624q19 42 49.5 64t61.5 22q33 0 63 -20l14 -11q27 -21 47 -21q32 0 53 43l46 -46q-15 -33 -41.5 -53t-58.5 -20q-40 0 -69 22l-15 11q-20 15 -38 15q-32 0 -60 -50z" />
<glyph unicode="&#x2000;" horiz-adv-x="464" />
<glyph unicode="&#x2001;" horiz-adv-x="928" />
<glyph unicode="&#x2002;" horiz-adv-x="464" />
<glyph unicode="&#x2003;" horiz-adv-x="928" />
<glyph unicode="&#x2004;" horiz-adv-x="309" />
<glyph unicode="&#x2005;" horiz-adv-x="232" />
<glyph unicode="&#x2006;" horiz-adv-x="154" />
<glyph unicode="&#x2007;" horiz-adv-x="154" />
<glyph unicode="&#x2008;" horiz-adv-x="116" />
<glyph unicode="&#x2009;" horiz-adv-x="185" />
<glyph unicode="&#x200a;" horiz-adv-x="51" />
<glyph unicode="&#x2010;" horiz-adv-x="287" d="M45 208v82h198v-82h-198z" />
<glyph unicode="&#x2011;" horiz-adv-x="287" d="M45 208v82h198v-82h-198z" />
<glyph unicode="&#x2012;" horiz-adv-x="287" d="M45 208v82h198v-82h-198z" />
<glyph unicode="&#x2013;" horiz-adv-x="500" d="M0 208v82h500v-82h-500z" />
<glyph unicode="&#x2014;" horiz-adv-x="1000" d="M0 208v82h1000v-82h-1000z" />
<glyph unicode="&#x2018;" horiz-adv-x="217" d="M42 539q0 76 78 227l59 -21q-39 -77 -58 -137q45 -8 45 -68v-6q0 -69 -62 -69q-33 0 -47.5 17.5t-14.5 56.5z" />
<glyph unicode="&#x2019;" horiz-adv-x="217" d="M38 486q38 77 58 137q-45 8 -45 68v6q0 69 62 69q33 0 47.5 -17.5t14.5 -56.5q0 -76 -78 -227z" />
<glyph unicode="&#x201a;" horiz-adv-x="217" d="M38 -158q38 77 58 137q-45 8 -45 68v6q0 69 62 69q33 0 47.5 -17.5t14.5 -56.5q0 -76 -78 -227z" />
<glyph unicode="&#x201c;" horiz-adv-x="413" d="M42 539q0 76 78 227l59 -21q-39 -77 -58 -137q45 -8 45 -68v-6q0 -69 -62 -69q-33 0 -47.5 17.5t-14.5 56.5zM238 539q0 76 78 227l59 -21q-39 -77 -58 -137q45 -8 45 -68v-6q0 -69 -62 -69q-33 0 -47.5 17.5t-14.5 56.5z" />
<glyph unicode="&#x201d;" horiz-adv-x="413" d="M38 486q38 77 58 137q-45 8 -45 68v6q0 69 62 69q33 0 47.5 -17.5t14.5 -56.5q0 -76 -78 -227zM234 486q38 77 58 137q-45 8 -45 68v6q0 69 62 69q33 0 47.5 -17.5t14.5 -56.5q0 -76 -78 -227z" />
<glyph unicode="&#x201e;" horiz-adv-x="413" d="M38 -158q38 77 58 137q-45 8 -45 68v6q0 69 62 69q33 0 47.5 -17.5t14.5 -56.5q0 -76 -78 -227zM234 -158q38 77 58 137q-45 8 -45 68v6q0 69 62 69q33 0 47.5 -17.5t14.5 -56.5q0 -76 -78 -227z" />
<glyph unicode="&#x2022;" horiz-adv-x="360" d="M55 244v14q0 65 29 99t98 34q68 0 95.5 -33.5t27.5 -99.5v-14q0 -66 -27.5 -99t-95.5 -33q-69 0 -98 33.5t-29 98.5z" />
<glyph unicode="&#x2026;" horiz-adv-x="666" d="M52 48v11q0 63 60 63q58 0 58 -63v-11q0 -64 -58 -64q-60 0 -60 64zM274 48v11q0 63 60 63q58 0 58 -63v-11q0 -64 -58 -64q-60 0 -60 64zM496 48v11q0 63 60 63q58 0 58 -63v-11q0 -64 -58 -64q-60 0 -60 64z" />
<glyph unicode="&#x202f;" horiz-adv-x="185" />
<glyph unicode="&#x2039;" horiz-adv-x="337" d="M49 243l171 239l68 -44l-140 -195l139 -195l-67 -43z" />
<glyph unicode="&#x203a;" horiz-adv-x="336" d="M49 48l140 195l-140 195l68 44l170 -239l-170 -238z" />
<glyph unicode="&#x205f;" horiz-adv-x="232" />
<glyph unicode="&#x20ac;" d="M14 211l9 76h63q-1 15 -1 39q0 20 1 30h-67l8 76h65q34 258 264 258q82 0 153 -37l-15 -94q-62 34 -132 34q-71 0 -111 -38t-52 -123h175l-10 -76h-174q-1 -8 -1 -29q0 -26 2 -40h172l-10 -76h-151q12 -71 50 -101.5t107 -30.5q77 0 137 33l12 -91q-67 -37 -155 -37 q-116 0 -179 56t-81 171h-79z" />
<glyph unicode="&#x2122;" horiz-adv-x="663" d="M27 650v61h236l-3 -61h-81v-256h-71v256h-81zM290 394q6 166 17 317h73l79 -196q71 184 76 196h74q11 -145 17 -317h-67q-1 77 -7 208q-10 -29 -36 -93l-33 -82h-49q-48 111 -70 172q-4 -60 -8 -205h-66z" />
<glyph unicode="&#x25fc;" horiz-adv-x="485" d="M0 485h485v-485h-485v485z" />
</font>
</defs>
</svg>
