<svg xmlns="http://www.w3.org/2000/svg" width="16" height="16" viewBox="0 0 16 16">
    <g fill="none" fill-rule="evenodd">
        <g fill="#ED8C00">
            <g>
                <g>
                    <g>
                        <g>
                            <path d="M4.94.542c.3-.532.941-.7 1.435-.38l1.788 1.162c.493.32.651 1.01.353 1.54L4.963 9.173c-.302.536-.946.697-1.435.38L1.844 8.458l-.686 3.22L2.5 10.6l.002-.002c.118-.1.226-.197.367-.183.217.02.773.27.81.322.015.023.044.078.024.094l-1.027.834-.003-.003-1.956 1.576c-.33.265-.798-.054-.705-.492 0 0 .932-4.895 1.06-5.266.128-.371 1.236-2.263 1.37-2.502zm.971.443c-.074-.048-.164-.018-.205.054-.37.656-2.985 5.505-3.36 6.172-.048.083-.132.258-.16.322l-.01.018v.003C2.83 7.975 3.99 8.73 3.99 8.73c.07.045.162.022.205-.055L7.75 2.366c.043-.075.02-.174-.05-.22z" transform="translate(-635 -989) translate(96 549) translate(453 428) translate(86 12) translate(4 1.333)"/>
                        </g>
                    </g>
                </g>
            </g>
        </g>
    </g>
</svg>
