<svg xmlns="http://www.w3.org/2000/svg" width="12" height="12" viewBox="0 0 12 12">
    <path fill="#66728A" fill-rule="evenodd" d="M10.286 6.576c.148.007.235-.023.21.288-.21 1.093-.632 1.748-1.336 2.39-1.655 1.513-4.326 1.352-5.953-.357l-.567-.595-.044.694-.094 1.476c-.002.029-.071.03-.102.027-.071-.008-.658-.424-.819-.63-.12-.152-.075-.344-.062-.548l.028-.443.118-1.845c.017-.262.232-.46.5-.457l1.963.013.454.004c.209.001.406-.028.554.1.198.17.58.773.583.843.002.03-.004.098-.033.097l-1.51-.01s-.383.002-.673.01c.126.19.454.58.454.58 1.116 1.24 3.225 1.402 4.466.268.434-.396.759-.787.93-1.356l.094-.297c.043-.14.038-.242.17-.252.352-.002.395 0 .67 0zM9.6 1.5c.071.008.658.424.819.63.12.152.075.344.062.548l-.028.443-.118 1.845c-.017.262-.232.46-.5.457l-1.963-.013-.454-.004c-.209-.001-.406.028-.554-.1-.198-.17-.58-.773-.583-.843-.002-.03.004-.098.033-.097l1.51.01s.383-.002.673-.01c-.126-.19-.454-.58-.454-.58-1.116-1.24-3.225-1.402-4.466-.268-.434.396-.759.787-.93 1.356l-.094.297c-.043.14-.038.242-.17.252-.352.002-.395 0-.67 0-.147-.007-.234.023-.209-.288.21-1.093.632-1.748 1.336-2.39 1.655-1.513 4.326-1.352 5.953.357l.567.595.044-.694.094-1.476c.002-.029.071-.03.102-.027z"/>
</svg>
