<svg xmlns="http://www.w3.org/2000/svg" width="24" height="20" viewBox="0 0 24 20">
    <path fill="#F9B112" fill-rule="evenodd" d="M11.746.12c.477-.277 1.09-.116 1.368.36l10.509 18.016c.089.153.136.327.136.504 0 .552-.448 1-1 1H1.741c-.177 0-.35-.047-.504-.136-.477-.279-.638-.89-.36-1.368L11.387.481c.086-.15.21-.273.36-.36zm.504 14.63c-.695 0-1.25.56-1.25 1.25l.006.129c.064.633.597 1.121 1.244 1.121l.129-.006c.633-.064 1.121-.597 1.121-1.244l-.006-.129c-.064-.633-.597-1.121-1.244-1.121zm0-7.75c-.556 0-1 .444-1 .99v4.02c0 .539.448.99 1 .99l.117-.007c.5-.057.883-.476.883-.984V7.991c0-.54-.448-.991-1-.991z"/>
</svg>
