<svg xmlns="http://www.w3.org/2000/svg" width="24" height="24" viewBox="0 0 24 24">
    <path id="Icon" fill-rule="evenodd" d="M14.752 4.451c.303 0 .55.243.55.542 0 .298-.247.534-.55.534-.303 0-.55-.236-.55-.534 0-.299.247-.542.55-.542zm-5.504 0c.303 0 .55.243.55.542 0 .298-.247.534-.55.534-.303 0-.55-.236-.55-.534 0-.299.247-.542.55-.542zm8.584 3.615v8.643c0 .429-.527.99-.963.99H15.5v2.947c0 .75-.562 1.354-1.253 1.354-.691 0-1.246-.604-1.246-1.354v-2.947h-2.003v2.947c0 .75-.555 1.354-1.246 1.354-.69 0-1.246-.604-1.246-1.354v-2.947H7.13c-.436 0-.962-.561-.962-.99V8.066h11.665zm-13.585-.18c.69 0 1.247.606 1.247 1.354v5.128c0 .747-.558 1.354-1.247 1.354-.689 0-1.247-.607-1.247-1.354V9.24c0-.702.49-1.279 1.12-1.348l.127-.007zm15.506 0c.689 0 1.247.606 1.247 1.354v5.128c0 .747-.558 1.354-1.247 1.354-.689 0-1.247-.607-1.247-1.354V9.24c0-.702.49-1.279 1.12-1.348l.127-.007zM15.653 1l.05.016c.09.05.042.141.042.141l-.993 1.7c1.809.874 3.034 2.584 3.034 4.546H6.213c0-1.962 1.226-3.672 3.035-4.545l-.994-1.7s-.045-.092.045-.142c.09-.05.147.036.147.036l1.009 1.716c.768-.337 1.632-.527 2.545-.527s1.777.19 2.545.527l1.01-1.716s.059-.086.148-.036z"/>
</svg>
