<svg xmlns="http://www.w3.org/2000/svg" width="120" height="120" viewBox="0 0 120 120">
    <g fill="none" fill-rule="evenodd">
        <path fill="#000" fill-opacity=".2" d="M91.573 83.647c-3.099-1.748-22.412-3.094-45.787-3.094C22.41 80.553 3.1 81.899 0 83.647h91.573z" transform="translate(10.8 18)"/>
        <path fill="#F3F4F7" fill-rule="nonzero" d="M69.524 0.137L82.469 15.979 82.469 83.651 15.992 83.651 15.992 0.137z" transform="translate(10.8 18)"/>
        <path fill="#D4D9E3" fill-rule="nonzero" d="M69.563 0.247L82.492 16.089 69.563 16.089z" transform="translate(10.8 18)"/>
        <path fill="#ADB5C5" d="M46.726 41.013L72.507 41.013 72.507 38.435 46.726 38.435zM46.726 56.482L72.507 56.482 72.507 53.904 46.726 53.904zM46.726 71.951L72.507 71.951 72.507 69.372 46.726 69.372z" transform="translate(10.8 18)"/>
        <path fill="#66728A" d="M40.219 18.3v-2.38h2.79c1.341-3.309 4.648-5.492 8.54-5.492 3.099 0 5.236.96 6.922 3.044l-2.446 1.95c-1.101-1.421-2.41-2.115-4.475-2.115-2.17 0-3.893.96-4.856 2.612h5.991V18.3h-6.75c-.034.265-.034.562-.034.86 0 .298.034.597.034.893h6.75v2.382h-5.958c.964 1.654 2.686 2.614 4.823 2.614 2.34 0 3.65-.927 4.612-2.316l2.62 1.82c-1.654 2.347-3.858 3.406-7.232 3.406-3.893 0-7.165-2.216-8.508-5.524h-2.823v-2.382h2.238c-.035-.296-.035-.595-.035-.892 0-.299 0-.596.035-.86H40.22z" transform="translate(10.8 18)"/>
        <g>
            <path fill="#CA9E69" d="M0.453 10.945L13.468 10.945 13.468 0.209 2.404 0.209 0.453 1.168z" transform="translate(10.8 18) translate(25.266 64.447)"/>
            <path fill="#A67641" d="M0.316 10.945L2.452 10.945 2.452 0.209 0.316 0.8z" transform="translate(10.8 18) translate(25.266 64.447)"/>
        </g>
        <g>
            <path fill="#CA9E69" d="M0.453 5.773L13.468 5.773 13.468 0.194 2.404 0.194 0.453 1.153z" transform="translate(10.8 18) translate(25.266 51.162)"/>
            <path fill="#A67641" d="M0.316 5.773L2.452 5.773 2.452 0.194 0.316 0.785z" transform="translate(10.8 18) translate(25.266 51.162)"/>
        </g>
        <g>
            <path fill="#D4D9E3" style="mix-blend-mode:multiply" d="M12.52 9.029L2.287 10.905 0.838 2.974 11.071 1.097z" transform="translate(10.8 18) translate(26.297 34.217)"/>
            <path fill="#FFE48F" d="M12.004 7.998L1.771 9.874 0.322 1.942 10.556 0.066z" transform="translate(10.8 18) translate(26.297 34.217)"/>
        </g>
    </g>
</svg>
