<?xml version="1.0" encoding="UTF-8"?>
<svg width="24px" height="24px" viewBox="0 0 24 24" version="1.1" xmlns="http://www.w3.org/2000/svg" xmlns:xlink="http://www.w3.org/1999/xlink">
    <title>01A923C1-7F1A-461D-B766-A077302A8AF2</title>
    <g id="Icon" stroke="none" stroke-width="1"  fill-rule="evenodd">
        <g id="Iconography" transform="translate(-1524.000000, -1734.000000)" >
            <g id="Icon/Functional/ios" transform="translate(1524.000000, 1734.000000)">
                <path d="M14.8899435,5.03364758 C15.5761302,4.23050058 16.0380046,3.11244018 15.9120048,2 C14.922881,2.03843503 13.7268824,2.63732041 13.0173832,3.44004439 C12.3815714,4.15085063 11.8247596,5.288612 11.9749469,6.37899435 C13.0774456,6.46148462 14.2037568,5.83727804 14.8899435,5.03364758 M17.3626906,12.0941497 C17.3903156,14.9694643 19.9714375,15.926291 20,15.9384379 C19.978125,16.005941 19.587563,17.3020353 18.6401266,18.6407949 C17.8211276,19.7982573 16.9711286,20.9514289 15.6320676,20.9752997 C14.3163817,20.9987475 13.8933197,20.2208613 12.3890089,20.2208613 C10.8852607,20.2208613 10.4151987,20.9514289 9.1697002,20.9987475 C7.87720171,21.0460057 6.89295287,19.7471314 6.06714134,18.5938994 C4.37970581,16.2350403 3.09014483,11.9282023 4.8217053,9.02110021 C5.68189179,7.57736944 7.21913998,6.66314764 8.88763803,6.63976029 C10.1568865,6.6163125 11.3548226,7.46538815 12.1307592,7.46538815 C12.9061333,7.46538815 14.3619441,6.44432181 15.8923173,6.59425467 C16.5330041,6.62005931 18.3314395,6.84450536 19.4862506,8.47896088 C19.3932507,8.53474001 17.3403781,9.69026851 17.3626906,12.0941497" id="♣️-Icon"></path>
            </g>
        </g>
    </g>
</svg>
