<svg xmlns="http://www.w3.org/2000/svg" width="40" height="40" viewBox="0 0 40 40">
    <path fill="#F3F4F7" fill-rule="evenodd" d="M8.956.258c4.755 0 12.372 3.006 17.436 5.798 2.898 1.597 6.186 3.929 8.73 6.3 2.441 2.275 4.745 5.108 4.749 7.52-.004 2.272-1.848 4.937-4.818 7.659-2.52 2.309-5.794 4.58-8.661 6.16-4.893 2.698-12.35 5.848-17.266 5.848-1.335 0-2.432-.231-3.26-.687-2.176-1.2-3.571-4.432-4.396-7.6C.585 27.858.13 23.77.13 19.876c0-3.812.491-7.909 1.348-11.24C2.522 4.58 4.039 1.904 5.866.896 6.634.473 7.674.258 8.956.258zM38.29 19.876c-.006-3.263-6.136-8.914-12.666-12.514C18.092 3.208 9.52.759 6.695 2.316 3.474 4.09 1.71 12.957 1.71 19.876c.001 6.974 1.663 15.727 4.984 17.56 3.01 1.658 11.211-.79 18.931-5.047 6.634-3.657 12.66-9.092 12.666-12.513zm-22.377-4.521h-4.647c-.163 0-.3.136-.3.299v.585c0 .182.077.271.239.271h4.768c.162 0 .24-.089.24-.271v-.585c0-.163-.138-.3-.3-.3zm-3.987-3.834a.495.495 0 0 0-.112.014l-.026.006c-.17.04-.36.085-.56.146a9.44 9.44 0 0 0-.509.172c-.568.21-.538.634-.435 1.02.059.22.327.973.554 1.604l.094.262c.03.083.099.125.203.125h.632c.084 0 .125-.033.145-.06.031-.043.035-.102.012-.177-.154-.48-.677-1.94-.682-1.954a.182.182 0 0 1 .008-.132.109.109 0 0 1 .06-.058l.26-.086a.135.135 0 0 1 .035-.004c.026 0 .038.01.041.017.108.24.17.407.25.685.016.051.059.112.175.112h.512c.056 0 .098-.017.124-.05.025-.034.03-.08.015-.136a8.713 8.713 0 0 0-.458-1.279.365.365 0 0 0-.338-.227zm3.32 0a.362.362 0 0 0-.338.227 8.59 8.59 0 0 0-.458 1.278c-.015.056-.01.102.016.137.017.022.053.05.124.05h.511c.117 0 .16-.06.175-.112.083-.284.144-.45.25-.685.002-.002.01-.017.042-.017a.14.14 0 0 1 .036.004l.26.087c.03.01.049.037.058.057.02.04.022.092.008.133-.003.008-.525 1.467-.68 1.953-.025.075-.021.134.01.177.03.04.078.06.146.06h.632c.104 0 .172-.042.202-.124l.095-.263.014-.042c.19-.53.478-1.333.54-1.561.103-.387.132-.81-.435-1.021a9.44 9.44 0 0 0-.509-.172c-.2-.061-.392-.107-.56-.147l-.022-.004a.515.515 0 0 0-.117-.015zm-1.66-.178c-.116 0-.239.003-.365.009a.16.16 0 0 0-.118.049.247.247 0 0 0-.062.165l.031 2.41.01.708c0 .06.043.186.178.186h.654c.097 0 .165-.068.178-.178v-.009l.04-3.078v-.038a.247.247 0 0 0-.062-.167.163.163 0 0 0-.12-.048 7.645 7.645 0 0 0-.363-.01zm0-1.959a.156.156 0 0 0-.083.027 3.403 3.403 0 0 0-.643.633c-.054.062-.054.132.003.206.176.228.378.431.6.606a.202.202 0 0 0 .124.048.2.2 0 0 0 .124-.049 3.46 3.46 0 0 0 .6-.604c.057-.074.057-.145 0-.21a3.383 3.383 0 0 0-.634-.626.168.168 0 0 0-.09-.03zM32.415 23.27a.033.033 0 0 1-.033-.033v-7.988c0-.029.006-.038.045-.038.09 0 .896.507 1.157.795.194.213.304.503.304.795l.001 6.436a.034.034 0 0 1-.033.033h-1.441zm-2.669 0a.034.034 0 0 1-.033-.033v-3.242c0-.72-.245-1.029-.818-1.029-.205 0-.453.077-.699.216-.243.142-.435.26-.503.3a.101.101 0 0 0-.04.072v3.683a.034.034 0 0 1-.034.033h-1.446a.034.034 0 0 1-.033-.033V18.02c0-.085.07-.154.155-.154h1.325c.018 0 .034.015.034.033v.41c0 .024.02.044.045.044.01 0 .022-.005.026-.008l.044-.032c.161-.124.409-.265.577-.329a3.15 3.15 0 0 1 1.07-.218c1.181 0 1.806.679 1.806 1.962v3.508a.033.033 0 0 1-.033.033h-1.443zm-8.33-1.658c0 1.147-.825 1.776-2.43 1.776-.92 0-1.892-.322-1.9-.325a.179.179 0 0 1-.119-.167v-1.069c0-.035.03-.063.067-.063l.021.004c.344.11 1.456.386 2.047.386.35 0 .533-.052.65-.17a.365.365 0 0 0 .118-.27c0-.35-.439-.446-.863-.54-.053-.01-.03-.005-.173-.039-.93-.22-1.912-.446-1.912-1.645 0-.531.223-.973.64-1.279.415-.305 1.014-.466 1.734-.466.646 0 1.412.213 1.67.295a.18.18 0 0 1 .127.17v1.066c-.003.05-.055.072-.09.058-.737-.276-1.411-.372-1.895-.372-.384 0-.632.167-.632.424 0 .298.363.38.824.482.056.013.307.07.374.084.376.083.766.168 1.086.377.44.29.655.71.655 1.283zm-12.762-1.06c0-.667-.432-1.293-1.572-1.293h-.605a.053.053 0 0 0-.052.053v2.51c0 .03.023.054.052.054h.635c1.358 0 1.542-.944 1.542-1.324zm-3.775-2.53c0-.098.079-.175.176-.175H7.11c2.02 0 3.068 1.214 3.068 2.783 0 1.572-1.172 2.66-3.101 2.66h-.602a.053.053 0 0 0-.052.053v2.545c0 .043-.019.057-.064.057-.105 0-.919-.523-1.172-.8-.19-.21-.31-.501-.31-.808V18.02zm18.878-.227c0 .029.023.052.052.052h1.188c.094 0 .17.077.17.17l.001 1.027c0 .03-.023.053-.053.053h-1.306a.052.052 0 0 0-.052.053v1.995c0 .764.289.992.773.992.227 0 .583-.139.635-.139.03 0 .053.023.053.053v.984a.169.169 0 0 1-.088.15c-.216.116-.579.195-1.114.195-.935 0-1.805-.47-1.805-1.976v-3.469c0-.307.12-.599.31-.808.253-.278 1.066-.8 1.171-.8.046 0 .064.013.064.056v1.412zm-10.167 4.252c-.699 0-1.223-.532-1.223-1.48 0-1.031.524-1.482 1.223-1.482.696 0 1.22.451 1.22 1.482 0 .948-.524 1.48-1.22 1.48zm0-4.302c-1.564 0-2.823.868-2.823 2.822 0 1.91 1.26 2.822 2.823 2.822 1.559 0 2.82-.912 2.82-2.821 0-1.954-1.261-2.823-2.82-2.823z"/>
</svg>
