<svg xmlns="http://www.w3.org/2000/svg" xmlns:xlink="http://www.w3.org/1999/xlink" width="120" height="120" viewBox="0 0 120 120">
    <defs>
        <path id="9qle6ejzna" d="M6.777 2.689c-1.315.096-1.463 2.12-1.336 3.082-.054.622-.06 1.104-.06 1.185 0 .023.008.09.021.19-.27.111-.503.372-.558.933-.022.342.06.683.237.981.091.395.335.821.752.889.052.186.114.37.181.547.32.82.754 1.556 1.309 2.088 0 .104-.01.207-.02.301-.063.615.123 1.065-1.646 1.808-1.768.742-4.428 1.533-4.975 2.728-.131.304-.237.62-.317.94h19.04c-.064-.325-.165-.643-.303-.946-.54-1.194-3.207-1.985-4.975-2.726-1.769-.74-1.526-1.19-1.59-1.808-.011-.105-.018-.22-.021-.335.553-.58.982-1.262 1.26-2.006l.021-.054c.068-.175.128-.358.18-.545.405-.078.642-.498.732-.885.177-.297.26-.64.238-.982-.043-.44-.2-.697-.394-.839.027-.18.042-.36.044-.54 0-.437.1-.883.037-1.347l.145-.01c1.063-.304.49-1.703.38-1.773-1.12.104-.184-.388-2.605-2.323-.786-.629-1.616-.886-2.397-.886-1.626 0-3.037 1.118-3.38 2.333z"/>
        <path id="sy44ts5kuc" d="M6.687 2.689c-1.316.096-1.463 2.12-1.338 3.082-.052.622-.06 1.104-.06 1.185 0 .023.01.09.023.19-.27.111-.503.372-.558.933-.022.342.06.683.236.981.092.395.335.821.752.889.052.186.115.37.182.547.32.82.754 1.556 1.308 2.088 0 .104-.01.207-.019.301-.063.615.123 1.065-1.646 1.808-1.768.742-4.43 1.533-4.976 2.728-.13.304-.238.62-.316.94h19.039c-.063-.325-.165-.643-.302-.946-.54-1.194-3.207-1.985-4.976-2.726-1.769-.74-1.527-1.19-1.59-1.808-.011-.105-.017-.22-.02-.335.553-.58.982-1.262 1.26-2.006l.02-.054c.068-.175.129-.358.18-.545.406-.078.642-.498.733-.885.176-.297.26-.64.238-.982-.044-.44-.2-.697-.394-.839.026-.18.04-.36.044-.54 0-.437.1-.883.037-1.347l.144-.01c1.063-.304.49-1.703.38-1.773-1.12.104-.183-.388-2.604-2.323-.786-.629-1.616-.886-2.397-.886-1.626 0-3.038 1.118-3.38 2.333z"/>
        <path id="v4s5eofrxe" d="M6.704 2.397c-1.316.096-1.463 2.119-1.337 3.081-.053.623-.06 1.105-.06 1.185 0 .024.008.09.022.191-.27.111-.503.372-.558.932-.022.343.06.684.237.982.09.395.335.821.752.888.051.187.114.372.181.548.32.82.754 1.556 1.308 2.088 0 .104-.01.207-.019.301-.063.615.123 1.065-1.646 1.808-1.768.741-4.429 1.532-4.975 2.727-.132.305-.238.62-.317.94h19.04c-.064-.325-.166-.643-.304-.945-.54-1.194-3.206-1.985-4.974-2.727-1.769-.74-1.527-1.19-1.59-1.807-.012-.105-.018-.22-.021-.336.553-.579.981-1.261 1.26-2.005l.02-.054c.069-.175.13-.358.18-.545.406-.078.642-.498.733-.885.176-.297.26-.64.238-.982-.044-.44-.2-.697-.395-.84.027-.178.042-.359.045-.54 0-.436.1-.883.037-1.346l.143-.011c1.063-.304.491-1.702.382-1.773-1.12.105-.184-.387-2.605-2.322-.786-.629-1.616-.886-2.397-.886C8.458.063 7.046 1.18 6.704 2.397z"/>
        <path id="wlul86r1cg" d="M6.614 2.397c-1.316.096-1.464 2.119-1.338 3.081-.052.623-.06 1.105-.06 1.185 0 .024.009.09.022.191-.27.111-.502.372-.557.932-.022.343.06.684.236.982.091.395.335.821.752.888.051.187.114.372.18.548.322.82.756 1.556 1.31 2.088 0 .104-.01.207-.02.301-.063.615.124 1.065-1.645 1.808-1.768.741-4.43 1.532-4.975 2.727-.133.305-.239.62-.318.94h19.04c-.063-.325-.165-.643-.303-.945-.54-1.194-3.206-1.985-4.975-2.727-1.77-.74-1.526-1.19-1.59-1.807-.01-.105-.017-.22-.02-.336.553-.579.98-1.261 1.259-2.005l.022-.054c.067-.175.128-.358.179-.545.405-.078.641-.498.732-.885.177-.297.26-.64.238-.982-.043-.44-.2-.697-.395-.84.028-.178.043-.359.045-.54 0-.436.1-.883.036-1.346l.145-.011c1.063-.304.491-1.702.381-1.773-1.12.105-.184-.387-2.605-2.322C11.605.32 10.774.064 9.993.064 8.367.063 6.956 1.18 6.613 2.397z"/>
        <path id="79mko8nm1i" d="M6.524 2.397c-1.316.096-1.464 2.119-1.338 3.081-.053.623-.06 1.105-.06 1.185 0 .024.009.09.022.191-.27.111-.503.372-.559.932-.02.343.061.684.237.982.092.395.335.821.753.888.05.187.114.372.18.548.321.82.755 1.556 1.309 2.088 0 .104-.01.207-.02.301-.062.615.125 1.065-1.645 1.808-1.769.741-4.43 1.532-4.975 2.727-.131.305-.238.62-.317.94h19.04c-.064-.325-.166-.643-.303-.945-.54-1.194-3.207-1.985-4.976-2.727-1.769-.74-1.526-1.19-1.59-1.807-.011-.105-.017-.22-.02-.336.553-.579.982-1.261 1.259-2.005l.021-.054c.068-.175.128-.358.18-.545.406-.078.642-.498.733-.885.177-.297.26-.64.238-.982-.044-.44-.2-.697-.395-.84.027-.178.041-.359.045-.54 0-.436.1-.883.036-1.346l.145-.011c1.063-.304.49-1.702.38-1.773-1.119.105-.183-.387-2.604-2.322C11.514.32 10.683.064 9.903.064 8.276.063 6.866 1.18 6.523 2.397z"/>
        <path id="s284wuyjmk" d="M6.485 2.55c-1.315.097-1.463 2.12-1.337 3.082-.053.623-.06 1.105-.06 1.185 0 .024.008.092.022.191-.27.111-.503.373-.558.932-.022.343.06.685.236.982.092.395.336.821.753.889.051.187.113.37.18.548.32.82.755 1.555 1.31 2.087 0 .104-.01.207-.02.301-.064.615.123 1.065-1.646 1.808-1.769.742-4.429 1.532-4.975 2.727-.132.306-.238.62-.317.942h19.039c-.063-.326-.164-.643-.302-.947-.54-1.194-3.207-1.985-4.975-2.726-1.77-.741-1.527-1.191-1.59-1.808-.012-.105-.018-.219-.021-.335.553-.58.982-1.262 1.26-2.006l.02-.054c.069-.175.129-.358.18-.545.406-.078.642-.498.733-.885.177-.297.259-.638.238-.981-.044-.442-.2-.698-.395-.84.028-.18.042-.36.044-.54 0-.436.1-.884.037-1.347l.145-.01c1.063-.304.491-1.702.381-1.774-1.12.105-.184-.387-2.605-2.322-.786-.629-1.616-.886-2.397-.886C8.24.217 6.828 1.335 6.485 2.55z"/>
        <path id="wmzu8karbm" d="M6.794 2.55c-1.315.097-1.462 2.12-1.337 3.082-.053.623-.06 1.105-.06 1.185 0 .024.009.092.022.191-.27.111-.503.373-.558.932-.022.343.06.685.237.982.092.395.335.821.752.889.052.187.114.37.182.548.32.82.753 1.555 1.308 2.087 0 .104-.01.207-.02.301-.063.615.124 1.065-1.646 1.808-1.768.742-4.428 1.532-4.975 2.727-.131.306-.238.62-.316.942H19.42c-.062-.326-.165-.643-.301-.947-.54-1.194-3.208-1.985-4.976-2.726-1.769-.741-1.527-1.191-1.59-1.808-.011-.105-.018-.219-.02-.335.553-.58.982-1.262 1.259-2.006l.021-.054c.068-.175.128-.358.18-.545.405-.078.642-.498.733-.885.176-.297.259-.638.238-.981-.044-.442-.201-.698-.395-.84.026-.18.041-.36.044-.54 0-.436.1-.884.037-1.347l.145-.01c1.063-.304.49-1.702.38-1.774-1.12.105-.183-.387-2.604-2.322-.786-.629-1.617-.886-2.397-.886C8.548.217 7.137 1.335 6.795 2.55z"/>
        <path id="t7khvlh39o" d="M6.704 2.55c-1.316.097-1.463 2.12-1.337 3.082-.053.623-.06 1.105-.06 1.185 0 .024.008.092.022.191-.27.111-.503.373-.558.932-.022.343.06.685.237.982.09.395.335.821.752.889.051.187.114.37.181.548.32.82.754 1.555 1.308 2.087 0 .104-.01.207-.019.301-.063.615.123 1.065-1.646 1.808-1.768.742-4.429 1.532-4.975 2.727-.132.306-.238.62-.317.942h19.04c-.064-.326-.166-.643-.304-.947-.54-1.194-3.206-1.985-4.974-2.726-1.769-.741-1.527-1.191-1.59-1.808-.012-.105-.018-.219-.021-.335.553-.58.981-1.262 1.26-2.006l.02-.054c.069-.175.13-.358.18-.545.406-.078.642-.498.733-.885.176-.297.26-.638.238-.981-.044-.442-.2-.698-.395-.84.027-.18.042-.36.045-.54 0-.436.1-.884.037-1.347l.143-.01c1.063-.304.491-1.702.382-1.774-1.12.105-.184-.387-2.605-2.322-.786-.629-1.616-.886-2.397-.886C8.458.217 7.046 1.335 6.704 2.55z"/>
        <path id="n8myqh0odq" d="M6.614 2.55c-1.316.097-1.464 2.12-1.338 3.082-.052.623-.06 1.105-.06 1.185 0 .024.009.092.022.191-.27.111-.502.373-.557.932-.022.343.06.685.236.982.091.395.335.821.752.889.051.187.114.37.18.548.322.82.756 1.555 1.31 2.087 0 .104-.01.207-.02.301-.063.615.124 1.065-1.645 1.808-1.768.742-4.43 1.532-4.975 2.727-.133.306-.239.62-.318.942h19.04c-.063-.326-.165-.643-.303-.947-.54-1.194-3.206-1.985-4.975-2.726-1.77-.741-1.526-1.191-1.59-1.808-.01-.105-.017-.219-.02-.335.553-.58.98-1.262 1.259-2.006l.022-.054c.067-.175.128-.358.179-.545.405-.078.641-.498.732-.885.177-.297.26-.638.238-.981-.043-.442-.2-.698-.395-.84.028-.18.043-.36.045-.54 0-.436.1-.884.036-1.347l.145-.01c1.063-.304.491-1.702.381-1.774-1.12.105-.184-.387-2.605-2.322-.785-.629-1.616-.886-2.397-.886C8.367.217 6.956 1.335 6.613 2.55z"/>
        <path id="pcod39y4ns" d="M6.524 2.55c-1.316.097-1.464 2.12-1.338 3.082-.053.623-.06 1.105-.06 1.185 0 .024.009.092.022.191-.27.111-.503.373-.559.932-.02.343.061.685.237.982.092.395.335.821.753.889.05.187.114.37.18.548.321.82.755 1.555 1.309 2.087 0 .104-.01.207-.02.301-.062.615.125 1.065-1.645 1.808-1.769.742-4.43 1.532-4.975 2.727-.131.306-.238.62-.317.942h19.04c-.064-.326-.166-.643-.303-.947-.54-1.194-3.207-1.985-4.976-2.726-1.769-.741-1.526-1.191-1.59-1.808-.011-.105-.017-.219-.02-.335.553-.58.982-1.262 1.259-2.006l.021-.054c.068-.175.128-.358.18-.545.406-.078.642-.498.733-.885.177-.297.26-.638.238-.981-.044-.442-.2-.698-.395-.84.027-.18.041-.36.045-.54 0-.436.1-.884.036-1.347l.145-.01c1.063-.304.49-1.702.38-1.774-1.119.105-.183-.387-2.604-2.322-.786-.629-1.617-.886-2.397-.886C8.276.217 6.866 1.335 6.523 2.55z"/>
    </defs>
    <g fill="none" fill-rule="evenodd">
        <g>
            <path fill="#D4D9E3" d="M0.293 65.779L109.771 65.779 109.771 0.018 0.293 0.018z" transform="translate(4 26.8)"/>
            <path fill="#F3F4F7" d="M2.478 65.779L111.957 65.779 111.957 0.018 2.478 0.018z" transform="translate(4 26.8)"/>
            <path fill="#FCD6AD" d="M5.652 32.115L24.691 32.115 24.691 7.847 5.652 7.847z" transform="translate(4 26.8)"/>
            <path fill="#F9B112" d="M5.652 32.115L24.691 32.115 24.691 24.287 5.652 24.287z" transform="translate(4 26.8)"/>
            <path fill="#FCD6AD" d="M26.279 32.115L45.317 32.115 45.317 7.847 26.279 7.847zM46.905 32.115L65.944 32.115 65.944 7.847 46.905 7.847zM67.531 32.115L86.57 32.115 86.57 7.847 67.531 7.847zM88.157 32.115L107.196 32.115 107.196 7.847 88.157 7.847zM5.652 57.951L24.691 57.951 24.691 33.682 5.652 33.682zM26.279 57.951L45.317 57.951 45.317 33.682 26.279 33.682zM46.905 57.951L65.944 57.951 65.944 33.682 46.905 33.682zM67.531 57.951L86.57 57.951 86.57 33.682 67.531 33.682zM88.157 57.951L107.196 57.951 107.196 33.682 88.157 33.682z" transform="translate(4 26.8)"/>
            <path fill="#F9B112" d="M26.279 32.115L45.317 32.115 45.317 24.287 26.279 24.287zM46.905 32.115L65.944 32.115 65.944 24.287 46.905 24.287zM67.531 32.115L86.57 32.115 86.57 24.287 67.531 24.287zM88.157 32.115L107.196 32.115 107.196 24.287 88.157 24.287zM88.157 57.951L107.196 57.951 107.196 50.122 88.157 50.122zM67.531 57.951L86.57 57.951 86.57 50.122 67.531 50.122zM46.905 57.951L65.944 57.951 65.944 50.122 46.905 50.122zM26.279 57.951L45.317 57.951 45.317 50.122 26.279 50.122zM5.652 57.951L24.691 57.951 24.691 50.122 5.652 50.122z" transform="translate(4 26.8)"/>
            <g transform="translate(4 26.8) translate(5.287 13.754)">
                <mask id="83w8i2jwgb" fill="#fff">
                    <use xlink:href="#9qle6ejzna"/>
                </mask>
                <path fill="#27324C" d="M-2.398 21.102L22.167 21.102 22.167 -2.384 -2.398 -2.384z" mask="url(#83w8i2jwgb)"/>
            </g>
            <g transform="translate(4 26.8) translate(26.004 13.754)">
                <mask id="pjx5xclg1d" fill="#fff">
                    <use xlink:href="#sy44ts5kuc"/>
                </mask>
                <path fill="#27324C" d="M-2.488 21.102L22.077 21.102 22.077 -2.384 -2.488 -2.384z" mask="url(#pjx5xclg1d)"/>
            </g>
            <g transform="translate(4 26.8) translate(46.613 14.047)">
                <mask id="uktn1kei9f" fill="#fff">
                    <use xlink:href="#v4s5eofrxe"/>
                </mask>
                <path fill="#27324C" d="M-2.471 20.81L22.094 20.81 22.094 -2.677 -2.471 -2.677z" mask="url(#uktn1kei9f)"/>
            </g>
            <g transform="translate(4 26.8) translate(67.33 14.047)">
                <mask id="w888plkehh" fill="#fff">
                    <use xlink:href="#wlul86r1cg"/>
                </mask>
                <path fill="#27324C" d="M-2.562 20.81L22.003 20.81 22.003 -2.677 -2.562 -2.677z" mask="url(#w888plkehh)"/>
            </g>
            <g transform="translate(4 26.8) translate(88.046 14.047)">
                <mask id="ute8cqrb5j" fill="#fff">
                    <use xlink:href="#79mko8nm1i"/>
                </mask>
                <path fill="#27324C" d="M-2.652 20.81L21.913 20.81 21.913 -2.677 -2.652 -2.677z" mask="url(#ute8cqrb5j)"/>
            </g>
            <g transform="translate(4 26.8) translate(5.58 39.727)">
                <mask id="qu6qtw8m1l" fill="#fff">
                    <use xlink:href="#s284wuyjmk"/>
                </mask>
                <path fill="#27324C" d="M-2.69 20.964L21.875 20.964 21.875 -2.522 -2.69 -2.522z" mask="url(#qu6qtw8m1l)"/>
            </g>
            <g transform="translate(4 26.8) translate(25.896 39.727)">
                <mask id="zy1aglsyfn" fill="#fff">
                    <use xlink:href="#wmzu8karbm"/>
                </mask>
                <path fill="#27324C" d="M-2.38 20.964L22.185 20.964 22.185 -2.522 -2.38 -2.522z" mask="url(#zy1aglsyfn)"/>
            </g>
            <g transform="translate(4 26.8) translate(46.613 39.727)">
                <mask id="lbf93ggkyp" fill="#fff">
                    <use xlink:href="#t7khvlh39o"/>
                </mask>
                <path fill="#27324C" d="M-2.471 20.964L22.094 20.964 22.094 -2.522 -2.471 -2.522z" mask="url(#lbf93ggkyp)"/>
            </g>
            <g transform="translate(4 26.8) translate(67.33 39.727)">
                <mask id="3dbbcvg0wr" fill="#fff">
                    <use xlink:href="#n8myqh0odq"/>
                </mask>
                <path fill="#27324C" d="M-2.562 20.964L22.003 20.964 22.003 -2.522 -2.562 -2.522z" mask="url(#3dbbcvg0wr)"/>
            </g>
            <g transform="translate(4 26.8) translate(88.046 39.727)">
                <mask id="1xw6pabtlt" fill="#fff">
                    <use xlink:href="#pcod39y4ns"/>
                </mask>
                <path fill="#27324C" d="M-2.652 20.964L21.913 20.964 21.913 -2.522 -2.652 -2.522z" mask="url(#1xw6pabtlt)"/>
            </g>
        </g>
    </g>
</svg>
