<svg xmlns="http://www.w3.org/2000/svg" width="120" height="120" viewBox="0 0 120 120">
    <g fill="none" fill-rule="evenodd">
        <path fill="#000" fill-opacity=".2" d="M89.085 62.846c-2.874-2.218-20.796-3.925-42.489-3.925-21.694 0-43.553 1.707-46.429 3.925h88.918z" transform="translate(4 28)"/>
        <path fill="#FEE3C8" d="M19.55 62.846L89.119 62.846 89.119 16.781 19.55 16.781z" transform="translate(4 28)"/>
        <path fill="#ADD8F5" d="M68.096 62.846L80.106 62.846 80.106 32.436 68.096 32.436zM45.113 62.846L64.225 62.846 64.225 32.436 45.113 32.436z" transform="translate(4 28)"/>
        <path fill="#C9E5F8" d="M45.113 32.392L64.225 32.392 45.113 62.802z" transform="translate(4 28)"/>
        <path fill="#E75204" d="M83.89 0.287L93.31 19.278 41.55 19.278 42.917 0.287z" transform="translate(4 28)"/>
        <path fill="#F3F4F7" d="M108.232 41.506L85.289 41.506 85.289 18.659 108.232 5.567z" transform="translate(4 28)"/>
        <g>
            <path fill="#ED8C00" d="M9.674 12.492c-3.474 1.823-6.273 2.529-7.458 1.875-1.42-.784-2.087-4.114-2.087-7C.13 4.481.796 1.152 2.216.368 3.4-.286 6.2.418 9.674 2.242c2.125 1.116 5.073 3.47 5.073 5.125 0 1.657-2.948 4.009-5.073 5.125" transform="translate(4 28) translate(89.6 22)"/>
            <path fill="#ADB5C5" d="M3.36.261c-.446 0-.811.073-1.081.221C.894 1.248.26 4.588.26 7.367s.63 6.119 2.018 6.885c1.133.625 3.942-.096 7.334-1.876 2.018-1.059 5.003-3.383 5.003-5.01 0-1.624-2.985-3.948-5.003-5.008C7.029 1.002 4.783.261 3.36.261m.004 14.473c-.495 0-.904-.083-1.21-.253C.664 13.66-.001 10.315 0 7.367 0 4.417.666 1.074 2.154.254c1.223-.679 4.059.023 7.58 1.873 2.136 1.12 5.143 3.488 5.143 5.24 0 1.753-3.007 4.12-5.142 5.241-2.64 1.385-4.892 2.125-6.37 2.126" transform="translate(4 28) translate(89.6 22)"/>
            <path fill="#F3F4F7" d="M11.074 8.636c-.008 0-.013-.007-.013-.014v-1.21c0-.27-.09-.384-.305-.384-.076 0-.169.028-.26.08l-.189.113c-.007.005-.014.016-.014.027v1.374c0 .007-.006.014-.013.014h-.54c-.006 0-.012-.007-.012-.014V6.676c0-.033.027-.058.059-.058h.493c.007 0 .013.005.013.012v.153c0 .01.007.016.016.016l.01-.002.016-.012c.06-.047.153-.099.216-.123.135-.052.28-.082.399-.082.44 0 .674.254.674.733v1.31c0 .006-.006.013-.013.013h-.537zM12.07 8.636c-.008 0-.014-.007-.014-.014V5.64c0-.01.002-.014.018-.014.033 0 .333.189.431.297.072.08.113.188.113.296v2.403c0 .007-.005.014-.012.014h-.537zM5.915 5.68H4.182c-.061 0-.113.05-.113.112v.218c0 .068.03.101.09.101h1.778c.06 0 .09-.033.09-.1v-.22c0-.06-.051-.111-.112-.111M4.428 4.248c-.014 0-.028.001-.041.006l-.01.002c-.064.014-.135.031-.21.054-.057.018-.121.04-.19.064-.211.079-.2.237-.162.382.022.082.122.362.207.598l.035.099c.012.03.037.046.076.046h.236c.03 0 .046-.013.054-.023.012-.016.013-.038.004-.066-.058-.179-.252-.725-.254-.73-.005-.014-.004-.034.003-.048.003-.009.01-.018.021-.022l.099-.033.012-.001c.01 0 .015.004.015.006.041.09.064.153.094.256.006.02.022.042.064.042h.192c.021 0 .037-.006.046-.019.01-.012.012-.03.006-.05-.05-.18-.101-.322-.17-.478-.013-.026-.047-.085-.127-.085m1.239 0c-.056 0-.102.03-.127.085-.07.157-.121.3-.17.478-.006.02-.004.037.006.05.006.008.019.02.045.02h.19c.045 0 .06-.024.066-.043.03-.105.054-.167.094-.256 0 0 .004-.006.015-.006.005 0 .01 0 .014.002l.097.032c.011.004.018.013.022.021.007.015.008.035.002.05-.001.003-.195.548-.253.73-.01.027-.008.05.004.065.01.015.028.023.054.023h.235c.039 0 .065-.016.077-.046.007-.024.02-.059.034-.1l.005-.014c.072-.198.179-.498.202-.583.038-.145.05-.303-.162-.381-.068-.025-.13-.047-.19-.065-.074-.023-.146-.04-.21-.054l-.007-.002c-.015-.005-.03-.006-.043-.006m-.62-.066l-.136.003c-.017 0-.032.006-.045.018-.016.017-.022.044-.022.062 0 .094.008.586.012.9l.003.265c0 .022.016.069.067.069h.244c.035 0 .06-.026.065-.067V5.43l.016-1.15v-.015c0-.014-.004-.043-.023-.062-.012-.012-.027-.018-.045-.018l-.136-.003m0-.732c-.01 0-.019.003-.031.01-.091.069-.171.148-.24.236-.02.024-.02.05 0 .077.068.086.142.162.225.227.015.011.031.018.046.018.016 0 .032-.007.046-.019.084-.064.159-.14.225-.225.021-.028.021-.054 0-.079-.068-.087-.148-.166-.237-.234-.014-.008-.023-.011-.034-.011" transform="translate(4 28) translate(89.6 22)"/>
            <path fill="#001A73" d="M5.048 8.179c-.26 0-.456-.199-.456-.553 0-.385.195-.554.456-.554.259 0 .455.169.455.554 0 .354-.196.553-.455.553m0-1.607c-.584 0-1.054.324-1.054 1.054 0 .713.47 1.054 1.054 1.054.581 0 1.051-.341 1.051-1.053 0-.73-.47-1.055-1.051-1.055M8.84 6.063c0-.015-.008-.02-.024-.02-.04 0-.342.195-.438.298-.07.079-.115.187-.115.302v1.295c0 .563.325.739.673.739.2 0 .335-.029.415-.074.018-.009.034-.028.034-.055V8.18c0-.011-.01-.019-.02-.019-.02 0-.152.052-.237.052-.18 0-.289-.086-.289-.37v-.746c0-.01.01-.02.02-.02h.487c.012 0 .02-.009.02-.02v-.383c0-.035-.028-.064-.064-.064h-.443c-.01 0-.02-.009-.02-.019v-.528zM3.207 7.62c0-.249-.16-.482-.586-.482h-.226c-.01 0-.02.008-.02.02v.937c0 .01.01.02.02.02h.237c.507 0 .575-.352.575-.495zm-1.408-.944c0-.037.03-.066.066-.066h.767c.753 0 1.144.453 1.144 1.04s-.437.993-1.157.993h-.224c-.01 0-.02.009-.02.02v.95c0 .016-.006.021-.023.021-.04 0-.343-.195-.437-.298-.071-.078-.116-.188-.116-.302V6.676zM7.722 7.538c-.12-.08-.265-.11-.405-.142l-.14-.031c-.171-.038-.307-.07-.307-.18 0-.097.092-.159.236-.159.18 0 .431.037.706.14.013.005.033-.003.034-.022v-.398c0-.028-.017-.054-.048-.064-.095-.03-.381-.11-.622-.11-.269 0-.492.06-.647.174-.155.114-.239.28-.239.478 0 .447.367.532.714.614l.065.015c.157.034.32.071.32.201 0 .04-.013.072-.043.102-.044.043-.112.063-.243.063-.22 0-.635-.104-.762-.145h-.007c-.016 0-.027.01-.027.023v.399c0 .028.017.052.045.062.002.002.365.122.708.122.599 0 .907-.235.907-.664 0-.214-.081-.37-.245-.478" transform="translate(4 28) translate(89.6 22)"/>
        </g>
        <path fill="#FED732" d="M74.101 25.807c0 .469-.38.848-.848.848-.47 0-.849-.38-.849-.848 0-.468.38-.847.85-.847.468 0 .847.379.847.847" transform="translate(4 28)"/>
        <path fill="#000" fill-opacity=".201" d="M108.203 6.316L108.232 5.567 85.289 18.659 85.26 20.137z" opacity=".36" transform="translate(4 28)"/>
        <path fill="#F9B112" d="M73.521 26.655L72.638 25.193 109.471 3.004 110.354 4.466z" transform="translate(4 28)"/>
        <path fill="#E75204" d="M111.812 4.157c.264.443.119 1.016-.325 1.279-.443.264-1.016.118-1.28-.325l-1.312-2.2c-.263-.442-.118-1.016.326-1.278.442-.265 1.016-.12 1.28.324l1.31 2.2z" transform="translate(4 28)"/>
        <path fill="#F8BC78" d="M17.987 62.846L40.38 62.846 40.38 16.781 17.987 16.781z" transform="translate(4 28)"/>
        <path fill="#D23416" d="M23.126 0.287L14.332 19.278 42.97 19.278 42.887 0.287z" transform="translate(4 28)"/>
        <path fill="#F8BC78" d="M18.03 22.731L40.337 22.731 40.337 19.23 18.03 19.23z" transform="translate(4 28)"/>
    </g>
</svg>
