<svg xmlns="http://www.w3.org/2000/svg" width="120" height="120" viewBox="0 0 120 120">
    <g fill="none" fill-rule="evenodd">
        <g fill-rule="nonzero">
            <path fill="#00A1E1" d="M5.209 35.563c.265 16.657 13.594 29.922 30.086 29.922 16.658 0 30.09-13.535 30.09-30.428 0-16.4-13.514-29.852-30.09-29.852-16.41 0-29.82 13.184-30.086 29.36l-.004.492.004.506zm-4.81-1.077C.71 15.686 16.26.396 35.296.396c19.227 0 34.9 15.6 34.9 34.66 0 19.542-15.577 35.239-34.9 35.239C16.165 70.295.707 54.91.4 35.642l-.005-.585.005-.571z" transform="translate(3.6 12.8)"/>
            <g fill="#3440B6">
                <path d="M17.675.519c.473-.478 1.243-.483 1.721-.01.46.453.482 1.183.064 1.664l-.053.056L2.082 19.774c-.472.478-1.243.483-1.72.01-.46-.453-.483-1.183-.064-1.664l.052-.056L17.675.519z" transform="translate(3.6 12.8) translate(32.723 17.577)"/>
                <path d="M.383 18.032c.47-.442 1.2-.437 1.665 0l.055.054L13.97 30.714c.46.49.437 1.26-.053 1.72-.471.443-1.201.438-1.666.001l-.054-.054L.329 19.752c-.46-.49-.436-1.26.054-1.72z" transform="translate(3.6 12.8) translate(32.723 17.577)"/>
            </g>
        </g>
        <g>
            <path fill="#000" fill-opacity=".2" d="M71.268 50.276c-2.3-1.773-16.637-3.14-33.99-3.14-17.356 0-34.843 1.367-37.144 3.14h71.134z" transform="translate(26.4 60.8)"/>
            <path fill="#FEE3C8" d="M15.64 50.277L71.295 50.277 71.295 13.425 15.64 13.425z" transform="translate(26.4 60.8)"/>
            <path fill="#ADD8F5" d="M54.477 50.277L64.085 50.277 64.085 25.949 54.477 25.949zM36.09 50.277L51.38 50.277 51.38 25.949 36.09 25.949z" transform="translate(26.4 60.8)"/>
            <path fill="#C9E5F8" d="M36.091 25.913L51.38 25.913 36.091 50.242z" transform="translate(26.4 60.8)"/>
            <path fill="#E75204" d="M67.112 0.229L74.648 15.422 33.24 15.422 34.334 0.229z" transform="translate(26.4 60.8)"/>
            <path fill="#F3F4F7" d="M86.585 33.205L68.231 33.205 68.231 14.927 86.585 4.454z" transform="translate(26.4 60.8)"/>
            <g>
                <path fill="#ED8C00" d="M7.74 9.994c-2.78 1.458-5.019 2.022-5.967 1.5-1.136-.628-1.67-3.291-1.67-5.6C.104 3.585.637.92 1.773.294c.948-.523 3.187.041 5.966 1.5 1.7.893 4.059 2.775 4.059 4.1 0 1.325-2.359 3.207-4.059 4.1" transform="translate(26.4 60.8) translate(71.68 17.6)"/>
                <path fill="#ADB5C5" d="M2.688.209c-.357 0-.649.058-.865.177C.715.998.21 3.67.21 5.893c0 2.224.504 4.895 1.614 5.509.906.5 3.154-.077 5.867-1.501 1.615-.847 4.003-2.707 4.003-4.008 0-1.3-2.388-3.159-4.003-4.007C5.623.801 3.826.21 2.688.21m.004 11.578c-.397 0-.724-.066-.969-.202C.531 10.927-.001 8.252 0 5.893 0 3.534.533.86 1.723.203 2.702-.34 4.97.22 7.788 1.7c1.708.897 4.114 2.79 4.114 4.192 0 1.403-2.406 3.297-4.114 4.194-2.112 1.108-3.914 1.7-5.096 1.7" transform="translate(26.4 60.8) translate(71.68 17.6)"/>
                <path fill="#F3F4F7" d="M8.859 6.909c-.006 0-.01-.005-.01-.011V5.93c0-.216-.072-.308-.244-.308-.06 0-.135.023-.208.065l-.151.09c-.006.004-.012.013-.012.021v1.1c0 .006-.005.01-.01.01h-.432c-.005 0-.01-.004-.01-.01V5.34c0-.025.022-.046.047-.046h.395c.006 0 .01.005.01.01v.123c0 .008.006.013.014.013l.008-.003.012-.01c.049-.036.123-.078.173-.098.108-.041.224-.065.319-.065.353 0 .54.203.54.587v1.047c0 .006-.005.01-.011.01h-.43zM9.656 6.909c-.007 0-.011-.005-.011-.011V4.512c0-.008.002-.011.014-.011.027 0 .267.15.345.237.058.064.09.15.09.238l.001 1.922c0 .006-.005.01-.01.01h-.43zM4.732 4.544H3.346c-.05 0-.09.04-.09.09v.174c0 .054.024.081.071.081H4.75c.048 0 .072-.027.072-.08v-.176c0-.049-.041-.09-.09-.09m-1.19-1.145c-.01 0-.022.002-.033.005l-.008.002c-.05.011-.107.025-.167.043-.046.014-.097.032-.152.051-.17.063-.16.19-.13.306.018.065.098.29.166.478l.028.08c.009.024.03.036.06.036h.189c.025 0 .037-.01.043-.018.01-.013.01-.03.004-.053-.047-.143-.202-.58-.204-.584-.004-.011-.003-.027.003-.039.002-.006.008-.014.017-.017l.078-.026.01-.001c.008 0 .012.003.013.005.032.072.05.122.075.205.004.015.017.033.05.033h.154c.017 0 .03-.005.037-.015.008-.01.01-.024.005-.04-.04-.144-.081-.258-.137-.383-.01-.02-.037-.068-.1-.068m.99 0c-.045 0-.081.025-.1.068-.057.126-.098.24-.138.383-.004.016-.002.03.005.04.005.006.016.015.037.015h.153c.035 0 .047-.018.052-.033.024-.085.043-.134.074-.205.001 0 .004-.005.013-.005l.01.001.079.026c.009.003.014.01.017.017.005.012.007.028.002.04-.001.002-.156.438-.203.583-.007.022-.006.04.003.053.009.012.023.018.044.018h.188c.031 0 .052-.012.061-.037l.028-.079.004-.012c.057-.158.143-.398.161-.466.03-.116.04-.243-.13-.305-.054-.02-.104-.038-.151-.052-.06-.018-.117-.032-.168-.043l-.006-.002c-.012-.003-.024-.005-.034-.005m-.496-.053l-.11.003c-.013 0-.025.005-.035.015-.013.013-.018.034-.018.049 0 .075.006.469.01.72 0 .122.002.209.002.212 0 .018.013.055.053.055h.196c.028 0 .049-.02.052-.053v-.002l.013-.92v-.012c0-.011-.004-.034-.019-.05-.01-.01-.021-.014-.036-.014l-.108-.003m0-.585c-.009 0-.015.003-.025.008-.073.055-.137.118-.192.19-.016.018-.016.039 0 .06.054.069.113.13.18.182.012.009.025.014.037.014.012 0 .025-.005.037-.014.066-.052.126-.112.18-.181.016-.022.016-.043 0-.063-.055-.07-.119-.133-.19-.187-.011-.006-.018-.009-.027-.009" transform="translate(26.4 60.8) translate(71.68 17.6)"/>
                <path fill="#001A73" d="M4.038 6.543c-.208 0-.364-.159-.364-.442 0-.308.156-.443.364-.443.207 0 .364.135.364.443 0 .283-.157.442-.364.442m0-1.285c-.466 0-.843.259-.843.843 0 .57.377.843.843.843.465 0 .841-.273.841-.843 0-.584-.376-.843-.84-.843M7.072 4.85c0-.012-.006-.016-.02-.016-.031 0-.273.156-.35.239-.056.063-.092.15-.092.242V6.35c0 .45.26.59.539.59.16 0 .268-.023.332-.058.014-.007.027-.023.027-.045v-.294c0-.009-.008-.015-.016-.015-.015 0-.122.041-.19.041-.144 0-.23-.068-.23-.296v-.597c0-.008.007-.015.015-.015h.39c.009 0 .016-.008.016-.016V5.34c0-.028-.023-.051-.052-.051h-.354c-.008 0-.015-.007-.015-.015V4.85zM2.565 6.096c0-.2-.128-.386-.469-.386h-.18c-.009 0-.015.007-.015.016v.75c0 .009.006.016.015.016h.19c.405 0 .46-.282.46-.396zM1.44 5.34c0-.029.024-.052.053-.052h.613c.603 0 .915.363.915.832 0 .47-.349.795-.925.795h-.179c-.009 0-.015.006-.015.015v.76c0 .014-.006.017-.02.017-.031 0-.274-.156-.35-.239-.056-.062-.092-.15-.092-.24V5.34zM6.177 6.03c-.095-.063-.212-.088-.324-.113l-.111-.025c-.137-.03-.246-.055-.246-.144 0-.077.074-.127.189-.127.144 0 .345.03.565.112.01.004.026-.003.027-.018v-.318c0-.023-.014-.043-.039-.052-.076-.024-.304-.087-.497-.087-.215 0-.394.048-.518.139-.124.091-.19.224-.19.382 0 .358.293.426.57.492.042.01.036.008.052.011.126.028.257.057.257.161 0 .032-.011.058-.035.082-.035.034-.09.05-.194.05-.176 0-.508-.083-.61-.115l-.006-.001c-.012 0-.021.008-.021.018v.32c0 .022.014.041.035.05.003 0 .293.097.567.097.48 0 .726-.188.726-.531 0-.171-.065-.297-.197-.383" transform="translate(26.4 60.8) translate(71.68 17.6)"/>
            </g>
            <path fill="#FED732" d="M59.28 20.645c0 .375-.303.679-.677.679-.376 0-.68-.304-.68-.679 0-.374.304-.677.68-.677.374 0 .678.303.678.677" transform="translate(26.4 60.8)"/>
            <path fill="#000" fill-opacity=".201" d="M86.563 5.053L86.585 4.454 68.231 14.927 68.208 16.109z" opacity=".36" transform="translate(26.4 60.8)"/>
            <path fill="#F9B112" d="M58.816 21.324L58.11 20.154 87.577 2.403 88.283 3.572z" transform="translate(26.4 60.8)"/>
            <path fill="#E75204" d="M89.45 3.326c.211.354.095.812-.26 1.023-.354.21-.813.094-1.025-.26l-1.05-1.76c-.21-.354-.093-.813.262-1.023.354-.211.812-.095 1.024.26l1.048 1.76z" transform="translate(26.4 60.8)"/>
            <path fill="#F8BC78" d="M14.389 50.277L32.304 50.277 32.304 13.425 14.389 13.425z" transform="translate(26.4 60.8)"/>
            <path fill="#D23416" d="M18.501 0.229L11.465 15.422 34.376 15.422 34.31 0.229z" transform="translate(26.4 60.8)"/>
            <path fill="#F8BC78" d="M14.424 18.185L32.269 18.185 32.269 15.384 14.424 15.384z" transform="translate(26.4 60.8)"/>
        </g>
        <circle cx="49.6" cy="38" r="4.8" fill="#3440B6"/>
        <circle cx="49.6" cy="38" r="2.4" fill="#FFF"/>
    </g>
</svg>
