<svg xmlns="http://www.w3.org/2000/svg" width="120" height="120" viewBox="0 0 120 120">
    <g fill="none" fill-rule="evenodd">
        <g>
            <path fill="#000" fill-opacity=".201" d="M75.936 46.096c-2.89-2.172-7.465-3.846-29.262-3.846-21.799 0-43.764 1.674-46.654 3.846h75.916z" transform="translate(11.2 36.4)"/>
            <path fill="#F3F4F7" d="M88.895 38.088H12.049c-2.333 0-4.225-1.841-4.225-4.113V4.278c0-2.272 1.892-4.113 4.225-4.113h42.319c9.565 0 12.502 9.675 25.021 17.497 5.022 3.138 13.804 7.151 13.804 9.71v6.603c0 2.272-1.966 4.113-4.298 4.113" transform="translate(11.2 36.4)"/>
            <path fill="#ED8C00" d="M42.433 18.423c-.003-1.636-3.16-4.469-6.523-6.274-3.88-2.082-8.294-3.31-9.749-2.53-1.657.89-2.566 5.336-2.567 8.804.001 3.497.856 7.885 2.567 8.804 1.55.832 5.774-.396 9.75-2.53 3.416-1.834 6.519-4.559 6.522-6.274" transform="translate(11.2 36.4)"/>
            <path fill="#ED8C00" d="M17.906 19.126c0-7.076 5.347-13.622 14.42-18.961H12.049c-2.333 0-4.225 1.841-4.225 4.112v29.7c0 2.27 1.892 4.11 4.225 4.11h20.277c-9.073-5.337-14.42-11.885-14.42-18.96" transform="translate(11.2 36.4)"/>
            <path fill="#27324C" d="M6.569 33.515l-.119.461c0 2.271 1.924 4.112 4.295 4.112h78.151c2.372 0 4.296-1.841 4.296-4.112l-.006-.46H6.57z" transform="translate(11.2 36.4)"/>
            <path fill="#27324C" d="M32.346 38.146c0 4.39-3.656 7.95-8.166 7.95-4.511 0-8.167-3.56-8.167-7.95 0-4.391 3.656-7.951 8.167-7.951 4.51 0 8.166 3.56 8.166 7.95" transform="translate(11.2 36.4)"/>
            <path fill="#EFF0F2" d="M29.208 38.146c0 2.704-2.25 4.895-5.028 4.895-2.778 0-5.029-2.191-5.029-4.895 0-2.705 2.25-4.896 5.029-4.896 2.777 0 5.028 2.191 5.028 4.896" transform="translate(11.2 36.4)"/>
            <path fill="#27324C" d="M83.678 38.146c0 4.39-3.655 7.95-8.166 7.95-4.51 0-8.166-3.56-8.166-7.95 0-4.391 3.656-7.951 8.166-7.951s8.166 3.56 8.166 7.95" transform="translate(11.2 36.4)"/>
            <path fill="#EFF0F2" d="M80.541 38.146c0 2.704-2.251 4.895-5.029 4.895s-5.028-2.191-5.028-4.895c0-2.705 2.25-4.896 5.028-4.896 2.778 0 5.03 2.191 5.03 4.896" transform="translate(11.2 36.4)"/>
            <g>
                <path fill="#ADD8F5" d="M23.036 11.922C16.818 8.037 12.966 3.697 9.49.31H.95c-.514 0-.93.406-.93.905v8.773c0 1.689 1.405 3.058 3.14 3.058h21.763c-.666-.384-1.303-.76-1.886-1.124" transform="translate(11.2 36.4) translate(56.29 5.72)"/>
                <path fill="#E0EFFA" d="M9.49.31H.947C.55.31.216.558.084.9L11 13.046h13.922c-.667-.384-1.303-.76-1.886-1.124C16.82 8.036 12.966 3.697 9.49.31" transform="translate(11.2 36.4) translate(56.29 5.72)"/>
            </g>
            <path fill="#1D2D45" d="M73.046 15.233l-.025.001-.004 4.953c.009 0-.009.001 0 .001.948 0 1.746-1.01 1.746-2.256 0-1.246-.769-2.7-1.717-2.7" transform="translate(11.2 36.4)"/>
            <path fill="#D4D9E3" d="M93.192 32.656L90.129 27.734 93.192 27.734z" transform="translate(11.2 36.4)"/>
        </g>
    </g>
</svg>
